<?xml version="1.0" encoding="UTF-8" standalone="no"?>
<svg
   xmlns:dc="http://purl.org/dc/elements/1.1/"
   xmlns:cc="http://creativecommons.org/ns#"
   xmlns:rdf="http://www.w3.org/1999/02/22-rdf-syntax-ns#"
   xmlns:svg="http://www.w3.org/2000/svg"
   xmlns="http://www.w3.org/2000/svg"
   xmlns:sodipodi="http://sodipodi.sourceforge.net/DTD/sodipodi-0.dtd"
   xmlns:inkscape="http://www.inkscape.org/namespaces/inkscape"
   id="SVGRoot"
   version="1.1"
   viewBox="0 0 128 128"
   height="128"
   width="128"
   sodipodi:docname="icon-computer.svg"
   inkscape:version="0.92.4 5da689c313, 2019-01-14">
  <sodipodi:namedview
     pagecolor="#ffffff"
     bordercolor="#666666"
     borderopacity="1"
     objecttolerance="10"
     gridtolerance="10"
     guidetolerance="10"
     inkscape:pageopacity="0"
     inkscape:pageshadow="2"
     inkscape:window-width="1920"
     inkscape:window-height="1010"
     id="namedview869"
     showgrid="false"
     inkscape:zoom="4.6182912"
     inkscape:cx="81.313731"
     inkscape:cy="54.16986"
     inkscape:window-x="1600"
     inkscape:window-y="28"
     inkscape:window-maximized="1"
     inkscape:current-layer="SVGRoot" />
  <title
     id="title1601">Image </title>
  <defs
     id="defs849" />
  <metadata
     id="metadata852">
    <rdf:RDF>
      <cc:Work
         rdf:about="">
        <dc:format>image/svg+xml</dc:format>
        <dc:type
           rdf:resource="http://purl.org/dc/dcmitype/StillImage" />
        <dc:title>Image </dc:title>
        <dc:date>June 2019</dc:date>
        <dc:creator>
          <cc:Agent>
            <dc:title>Sujaykumar Hublikar</dc:title>
          </cc:Agent>
        </dc:creator>
        <dc:rights>
          <cc:Agent>
            <dc:title>Creative Commons Attribution-NonCommercial-ShareAlike 4.0 International License.</dc:title>
          </cc:Agent>
        </dc:rights>
        <dc:publisher>
          <cc:Agent>
            <dc:title>Sujaykumar Hublikar</dc:title>
          </cc:Agent>
        </dc:publisher>
        <dc:subject>
          <rdf:Bag>
            <rdf:li>image</rdf:li>
          </rdf:Bag>
        </dc:subject>
        <dc:description>Image</dc:description>
        <dc:contributor>
          <cc:Agent>
            <dc:title>https://github.com/Sujaykumarh</dc:title>
          </cc:Agent>
        </dc:contributor>
        <cc:license
           rdf:resource="http://creativecommons.org/licenses/by-nc-sa/4.0/" />
      </cc:Work>
      <cc:License
         rdf:about="http://creativecommons.org/licenses/by-nc-sa/4.0/">
        <cc:permits
           rdf:resource="http://creativecommons.org/ns#Reproduction" />
        <cc:permits
           rdf:resource="http://creativecommons.org/ns#Distribution" />
        <cc:requires
           rdf:resource="http://creativecommons.org/ns#Notice" />
        <cc:requires
           rdf:resource="http://creativecommons.org/ns#Attribution" />
        <cc:prohibits
           rdf:resource="http://creativecommons.org/ns#CommercialUse" />
        <cc:permits
           rdf:resource="http://creativecommons.org/ns#DerivativeWorks" />
        <cc:requires
           rdf:resource="http://creativecommons.org/ns#ShareAlike" />
      </cc:License>
    </rdf:RDF>
  </metadata>
  <g
     transform="matrix(1.2078979,0,0,1.2078979,-13.301794,-51.958198)"
     id="layer1">
    <path
       id="path1477"
       transform="translate(0,32)"
       d="m 59.876953,80.658203 c -0.465319,0 -0.457964,0.829127 -0.839844,1.591797 l -2.185547,4.365234 c -0.08761,0.174971 -0.0079,0.344939 0.15625,0.488282 h -1.777343 c -0.957048,0 -0.915907,0.717778 -1.728516,1.423828 l -4.494141,3.904297 c -0.437528,0.38015 1.09081,0.751953 2.447266,0.751953 h 25.636719 c 1.356456,0 2.884794,-0.371803 2.447265,-0.751953 l -4.49414,-3.904297 c -0.812609,-0.70605 -0.771468,-1.423828 -1.728516,-1.423828 h -1.777344 c 0.164139,-0.143343 0.24386,-0.313311 0.15625,-0.488282 L 69.509766,82.25 c -0.38188,-0.76267 -0.374525,-1.591797 -0.839844,-1.591797 z"
       style="opacity:1;fill:#ffffff;fill-opacity:1;fill-rule:evenodd;stroke:#ac8be9;stroke-width:5;stroke-linecap:round;stroke-linejoin:bevel;stroke-miterlimit:4;stroke-dasharray:none;stroke-dashoffset:0;stroke-opacity:1;paint-order:stroke fill markers"
       inkscape:connector-curvature="0" />
    <path
       id="rect1443"
       d="m 20.018725,55.006969 h 85.919825 c 1.76994,0 3.19484,1.424898 3.19484,3.194839 v 50.660732 c 0,1.76994 -1.4249,3.19484 -3.19484,3.19484 H 20.018725 c -1.76994,0 -3.194838,-1.4249 -3.194838,-3.19484 V 58.201808 c 0,-1.769941 1.424898,-3.194839 3.194838,-3.194839 z"
       style="opacity:1;fill:#ffffff;fill-opacity:1;fill-rule:evenodd;stroke:#ac8be9;stroke-width:5;stroke-linecap:round;stroke-linejoin:bevel;stroke-miterlimit:4;stroke-dasharray:none;stroke-dashoffset:0;stroke-opacity:1;paint-order:stroke fill markers"
       inkscape:connector-curvature="0" />
    <path
       id="rect1468"
       d="m 26.102025,131.96546 h 62.124136 c 0.56047,0 0.6169,0.37795 1.01167,0.65771 l 5.23828,3.71215 c 0.48435,0.34324 -0.52489,0.65771 -1.17689,0.65771 H 21.028973 c -0.652007,0 -1.661245,-0.31447 -1.176893,-0.65771 l 5.238276,-3.71215 c 0.394773,-0.27976 0.451194,-0.65771 1.011669,-0.65771 z"
       style="opacity:1;fill:#ffffff;fill-opacity:1;fill-rule:evenodd;stroke:#ac8be9;stroke-width:5;stroke-linecap:round;stroke-linejoin:bevel;stroke-miterlimit:4;stroke-dasharray:none;stroke-dashoffset:0;stroke-opacity:1;paint-order:stroke fill markers"
       inkscape:connector-curvature="0" />
    <path
       id="rect1473"
       d="m 105.22777,132.96686 h 4.38283 c 0.31354,0 0.35741,0.386 0.56754,0.8093 l 0.96417,1.94231 c 0.20048,0.40386 -0.34251,0.76948 -0.76587,0.76948 h -5.91451 c -0.4247,0 -0.96636,-0.36562 -0.76588,-0.76948 l 0.96418,-1.94231 c 0.21012,-0.4233 0.25312,-0.8093 0.56754,-0.8093 z"
       style="opacity:1;fill:#ffffff;fill-opacity:1;fill-rule:evenodd;stroke:#ac8be9;stroke-width:5;stroke-linecap:round;stroke-linejoin:bevel;stroke-miterlimit:4;stroke-dasharray:none;stroke-dashoffset:0;stroke-opacity:1;paint-order:stroke fill markers"
       inkscape:connector-curvature="0" />
    <path
       id="path1479"
       transform="translate(0,32)"
       d="m 16.382812,71.015625 a 1.250125,1.250125 0 1 0 0,2.5 h 93.044918 a 1.250125,1.250125 0 1 0 0,-2.5 z m 46.595704,3.945313 a 1.642812,1.642812 0 0 0 -1.642578,1.642578 1.642812,1.642812 0 0 0 1.642578,1.642578 1.642812,1.642812 0 0 0 1.642578,-1.642578 1.642812,1.642812 0 0 0 -1.642578,-1.642578 z"
       style="color:#000000;font-style:normal;font-variant:normal;font-weight:normal;font-stretch:normal;font-size:medium;line-height:normal;font-family:sans-serif;font-variant-ligatures:normal;font-variant-position:normal;font-variant-caps:normal;font-variant-numeric:normal;font-variant-alternates:normal;font-feature-settings:normal;text-indent:0;text-align:start;text-decoration:none;text-decoration-line:none;text-decoration-style:solid;text-decoration-color:#000000;letter-spacing:normal;word-spacing:normal;text-transform:none;writing-mode:lr-tb;direction:ltr;text-orientation:mixed;dominant-baseline:auto;baseline-shift:baseline;text-anchor:start;white-space:normal;shape-padding:0;clip-rule:nonzero;display:inline;overflow:visible;visibility:visible;opacity:1;isolation:auto;mix-blend-mode:normal;color-interpolation:sRGB;color-interpolation-filters:linearRGB;solid-color:#000000;solid-opacity:1;vector-effect:none;fill:#ac8be9;fill-opacity:1;fill-rule:nonzero;stroke:none;stroke-width:2.5;stroke-linecap:round;stroke-linejoin:round;stroke-miterlimit:4;stroke-dasharray:none;stroke-dashoffset:0;stroke-opacity:1;color-rendering:auto;image-rendering:auto;shape-rendering:auto;text-rendering:auto;enable-background:accumulate"
       inkscape:connector-curvature="0" />
    <g
       id="g1606">
      <path
         style="opacity:1;fill:#d2dfec;fill-opacity:1;fill-rule:evenodd;stroke:none;stroke-width:0.91666824;stroke-linecap:round;stroke-linejoin:round;stroke-miterlimit:4;stroke-dasharray:none;stroke-dashoffset:0;stroke-opacity:1;paint-order:stroke fill markers"
         d="m 22.722656,62.946259 c -0.420448,0 -0.757812,0.339318 -0.757812,0.759766 0,0.420447 0.337364,0.757812 0.757812,0.757812 h 50.806641 c 0.420448,0 0.759765,-0.337365 0.759765,-0.757812 0,-0.420448 -0.339317,-0.759766 -0.759765,-0.759766 z m 0,4.238281 c -0.420448,0 -0.757812,0.337365 -0.757812,0.757813 0,0.420448 0.337364,0.759766 0.757812,0.759766 h 46.806641 c 0.420448,0 0.759765,-0.339318 0.759765,-0.759766 0,-0.420448 -0.339317,-0.757813 -0.759765,-0.757813 z m 0,4.236329 c -0.420448,0 -0.757812,0.339317 -0.757812,0.759765 0,0.420447 0.337364,0.757813 0.757812,0.757813 h 50.806641 c 0.420448,0 0.759765,-0.337366 0.759765,-0.757813 0,-0.420448 -0.339317,-0.759765 -0.759765,-0.759765 z m 0,4.238281 c -0.420448,0 -0.757812,0.337364 -0.757812,0.757812 0,0.420448 0.337364,0.759766 0.757812,0.759766 h 42.806641 c 0.420448,0 0.759765,-0.339318 0.759765,-0.759766 0,-0.420448 -0.339317,-0.757812 -0.759765,-0.757812 z m 0,4.236328 c -0.420448,0 -0.757812,0.339317 -0.757812,0.759765 0,0.420447 0.337364,0.757813 0.757812,0.757813 h 26.806641 c 0.420448,0 0.759766,-0.337366 0.759765,-0.757813 10e-7,-0.420447 -0.339317,-0.759765 -0.759765,-0.759765 z m 31.488282,0 c -0.420449,0 -0.757813,0.339317 -0.757813,0.759765 0,0.420447 0.337364,0.757813 0.757813,0.757813 h 4.80664 c 0.420448,0 0.759766,-0.337366 0.759766,-0.757813 0,-0.420447 -0.339318,-0.759765 -0.759766,-0.759765 z m 9.488281,0 c -0.420448,0 -0.757813,0.339317 -0.757813,0.759765 0,0.420447 0.337365,0.757813 0.757813,0.757813 h 8.80664 c 0.420448,0 0.759766,-0.337366 0.759766,-0.757813 0,-0.420447 -0.339318,-0.759765 -0.759766,-0.759765 z m -41.064453,4.238281 c -0.420448,0 -0.759766,0.337365 -0.759766,0.757813 0,0.420448 0.339318,0.759765 0.759766,0.759765 h 30.80664 c 0.420448,0 0.757813,-0.339317 0.757813,-0.759765 0,-0.420448 -0.337365,-0.757813 -0.757813,-0.757813 z m 33.53125,0 c -0.420448,0 -0.757813,0.337365 -0.757813,0.757813 0,0.420447 0.337365,0.759765 0.757813,0.759765 h 4.80664 c 0.420448,0 0.759766,-0.339318 0.759766,-0.759765 0,-0.420448 -0.339318,-0.757813 -0.759766,-0.757813 z m 7.533203,0 c -0.420448,0 -0.757813,0.337365 -0.757813,0.757813 0,0.420447 0.337365,0.759765 0.757813,0.759765 h 8.80664 c 0.420448,0 0.759766,-0.339318 0.759766,-0.759765 0,-0.420448 -0.339318,-0.757813 -0.759766,-0.757813 z m -40.976563,4.236328 c -0.420448,0 -0.757812,0.339318 -0.757812,0.759766 0,0.420447 0.337364,0.757812 0.757812,0.757812 h 38.806641 c 0.420448,0 0.759766,-0.337365 0.759765,-0.757812 0,-0.420448 -0.339317,-0.759766 -0.759765,-0.759766 z m 44.050782,0 c -0.42045,0 -0.759766,0.339318 -0.759766,0.759766 0,0.420447 0.339318,0.757812 0.759766,0.757812 h 4.80664 c 0.420448,0 0.759766,-0.337365 0.759766,-0.757812 0,-0.420448 -0.339318,-0.759766 -0.759766,-0.759766 z m -44.050782,4.238282 c -0.420448,0 -0.757812,0.337364 -0.757812,0.757812 0,0.420447 0.337364,0.759766 0.757812,0.759766 h 50.806641 c 0.420448,0 0.759765,-0.339319 0.759765,-0.759766 0,-0.420448 -0.339317,-0.757812 -0.759765,-0.757812 z"
         id="rect1561"
         inkscape:connector-curvature="0" />
      <rect
         style="opacity:1;fill:#fdfefe;fill-opacity:1;fill-rule:evenodd;stroke:#829fbe;stroke-width:2.5;stroke-linecap:round;stroke-linejoin:round;stroke-miterlimit:4;stroke-dasharray:none;stroke-dashoffset:0;stroke-opacity:1;paint-order:stroke fill markers"
         id="rect1597"
         width="12.480782"
         height="26.980043"
         x="85.802605"
         y="65.046082"
         rx="1.4620153"
         ry="1.4620153" />
      <circle
         style="opacity:1;fill:#eff4f9;fill-opacity:1;fill-rule:evenodd;stroke:#829fbe;stroke-width:0.76755714;stroke-linecap:round;stroke-linejoin:round;stroke-miterlimit:4;stroke-dasharray:none;stroke-dashoffset:0;stroke-opacity:1;paint-order:stroke fill markers"
         id="path1599"
         cx="92.042992"
         cy="89.818283"
         r="0.4934296" />
    </g>
  </g>
</svg>
