<?xml version="1.0" encoding="UTF-8"?>
<svg width="1024" height="1024" version="1.1" viewBox="0 0 1024 1024" xmlns="http://www.w3.org/2000/svg" xmlns:cc="http://creativecommons.org/ns#" xmlns:dc="http://purl.org/dc/elements/1.1/" xmlns:rdf="http://www.w3.org/1999/02/22-rdf-syntax-ns#"><title>Image 404</title><metadata><rdf:RDF><cc:Work rdf:about=""><dc:format>image/svg+xml</dc:format><dc:type rdf:resource="http://purl.org/dc/dcmitype/StillImage"/><dc:title>Image 404</dc:title><dc:date>March 2019</dc:date><dc:creator><cc:Agent><dc:title>Sujaykumar Hublikar</dc:title></cc:Agent></dc:creator><dc:rights><cc:Agent><dc:title>Creative Commons Attribution-NonCommercial-ShareAlike 4.0 International License.</dc:title></cc:Agent></dc:rights><dc:publisher><cc:Agent><dc:title>Sujaykumar Hublikar</dc:title></cc:Agent></dc:publisher><dc:subject><rdf:Bag><rdf:li>image</rdf:li></rdf:Bag></dc:subject><dc:description>404 Image</dc:description><dc:contributor><cc:Agent><dc:title>https://github.com/Sujaykumarh</dc:title></cc:Agent></dc:contributor><cc:license rdf:resource="http://creativecommons.org/licenses/by-nc-sa/4.0/"/></cc:Work><cc:License rdf:about="http://creativecommons.org/licenses/by-nc-sa/4.0/"><cc:permits rdf:resource="http://creativecommons.org/ns#Reproduction"/><cc:permits rdf:resource="http://creativecommons.org/ns#Distribution"/><cc:requires rdf:resource="http://creativecommons.org/ns#Notice"/><cc:requires rdf:resource="http://creativecommons.org/ns#Attribution"/><cc:prohibits rdf:resource="http://creativecommons.org/ns#CommercialUse"/><cc:permits rdf:resource="http://creativecommons.org/ns#DerivativeWorks"/><cc:requires rdf:resource="http://creativecommons.org/ns#ShareAlike"/></cc:License></rdf:RDF></metadata><g transform="translate(0 -98.52)" fill-rule="evenodd"><rect x="97.352" y="459.52" width="825.26" height="463.83" rx="30.966" ry="28.161" fill="#ccc" stroke="#fff" stroke-linecap="round" stroke-linejoin="round" stroke-opacity=".58937" stroke-width=".86117" style="paint-order:markers stroke fill"/><rect x="54.295" y="930.72" width="915.41" height="43.487" rx="9.8218" ry="9.8218" fill="#c3c3c3" stroke="#fff" stroke-linecap="round" stroke-linejoin="round" stroke-opacity=".58937" stroke-width=".27772" style="paint-order:markers stroke fill"/><rect x="146.92" y="498.55" width="726.13" height="385.77" rx="27.247" ry="23.422" fill="#f0f0f0" stroke="#fff" stroke-linecap="round" stroke-linejoin="round" stroke-opacity=".58937" stroke-width=".73669" style="paint-order:markers stroke fill"/><g transform="matrix(.74162 0 0 .74162 132.81 296.93)" fill="#b3b3b3"><circle cx="265.71" cy="456.81" r="55.29" style="paint-order:markers stroke fill"/><circle cx="751.43" cy="456.81" r="55.29" style="paint-order:markers stroke fill"/></g><path d="m407.12 748.57c-9.4971 0-17.143 7.6454-17.143 17.143s7.6454 17.143 17.143 17.143h32.967c-0.37398 1.412-0.5918 2.889-0.5918 4.4219v16.221c0 9.4972 7.6454 17.145 17.143 17.145h16.223c9.4972 0 17.143-7.6474 17.143-17.145v-16.221c0-1.5328-0.21782-3.0099-0.5918-4.4219h123.42c9.4971 0 17.143-7.6454 17.143-17.143s-7.6454-17.143-17.143-17.143z" fill="#b3b3b3" style="paint-order:markers stroke fill"/><path d="m1308.9 535.35c-4.1275 0-7.4502 3.3236-7.4502 7.451v85.678c0 4.1275 3.3227 7.4502 7.4502 7.4502h35.388c4.1275 0 7.4502-3.3227 7.4502-7.4502v-85.678c0-4.1275-3.3227-7.451-7.4502-7.451zm0 116.1c-4.1275 0-7.4502 3.3227-7.4502 7.4502v16.142c0 4.1275 3.3227 7.4502 7.4502 7.4502h35.327c4.1275 0 7.4511-3.3227 7.4511-7.4502v-16.142c0-4.1275-3.3236-7.4502-7.4511-7.4502z" fill="#b3b3b3" style="paint-order:markers stroke fill"/><path d="m833.64 246.69c-9.4972 0-17.143 7.6454-17.143 17.143s7.6454 17.143 17.143 17.143h42.857v17.143h-42.857c-9.4972 0-17.143 7.6474-17.143 17.145v48.926c0 9.4972 7.6454 17.145 17.143 17.145h17.143c9.4971 0 17.143-7.6474 17.143-17.145v-31.783h34.287c9.4971 0 17.142-7.6454 17.142-17.143v-51.43c0-1.7814-0.2697-3.4965-0.7695-5.1094-2.164-6.9868-8.6566-12.033-16.373-12.033h-8.5723zm-8.5801 143.57c-4.1275 0-7.4512 3.3237-7.4511 7.4512v16.143c0 4.1275 3.3236 7.4492 7.4511 7.4492h35.326c4.1275 0 7.4512-3.3217 7.4512-7.4492v-16.143c0-4.1275-3.3237-7.4512-7.4512-7.4512z" fill="#b3b3b3" style="paint-order:markers stroke fill"/></g></svg>
