<?xml version="1.0" encoding="UTF-8" standalone="no"?>
<!-- Created with Inkscape (http://www.inkscape.org/) -->

<svg
   xmlns:dc="http://purl.org/dc/elements/1.1/"
   xmlns:cc="http://creativecommons.org/ns#"
   xmlns:rdf="http://www.w3.org/1999/02/22-rdf-syntax-ns#"
   xmlns:svg="http://www.w3.org/2000/svg"
   xmlns="http://www.w3.org/2000/svg"
   xmlns:sodipodi="http://sodipodi.sourceforge.net/DTD/sodipodi-0.dtd"
   xmlns:inkscape="http://www.inkscape.org/namespaces/inkscape"
   width="1024"
   height="1024"
   viewBox="0 0 1024 1024"
   version="1.1"
   id="svg8"
   inkscape:version="0.92.4 5da689c313, 2019-01-14"
   sodipodi:docname="404.svg">
  <title
     id="title815">Image 404</title>
  <defs
     id="defs2" />
  <sodipodi:namedview
     id="base"
     pagecolor="#ffffff"
     bordercolor="#666666"
     borderopacity="1.0"
     inkscape:pageopacity="0.0"
     inkscape:pageshadow="2"
     inkscape:zoom="0.49497475"
     inkscape:cx="887.38674"
     inkscape:cy="608.0237"
     inkscape:document-units="px"
     inkscape:current-layer="layer1"
     showgrid="false"
     units="px"
     inkscape:showpageshadow="false"
     borderlayer="true"
     inkscape:window-width="1920"
     inkscape:window-height="1010"
     inkscape:window-x="1600"
     inkscape:window-y="28"
     inkscape:window-maximized="1" />
  <metadata
     id="metadata5">
    <rdf:RDF>
      <cc:Work
         rdf:about="">
        <dc:format>image/svg+xml</dc:format>
        <dc:type
           rdf:resource="http://purl.org/dc/dcmitype/StillImage" />
        <dc:title>Image 404</dc:title>
        <dc:date>March 2019</dc:date>
        <dc:creator>
          <cc:Agent>
            <dc:title>Sujaykumar Hublikar</dc:title>
          </cc:Agent>
        </dc:creator>
        <dc:rights>
          <cc:Agent>
            <dc:title>Creative Commons Attribution-NonCommercial-ShareAlike 4.0 International License.</dc:title>
          </cc:Agent>
        </dc:rights>
        <dc:publisher>
          <cc:Agent>
            <dc:title>Sujaykumar Hublikar</dc:title>
          </cc:Agent>
        </dc:publisher>
        <dc:subject>
          <rdf:Bag>
            <rdf:li>image</rdf:li>
          </rdf:Bag>
        </dc:subject>
        <dc:description>404 Image</dc:description>
        <dc:contributor>
          <cc:Agent>
            <dc:title>https://github.com/Sujaykumarh</dc:title>
          </cc:Agent>
        </dc:contributor>
        <cc:license
           rdf:resource="http://creativecommons.org/licenses/by-nc-sa/4.0/" />
      </cc:Work>
      <cc:License
         rdf:about="http://creativecommons.org/licenses/by-nc-sa/4.0/">
        <cc:permits
           rdf:resource="http://creativecommons.org/ns#Reproduction" />
        <cc:permits
           rdf:resource="http://creativecommons.org/ns#Distribution" />
        <cc:requires
           rdf:resource="http://creativecommons.org/ns#Notice" />
        <cc:requires
           rdf:resource="http://creativecommons.org/ns#Attribution" />
        <cc:prohibits
           rdf:resource="http://creativecommons.org/ns#CommercialUse" />
        <cc:permits
           rdf:resource="http://creativecommons.org/ns#DerivativeWorks" />
        <cc:requires
           rdf:resource="http://creativecommons.org/ns#ShareAlike" />
      </cc:License>
    </rdf:RDF>
  </metadata>
  <g
     inkscape:label="Layer 1"
     inkscape:groupmode="layer"
     id="layer1"
     transform="translate(0,-98.519653)">
    <rect
       style="opacity:1;fill:#cccccc;fill-opacity:1;fill-rule:evenodd;stroke:#ffffff;stroke-width:0.86116856;stroke-linecap:round;stroke-linejoin:round;stroke-miterlimit:4;stroke-dasharray:none;stroke-dashoffset:0;stroke-opacity:0.58937198;paint-order:markers stroke fill"
       id="rect861"
       width="825.25586"
       height="463.82965"
       x="97.351761"
       y="459.51645"
       rx="30.966484"
       ry="28.161091" />
    <rect
       ry="9.8218174"
       rx="9.8218174"
       y="930.72034"
       x="54.294708"
       height="43.486965"
       width="915.41058"
       id="rect863"
       style="opacity:1;fill:#c3c3c3;fill-opacity:1;fill-rule:evenodd;stroke:#ffffff;stroke-width:0.27771676;stroke-linecap:round;stroke-linejoin:round;stroke-miterlimit:4;stroke-dasharray:none;stroke-dashoffset:0;stroke-opacity:0.58937198;paint-order:markers stroke fill" />
    <rect
       ry="23.421705"
       rx="27.246756"
       y="498.54669"
       x="146.9171"
       height="385.7692"
       width="726.12524"
       id="rect865"
       style="opacity:1;fill:#f0f0f0;fill-opacity:1;fill-rule:evenodd;stroke:#ffffff;stroke-width:0.73668885;stroke-linecap:round;stroke-linejoin:round;stroke-miterlimit:4;stroke-dasharray:none;stroke-dashoffset:0;stroke-opacity:0.58937198;paint-order:markers stroke fill" />
    <g
       id="g889"
       transform="matrix(0.7416201,0,0,0.7416201,132.81288,296.92576)"
       style="fill:#b3b3b3">
      <circle
         r="55.289574"
         cy="456.80536"
         cx="265.71429"
         id="path883"
         style="opacity:1;fill:#b3b3b3;fill-opacity:1;fill-rule:evenodd;stroke:none;stroke-width:17.27799225;stroke-linecap:round;stroke-linejoin:round;stroke-miterlimit:4;stroke-dasharray:none;stroke-dashoffset:0;stroke-opacity:1;paint-order:markers stroke fill" />
      <circle
         style="opacity:1;fill:#b3b3b3;fill-opacity:1;fill-rule:evenodd;stroke:none;stroke-width:17.27799225;stroke-linecap:round;stroke-linejoin:round;stroke-miterlimit:4;stroke-dasharray:none;stroke-dashoffset:0;stroke-opacity:1;paint-order:markers stroke fill"
         id="circle885"
         cx="751.42859"
         cy="456.80536"
         r="55.289574" />
    </g>
    <path
       style="opacity:1;fill:#b3b3b3;fill-opacity:1;fill-rule:evenodd;stroke:none;stroke-width:25;stroke-linecap:round;stroke-linejoin:round;stroke-miterlimit:4;stroke-dasharray:none;stroke-dashoffset:0;stroke-opacity:1;paint-order:markers stroke fill"
       d="m 407.1223,748.57344 c -9.49714,0 -17.14258,7.64544 -17.14258,17.14258 0,9.49714 7.64544,17.14258 17.14258,17.14258 h 32.9668 c -0.37398,1.41201 -0.5918,2.88904 -0.5918,4.42187 v 16.22071 c 0,9.49716 7.64541,17.14453 17.14258,17.14453 h 16.22265 c 9.49717,0 17.14258,-7.64737 17.14258,-17.14453 v -16.22071 c 0,-1.53283 -0.21782,-3.00986 -0.5918,-4.42187 h 123.42383 c 9.49714,0 17.14258,-7.64544 17.14258,-17.14258 0,-9.49714 -7.64544,-17.14258 -17.14258,-17.14258 z"
       id="rect894"
       inkscape:connector-curvature="0" />
    <path
       style="opacity:1;fill:#b3b3b3;fill-opacity:1;fill-rule:evenodd;stroke:none;stroke-width:10.86501408;stroke-linecap:round;stroke-linejoin:round;stroke-miterlimit:4;stroke-dasharray:none;stroke-dashoffset:0;stroke-opacity:1;paint-order:markers stroke fill"
       d="m 1308.9191,535.34867 c -4.1275,0 -7.4502,3.32355 -7.4502,7.45102 v 85.67827 c 0,4.12748 3.3227,7.45018 7.4502,7.45018 h 35.3885 c 4.1275,0 7.4502,-3.3227 7.4502,-7.45018 v -85.67827 c 0,-4.12747 -3.3227,-7.45102 -7.4502,-7.45102 z m 0,116.10116 c -4.1275,0 -7.4502,3.3227 -7.4502,7.45017 v 16.14219 c 0,4.12747 3.3227,7.45017 7.4502,7.45017 h 35.3274 c 4.1275,0 7.4511,-3.3227 7.4511,-7.45017 V 658.9 c 0,-4.12747 -3.3236,-7.45017 -7.4511,-7.45017 z"
       id="rect899"
       inkscape:connector-curvature="0" />
    <path
       style="opacity:1;fill:#b3b3b3;fill-opacity:1;fill-rule:evenodd;stroke:none;stroke-width:10.86501408;stroke-linecap:round;stroke-linejoin:round;stroke-miterlimit:4;stroke-dasharray:none;stroke-dashoffset:0;stroke-opacity:1;paint-order:markers stroke fill"
       d="m 833.63693,246.69314 c -9.4972,0 -17.1426,7.64544 -17.1426,17.14258 0,9.49714 7.6454,17.14258 17.1426,17.14258 h 42.8574 v 17.14257 h -42.8574 c -9.4972,0 -17.1426,7.64739 -17.1426,17.14454 v 48.92578 c 0,9.49716 7.6454,17.14453 17.1426,17.14453 h 17.1426 c 9.4971,0 17.1426,-7.64737 17.1426,-17.14453 v -31.78321 h 34.2871 c 9.4971,0 17.1425,-7.64543 17.1425,-17.14257 v -51.42969 c 0,-1.78137 -0.2697,-3.49652 -0.7695,-5.10938 -2.164,-6.98681 -8.6566,-12.0332 -16.373,-12.0332 h -8.5723 z m -8.5801,143.57227 c -4.1275,0 -7.4512,3.3237 -7.4511,7.45117 v 16.14258 c 0,4.12747 3.3236,7.44921 7.4511,7.44921 h 35.3262 c 4.1275,0 7.4512,-3.32174 7.4512,-7.44921 v -16.14258 c 0,-4.12747 -3.3237,-7.45117 -7.4512,-7.45117 z"
       id="path908"
       inkscape:connector-curvature="0" />
  </g>
</svg>
