<?xml version="1.0" encoding="UTF-8"?>
<svg width="264px" height="280px" version="1.1" viewBox="0 0 264 280" xmlns="http://www.w3.org/2000/svg" xmlns:xlink="http://www.w3.org/1999/xlink"><desc>Created with getavataaars.com</desc><defs><circle id="f" cx="120" cy="120" r="120"/><path id="l" d="m12 160c0 66.274 53.726 120 120 120s120-53.726 120-120h12v-160h-264v160h12z"/><path id="e" d="m124 144.61v18.389h4c39.765 0 72 32.235 72 72v9h-200v-9c-4.8697e-15 -39.765 32.235-72 72-72h4v-18.389c-17.237-8.1886-29.628-24.924-31.695-44.73-5.8248-0.82345-10.305-5.8291-10.305-11.881v-14c0-5.946 4.3246-10.882 10-11.834v-6.1659c0-30.928 25.072-56 56-56s56 25.072 56 56v6.1659c5.6754 0.95216 10 5.8881 10 11.834v14c0 6.0521-4.4803 11.058-10.305 11.881-2.0671 19.806-14.457 36.541-31.695 44.73z"/></defs><g transform="matrix(.96296 0 0 .96296 4.8889 .37037)" fill="none" fill-rule="evenodd" stroke-width="1.0385"><g transform="translate(-825,-1100)" stroke-width="1.0385"><g transform="translate(825,1100)" fill-rule="evenodd" stroke-width="1.0385"><g transform="translate(12,40)" stroke-width="1.1683"><mask id="n" fill="#ffffff"><use width="100%" height="100%" xlink:href="#f"/></mask><use width="100%" height="100%" fill="#e6e6e6" xlink:href="#f"/><g fill="#65c9ff" mask="url(#n)"><rect width="240" height="240" stroke-width="1.0385"/></g></g><mask id="m" fill="#ffffff"><use width="100%" height="100%" xlink:href="#l"/></mask><g mask="url(#m)" stroke-width="1.0385"><g transform="translate(32,36)" stroke-width="1.1683"><mask id="g" fill="#ffffff"><use width="100%" height="100%" xlink:href="#e"/></mask><use width="100%" height="100%" fill="#d0c6ac" xlink:href="#e"/><g fill="#edb98a" mask="url(#g)"><g transform="translate(-32)" stroke-width="1.0385"><rect width="264" height="244" stroke-width="1.0385"/></g></g><path d="m156 79v23c0 30.928-25.072 56-56 56-30.928 0-56-25.072-56-56v-23 15c0 30.928 25.072 56 56 56 30.928 0 56-25.072 56-56z" fill="#000" fill-opacity=".1" mask="url(#g)"/></g><g transform="translate(0,170)" stroke-width="1.0385"><defs><path id="d" d="m108 13.071c-17.919 2.0051-31.72 7.4809-31.996 21.574-25.858 10.923-44.004 36.52-44.004 66.355v9.0005h200v-9.0005c0-29.835-18.146-55.431-44.004-66.355-0.27564-14.093-14.077-19.569-31.996-21.574v18.929c0 13.255-10.745 24-24 24s-24-10.745-24-24z"/></defs><mask id="a" fill="#ffffff"><use width="100%" height="100%" xlink:href="#d"/></mask><use width="100%" height="100%" fill="#b7c1db" fill-rule="evenodd" stroke-width="1.1683" xlink:href="#d"/><g fill="#25557c" fill-rule="evenodd" mask="url(#a)" stroke-width="1.1683"><rect width="264" height="110" stroke-width="1.0385"/></g><path d="m102 61.739v48.261h-7v-51.85c2.2038 1.3098 4.5468 2.5105 7 3.5888zm67-3.5888v40.35c0 1.933-1.567 3.5-3.5 3.5s-3.5-1.567-3.5-3.5v-36.761c2.4532-1.0783 4.7962-2.279 7-3.5888z" fill="#f4f4f4" fill-rule="evenodd" mask="url(#a)" stroke-width="1.1683"/><path d="m90.96 12.724c-15.051 2.8468-25.46 8.5185-25.46 19.583 0 19.712 33.038 35.692 66.5 35.692 33.462 0 66.5-15.98 66.5-35.692 0-11.065-10.409-16.737-25.46-19.583 9.085 3.3501 14.96 8.9817 14.96 18.353 0 20.392-27.821 36.923-56 36.923s-56-16.531-56-36.923c0-9.3709 5.8751-15.002 14.96-18.353z" fill="#000" fill-opacity=".16" fill-rule="evenodd" mask="url(#a)" stroke-width="1.1683"/></g><g transform="translate(76,82)" fill="#000"><g transform="translate(2,52)" fill="#000" fill-opacity=".6" fill-rule="nonzero" stroke-width="1.3143"><path d="m40 16c0 5.3718 6.1582 9 14 9s14-3.6282 14-9c0-1.1046-0.9497-2-2-2-1.2927 0-1.8698 0.90518-2 2-1.2424 2.9379-4.3167 4.7163-10 5-5.6833-0.28368-8.7576-2.0621-10-5-0.13023-1.0948-0.70728-2-2-2-1.0503 0-2 0.89543-2 2z" stroke-width="1.0385"/></g><g transform="translate(28,40)" fill-opacity=".16" stroke-width="1.3143"><path d="m16 8c0 4.4183 5.3726 8 12 8s12-3.5817 12-8" stroke-width="1.0385"/></g><g transform="translate(0,8)" fill-opacity=".6" stroke-width="1.0385"><circle cx="30" cy="22" r="6"/><circle cx="82" cy="22" r="6"/></g><g fill-opacity=".6" stroke-width="1.0385"><path d="m22.766 1.5784 0.91094-0.40263c5.2418-2.0811 13.187-1.2087 18.045 1.1233 0.56705 0.27237 0.17942 1.1528-0.40163 1.108-14.919-1.1511-24.963 8.1455-28.375 14.44-0.10116 0.18662-0.40694 0.2078-0.48255 0.033741-2.3073-5.3188 4.4499-13.985 10.303-16.302z"/><path transform="matrix(-1,0,0,1,170,0)" d="m80.766 1.5784 0.91094-0.40263c5.2418-2.0811 13.187-1.2087 18.045 1.1233 0.56705 0.27237 0.17942 1.1528-0.40163 1.108-14.919-1.1511-24.963 8.1455-28.375 14.44-0.10117 0.18662-0.40694 0.2078-0.48255 0.033741-2.3073-5.3188 4.4499-13.985 10.303-16.302z"/></g></g><g fill-rule="evenodd" stroke-width="1.0385"><defs><rect id="h" width="264" height="280"/><path id="c" d="m183.68 38.949c5.4062-4.9503 6.7076-14.987 3.6379-21.499-3.7684-7.9955-11.416-8.9971-18.745-5.4807-6.9079 3.3149-13.057 4.4192-20.622 2.8131-7.2586-1.541-14.145-4.2591-21.647-4.7055-12.325-0.73332-24.3 3.8383-32.7 13.053-1.6028 1.7579-2.8942 3.7679-4.1148 5.8051-0.97674 1.63-2.0778 3.379-2.4932 5.2578-0.19766 0.8934 0.17023 3.0977-0.27468 3.8297-0.48126 0.79045-2.2959 1.5155-3.0694 2.102-1.5667 1.1887-2.9243 2.5301-4.1796 4.0472-2.6661 3.2216-4.1337 6.5866-5.3679 10.572-4.1029 13.245-4.4507 28.998 0.85344 42.004 0.70702 1.7343 2.8981 5.3518 4.1862 1.638 0.25451-0.73399-0.3345-3.194-0.33318-3.9346 0.0046-2.7201 1.5061-20.729 8.0471-30.817 2.1292-3.2838 11.973-15.581 13.983-15.679 1.0653 1.6928 11.88 12.509 39.943 11.241 12.662-0.57192 22.399-6.2608 24.737-8.7268 1.0285 5.5328 12.992 13.816 14.815 17.224 5.2663 9.8455 6.4344 30.304 8.4447 30.265 2.0103-0.03838 3.4534-5.2376 3.8669-6.2303 3.0717-7.3754 3.5946-16.632 3.267-24.559-0.42739-10.202-4.6384-21.226-12.235-28.22z"/></defs><mask id="j" fill="#ffffff"><use width="100%" height="100%" xlink:href="#h"/></mask><g mask="url(#j)" stroke-width="1.0385"><g transform="translate(-1)" stroke-width="1.0385"><g transform="translate(49,72)" stroke-width="1.0385"><defs><path id="b" d="m101.43 98.169c-2.5136 2.2941-5.1912 3.3257-8.5755 2.6043-0.58237-0.12403-2.9566-4.5383-8.8531-4.5383-5.8965 0-8.2704 4.4143-8.8531 4.5383-3.3843 0.72145-6.0619-0.31024-8.5755-2.6043-4.7251-4.313-8.6546-10.26-6.2934-16.749 1.2306-3.3822 3.2319-7.0954 6.8728-8.1733 3.8878-1.1504 9.3463-2e-3 13.264-0.78764 1.2693-0.25475 2.6559-0.7074 3.5851-1.4583 0.92918 0.75087 2.3161 1.2035 3.5847 1.4583 3.9182 0.78563 9.3767-0.36273 13.264 0.78764 3.6409 1.0778 5.6422 4.791 6.8731 8.1733 2.3612 6.489-1.5683 12.436-6.2938 16.749m38.653-72.169c-3.4103 8.4003-2.0933 18.858-2.7244 27.676-0.51263 7.1673-2.0196 17.91-8.3838 22.539-3.2545 2.3671-9.1785 6.3454-13.431 5.2357-2.9273-0.76381-3.2397-9.1601-7.0866-12.303-4.3636-3.5647-9.8123-5.1309-15.306-4.8891-2.3706 0.1044-7.165 0.07962-9.1492 1.9026-1.9842-1.823-6.7783-1.7982-9.1489-1.9026-5.4942-0.24183-10.943 1.3244-15.306 4.8891-3.8469 3.1431-4.1589 11.539-7.0862 12.303-4.2525 1.1097-10.176-2.8686-13.431-5.2357-6.3646-4.6288-7.8708-15.371-8.3841-22.539-0.63077-8.8178 0.68631-19.276-2.724-27.676-1.6591 0-0.5648 16.129-0.5648 16.129v20.356c0.03164 15.288 9.5811 38.17 30.754 46.908 5.1781 2.1368 16.907 5.607 25.892 5.607s20.714-3.1398 25.892-5.2766c21.173-8.7376 30.722-31.95 30.754-47.238v-20.356s1.0939-16.129-0.56514-16.129"/></defs><mask id="i" fill="#ffffff"><use width="100%" height="100%" xlink:href="#b"/></mask><use width="100%" height="100%" fill="#331b0c" fill-rule="evenodd" stroke-width="1.1683" xlink:href="#b"/><g fill="#2c1b18" mask="url(#i)" stroke-width="1.1683"><g transform="translate(-32)" stroke-width="1.0385"><rect width="264" height="244" stroke-width="1.0385"/></g></g></g><mask id="k" fill="#ffffff"><use width="100%" height="100%" xlink:href="#c"/></mask><use width="100%" height="100%" fill="#28354b" fill-rule="evenodd" stroke-width="1.1683" xlink:href="#c"/><g fill="#2c1b18" mask="url(#k)" stroke-width="1.1683"><g stroke-width="1.0385"><rect width="264" height="280" stroke-width="1.0385"/></g></g></g></g></g></g></g></g></g></svg>
