<?xml version="1.0" encoding="UTF-8" standalone="no"?>
<!-- Created with Inkscape (http://www.inkscape.org/) -->

<svg
   xmlns:dc="http://purl.org/dc/elements/1.1/"
   xmlns:cc="http://creativecommons.org/ns#"
   xmlns:rdf="http://www.w3.org/1999/02/22-rdf-syntax-ns#"
   xmlns:svg="http://www.w3.org/2000/svg"
   xmlns="http://www.w3.org/2000/svg"
   xmlns:sodipodi="http://sodipodi.sourceforge.net/DTD/sodipodi-0.dtd"
   xmlns:inkscape="http://www.inkscape.org/namespaces/inkscape"
   width="128"
   height="128"
   viewBox="0 0 128 128"
   version="1.1"
   id="SVGRoot"
   inkscape:version="0.92.4 5da689c313, 2019-01-14"
   sodipodi:docname="icon-robot.svg">
  <title
     id="title1601">Image </title>
  <defs
     id="defs849" />
  <sodipodi:namedview
     id="base"
     pagecolor="#ffffff"
     bordercolor="#666666"
     borderopacity="1.0"
     inkscape:pageopacity="0.0"
     inkscape:pageshadow="2"
     inkscape:zoom="2"
     inkscape:cx="-10.79435"
     inkscape:cy="117.8373"
     inkscape:document-units="px"
     inkscape:current-layer="g910"
     showgrid="false"
     inkscape:window-width="1920"
     inkscape:window-height="1010"
     inkscape:window-x="1600"
     inkscape:window-y="28"
     inkscape:window-maximized="1" />
  <metadata
     id="metadata852">
    <rdf:RDF>
      <cc:Work
         rdf:about="">
        <dc:format>image/svg+xml</dc:format>
        <dc:type
           rdf:resource="http://purl.org/dc/dcmitype/StillImage" />
        <dc:title>Image </dc:title>
        <dc:date>June 2019</dc:date>
        <dc:creator>
          <cc:Agent>
            <dc:title>Sujaykumar Hublikar</dc:title>
          </cc:Agent>
        </dc:creator>
        <dc:rights>
          <cc:Agent>
            <dc:title>Creative Commons Attribution-NonCommercial-ShareAlike 4.0 International License.</dc:title>
          </cc:Agent>
        </dc:rights>
        <dc:publisher>
          <cc:Agent>
            <dc:title>Sujaykumar Hublikar</dc:title>
          </cc:Agent>
        </dc:publisher>
        <dc:subject>
          <rdf:Bag>
            <rdf:li>image</rdf:li>
          </rdf:Bag>
        </dc:subject>
        <dc:description>Image</dc:description>
        <dc:contributor>
          <cc:Agent>
            <dc:title>https://github.com/Sujaykumarh</dc:title>
          </cc:Agent>
        </dc:contributor>
        <cc:license
           rdf:resource="http://creativecommons.org/licenses/by-nc-sa/4.0/" />
      </cc:Work>
      <cc:License
         rdf:about="http://creativecommons.org/licenses/by-nc-sa/4.0/">
        <cc:permits
           rdf:resource="http://creativecommons.org/ns#Reproduction" />
        <cc:permits
           rdf:resource="http://creativecommons.org/ns#Distribution" />
        <cc:requires
           rdf:resource="http://creativecommons.org/ns#Notice" />
        <cc:requires
           rdf:resource="http://creativecommons.org/ns#Attribution" />
        <cc:prohibits
           rdf:resource="http://creativecommons.org/ns#CommercialUse" />
        <cc:permits
           rdf:resource="http://creativecommons.org/ns#DerivativeWorks" />
        <cc:requires
           rdf:resource="http://creativecommons.org/ns#ShareAlike" />
      </cc:License>
    </rdf:RDF>
  </metadata>
  <g
     inkscape:label="icon"
     inkscape:groupmode="layer"
     id="layer1"
     transform="translate(0,-32)">
    <g
       id="g910"
       transform="matrix(1.2601532,0,0,1.2601532,-20.485433,-30.731543)">
      <path
         inkscape:connector-curvature="0"
         id="rect881"
         d="m 29.392413,108.85156 c -0.943203,0 -1.703125,0.75797 -1.703125,1.70117 v 9.06055 c 0,0.9432 0.759922,1.70313 1.703125,1.70313 h 10.677734 c 0.943204,0 1.703126,-0.75993 1.703126,-1.70313 v -9.06055 c 0,-0.9432 -0.759922,-1.70117 -1.703126,-1.70117 z m 64.625,0 c -0.943203,0 -1.703125,0.75797 -1.703125,1.70117 v 9.06055 c 0,0.9432 0.759922,1.70313 1.703125,1.70313 h 10.677727 c 0.94321,0 1.70313,-0.75993 1.70313,-1.70313 v -9.06055 c 0,-0.9432 -0.75992,-1.70117 -1.70313,-1.70117 z"
         style="display:inline;opacity:1;fill:#80b3ff;fill-opacity:1;fill-rule:evenodd;stroke:none;stroke-width:0.07859827" />
      <path
         inkscape:connector-curvature="0"
         id="rect868"
         d="m 67.042801,55.720703 c -4.583076,0 -8.341797,3.758721 -8.341797,8.341797 0,3.643048 2.378179,6.757257 5.654297,7.884766 V 84.751953 H 41.058426 c -4.590404,0 -8.285156,3.694753 -8.285156,8.285156 v 44.093751 c 0,4.5904 3.694752,8.28516 8.285156,8.28516 h 51.96875 c 4.590403,0 8.287114,-3.69476 8.287114,-8.28516 V 93.037109 c 0,-4.590403 -3.696711,-8.285156 -8.287114,-8.285156 H 69.730301 V 71.947266 c 3.276623,-1.127509 5.65625,-4.241718 5.65625,-7.884766 0,-4.583076 -3.760674,-8.341797 -8.34375,-8.341797 z m 0,4.082031 c 2.376999,0 4.261719,1.882767 4.261719,4.259766 0,2.376999 -1.88472,4.259766 -4.261719,4.259766 -2.377,0 -4.259766,-1.882767 -4.259766,-4.259766 0,-2.376999 1.882766,-4.259766 4.259766,-4.259766 z"
         style="display:inline;opacity:1;fill:#aaccff;fill-opacity:1;fill-rule:evenodd;stroke:none;stroke-width:0.38252378" />
      <g
         transform="translate(0.38029861)"
         id="g888">
        <circle
           r="6.3011656"
           cy="106.18727"
           cx="83.350983"
           id="circle862"
           style="opacity:1;fill:none;fill-opacity:1;fill-rule:evenodd;stroke:#ffffff;stroke-width:4.08244658;stroke-miterlimit:4;stroke-dasharray:none;stroke-opacity:1" />
        <circle
           style="opacity:1;fill:none;fill-opacity:1;fill-rule:evenodd;stroke:#ffffff;stroke-width:4.08244658;stroke-miterlimit:4;stroke-dasharray:none;stroke-opacity:1"
           id="circle884"
           cx="49.975983"
           cy="106.18727"
           r="6.3011656" />
      </g>
      <path
         style="opacity:1;fill:#ffffff;fill-opacity:1;fill-rule:evenodd;stroke:none;stroke-width:2.32999945;stroke-linecap:round;stroke-linejoin:bevel;stroke-miterlimit:4;stroke-dasharray:none;stroke-dashoffset:0;stroke-opacity:1;paint-order:stroke fill markers"
         d="m 56.095707,126.67828 c 7.830789,3.40528 15.155454,3.57136 21.896145,0 1.160805,-0.61502 2.371238,1.05757 2.371238,2.37124 0,1.31367 -1.253217,1.6815 -2.371238,2.37124 -8.388179,5.17495 -15.225155,2.98169 -21.896145,0 -1.199318,-0.53605 -2.371238,-1.05757 -2.371238,-2.37124 0,-1.31367 1.166548,-2.89511 2.371238,-2.37124 z"
         id="rect912"
         inkscape:connector-curvature="0"
         sodipodi:nodetypes="sssssss" />
    </g>
  </g>
</svg>
