<?xml version="1.0" encoding="UTF-8" standalone="no"?>
<!-- Created with Inkscape (http://www.inkscape.org/) -->

<svg
   xmlns:dc="http://purl.org/dc/elements/1.1/"
   xmlns:cc="http://creativecommons.org/ns#"
   xmlns:rdf="http://www.w3.org/1999/02/22-rdf-syntax-ns#"
   xmlns:svg="http://www.w3.org/2000/svg"
   xmlns="http://www.w3.org/2000/svg"
   xmlns:sodipodi="http://sodipodi.sourceforge.net/DTD/sodipodi-0.dtd"
   xmlns:inkscape="http://www.inkscape.org/namespaces/inkscape"
   width="128"
   height="128"
   viewBox="0 0 128 128"
   version="1.1"
   id="SVGRoot"
   inkscape:version="0.92.4 5da689c313, 2019-01-14"
   sodipodi:docname="icon-eduProject.svg">
  <title
     id="title1601">Image </title>
  <defs
     id="defs849" />
  <sodipodi:namedview
     id="base"
     pagecolor="#ffffff"
     bordercolor="#666666"
     borderopacity="1.0"
     inkscape:pageopacity="0.0"
     inkscape:pageshadow="2"
     inkscape:zoom="4"
     inkscape:cx="32.697774"
     inkscape:cy="76.942798"
     inkscape:document-units="px"
     inkscape:current-layer="layer1"
     showgrid="false"
     inkscape:window-width="1920"
     inkscape:window-height="1010"
     inkscape:window-x="1600"
     inkscape:window-y="28"
     inkscape:window-maximized="1" />
  <metadata
     id="metadata852">
    <rdf:RDF>
      <cc:Work
         rdf:about="">
        <dc:format>image/svg+xml</dc:format>
        <dc:type
           rdf:resource="http://purl.org/dc/dcmitype/StillImage" />
        <dc:title>Image </dc:title>
        <dc:date>June 2019</dc:date>
        <dc:creator>
          <cc:Agent>
            <dc:title>Sujaykumar Hublikar</dc:title>
          </cc:Agent>
        </dc:creator>
        <dc:rights>
          <cc:Agent>
            <dc:title>Creative Commons Attribution-NonCommercial-ShareAlike 4.0 International License.</dc:title>
          </cc:Agent>
        </dc:rights>
        <dc:publisher>
          <cc:Agent>
            <dc:title>Sujaykumar Hublikar</dc:title>
          </cc:Agent>
        </dc:publisher>
        <dc:subject>
          <rdf:Bag>
            <rdf:li>image</rdf:li>
          </rdf:Bag>
        </dc:subject>
        <dc:description>Image</dc:description>
        <dc:contributor>
          <cc:Agent>
            <dc:title>https://github.com/Sujaykumarh</dc:title>
          </cc:Agent>
        </dc:contributor>
        <cc:license
           rdf:resource="http://creativecommons.org/licenses/by-nc-sa/4.0/" />
      </cc:Work>
      <cc:License
         rdf:about="http://creativecommons.org/licenses/by-nc-sa/4.0/">
        <cc:permits
           rdf:resource="http://creativecommons.org/ns#Reproduction" />
        <cc:permits
           rdf:resource="http://creativecommons.org/ns#Distribution" />
        <cc:requires
           rdf:resource="http://creativecommons.org/ns#Notice" />
        <cc:requires
           rdf:resource="http://creativecommons.org/ns#Attribution" />
        <cc:prohibits
           rdf:resource="http://creativecommons.org/ns#CommercialUse" />
        <cc:permits
           rdf:resource="http://creativecommons.org/ns#DerivativeWorks" />
        <cc:requires
           rdf:resource="http://creativecommons.org/ns#ShareAlike" />
      </cc:License>
    </rdf:RDF>
  </metadata>
  <g
     inkscape:label="icon"
     inkscape:groupmode="layer"
     id="layer1"
     transform="translate(0,-32)">
    <g
       id="g2726"
       style="fill:#ffa6a6;fill-opacity:1"
       transform="matrix(1.056274,0,0,1.056274,-0.32431087,-6.5613617)">
      <path
         inkscape:connector-curvature="0"
         id="path2298"
         d="m 57.991025,80.089349 c 1.860641,8.6e-5 3.368967,1.508411 3.369054,3.369052 -0.0018,0.823031 -0.30475,1.616947 -0.851741,2.231914 l 6.044674,11.389219 v 9.190856 c -1.72e-4,0.01 3.8e-4,0.0178 0,0.0267 -3.81e-4,0.01 -0.0016,0.0178 -0.0022,0.0267 h 2.18955 c -0.0011,-0.0178 -0.0019,-0.0356 -0.0022,-0.0536 V 81.888703 c -0.02184,-1.543804 2.30503,-1.543804 2.283196,0 v 24.381687 c -3.41e-4,0.0178 -0.001,0.0358 -0.0022,0.0536 h 2.191779 c -0.0011,-0.0178 -0.0019,-0.0356 -0.0022,-0.0536 V 81.888703 c -0.02184,-1.543804 2.30503,-1.543804 2.283198,0 v 24.381687 c 2.8e-5,0.0245 -6.8e-4,0.049 -0.0022,0.0735 2.432847,0.0938 4.434971,1.87137 4.862939,4.20519 0.159784,-0.0773 0.335371,-0.11623 0.512828,-0.1137 h 5.335634 c 0.137209,-2.24177 2.007343,-4.04912 4.280993,-4.04912 2.361369,0 4.307749,1.94416 4.307749,4.30553 0,2.36136 -1.94638,4.30774 -4.307749,4.30774 -1.627162,0 -3.040614,-0.93364 -3.772624,-2.28095 h -5.844003 c -0.143249,7.9e-4 -0.285444,-0.0245 -0.41918,-0.0758 v 3.0569 c 0.133872,-0.0506 0.276073,-0.0755 0.41918,-0.0737 h 27.135108 c 0.56676,-1.71882 2.17808,-2.98332 4.07586,-2.98332 2.36137,0 4.30775,1.94415 4.30775,4.30551 0,2.36137 -1.94638,4.30775 -4.30775,4.30775 -2.03029,0 -3.74619,-1.44239 -4.18958,-3.34674 H 80.86535 c -0.14325,7.9e-4 -0.285444,-0.0243 -0.41918,-0.0758 v 3.05467 c 0.133887,-0.0506 0.27608,-0.0755 0.41918,-0.0736 h 0.49945 l 8.831776,6.61325 h 10.468364 c 0.64878,-1.56339 2.19421,-2.67562 3.97999,-2.67562 2.36138,0 4.30775,1.94416 4.30775,4.30552 0,2.36137 -1.94637,4.30775 -4.30775,4.30775 -2.13786,0 -3.91969,-1.60013 -4.24086,-3.65447 H 89.438485 l -8.834007,-6.61323 h 0.260872 c -0.177634,0.002 -0.353231,-0.038 -0.512826,-0.11592 -0.428678,2.33203 -2.429623,4.10602 -4.86071,4.20072 v 5.8819 l 7.913146,6.69351 c 0.666706,-0.42452 1.448564,-0.67782 2.289886,-0.67782 2.361371,0 4.307748,1.94415 4.30775,4.30552 0,2.36137 -1.946379,4.30775 -4.30775,4.30775 -2.36137,0 -4.307749,-1.94638 -4.307749,-4.30775 0,-0.69637 0.184568,-1.34849 0.483842,-1.93313 l -8.662322,-7.32897 v -6.92094 h -2.18732 v 14.54647 l -8.978936,6.02905 c 0.261996,0.55405 0.419182,1.16632 0.419182,1.81498 0,2.36137 -1.946381,4.30773 -4.30775,4.30773 -2.36137,0 -4.307749,-1.94636 -4.307751,-4.30773 0,-2.36138 1.946381,-4.30552 4.307751,-4.30552 0.885513,0 1.713329,0.27176 2.401369,0.73802 l 8.182939,-5.49393 v -13.32906 h -2.185089 v 3.88634 l -9.395888,4.98556 c 0.06165,0.2878 0.09587,0.58464 0.09587,0.88966 0,2.36136 -1.946381,4.30774 -4.30775,4.30774 -2.361371,0 -4.30775,-1.94638 -4.307752,-4.30774 0,-2.36136 1.946381,-4.30552 4.307752,-4.30552 1.240511,0 2.356649,0.54407 3.146082,1.39577 l 8.178482,-4.33895 v -2.55744 c -2.326003,-0.20481 -4.210366,-1.94075 -4.613217,-4.2052 h -4.042415 c 0.0051,0.0849 0.02453,0.1658 0.02453,0.25196 0,2.36138 -1.946378,4.30773 -4.307749,4.30773 -2.361369,0 -4.307748,-1.94635 -4.307748,-4.30773 0,-2.36135 1.946379,-4.30552 4.307748,-4.30552 1.413306,0 2.668338,0.70488 3.456011,1.77036 h 4.778211 v -2.6979 h -20.31242 c 0.01218,0.13047 0.04014,0.25673 0.04014,0.39019 0,2.36137 -1.946382,4.30775 -4.307754,4.30775 -2.361361,0 -4.307753,-1.94638 -4.307753,-4.30775 0,-2.36136 1.946392,-4.30552 4.307753,-4.30552 1.349996,0 2.549725,0.64658 3.342303,1.63213 h 21.237734 v -2.69791 h -7.88665 l -4.267625,-6.61326 h -0.639912 c 5.03e-4,0.0266 0.0092,0.0512 0.0092,0.0782 0,2.36137 -1.946379,4.30776 -4.307752,4.30776 -2.361369,0 -4.30775,-1.94639 -4.30775,-4.30776 0,-2.36136 1.946381,-4.30551 4.30775,-4.30551 1.492126,0 2.815443,0.777 3.58979,1.94428 h 2.593089 l 4.267613,6.61324 h 6.72053 c 0.352993,-2.32795 2.258945,-4.13217 4.631053,-4.33896 -0.0013,-0.0163 -0.0016,-0.0328 -0.0022,-0.049 -7.42e-4,-0.0162 -0.0022,-0.0326 -0.0022,-0.049 V 97.079787 L 58.778405,86.729602 c -0.257583,0.06356 -0.521773,0.09647 -0.787077,0.09805 -1.860685,-2.6e-5 -3.369077,-1.508371 -3.369162,-3.369056 8.7e-5,-1.86064 1.508412,-3.368964 3.369052,-3.369051 z m 17.302347,27.915731 h -10.57539 c -1.938355,0 -3.471619,1.53327 -3.471619,3.47162 v 10.57538 c 0,1.93836 1.533263,3.47163 3.471619,3.47163 h 0.347831 c 0.224865,-0.0715 0.466333,-0.0715 0.6912,0 h 3.777086 c 0.224866,-0.0715 0.466336,-0.0715 0.691203,0 h 3.779313 c 0.224865,-0.0715 0.466334,-0.0715 0.691201,0 h 0.597556 c 1.938355,0 3.473848,-1.53327 3.473848,-3.47163 V 111.4767 c 0,-1.93835 -1.535493,-3.47162 -3.473848,-3.47162 z m -1.413619,1.72801 c 1.750118,0 3.159462,1.40711 3.159462,3.15724 v 7.74814 c 0,1.75012 -1.409344,3.15723 -3.159462,3.15723 h -7.745922 c -1.750118,0 -3.159462,-1.40711 -3.159462,-3.15723 v -7.74814 c 0,-1.75013 1.409344,-3.15724 3.159462,-3.15724 z"
         style="color:#000000;font-style:normal;font-variant:normal;font-weight:normal;font-stretch:normal;font-size:medium;line-height:normal;font-family:sans-serif;font-variant-ligatures:normal;font-variant-position:normal;font-variant-caps:normal;font-variant-numeric:normal;font-variant-alternates:normal;font-feature-settings:normal;text-indent:0;text-align:start;text-decoration:none;text-decoration-line:none;text-decoration-style:solid;text-decoration-color:#000000;letter-spacing:normal;word-spacing:normal;text-transform:none;writing-mode:lr-tb;direction:ltr;text-orientation:mixed;dominant-baseline:auto;baseline-shift:baseline;text-anchor:start;white-space:normal;shape-padding:0;clip-rule:nonzero;display:inline;overflow:visible;visibility:visible;opacity:1;isolation:auto;mix-blend-mode:normal;color-interpolation:sRGB;color-interpolation-filters:linearRGB;solid-color:#000000;solid-opacity:1;vector-effect:none;fill:#ffa6a6;fill-opacity:1;fill-rule:evenodd;stroke:none;stroke-width:5.70799017;stroke-linecap:round;stroke-linejoin:round;stroke-miterlimit:4;stroke-dasharray:none;stroke-dashoffset:0;stroke-opacity:1;paint-order:normal;color-rendering:auto;image-rendering:auto;shape-rendering:auto;text-rendering:auto;enable-background:accumulate"
         sodipodi:nodetypes="ccccccccccccccccccccccsssccccccsssccccccccsssccccccccssssccccccssssccccccsssscccccssssccccssssccccccssssccccccsccccccsssssccccccsssssssssssss" />
      <g
         id="g2607"
         transform="matrix(0.41513756,0,0,0.41513756,-10.605899,60.05467)"
         style="fill:#ffa6a6;fill-opacity:1">
        <path
           style="fill:#ffa6a6;fill-opacity:1;stroke-width:0.22427103"
           d="m 73.393351,112.69587 c -1.167161,-0.57773 -2.442316,-2.0188 -2.742476,-3.0993 -0.122172,-0.43979 -0.222693,-1.73891 -0.223379,-2.88694 -0.0018,-2.8536 -0.314506,-3.95696 -1.440515,-5.08127 -1.450419,-1.44823 -3.625225,-1.865965 -5.401003,-1.03742 -0.493396,0.23021 -1.553077,1.09713 -2.354846,1.92649 -2.381875,2.46384 -4.641683,3.15984 -6.91295,2.12912 -1.377018,-0.62491 -6.375288,-5.572981 -7.101386,-7.030072 -0.685882,-1.376385 -0.735736,-2.995667 -0.133089,-4.322788 0.231187,-0.509111 1.281911,-1.834775 2.334942,-2.945922 2.079609,-2.194379 2.314188,-2.722632 2.117592,-4.768648 -0.127404,-1.325917 -0.843266,-2.461791 -2.079338,-3.299334 -0.830547,-0.562765 -1.121642,-0.618254 -3.924743,-0.74815 -1.665212,-0.07717 -3.312091,-0.25655 -3.65973,-0.398635 -1.154972,-0.472052 -2.142806,-1.402436 -2.721032,-2.562785 -0.551216,-1.106148 -0.571562,-1.295805 -0.569449,-5.30818 0.0021,-3.910703 0.03434,-4.230092 0.536543,-5.30865 0.543931,-1.168171 1.505861,-2.07945 2.714191,-2.571272 0.3695,-0.150396 2.034265,-0.336581 3.699477,-0.413746 2.803101,-0.129896 3.094196,-0.185385 3.924743,-0.74815 1.334657,-0.904342 1.975617,-1.987459 2.08695,-3.526591 0.136908,-1.89276 -0.197906,-2.603069 -2.225188,-4.720732 -2.072546,-2.164947 -2.654143,-3.218193 -2.658033,-4.81359 -0.0047,-1.943551 0.706321,-3.051358 3.889077,-6.059029 3.147928,-2.974762 3.937721,-3.493737 5.553096,-3.648954 1.719453,-0.165218 2.93085,0.424778 5.064314,2.466511 1.013258,0.969695 2.195851,1.910808 2.627981,2.091361 1.710102,0.714528 4.051149,0.206202 5.329689,-1.157265 1.04423,-1.113593 1.301245,-2.068375 1.303647,-4.842904 0.0018,-2.188909 0.07353,-2.681529 0.530995,-3.651608 0.630157,-1.336275 1.250273,-1.945368 2.606608,-2.560271 0.898024,-0.407125 1.467688,-0.45808 5.170268,-0.462463 4.015109,-0.0048 4.201279,0.01512 5.30818,0.566715 2.195763,1.094196 2.977814,2.811104 2.977814,6.537476 0,1.85071 0.08777,2.498769 0.428004,3.160219 0.880254,1.711307 2.528234,2.738385 4.393824,2.738385 1.52901,0 2.448097,-0.495186 4.344659,-2.340818 2.676381,-2.604508 4.538692,-3.162169 6.868892,-2.056856 1.63373,0.774948 7.14791,6.407604 7.4887,7.649604 0.64126,2.337054 0.20198,3.487946 -2.36999,6.209275 -2.41761,2.557998 -2.7576,3.330226 -2.3468,5.330275 0.30631,1.491265 1.17128,2.638064 2.50291,3.318406 0.83883,0.428562 1.34386,0.504798 3.35107,0.505861 1.29986,6.73e-4 2.74461,0.107114 3.21054,0.236505 1.06948,0.296998 2.28737,1.357282 2.9226,2.544398 0.45984,0.859339 0.4914,1.213591 0.4914,5.515874 0,4.28344 -0.0331,4.658847 -0.48407,5.49464 -1.15827,2.146519 -2.57708,2.803388 -6.05519,2.803388 -2.54317,0 -3.30943,0.21044 -4.538,1.246295 -1.45552,1.227202 -1.98564,3.437684 -1.24788,5.203395 0.1904,0.455678 1.13471,1.638271 2.09849,2.627981 0.96377,0.98971 1.93561,2.152701 2.15964,2.584423 0.57312,1.104441 0.54453,3.208908 -0.0594,4.373285 -0.25591,0.493396 -1.86625,2.274064 -3.57853,3.957041 -3.32096,3.26411 -3.80857,3.55748 -5.90034,3.54986 -1.500441,-0.005 -2.77234,-0.70145 -4.687092,-2.56478 -0.944849,-0.91947 -2.090137,-1.8273 -2.545082,-2.01739 -1.751494,-0.73182 -3.854263,-0.23066 -5.257177,1.25297 -0.997073,1.05443 -1.190814,1.71647 -1.193647,4.07886 -0.0033,2.76666 -0.157687,3.54168 -0.980686,4.92343 -0.54363,0.91271 -0.96936,1.31036 -1.916514,1.7901 -1.201777,0.60871 -1.273358,0.61674 -5.494641,0.61657 -3.901858,-1.6e-4 -4.360999,-0.0418 -5.23464,-0.4742 z m 7.573632,-23.083139 c 6.706234,-1.057805 12.021654,-5.824148 13.709886,-12.293661 0.608012,-2.329987 0.608012,-5.808149 0,-8.138136 -1.668552,-6.394102 -6.771527,-11.079951 -13.296801,-12.209896 -3.60513,-0.624279 -6.71561,-0.137541 -10.183057,1.593477 -3.878761,1.936354 -6.746845,5.253849 -8.192594,9.476324 -0.701783,2.049637 -0.746933,2.364518 -0.746933,5.209163 0,2.844645 0.04515,3.159526 0.746933,5.209163 2.613206,7.632164 10.24486,12.370916 17.962566,11.153566 z"
           id="path2593"
           inkscape:connector-curvature="0" />
        <path
           style="fill:#ffa6a6;fill-opacity:1;stroke-width:0.22427103"
           d="m 73.843884,112.87087 c -1.197017,-0.43412 -2.308482,-1.47696 -2.878166,-2.70044 -0.455975,-0.97928 -0.5356,-1.49737 -0.538534,-3.50404 -0.0041,-2.80669 -0.205322,-3.63993 -1.157886,-4.79473 -0.911166,-1.10461 -2.210433,-1.6979 -3.732085,-1.70421 -1.554616,-0.006 -2.275107,0.38583 -4.306081,2.34447 -0.925118,0.89217 -2.035259,1.81078 -2.466981,2.04136 -1.03343,0.55195 -3.630634,0.57787 -4.616581,0.0461 -0.380512,-0.20524 -2.015078,-1.66806 -3.632368,-3.25071 -3.123025,-3.056125 -3.848797,-4.144864 -3.855511,-5.78368 -0.0073,-1.77831 0.394121,-2.565822 2.337533,-4.585979 2.263282,-2.35266 2.66451,-3.075669 2.649035,-4.773549 -0.01462,-1.603995 -0.797254,-3.052042 -2.124138,-3.930132 -0.853102,-0.564555 -1.140539,-0.617966 -3.996874,-0.742683 -2.885073,-0.12597 -3.153074,-0.176793 -4.282697,-0.812159 -0.831887,-0.467903 -1.41337,-1.0122 -1.877843,-1.757758 l -0.672813,-1.079977 v -4.615144 c 0,-4.606607 0.0011,-4.617043 0.603658,-5.641968 0.55571,-0.945264 1.653197,-1.871661 2.760407,-2.330082 0.246698,-0.10214 1.827811,-0.246658 3.513583,-0.321149 2.943046,-0.130051 3.103236,-0.162285 4.024624,-0.809863 1.297047,-0.911599 2.093133,-2.475724 2.056496,-4.040541 -0.03692,-1.576753 -0.443355,-2.283898 -2.652476,-4.614935 -1.953777,-2.061603 -2.340989,-2.819374 -2.34342,-4.586051 -0.0022,-1.611284 0.875654,-2.904416 3.950367,-5.819013 3.427736,-3.249237 3.963582,-3.572774 5.916308,-3.572185 1.863425,5.61e-4 2.784432,0.479835 4.709691,2.45083 1.819249,1.862466 2.734129,2.354846 4.375488,2.354846 1.358883,0 2.317471,-0.379065 3.325818,-1.315161 1.169728,-1.085916 1.354142,-1.702978 1.492636,-4.994428 0.121817,-2.895198 0.16431,-3.115329 0.799721,-4.143085 0.41344,-0.66872 1.092694,-1.346003 1.769306,-1.764169 l 1.09824,-0.678741 h 4.614744 c 5.027096,0 5.278936,0.05254 6.604324,1.37793 1.288002,1.288004 1.56016,2.16704 1.697122,5.481542 0.117922,2.853643 0.164788,3.102537 0.739011,3.924744 0.924755,1.324112 2.006726,1.957334 3.533106,2.067743 1.954679,0.141387 2.793636,-0.242067 4.82463,-2.205159 2.276522,-2.200407 2.951057,-2.558139 4.821832,-2.557191 2.06432,0.0011 2.75762,0.447281 6.30124,4.055726 2.79388,2.844988 3.07298,3.204234 3.33182,4.288578 0.52815,2.212536 -0.066,3.657488 -2.46413,5.99319 -1.79554,1.748762 -2.447,2.896599 -2.45432,4.324421 -0.009,1.737141 1.09363,3.497477 2.70561,4.319848 0.68968,0.351848 1.31988,0.438708 3.18301,0.438708 2.82779,0 4.28135,0.385744 5.25869,1.395549 1.27317,1.315459 1.48624,2.140629 1.58597,6.142281 0.10684,4.286909 -0.13107,5.752976 -1.14905,7.080793 -1.16262,1.51648 -2.04579,1.838356 -5.4217,1.975991 -2.10696,0.0859 -3.10212,0.221427 -3.58834,0.488676 -1.48336,0.815319 -2.57911,2.546644 -2.57911,4.075085 0,1.714063 0.25629,2.199134 2.28964,4.333558 2.20035,2.309713 2.67677,3.17548 2.69219,4.892365 0.0172,1.908333 -0.57654,2.837075 -3.88903,6.083748 -3.41436,3.34653 -4.26102,3.82887 -6.34355,3.61394 -1.567702,-0.1618 -1.960876,-0.38862 -4.167986,-2.40445 -2.43566,-2.22458 -3.061459,-2.53855 -4.834754,-2.42563 -1.07854,0.0687 -1.608663,0.235 -2.31981,0.72782 -1.609726,1.11554 -1.893545,1.82891 -2.065698,5.19205 -0.175497,3.42848 -0.526828,4.46721 -1.942136,5.74201 -0.504428,0.45435 -1.302741,0.93317 -1.774031,1.06404 -1.17309,0.32575 -8.503274,0.27998 -9.437751,-0.0589 z M 82.8652,89.270758 c 4.546229,-1.226441 8.698383,-4.619736 10.645769,-8.700117 1.795687,-3.762523 2.173509,-8.105101 1.036931,-11.918195 -2.785673,-9.345632 -12.486478,-14.21332 -21.678803,-10.878031 -3.992177,1.448499 -7.595457,4.797704 -9.294189,8.638839 -3.858489,8.724727 0.376632,18.968934 9.219448,22.300644 3.093498,1.165541 7.011507,1.382182 10.070844,0.55686 z"
           id="path2595"
           inkscape:connector-curvature="0" />
        <path
           style="fill:#ffa6a6;fill-opacity:1;stroke-width:0.22427103"
           d="m 73.566039,112.70286 c -2.373305,-1.07596 -2.947489,-2.22114 -3.139074,-6.26075 -0.154131,-3.24983 -0.345259,-3.88647 -1.494527,-4.97813 -0.880889,-0.83673 -2.101514,-1.30145 -3.418352,-1.30145 -1.624606,0 -2.06546,0.2412 -4.284349,2.34403 -1.679642,1.59179 -2.212824,1.9615 -3.273529,2.26986 -1.370561,0.39843 -2.584596,0.31618 -3.792345,-0.25694 -0.38717,-0.18372 -2.124145,-1.76904 -3.859944,-3.52292 -2.481826,-2.507681 -3.208541,-3.380513 -3.401952,-4.085964 -0.626331,-2.284492 -0.125175,-3.666172 2.193382,-6.047116 2.167145,-2.22546 2.585006,-2.978461 2.573106,-4.636844 -0.01137,-1.582735 -0.821852,-3.074826 -2.146334,-3.951326 -0.851326,-0.56338 -1.144383,-0.618309 -3.968413,-0.743797 -3.370767,-0.149786 -4.24255,-0.430042 -5.574029,-1.79191 -1.166595,-1.193223 -1.400084,-2.27388 -1.39867,-6.473485 6.95e-4,-2.044123 0.108326,-4.102188 0.239195,-4.573478 0.315355,-1.13566 1.648668,-2.582369 2.899348,-3.145933 0.780727,-0.351801 1.678286,-0.483762 3.964383,-0.582847 2.832158,-0.122752 2.995519,-0.15642 3.924744,-0.808824 1.338303,-0.939622 2.081046,-2.341056 2.07371,-3.912754 -0.0076,-1.633985 -0.440035,-2.400113 -2.659607,-4.712179 -2.047283,-2.1326 -2.541548,-3.222274 -2.290936,-5.050682 0.216378,-1.578653 0.631074,-2.153776 3.755248,-5.207975 3.076109,-3.007212 3.761844,-3.492337 5.297201,-3.74752 1.777306,-0.295395 3.211447,0.334994 5.29554,2.3277 2.192117,2.095993 2.997727,2.547984 4.513638,2.532395 1.440213,-0.01482 2.286372,-0.339463 3.225942,-1.237721 1.298089,-1.241014 1.464882,-1.772705 1.605659,-5.118411 0.121817,-2.895198 0.16431,-3.115329 0.799721,-4.143085 0.412722,-0.66756 1.093387,-1.346728 1.768057,-1.764169 l 1.096988,-0.678741 4.111998,-0.07389 c 4.783679,-0.08596 5.770099,0.120448 7.072403,1.479883 1.382348,1.442987 1.582885,2.076727 1.733187,5.477216 0.130151,2.944639 0.163226,3.109741 0.806229,4.024623 1.304161,1.855594 4.044376,2.619133 5.942595,1.655858 0.428522,-0.217458 1.536044,-1.125334 2.461162,-2.017502 0.925118,-0.892166 2.035259,-1.810514 2.466981,-2.040771 1.039451,-0.554387 3.395035,-0.554732 4.485425,-6.5e-4 1.08171,0.54967 6.4289,5.868925 7.00653,6.969939 0.64073,1.221283 0.64124,3.262403 0.001,4.48542 -0.25824,0.493397 -1.19488,1.603538 -2.08142,2.466982 -0.88654,0.863443 -1.80033,1.973585 -2.03064,2.466981 -1.04958,2.248494 -0.046,4.981122 2.26265,6.161219 0.58897,0.301054 1.48487,0.425601 3.58834,0.498848 3.00187,0.10453 4.02345,0.418167 5.09146,1.563129 1.0357,1.11033 1.17573,1.881791 1.20067,6.614513 0.0248,4.698482 -0.0604,5.22754 -1.05014,6.525183 -1.02598,1.34512 -2.05957,1.690697 -5.5784,1.865119 -1.72689,0.0856 -3.16473,0.167486 -3.19522,0.181974 -0.46359,0.220321 -1.98772,1.88234 -2.31566,2.525155 -0.48019,0.941236 -0.57212,2.710181 -0.19282,3.710104 0.13172,0.347241 1.08999,1.500918 2.12949,2.563728 1.0395,1.062809 2.04187,2.295862 2.22749,2.740116 0.43498,1.041028 0.43241,3.076373 -0.005,4.123696 -0.41563,0.994741 -5.44748,6.156493 -6.75494,6.929323 -0.51159,0.30241 -1.41989,0.60764 -2.01844,0.6783 -1.897912,0.22405 -2.753306,-0.17283 -5.1304,-2.38038 -2.392409,-2.22177 -3.114142,-2.56942 -5.044324,-2.4298 -1.639312,0.11858 -2.879575,0.89613 -3.721814,2.3333 -0.5561,0.94891 -0.62289,1.31285 -0.752075,4.09797 -0.102494,2.20973 -0.245891,3.25228 -0.51757,3.76294 -0.512244,0.96285 -2.092169,2.27519 -3.064157,2.5452 -0.439782,0.12217 -2.565739,0.22048 -4.724348,0.21846 -3.466304,-0.003 -4.042627,-0.0571 -4.933963,-0.46121 z m 8.157267,-23.1807 c 3.348521,-0.640678 6.071427,-2.073942 8.545135,-4.497929 8.189263,-8.024662 5.881743,-21.784587 -4.47963,-26.712398 -9.159265,-4.356092 -19.955399,0.394233 -22.991556,10.116342 -0.752956,2.41105 -0.863672,6.188324 -0.253251,8.640095 2.161925,8.683438 10.52002,14.110685 19.179302,12.45389 z"
           id="path2597"
           inkscape:connector-curvature="0" />
      </g>
      <g
         transform="matrix(4.2837973,0,0,4.2837973,13.935516,18.884751)"
         id="g2694"
         style="fill:#ffa6a6;fill-opacity:1">
        <path
           inkscape:connector-curvature="0"
           d="M 12.13,12 H 12 11.87 L 7,10.63 V 14 c 0,1.1 2.24,2 5,2 2.76,0 5,-0.9 5,-2 v -3.37 z"
           id="path2677"
           style="fill:#ffa6a6;fill-opacity:1" />
        <path
           inkscape:connector-curvature="0"
           d="m 21.13,7.52 -9,-2.5 a 0.39,0.39 0 0 0 -0.26,0 l -9,2.5 a 0.5,0.5 0 0 0 0,1 l 9,2.5 L 12,11 h 0.13 l 9,-2.5 a 0.5,0.5 0 0 0 0,-1 z"
           id="path2679"
           style="fill:#ffa6a6;fill-opacity:1" />
        <path
           inkscape:connector-curvature="0"
           d="M 19.5,12.5 A 1,1 0 0 0 19,11.65 V 8 h -1 v 3.65 a 1,1 0 0 0 -0.5,0.85 1,1 0 0 0 0.45,0.81 L 17.5,16 c 0,0.37 0.45,0.67 1,0.67 0.55,0 1,-0.3 1,-0.67 L 19.05,13.31 A 1,1 0 0 0 19.5,12.5 Z"
           id="path2681"
           style="fill:#ffa6a6;fill-opacity:1" />
      </g>
    </g>
  </g>
</svg>
