<?xml version="1.0" encoding="UTF-8" standalone="no"?>
<!-- Created with Inkscape (http://www.inkscape.org/) -->

<svg
   xmlns:dc="http://purl.org/dc/elements/1.1/"
   xmlns:cc="http://creativecommons.org/ns#"
   xmlns:rdf="http://www.w3.org/1999/02/22-rdf-syntax-ns#"
   xmlns:svg="http://www.w3.org/2000/svg"
   xmlns="http://www.w3.org/2000/svg"
   xmlns:sodipodi="http://sodipodi.sourceforge.net/DTD/sodipodi-0.dtd"
   xmlns:inkscape="http://www.inkscape.org/namespaces/inkscape"
   width="128"
   height="128"
   viewBox="0 0 128 128"
   version="1.1"
   id="SVGRoot"
   inkscape:version="0.92.4 5da689c313, 2019-01-14"
   sodipodi:docname="icon-iot.svg">
  <title
     id="title1601">Image </title>
  <defs
     id="defs849" />
  <sodipodi:namedview
     id="base"
     pagecolor="#ffffff"
     bordercolor="#666666"
     borderopacity="1.0"
     inkscape:pageopacity="0.0"
     inkscape:pageshadow="2"
     inkscape:zoom="4"
     inkscape:cx="20.634002"
     inkscape:cy="72.747187"
     inkscape:document-units="px"
     inkscape:current-layer="layer1"
     showgrid="false"
     inkscape:window-width="1920"
     inkscape:window-height="1010"
     inkscape:window-x="1600"
     inkscape:window-y="28"
     inkscape:window-maximized="1" />
  <metadata
     id="metadata852">
    <rdf:RDF>
      <cc:Work
         rdf:about="">
        <dc:format>image/svg+xml</dc:format>
        <dc:type
           rdf:resource="http://purl.org/dc/dcmitype/StillImage" />
        <dc:title>Image </dc:title>
        <dc:date>June 2019</dc:date>
        <dc:creator>
          <cc:Agent>
            <dc:title>Sujaykumar Hublikar</dc:title>
          </cc:Agent>
        </dc:creator>
        <dc:rights>
          <cc:Agent>
            <dc:title>Creative Commons Attribution-NonCommercial-ShareAlike 4.0 International License.</dc:title>
          </cc:Agent>
        </dc:rights>
        <dc:publisher>
          <cc:Agent>
            <dc:title>Sujaykumar Hublikar</dc:title>
          </cc:Agent>
        </dc:publisher>
        <dc:subject>
          <rdf:Bag>
            <rdf:li>image</rdf:li>
          </rdf:Bag>
        </dc:subject>
        <dc:description>Image</dc:description>
        <dc:contributor>
          <cc:Agent>
            <dc:title>https://github.com/Sujaykumarh</dc:title>
          </cc:Agent>
        </dc:contributor>
        <cc:license
           rdf:resource="http://creativecommons.org/licenses/by-nc-sa/4.0/" />
      </cc:Work>
      <cc:License
         rdf:about="http://creativecommons.org/licenses/by-nc-sa/4.0/">
        <cc:permits
           rdf:resource="http://creativecommons.org/ns#Reproduction" />
        <cc:permits
           rdf:resource="http://creativecommons.org/ns#Distribution" />
        <cc:requires
           rdf:resource="http://creativecommons.org/ns#Notice" />
        <cc:requires
           rdf:resource="http://creativecommons.org/ns#Attribution" />
        <cc:prohibits
           rdf:resource="http://creativecommons.org/ns#CommercialUse" />
        <cc:permits
           rdf:resource="http://creativecommons.org/ns#DerivativeWorks" />
        <cc:requires
           rdf:resource="http://creativecommons.org/ns#ShareAlike" />
      </cc:License>
    </rdf:RDF>
  </metadata>
  <g
     inkscape:label="icon"
     inkscape:groupmode="layer"
     id="layer1"
     transform="translate(0,-32)">
    <path
       style="color:#000000;font-style:normal;font-variant:normal;font-weight:normal;font-stretch:normal;font-size:medium;line-height:normal;font-family:sans-serif;font-variant-ligatures:normal;font-variant-position:normal;font-variant-caps:normal;font-variant-numeric:normal;font-variant-alternates:normal;font-feature-settings:normal;text-indent:0;text-align:start;text-decoration:none;text-decoration-line:none;text-decoration-style:solid;text-decoration-color:#000000;letter-spacing:normal;word-spacing:normal;text-transform:none;writing-mode:lr-tb;direction:ltr;text-orientation:mixed;dominant-baseline:auto;baseline-shift:baseline;text-anchor:start;white-space:normal;shape-padding:0;clip-rule:nonzero;display:inline;overflow:visible;visibility:visible;opacity:1;isolation:auto;mix-blend-mode:normal;color-interpolation:sRGB;color-interpolation-filters:linearRGB;solid-color:#000000;solid-opacity:1;vector-effect:none;fill:#abcdf0;fill-opacity:1;fill-rule:evenodd;stroke:none;stroke-width:5.22864437;stroke-linecap:round;stroke-linejoin:round;stroke-miterlimit:4;stroke-dasharray:none;stroke-dashoffset:0;stroke-opacity:1;paint-order:normal;color-rendering:auto;image-rendering:auto;shape-rendering:auto;text-rendering:auto;enable-background:accumulate"
       d="M 57.070423,37.621706 C 39.028087,37.629226 23.955058,51.041316 21.489088,68.734183 11.172151,72.115402 4.0268865,81.711368 4.0160209,92.69608 a 2.6145837,2.6145837 0 0 0 0,0.0082 c 0.00312,1.505207 -0.093786,3.374943 0.1552254,5.330767 0.2490113,1.95583 0.8910546,4.151983 2.6531286,5.810733 2.7639827,2.60192 6.5739541,2.80719 9.7996241,2.94315 3.22567,0.13598 5.974134,-0.15522 5.974134,-0.15522 a 2.6145837,2.6145837 0 1 0 -0.541246,-5.20003 c 0,0 -2.424094,0.24824 -5.212305,0.13071 -2.78821,-0.11757 -5.833442,-0.95877 -6.435726,-1.52574 -0.5328194,-0.50158 -0.8805484,-1.333873 -1.0498144,-2.663341 -0.169044,-1.327731 -0.111065,-2.99592 -0.114377,-4.675144 v -0.0021 c -3e-6,-0.0015 4e-6,-0.0026 0,-0.0041 0.0119,-9.203748 6.2440924,-17.1984 15.1671544,-19.456277 a 2.6145837,2.6145837 0 0 0 1.962785,-2.301797 C 27.799423,55.017763 41.088796,42.858063 57.070423,42.85035 c 14.769005,0.01327 27.42486,10.458405 30.240356,24.956565 a 2.6145837,2.6145837 0 0 0 3.100423,2.060821 c 1.544521,-0.322675 3.117637,-0.489673 4.695567,-0.498354 13.058291,0.0038 23.586661,10.535166 23.586091,23.594258 -0.004,1.71008 0.13387,3.370999 0.0347,4.662888 -0.0992,1.293587 -0.37783,1.999439 -0.81085,2.401912 -1.3025,1.21061 -5.87049,2.10141 -10.0243,2.05674 -4.1538,-0.0446 -7.75922,-0.63112 -7.75922,-0.63112 a 2.6145837,2.6145837 0 1 0 -0.843528,5.1592 c 0,0 3.935328,0.6489 8.547608,0.69851 4.61228,0.0496 10.03571,-0.10436 13.63941,-3.45376 1.79411,-1.66753 2.31641,-3.918951 2.46319,-5.831163 0.14676,-1.912217 -0.0218,-3.705615 -0.0184,-5.05708 a 2.6145837,2.6145837 0 0 0 0,-0.0062 c 7e-4,-15.886959 -12.93391,-28.822361 -28.820858,-28.822903 a 2.6145837,2.6145837 0 0 0 -0.0143,0 c -1.111892,0.0059 -2.206281,0.217407 -3.308753,0.351299 C 87.622674,48.810644 73.495222,37.636458 57.074508,37.621706 a 2.6145837,2.6145837 0 0 0 -0.0041,0 z m -0.330875,12.401691 c -11.783054,0.0049 -21.643056,9.025254 -22.693543,20.761394 a 1.6525689,1.6525689 0 1 0 3.29037,0.294112 C 38.236984,61.017224 46.639681,53.332311 56.74159,53.328064 a 1.6525689,1.6525689 0 1 0 -0.0021,-3.304667 z m -9.711798,29.742 c -2.163067,0 -3.945992,1.782925 -3.945993,3.945992 0,2.163068 1.782926,3.943951 3.945993,3.943951 0.81115,0 1.569447,-0.248933 2.199706,-0.676048 l 7.495753,5.032571 V 127.2276 h -2.001591 v -22.38309 l -8.606839,-4.5669 c 0.05647,-0.26362 0.08782,-0.535535 0.08782,-0.814933 0,-2.163067 -1.782926,-3.945988 -3.945992,-3.945988 -2.163068,0 -3.945992,1.782921 -3.945994,3.945988 0,2.163063 1.782926,3.943953 3.945994,3.943953 1.136337,0 2.158743,-0.49838 2.881881,-1.27857 l 7.491667,3.97459 v 21.1658 c -2.13067,0.18759 -3.856785,1.77775 -4.225806,3.85204 h -3.702943 c 0.0047,-0.0778 0.02246,-0.15188 0.02246,-0.2308 0,-2.16307 -1.782925,-3.94599 -3.945992,-3.94599 -2.163067,0 -3.945992,1.78292 -3.945992,3.94599 0,2.16306 1.782925,3.94395 3.945992,3.94395 1.294621,0 2.444257,-0.64569 3.165781,-1.6217 h 4.376947 v 2.47135 h -18.60661 c 0.01114,-0.11955 0.03677,-0.23516 0.03677,-0.35742 0,-2.16307 -1.782925,-3.94599 -3.945992,-3.94599 -2.163068,0 -3.945992,1.78292 -3.945994,3.94599 0,2.16306 1.782926,3.94395 3.945994,3.94395 1.236623,0 2.335599,-0.59229 3.061616,-1.49507 H 48.32062 v 2.47135 H 22.775825 l -3.909228,6.05788 h -0.58618 c 4.55e-4,-0.0244 0.0082,-0.047 0.0082,-0.0715 0,-2.16307 -1.782926,-3.94598 -3.945993,-3.94598 -2.163067,0 -3.945991,1.78291 -3.945992,3.94598 0,2.16306 1.782925,3.94396 3.945992,3.94396 1.366817,0 2.579004,-0.71176 3.288327,-1.78102 h 2.375358 l 3.909228,-6.05787 h 24.476592 c 0.323349,2.13246 2.069244,3.78517 4.242147,3.97459 a 1.0458335,1.0458335 0 0 0 -0.0041,0.0898 v 6.9157 a 1.0458335,1.0458335 0 1 0 2.091457,0 v -6.9157 a 1.0458335,1.0458335 0 0 0 -0.0021,-0.049 h 2.005676 a 1.0458335,1.0458335 0 0 0 -0.0021,0.049 v 6.9157 a 1.0458335,1.0458335 0 1 0 2.091458,0 v -6.9157 a 1.0458335,1.0458335 0 0 0 -0.0021,-0.049 h 2.007718 a 1.0458335,1.0458335 0 0 0 -0.0021,0.049 v 6.9157 a 1.0458335,1.0458335 0 1 0 2.091458,0 v -6.9157 a 1.0458335,1.0458335 0 0 0 -0.0021,-0.0673 c 2.228542,-0.0859 4.062532,-1.71421 4.454561,-3.85204 a 1.0458335,1.0458335 0 0 0 0.469761,0.10415 h 4.887557 c 0.125681,2.0535 1.838771,3.70907 3.921483,3.70907 2.163068,0 3.945991,-1.78089 3.945992,-3.94395 0,-2.16307 -1.782924,-3.94599 -3.945992,-3.94599 -1.490516,0 -2.785269,0.85524 -3.455807,2.08942 h -5.353233 a 1.0458335,1.0458335 0 0 0 -0.383979,0.0694 v -2.80018 a 1.0458335,1.0458335 0 0 0 0.383979,0.0675 h 24.856736 c 0.519171,1.57447 1.995175,2.73279 3.733579,2.73279 2.163072,0 3.94599,-1.78089 3.94599,-3.94395 0,-2.16307 -1.782918,-3.946 -3.94599,-3.946 -1.859788,0 -3.431591,1.32127 -3.837743,3.06571 H 67.832036 a 1.0458335,1.0458335 0 0 0 -0.383979,0.0694 v -2.79814 a 1.0458335,1.0458335 0 0 0 0.383979,0.0674 h 13.006253 l 8.090102,-6.05788 h 15.863619 c 0.59429,1.43211 2.00995,2.45097 3.64576,2.45097 2.16307,0 3.94599,-1.78089 3.94599,-3.94395 0,-2.16307 -1.78292,-3.94599 -3.94599,-3.94599 -1.95833,0 -3.59053,1.46575 -3.88473,3.34755 H 88.233961 l -8.092144,6.05788 H 67.832036 a 1.0458335,1.0458335 0 0 0 -0.469761,0.1062 c -0.392678,-2.1362 -2.225589,-3.76121 -4.452517,-3.84795 V 94.669076 l 7.248616,-6.131402 c 0.610716,0.388868 1.326917,0.620902 2.097586,0.620902 2.163066,0 3.945991,-1.780884 3.945992,-3.943951 0,-2.163068 -1.782926,-3.945992 -3.945992,-3.945992 -2.163068,0 -3.945993,1.782924 -3.945994,3.945992 0,0.637902 0.169068,1.235244 0.44321,1.770795 L 60.8183,93.698918 V 127.2276 H 58.814666 V 90.896691 l -8.224902,-5.522756 c 0.239994,-0.507515 0.383978,-1.06836 0.383978,-1.662546 0,-2.163067 -1.782926,-3.945992 -3.945992,-3.945992 z m 6.012941,49.000163 h 0.31862 a 1.0458335,1.0458335 0 0 0 0.633157,0 h 3.459892 a 1.0458335,1.0458335 0 0 0 0.633155,0 h 3.461935 a 1.0458335,1.0458335 0 0 0 0.633156,0 h 0.547374 c 1.775575,0 3.18212,1.40449 3.18212,3.18007 v 9.6873 c 0,1.77557 -1.406545,3.18007 -3.18212,3.18007 h -9.687289 c -1.775575,0 -3.180078,-1.4045 -3.180078,-3.18007 v -9.6873 c 0,-1.77558 1.404502,-3.18007 3.180078,-3.18007 z m 1.296949,1.58289 c -1.603147,0 -2.894137,1.28895 -2.894137,2.89209 v 7.09747 c 0,1.60315 1.29099,2.8921 2.894137,2.8921 h 7.095433 c 1.603146,0 2.894137,-1.28895 2.894137,-2.8921 v -7.09747 c 0,-1.60314 -1.290991,-2.89209 -2.894137,-2.89209 z"
       id="path2298"
       inkscape:connector-curvature="0" />
  </g>
</svg>
