<?xml version="1.0" encoding="UTF-8" standalone="no"?>
<svg
   xmlns:dc="http://purl.org/dc/elements/1.1/"
   xmlns:cc="http://creativecommons.org/ns#"
   xmlns:rdf="http://www.w3.org/1999/02/22-rdf-syntax-ns#"
   xmlns:svg="http://www.w3.org/2000/svg"
   xmlns="http://www.w3.org/2000/svg"
   xmlns:sodipodi="http://sodipodi.sourceforge.net/DTD/sodipodi-0.dtd"
   xmlns:inkscape="http://www.inkscape.org/namespaces/inkscape"
   id="SVGRoot"
   version="1.1"
   viewBox="0 0 128 128"
   height="128"
   width="128"
   sodipodi:docname="icon-chip.svg"
   inkscape:version="0.92.4 5da689c313, 2019-01-14">
  <sodipodi:namedview
     pagecolor="#ffffff"
     bordercolor="#666666"
     borderopacity="1"
     objecttolerance="10"
     gridtolerance="10"
     guidetolerance="10"
     inkscape:pageopacity="0"
     inkscape:pageshadow="2"
     inkscape:window-width="1920"
     inkscape:window-height="1010"
     id="namedview1887"
     showgrid="false"
     inkscape:zoom="4"
     inkscape:cx="126.88819"
     inkscape:cy="87.837188"
     inkscape:window-x="1600"
     inkscape:window-y="28"
     inkscape:window-maximized="1"
     inkscape:current-layer="SVGRoot" />
  <title
     id="title1601">Image </title>
  <defs
     id="defs849" />
  <metadata
     id="metadata852">
    <rdf:RDF>
      <cc:Work
         rdf:about="">
        <dc:format>image/svg+xml</dc:format>
        <dc:type
           rdf:resource="http://purl.org/dc/dcmitype/StillImage" />
        <dc:title>Image </dc:title>
        <dc:date>June 2019</dc:date>
        <dc:creator>
          <cc:Agent>
            <dc:title>Sujaykumar Hublikar</dc:title>
          </cc:Agent>
        </dc:creator>
        <dc:rights>
          <cc:Agent>
            <dc:title>Creative Commons Attribution-NonCommercial-ShareAlike 4.0 International License.</dc:title>
          </cc:Agent>
        </dc:rights>
        <dc:publisher>
          <cc:Agent>
            <dc:title>Sujaykumar Hublikar</dc:title>
          </cc:Agent>
        </dc:publisher>
        <dc:subject>
          <rdf:Bag>
            <rdf:li>image</rdf:li>
          </rdf:Bag>
        </dc:subject>
        <dc:description>Image</dc:description>
        <dc:contributor>
          <cc:Agent>
            <dc:title>https://github.com/Sujaykumarh</dc:title>
          </cc:Agent>
        </dc:contributor>
        <cc:license
           rdf:resource="http://creativecommons.org/licenses/by-nc-sa/4.0/" />
      </cc:Work>
      <cc:License
         rdf:about="http://creativecommons.org/licenses/by-nc-sa/4.0/">
        <cc:permits
           rdf:resource="http://creativecommons.org/ns#Reproduction" />
        <cc:permits
           rdf:resource="http://creativecommons.org/ns#Distribution" />
        <cc:requires
           rdf:resource="http://creativecommons.org/ns#Notice" />
        <cc:requires
           rdf:resource="http://creativecommons.org/ns#Attribution" />
        <cc:prohibits
           rdf:resource="http://creativecommons.org/ns#CommercialUse" />
        <cc:permits
           rdf:resource="http://creativecommons.org/ns#DerivativeWorks" />
        <cc:requires
           rdf:resource="http://creativecommons.org/ns#ShareAlike" />
      </cc:License>
    </rdf:RDF>
  </metadata>
  <path
     style="fill:#bdbad5;fill-opacity:1;stroke-width:0.17304461"
     d="m 44.619141,19.701172 c -4.587412,0 -8.306641,3.717274 -8.306641,8.304687 v 71.988282 c 0,4.587419 3.719229,8.304689 8.306641,8.304689 h 38.761718 c 4.587412,0 8.306641,-3.71727 8.306641,-8.304689 V 28.005859 c 0,-4.587413 -3.719229,-8.304687 -8.306641,-8.304687 h -14.40625 c 0,0 1.137184,6.748801 -4.974609,6.75 -6.111793,0.0012 -4.976562,-6.75 -4.976562,-6.75 z m 3.621093,8.777344 c 1.905923,2.58e-4 3.450914,1.545249 3.451172,3.451172 -2.59e-4,1.905922 -1.54525,3.450913 -3.451172,3.451171 -1.905922,-2.58e-4 -3.450913,-1.545249 -3.451172,-3.451171 2.58e-4,-1.905923 1.545249,-3.450914 3.451172,-3.451172 z m -23.347656,6.449218 c -0.57404,-4.39e-4 -1.039502,0.465023 -1.039062,1.039063 v 1.039062 h -3.115235 c -0.572515,6.39e-4 -1.036471,0.464595 -1.037109,1.03711 v 2.076172 c -4.39e-4,0.573277 0.463832,1.038422 1.037109,1.039062 h 3.115235 v 1.039063 c 6.4e-4,0.573277 0.465785,1.037548 1.039062,1.037109 h 7.267578 v -8.306641 z m 70.947266,0 v 8.306641 h 7.267576 c 0.57328,4.38e-4 1.03842,-0.463833 1.03906,-1.037109 v -1.039063 h 3.11524 c 0.57328,-6.39e-4 1.03755,-0.465784 1.03711,-1.039062 v -2.076172 c -6.4e-4,-0.572516 -0.46459,-1.036472 -1.03711,-1.03711 h -3.11524 v -1.039062 c 4.4e-4,-0.57404 -0.46502,-1.039501 -1.03906,-1.039063 z M 24.892578,51.541016 c -0.573277,-4.39e-4 -1.038422,0.463832 -1.039062,1.037109 v 1.039063 h -3.115235 c -0.573277,6.4e-4 -1.037548,0.465785 -1.037109,1.039062 v 2.076172 c 6.39e-4,0.572515 0.464594,1.03647 1.037109,1.037109 h 3.115235 v 1.039063 c -4.39e-4,0.57404 0.465022,1.039501 1.039062,1.039062 h 7.267578 v -8.30664 z m 70.947266,0 v 8.30664 h 7.267576 c 0.57404,4.38e-4 1.0395,-0.465023 1.03906,-1.039062 v -1.039063 h 3.11524 c 0.57252,-6.38e-4 1.03647,-0.464594 1.03711,-1.037109 V 54.65625 c 4.4e-4,-0.573278 -0.46383,-1.038423 -1.03711,-1.039062 h -3.11524 v -1.039063 c -6.4e-4,-0.573276 -0.46578,-1.037547 -1.03906,-1.037109 z M 24.892578,68.152344 c -0.57404,-4.39e-4 -1.039501,0.465022 -1.039062,1.039062 v 1.039063 h -3.115235 c -0.572515,6.39e-4 -1.03647,0.464594 -1.037109,1.037109 v 2.076172 c -4.39e-4,0.573277 0.463832,1.038422 1.037109,1.039062 h 3.115235 v 1.039063 c 6.4e-4,0.573277 0.465785,1.037548 1.039062,1.037109 h 7.267578 v -8.30664 z m 70.947266,0 v 8.30664 h 7.267576 c 0.57328,4.38e-4 1.03842,-0.463833 1.03906,-1.037109 v -1.039063 h 3.11524 c 0.57328,-6.39e-4 1.03755,-0.465784 1.03711,-1.039062 v -2.076172 c -6.4e-4,-0.572515 -0.46459,-1.036471 -1.03711,-1.037109 h -3.11524 v -1.039063 c 4.4e-4,-0.574039 -0.46502,-1.0395 -1.03906,-1.039062 z M 24.892578,84.765625 c -0.573277,-4.39e-4 -1.038422,0.463832 -1.039062,1.037109 v 1.039063 h -3.115235 c -0.573277,6.4e-4 -1.037548,0.465785 -1.037109,1.039062 v 2.076172 c 6.38e-4,0.572515 0.464594,1.036471 1.037109,1.03711 h 3.115235 v 1.039062 c -4.4e-4,0.57404 0.465022,1.039502 1.039062,1.039063 h 7.267578 v -8.306641 z m 70.947266,0 v 8.306641 h 7.267576 c 0.57404,4.38e-4 1.0395,-0.465023 1.03906,-1.039063 v -1.039062 h 3.11524 c 0.57252,-6.38e-4 1.03647,-0.464594 1.03711,-1.03711 v -2.076172 c 4.4e-4,-0.573278 -0.46383,-1.038423 -1.03711,-1.039062 h -3.11524 v -1.039063 c -6.4e-4,-0.573276 -0.46578,-1.037547 -1.03906,-1.037109 z"
     id="path855"
     inkscape:connector-curvature="0"
     sodipodi:nodetypes="ssssssssczcsccccccccccccccccccccccccccccccccccccccccccccccccccccccccccccccccccccccccccccccccccccccccccccccccccccscccccccc" />
  <rect
     style="opacity:1;fill:#f1f1f1;fill-opacity:1;fill-rule:evenodd;stroke:none;stroke-width:8.19672108;stroke-linecap:round;stroke-linejoin:round;stroke-miterlimit:4;stroke-dasharray:none;stroke-dashoffset:0;stroke-opacity:1;paint-order:normal"
     id="rect1629"
     width="5.3278689"
     height="37.090164"
     x="45.75"
     y="57.659836"
     rx="2.6639345"
     ry="2.6639345" />
</svg>
