<?xml version="1.0" encoding="UTF-8" standalone="no"?>
<svg
   xmlns:dc="http://purl.org/dc/elements/1.1/"
   xmlns:cc="http://creativecommons.org/ns#"
   xmlns:rdf="http://www.w3.org/1999/02/22-rdf-syntax-ns#"
   xmlns:svg="http://www.w3.org/2000/svg"
   xmlns="http://www.w3.org/2000/svg"
   xmlns:sodipodi="http://sodipodi.sourceforge.net/DTD/sodipodi-0.dtd"
   xmlns:inkscape="http://www.inkscape.org/namespaces/inkscape"
   id="SVGRoot"
   version="1.1"
   viewBox="0 0 128 128"
   height="128"
   width="128"
   sodipodi:docname="icon-devices-fix.svg"
   inkscape:version="0.92.4 5da689c313, 2019-01-14">
  <sodipodi:namedview
     pagecolor="#ffffff"
     bordercolor="#666666"
     borderopacity="1"
     objecttolerance="10"
     gridtolerance="10"
     guidetolerance="10"
     inkscape:pageopacity="0"
     inkscape:pageshadow="2"
     inkscape:window-width="1920"
     inkscape:window-height="1010"
     id="namedview1887"
     showgrid="false"
     inkscape:zoom="5.2149124"
     inkscape:cx="21.951103"
     inkscape:cy="96.539204"
     inkscape:window-x="1600"
     inkscape:window-y="28"
     inkscape:window-maximized="1"
     inkscape:current-layer="SVGRoot" />
  <title
     id="title1601">Image </title>
  <defs
     id="defs849" />
  <metadata
     id="metadata852">
    <rdf:RDF>
      <cc:Work
         rdf:about="">
        <dc:format>image/svg+xml</dc:format>
        <dc:type
           rdf:resource="http://purl.org/dc/dcmitype/StillImage" />
        <dc:title>Image </dc:title>
        <dc:date>June 2019</dc:date>
        <dc:creator>
          <cc:Agent>
            <dc:title>Sujaykumar Hublikar</dc:title>
          </cc:Agent>
        </dc:creator>
        <dc:rights>
          <cc:Agent>
            <dc:title>Creative Commons Attribution-NonCommercial-ShareAlike 4.0 International License.</dc:title>
          </cc:Agent>
        </dc:rights>
        <dc:publisher>
          <cc:Agent>
            <dc:title>Sujaykumar Hublikar</dc:title>
          </cc:Agent>
        </dc:publisher>
        <dc:subject>
          <rdf:Bag>
            <rdf:li>image</rdf:li>
          </rdf:Bag>
        </dc:subject>
        <dc:description>Image</dc:description>
        <dc:contributor>
          <cc:Agent>
            <dc:title>https://github.com/Sujaykumarh</dc:title>
          </cc:Agent>
        </dc:contributor>
        <cc:license
           rdf:resource="http://creativecommons.org/licenses/by-nc-sa/4.0/" />
      </cc:Work>
      <cc:License
         rdf:about="http://creativecommons.org/licenses/by-nc-sa/4.0/">
        <cc:permits
           rdf:resource="http://creativecommons.org/ns#Reproduction" />
        <cc:permits
           rdf:resource="http://creativecommons.org/ns#Distribution" />
        <cc:requires
           rdf:resource="http://creativecommons.org/ns#Notice" />
        <cc:requires
           rdf:resource="http://creativecommons.org/ns#Attribution" />
        <cc:prohibits
           rdf:resource="http://creativecommons.org/ns#CommercialUse" />
        <cc:permits
           rdf:resource="http://creativecommons.org/ns#DerivativeWorks" />
        <cc:requires
           rdf:resource="http://creativecommons.org/ns#ShareAlike" />
      </cc:License>
    </rdf:RDF>
  </metadata>
  <g
     id="g1017"
     transform="translate(-2.8083793e-6,-0.05837228)">
    <g
       id="g998">
      <g
         id="g2567"
         transform="matrix(1.1985043,0,0,1.1985043,-13.345541,-8.613608)">
        <path
           inkscape:connector-curvature="0"
           id="rect2500"
           d="m 14.472657,78.001588 c 0.999436,2.017264 3.071317,3.400838 5.483273,3.400838 h 89.03346 c 2.41186,0 4.48379,-1.383707 5.48327,-3.400838 z"
           style="opacity:1;fill:#a1bbe4;fill-opacity:1;fill-rule:evenodd;stroke:none;stroke-width:3.62083793;stroke-linecap:round;stroke-linejoin:bevel;stroke-miterlimit:4;stroke-dasharray:none;stroke-dashoffset:0;stroke-opacity:1;paint-order:stroke fill markers" />
        <g
           id="g2517">
          <path
             inkscape:connector-curvature="0"
             id="rect2505"
             transform="matrix(0.85153779,0,0,0.85153779,11.066506,4.1212798)"
             d="m 18.947266,26.105469 c -2.204808,0 -4.070313,1.867458 -4.070313,4.072265 V 81.0625 c 0,2.204808 1.865505,4.070312 4.070313,4.070312 h 0.09766 v 0.892579 h 84.072264 v -0.892579 h 3.36719 c 2.20479,0 4.07421,-1.865504 4.07421,-4.070312 V 30.177734 c 0,-2.204807 -1.86942,-4.072265 -4.07421,-4.072265 z m 1.800781,8.220703 h 83.937503 v 44.935547 h -1.56836 V 58.3125 H 20.748047 Z"
             style="opacity:1;fill:#a1bbe4;fill-opacity:1;fill-rule:evenodd;stroke:none;stroke-width:3.41113424;stroke-linecap:round;stroke-linejoin:round;stroke-miterlimit:4;stroke-dasharray:none;stroke-dashoffset:0;stroke-opacity:1;paint-order:stroke fill markers" />
          <path
             sodipodi:nodetypes="sssssssss"
             inkscape:connector-curvature="0"
             id="rect2507"
             d="m 27.201964,30.851866 h 74.541066 c 0.53572,0 0.96701,0.431283 0.96701,0.967004 v 39.330186 c 0,0.535721 -0.43129,0.967004 -0.96701,0.967004 H 27.201964 c -0.53572,0 -0.967003,-0.431283 -0.967003,-0.967004 V 31.81887 c 0,-0.535721 0.431283,-0.967004 0.967003,-0.967004 z"
             style="opacity:1;fill:#ffffff;fill-opacity:1;fill-rule:evenodd;stroke:none;stroke-width:5;stroke-linecap:round;stroke-linejoin:bevel;stroke-miterlimit:4;stroke-dasharray:none;stroke-dashoffset:0;stroke-opacity:1;paint-order:stroke fill markers" />
          <circle
             style="opacity:1;fill:#ffffff;fill-opacity:1;fill-rule:evenodd;stroke:none;stroke-width:2.87867975;stroke-linecap:round;stroke-linejoin:round;stroke-miterlimit:4;stroke-dasharray:none;stroke-dashoffset:0;stroke-opacity:1;paint-order:stroke fill markers"
             id="path2511"
             cx="64.472656"
             cy="28.795603"
             r="0.82801384" />
        </g>
      </g>
      <path
         id="path848"
         d="m 75.61716,50.602625 -0.498991,0.870187 c -0.182559,0.322519 -0.572018,0.456392 -0.918872,0.328603 -0.718063,-0.267748 -1.37527,-0.651122 -1.953366,-1.131857 -0.27992,-0.231235 -0.352946,-0.638951 -0.170387,-0.955383 l 0.498991,-0.870187 c -0.41988,-0.486821 -0.748483,-1.052752 -0.967555,-1.667362 h -1.004068 c -0.365111,0 -0.681543,-0.261663 -0.742399,-0.62678 -0.121703,-0.730227 -0.127789,-1.496967 0,-2.257621 0.06086,-0.365118 0.377288,-0.632866 0.742399,-0.632866 h 1.004068 c 0.219072,-0.614609 0.547675,-1.180541 0.967555,-1.667362 l -0.498991,-0.870186 c -0.182559,-0.316433 -0.115618,-0.724149 0.170387,-0.955385 0.578096,-0.480734 1.241389,-0.864108 1.953366,-1.131857 0.346854,-0.127788 0.736313,0.0057 0.918872,0.328604 l 0.498991,0.870187 c 0.638952,-0.115617 1.290066,-0.115617 1.929025,0 l 0.498984,-0.870187 c 0.182559,-0.322518 0.572018,-0.456392 0.91887,-0.328604 0.718063,0.267749 1.375272,0.651123 1.953367,1.131857 0.27992,0.231236 0.352947,0.638952 0.170388,0.955385 l -0.498991,0.870186 c 0.419886,0.486821 0.748483,1.052753 0.967555,1.667362 h 1.004068 c 0.365109,0 0.68155,0.261663 0.742397,0.626781 0.121705,0.730226 0.127789,1.496966 0,2.25762 -0.06086,0.365117 -0.377288,0.632866 -0.742397,0.632866 h -1.004068 c -0.219072,0.61461 -0.547669,1.180541 -0.967555,1.667362 l 0.498991,0.870187 c 0.182559,0.316432 0.115617,0.724148 -0.170388,0.955383 -0.578095,0.480735 -1.241388,0.864109 -1.953367,1.131857 -0.346852,0.127789 -0.736311,-0.0057 -0.91887,-0.328603 l -0.498984,-0.870187 c -0.632873,0.115618 -1.290073,0.115618 -1.929025,0 z m -0.638951,-3.578129 c 2.342818,1.801235 5.014241,-0.870188 3.213006,-3.213006 -2.34282,-1.807321 -5.014242,0.870186 -3.213006,3.213006 z m -7.016293,9.365196 2.050729,1.022324 c 0.614608,0.352939 0.882365,1.10143 0.638951,1.770809 -0.541584,1.472624 -1.606506,2.823551 -2.592318,4.004089 -0.450307,0.541587 -1.229219,0.675462 -1.843827,0.322518 L 64.444642,62.48711 c -0.973633,0.833679 -2.10549,1.496972 -3.340801,1.929024 v 2.044642 c 0,0.70589 -0.50507,1.314414 -1.198791,1.436118 -1.496974,0.255581 -3.066967,0.267751 -4.618704,0 -0.699799,-0.121704 -1.217047,-0.724143 -1.217047,-1.436118 V 64.416134 C 52.833995,63.977996 51.702138,63.320789 50.728498,62.48711 l -1.770809,1.016236 c -0.608523,0.352945 -1.39352,0.219069 -1.843827,-0.322518 -0.985812,-1.180538 -2.026386,-2.531463 -2.567976,-3.998003 -0.243406,-0.663294 0.02433,-1.411784 0.638952,-1.770809 l 2.026386,-1.022324 c -0.237322,-1.271817 -0.237322,-2.580147 0,-3.858042 l -2.026386,-1.028411 c -0.61461,-0.352946 -0.888444,-1.101429 -0.638952,-1.764723 0.54159,-1.472632 1.582164,-2.823553 2.567976,-4.004094 0.450307,-0.541583 1.229219,-0.675458 1.843827,-0.322511 l 1.770809,1.022318 c 0.97364,-0.833682 2.105497,-1.496975 3.340801,-1.929026 v -2.050727 c 0,-0.699799 0.498991,-1.308323 1.192706,-1.430034 1.496973,-0.255577 3.073052,-0.267749 4.624789,-0.0057 0.699806,0.121703 1.217047,0.724141 1.217047,1.436119 v 2.044642 c 1.235311,0.438137 2.367168,1.095344 3.340801,1.929024 l 1.770809,-1.022324 c 0.608523,-0.352939 1.39352,-0.219064 1.843827,0.322518 0.985812,1.180542 2.020307,2.531463 2.56189,4.004095 0.243414,0.663293 0.0057,1.411777 -0.608523,1.770808 l -2.050729,1.022318 c 0.237329,1.277902 0.237329,2.586232 0,3.864135 z m -7.156252,1.283988 c 3.602473,-4.685638 -1.746465,-10.034576 -6.432103,-6.432104 -3.602465,4.685638 1.746466,10.034571 6.432103,6.432104 z m 14.811496,11.117746 -0.498991,0.870191 c -0.182559,0.322518 -0.572018,0.456393 -0.918872,0.328603 -0.718063,-0.26775 -1.37527,-0.651121 -1.953366,-1.131855 -0.27992,-0.23124 -0.352946,-0.638952 -0.170387,-0.955385 l 0.498991,-0.87019 c -0.41988,-0.486819 -0.748483,-1.052748 -0.967555,-1.667358 h -1.004068 c -0.365111,0 -0.681543,-0.261665 -0.742399,-0.62678 -0.121703,-0.73023 -0.127789,-1.496971 0,-2.257628 0.06086,-0.365113 0.377288,-0.632865 0.742399,-0.632865 h 1.004068 c 0.219072,-0.61461 0.547675,-1.180538 0.967555,-1.667358 l -0.498991,-0.870188 c -0.182559,-0.316432 -0.115618,-0.724148 0.170387,-0.955383 0.578096,-0.480736 1.241389,-0.864109 1.953366,-1.131857 0.346854,-0.127789 0.736313,0.0057 0.918872,0.328603 l 0.498991,0.870187 c 0.638952,-0.115618 1.290066,-0.115618 1.929025,0 l 0.498984,-0.870187 c 0.182559,-0.322518 0.572018,-0.456392 0.91887,-0.328603 0.718063,0.267748 1.375272,0.651121 1.953367,1.131857 0.27992,0.231235 0.352947,0.638951 0.170388,0.955383 l -0.498991,0.870188 c 0.419886,0.48682 0.748483,1.052748 0.967555,1.667358 h 1.004068 c 0.365109,0 0.68155,0.261666 0.742397,0.626781 0.121705,0.73023 0.127789,1.49697 0,2.257626 -0.06086,0.365115 -0.377288,0.632866 -0.742397,0.632866 h -1.004068 c -0.219072,0.61461 -0.547669,1.180539 -0.967555,1.667358 l 0.498991,0.87019 c 0.182559,0.316433 0.115617,0.724145 -0.170388,0.955385 -0.578095,0.480734 -1.241388,0.864105 -1.953367,1.131855 -0.346852,0.12779 -0.736311,-0.0061 -0.91887,-0.328603 l -0.498984,-0.870191 c -0.632873,0.11562 -1.290073,0.11562 -1.929025,0 z m -0.638951,-3.584211 c 2.342818,1.801234 5.014241,-0.87019 3.213006,-3.213009 -2.34282,-1.801235 -5.014242,0.870189 -3.213006,3.213009 z"
         inkscape:connector-curvature="0"
         style="fill:#aaccff;fill-opacity:1;stroke-width:0.06085248" />
    </g>
    <path
       style="fill:#5f8dd3;fill-opacity:1;stroke:#ffffff;stroke-width:8.16457367;stroke-miterlimit:4;stroke-dasharray:none;stroke-opacity:1;paint-order:markers stroke fill"
       inkscape:connector-curvature="0"
       d="m 117.33506,88.754013 c 0.22862,-1.239766 0.22862,-2.505911 0,-3.745678 l 2.26852,-1.310107 c 0.26377,-0.149476 0.37808,-0.457219 0.29016,-0.747377 -0.58912,-1.899217 -1.60027,-3.62258 -2.91918,-5.046992 -0.20222,-0.219817 -0.52755,-0.272573 -0.79134,-0.123098 l -2.2685,1.310108 c -0.9584,-0.817718 -2.05749,-1.450791 -3.2445,-1.872838 v -2.620216 c 0,-0.298951 -0.21103,-0.562731 -0.50118,-0.62428 -1.96077,-0.439633 -3.9567,-0.422048 -5.82074,0 -0.29016,0.06155 -0.50119,0.325329 -0.50119,0.62428 v 2.620216 c -1.18701,0.422047 -2.2861,1.05512 -3.2445,1.872838 l -2.268501,-1.310108 c -0.25499,-0.149475 -0.589115,-0.09672 -0.791342,0.123098 -1.318905,1.424412 -2.330057,3.147775 -2.919171,5.046992 -0.08797,0.290158 0.03521,0.597901 0.290158,0.747377 l 2.268517,1.310107 c -0.228618,1.239767 -0.228618,2.505912 0,3.745678 l -2.268517,1.310108 c -0.263777,0.149473 -0.378081,0.457216 -0.290158,0.747375 0.589114,1.899222 1.600266,3.613793 2.919171,5.046993 0.202227,0.219821 0.527565,0.272574 0.791342,0.123102 l 2.268501,-1.310108 c 0.9584,0.817712 2.05749,1.450783 3.2445,1.872841 v 2.620214 c 0,0.298946 0.21103,0.562723 0.50119,0.624274 1.96076,0.439628 3.95669,0.422048 5.82074,0 0.29015,-0.06154 0.50118,-0.325328 0.50118,-0.624274 v -2.620214 c 1.18701,-0.422058 2.2861,-1.055129 3.2445,-1.872841 l 2.2685,1.310108 c 0.25499,0.149472 0.58912,0.09675 0.79134,-0.123102 1.31891,-1.424413 2.33006,-3.147771 2.91918,-5.046993 0.088,-0.290159 -0.0352,-0.597902 -0.29016,-0.747375 z m -10.0676,2.391608 c -2.35644,0 -4.26445,-1.916803 -4.26445,-4.264447 0,-2.347642 1.91681,-4.264444 4.26445,-4.264444 2.34764,0 4.26445,1.916802 4.26445,4.264444 0,2.347644 -1.90801,4.264447 -4.26445,4.264447 z M 83.351402,78.440211 c 6.216414,0 11.254609,-5.038199 11.254609,-11.254616 0,-6.216418 -5.038195,-11.254618 -11.254609,-11.254618 -6.216425,0 -11.25462,5.0382 -11.25462,11.254618 0,6.216417 5.038195,11.254616 11.25462,11.254616 z m 17.690848,19.915403 c -0.20223,-0.105517 -0.40447,-0.228618 -0.59791,-0.342922 l -0.694617,0.404461 c -0.527554,0.298956 -1.125456,0.466014 -1.723358,0.466014 -0.958398,0 -1.881638,-0.404463 -2.54108,-1.107871 -1.609064,-1.740952 -2.840037,-3.859987 -3.534659,-6.119706 -0.483597,-1.5563 0.167068,-3.200528 1.573885,-4.018246 l 0.694622,-0.404462 c -0.0092,-0.228611 -0.0092,-0.45722 0,-0.685829 L 93.524511,86.14259 c -1.406817,-0.808925 -2.057482,-2.461947 -1.573885,-4.01825 0.07909,-0.254987 0.19344,-0.509975 0.281372,-0.764962 -0.334125,-0.02638 -0.659453,-0.105513 -1.002365,-0.105513 h -1.468378 c -1.951976,0.896853 -4.123763,1.406828 -6.409853,1.406828 -2.286101,0 -4.449091,-0.509975 -6.409864,-1.406828 H 75.47317 c -6.524168,0 -11.817353,5.293188 -11.817353,11.81735 v 3.65775 c 0,2.330056 1.890425,4.220485 4.220482,4.220485 h 30.950195 c 0.88806,0 1.714566,-0.28136 2.391606,-0.74738 -0.10551,-0.334123 -0.17585,-0.677035 -0.17585,-1.037532 z"
       id="path859" />
    <g
       id="g989">
      <g
         id="g2559"
         transform="matrix(0.81867272,0,0,0.81867272,-107.78118,34.194797)">
        <path
           sodipodi:nodetypes="sssssssssccccc"
           inkscape:connector-curvature="0"
           id="path2539"
           d="m 154.04526,36.960978 c 0,-1.196339 1.01272,-2.209061 2.20906,-2.209061 h 21.61012 c 1.19634,0 2.20906,1.012722 2.20906,2.209061 v 47.497883 c 0,1.196333 -1.01272,2.210304 -2.20906,2.210304 h -21.61012 c -1.19634,0 -2.20906,-1.013971 -2.20906,-2.210304 z m 7.63734,8.796043 v 29.90704 h 12.02797 v -29.90704 z"
           style="color:#000000;font-style:normal;font-variant:normal;font-weight:normal;font-stretch:normal;font-size:medium;line-height:normal;font-family:sans-serif;font-variant-ligatures:normal;font-variant-position:normal;font-variant-caps:normal;font-variant-numeric:normal;font-variant-alternates:normal;font-feature-settings:normal;text-indent:0;text-align:start;text-decoration:none;text-decoration-line:none;text-decoration-style:solid;text-decoration-color:#000000;letter-spacing:normal;word-spacing:normal;text-transform:none;writing-mode:lr-tb;direction:ltr;text-orientation:mixed;dominant-baseline:auto;baseline-shift:baseline;text-anchor:start;white-space:normal;shape-padding:0;clip-rule:nonzero;display:inline;overflow:visible;visibility:visible;opacity:1;isolation:auto;mix-blend-mode:normal;color-interpolation:sRGB;color-interpolation-filters:linearRGB;solid-color:#000000;solid-opacity:1;vector-effect:none;fill:#5f8dd3;fill-opacity:1;fill-rule:evenodd;stroke:none;stroke-width:3.18602324;stroke-linecap:round;stroke-linejoin:bevel;stroke-miterlimit:4;stroke-dasharray:none;stroke-dashoffset:0;stroke-opacity:1;paint-order:stroke fill markers;color-rendering:auto;image-rendering:auto;shape-rendering:auto;text-rendering:auto;enable-background:accumulate" />
        <path
           style="opacity:1;fill:#ffffff;fill-opacity:1;fill-rule:evenodd;stroke:none;stroke-width:2.72402763;stroke-linecap:round;stroke-linejoin:bevel;stroke-miterlimit:4;stroke-dasharray:none;stroke-dashoffset:0;stroke-opacity:1;paint-order:stroke fill markers"
           d="m 156.42155,39.63019 v 40.195757 c 0,0.27336 0.25087,0.493435 0.56249,0.493435 h 20.15068 c 0.31162,0 0.56249,-0.220075 0.56249,-0.493435 V 39.63019 c 0,-0.273361 -0.25087,-0.493431 -0.56249,-0.493431 h -20.15068 c -0.31162,0 -0.56249,0.22007 -0.56249,0.493431 z"
           id="path2541"
           inkscape:connector-curvature="0"
           sodipodi:nodetypes="sssssssss" />
        <circle
           transform="matrix(0,1,1,0,0,0)"
           r="0.30794692"
           cy="170.7823"
           cx="37.016403"
           id="circle2543"
           style="opacity:1;fill:#ffffff;fill-opacity:1;fill-rule:evenodd;stroke:none;stroke-width:1.07061088;stroke-linecap:round;stroke-linejoin:round;stroke-miterlimit:4;stroke-dasharray:none;stroke-dashoffset:0;stroke-opacity:1;paint-order:stroke fill markers" />
        <rect
           style="opacity:1;fill:#ffffff;fill-opacity:1;fill-rule:evenodd;stroke:none;stroke-width:0.53981924;stroke-linecap:round;stroke-linejoin:round;stroke-miterlimit:4;stroke-dasharray:none;stroke-dashoffset:0;stroke-opacity:1;paint-order:stroke fill markers"
           id="rect2552"
           width="4.3811092"
           height="0.25984573"
           x="164.86882"
           y="36.886482"
           rx="0.12992261"
           ry="0.12992248" />
        <circle
           style="opacity:1;fill:#ffffff;fill-opacity:1;fill-rule:evenodd;stroke:none;stroke-width:5.24103642;stroke-linecap:round;stroke-linejoin:round;stroke-miterlimit:4;stroke-dasharray:none;stroke-dashoffset:0;stroke-opacity:1;paint-order:stroke fill markers"
           id="circle832"
           cx="83.595612"
           cy="167.05939"
           r="1.5075142"
           transform="matrix(0,1,1,0,0,0)" />
      </g>
      <path
         style="fill:#aaccff;fill-opacity:1;stroke-width:0.01841264"
         inkscape:connector-curvature="0"
         d="m 32.5235,82.713856 -0.150984,0.263299 c -0.05524,0.09759 -0.17308,0.138095 -0.278031,0.09943 -0.21727,-0.08101 -0.416127,-0.197014 -0.591047,-0.342475 -0.0847,-0.06996 -0.106793,-0.193333 -0.05156,-0.289078 l 0.150984,-0.2633 c -0.127041,-0.147303 -0.226469,-0.318541 -0.292756,-0.50451 h -0.303809 c -0.110475,0 -0.206221,-0.07917 -0.224634,-0.18965 -0.03683,-0.22095 -0.03867,-0.452949 0,-0.683107 0.01842,-0.110476 0.114159,-0.191491 0.224634,-0.191491 h 0.303809 c 0.06628,-0.185968 0.165715,-0.357207 0.292761,-0.504508 l -0.150984,-0.263299 c -0.05524,-0.09575 -0.03499,-0.219112 0.05156,-0.289079 0.17492,-0.14546 0.375618,-0.26146 0.591047,-0.342475 0.104951,-0.03867 0.222792,0.0017 0.278031,0.09943 l 0.150984,0.263299 c 0.193333,-0.03499 0.390346,-0.03499 0.583681,0 l 0.150981,-0.263299 c 0.05524,-0.09759 0.173081,-0.138094 0.278031,-0.09943 0.21727,0.08102 0.416127,0.197015 0.591047,0.342475 0.0847,0.06996 0.106794,0.193333 0.05156,0.289079 l -0.150985,0.263299 c 0.127049,0.147301 0.226475,0.31854 0.292762,0.504508 h 0.303809 c 0.110474,0 0.206222,0.07917 0.224633,0.18965 0.03683,0.220951 0.03867,0.45295 0,0.683107 -0.01842,0.110476 -0.114159,0.191491 -0.224633,0.191491 h -0.303809 c -0.06628,0.185969 -0.165713,0.357207 -0.292762,0.504508 l 0.150985,0.2633 c 0.05524,0.09574 0.03499,0.219112 -0.05156,0.289078 -0.17492,0.145461 -0.375618,0.261461 -0.591047,0.342475 -0.10495,0.03867 -0.222792,-0.0017 -0.278031,-0.09943 l -0.150981,-0.263299 c -0.191494,0.03499 -0.390348,0.03499 -0.583681,0 z m -0.193333,-1.082665 c 0.708886,0.545015 1.517201,-0.2633 0.972186,-0.972185 -0.708887,-0.546857 -1.517201,0.263299 -0.972186,0.972185 z m -2.122978,2.833706 0.620506,0.309333 c 0.185967,0.106792 0.266984,0.333269 0.193333,0.535808 -0.163872,0.445585 -0.486095,0.854346 -0.78438,1.211551 -0.136253,0.163872 -0.371935,0.204381 -0.557902,0.09759 l -0.535808,-0.309335 c -0.2946,0.252253 -0.637076,0.452951 -1.010854,0.58368 v 0.618665 c 0,0.213587 -0.152824,0.397713 -0.362729,0.434538 -0.452951,0.07733 -0.927997,0.08102 -1.39752,0 -0.211743,-0.03683 -0.368251,-0.21911 -0.368251,-0.434538 v -0.618665 c -0.373777,-0.132571 -0.716252,-0.331427 -1.010855,-0.58368 l -0.535808,0.307491 c -0.184126,0.106793 -0.421649,0.06628 -0.557902,-0.09759 -0.298286,-0.357206 -0.613141,-0.765966 -0.777014,-1.20971 -0.07365,-0.200698 0.0074,-0.427175 0.193333,-0.535808 l 0.61314,-0.309333 c -0.07181,-0.384824 -0.07181,-0.780697 0,-1.16736 l -0.61314,-0.311175 c -0.185968,-0.106793 -0.268824,-0.333268 -0.193333,-0.533967 0.163873,-0.445586 0.478728,-0.854346 0.777014,-1.211552 0.136253,-0.163871 0.371935,-0.204379 0.557902,-0.09758 l 0.535808,0.309331 c 0.294603,-0.252254 0.637078,-0.452952 1.010855,-0.583681 v -0.620506 c 0,-0.211743 0.150983,-0.39587 0.360886,-0.432697 0.452952,-0.07733 0.92984,-0.08101 1.399361,-0.0017 0.211747,0.03683 0.368253,0.21911 0.368253,0.434539 v 0.618664 c 0.373778,0.132571 0.716254,0.331428 1.010854,0.583681 l 0.535808,-0.309333 c 0.184126,-0.106792 0.421649,-0.06628 0.557902,0.09759 0.298285,0.357207 0.611301,0.765966 0.775173,1.211552 0.07365,0.200699 0.0017,0.427174 -0.184126,0.535809 l -0.620506,0.309331 c 0.07181,0.386665 0.07181,0.782538 0,1.169204 z m -2.165328,0.388507 c 1.090031,-1.417773 -0.528442,-3.036245 -1.946215,-1.946216 -1.090028,1.417773 0.528443,3.036245 1.946215,1.946216 z m 4.481639,3.363989 -0.150984,0.263301 c -0.05524,0.09759 -0.17308,0.138095 -0.278031,0.09943 -0.21727,-0.08102 -0.416127,-0.197015 -0.591047,-0.342474 -0.0847,-0.06997 -0.106793,-0.193333 -0.05156,-0.289079 l 0.150984,-0.263301 c -0.127041,-0.147303 -0.226469,-0.318541 -0.292756,-0.504509 h -0.303809 c -0.110475,0 -0.206221,-0.07917 -0.224634,-0.189649 -0.03683,-0.220952 -0.03867,-0.452952 0,-0.68311 0.01842,-0.110475 0.114159,-0.191491 0.224634,-0.191491 h 0.303809 c 0.06628,-0.185968 0.165715,-0.357205 0.292761,-0.504506 l -0.150984,-0.263301 c -0.05524,-0.09575 -0.03499,-0.219111 0.05156,-0.289078 0.17492,-0.14546 0.375618,-0.261461 0.591047,-0.342475 0.104951,-0.03867 0.222792,0.0017 0.278031,0.09943 l 0.150984,0.263299 c 0.193333,-0.03499 0.390346,-0.03499 0.583681,0 l 0.150981,-0.263299 c 0.05524,-0.09759 0.173081,-0.138094 0.278031,-0.09943 0.21727,0.08101 0.416127,0.197015 0.591047,0.342475 0.0847,0.06996 0.106794,0.193333 0.05156,0.289078 l -0.150985,0.263301 c 0.127049,0.147301 0.226475,0.318538 0.292762,0.504506 h 0.303809 c 0.110474,0 0.206222,0.07917 0.224633,0.18965 0.03683,0.220952 0.03867,0.452951 0,0.683109 -0.01842,0.110476 -0.114159,0.191491 -0.224633,0.191491 h -0.303809 c -0.06628,0.185968 -0.165713,0.357206 -0.292762,0.504507 l 0.150985,0.263301 c 0.05524,0.09575 0.03499,0.21911 -0.05156,0.289079 -0.17492,0.145459 -0.375618,0.261459 -0.591047,0.342474 -0.10495,0.03867 -0.222792,-0.0018 -0.278031,-0.09943 l -0.150981,-0.263301 c -0.191494,0.03499 -0.390348,0.03499 -0.583681,0 z m -0.193333,-1.084505 c 0.708886,0.545015 1.517201,-0.2633 0.972186,-0.972187 -0.708887,-0.545014 -1.517201,0.263301 -0.972186,0.972187 z"
         id="path980" />
    </g>
  </g>
</svg>
