<?xml version="1.0" encoding="UTF-8" standalone="no"?>
<svg
   xmlns:dc="http://purl.org/dc/elements/1.1/"
   xmlns:cc="http://creativecommons.org/ns#"
   xmlns:rdf="http://www.w3.org/1999/02/22-rdf-syntax-ns#"
   xmlns:svg="http://www.w3.org/2000/svg"
   xmlns="http://www.w3.org/2000/svg"
   xmlns:sodipodi="http://sodipodi.sourceforge.net/DTD/sodipodi-0.dtd"
   xmlns:inkscape="http://www.inkscape.org/namespaces/inkscape"
   inkscape:version="0.92.4 5da689c313, 2019-01-14"
   sodipodi:docname="icon-branding.svg"
   width="128"
   height="128"
   viewBox="0 0 128 128"
   version="1.1"
   id="SVGRoot">
  <sodipodi:namedview
     pagecolor="#ffffff"
     bordercolor="#666666"
     borderopacity="1"
     objecttolerance="10"
     gridtolerance="10"
     guidetolerance="10"
     inkscape:pageopacity="0"
     inkscape:pageshadow="2"
     inkscape:window-width="1920"
     inkscape:window-height="1010"
     id="namedview1887"
     showgrid="false"
     inkscape:zoom="5.2149124"
     inkscape:cx="97.484813"
     inkscape:cy="67.501134"
     inkscape:window-x="1600"
     inkscape:window-y="28"
     inkscape:window-maximized="1"
     inkscape:current-layer="SVGRoot" />
  <title
     id="title1601">Image </title>
  <defs
     id="defs849" />
  <metadata
     id="metadata852">
    <rdf:RDF>
      <cc:Work
         rdf:about="">
        <dc:format>image/svg+xml</dc:format>
        <dc:type
           rdf:resource="http://purl.org/dc/dcmitype/StillImage" />
        <dc:title>Image </dc:title>
        <dc:date>June 2019</dc:date>
        <dc:creator>
          <cc:Agent>
            <dc:title>Sujaykumar Hublikar</dc:title>
          </cc:Agent>
        </dc:creator>
        <dc:rights>
          <cc:Agent>
            <dc:title>Creative Commons Attribution-NonCommercial-ShareAlike 4.0 International License.</dc:title>
          </cc:Agent>
        </dc:rights>
        <dc:publisher>
          <cc:Agent>
            <dc:title>Sujaykumar Hublikar</dc:title>
          </cc:Agent>
        </dc:publisher>
        <dc:subject>
          <rdf:Bag>
            <rdf:li>image</rdf:li>
          </rdf:Bag>
        </dc:subject>
        <dc:description>Image</dc:description>
        <dc:contributor>
          <cc:Agent>
            <dc:title>https://github.com/Sujaykumarh</dc:title>
          </cc:Agent>
        </dc:contributor>
        <cc:license
           rdf:resource="http://creativecommons.org/licenses/by-nc-sa/4.0/" />
      </cc:Work>
      <cc:License
         rdf:about="http://creativecommons.org/licenses/by-nc-sa/4.0/">
        <cc:permits
           rdf:resource="http://creativecommons.org/ns#Reproduction" />
        <cc:permits
           rdf:resource="http://creativecommons.org/ns#Distribution" />
        <cc:requires
           rdf:resource="http://creativecommons.org/ns#Notice" />
        <cc:requires
           rdf:resource="http://creativecommons.org/ns#Attribution" />
        <cc:prohibits
           rdf:resource="http://creativecommons.org/ns#CommercialUse" />
        <cc:permits
           rdf:resource="http://creativecommons.org/ns#DerivativeWorks" />
        <cc:requires
           rdf:resource="http://creativecommons.org/ns#ShareAlike" />
      </cc:License>
    </rdf:RDF>
  </metadata>
  <path
     style="color:#000000;font-style:normal;font-variant:normal;font-weight:normal;font-stretch:normal;font-size:medium;line-height:normal;font-family:sans-serif;font-variant-ligatures:normal;font-variant-position:normal;font-variant-caps:normal;font-variant-numeric:normal;font-variant-alternates:normal;font-feature-settings:normal;text-indent:0;text-align:start;text-decoration:none;text-decoration-line:none;text-decoration-style:solid;text-decoration-color:#000000;letter-spacing:normal;word-spacing:normal;text-transform:none;writing-mode:lr-tb;direction:ltr;text-orientation:mixed;dominant-baseline:auto;baseline-shift:baseline;text-anchor:start;white-space:normal;shape-padding:0;clip-rule:nonzero;display:inline;overflow:visible;visibility:visible;opacity:1;isolation:auto;mix-blend-mode:normal;color-interpolation:sRGB;color-interpolation-filters:linearRGB;solid-color:#000000;solid-opacity:1;vector-effect:none;fill:#e9e3e9;fill-opacity:0.81642516;fill-rule:nonzero;stroke:none;stroke-width:12.36843204;stroke-linecap:round;stroke-linejoin:round;stroke-miterlimit:4;stroke-dasharray:none;stroke-dashoffset:0;stroke-opacity:1;paint-order:normal;color-rendering:auto;image-rendering:auto;shape-rendering:auto;text-rendering:auto;enable-background:accumulate"
     d="m 91.09631,17.676052 c -4.947554,0.930731 -4.230138,8.226019 0.803943,8.175159 l 4.243714,0.0077 -35.288745,42.259358 -6.044943,-7.353636 C 52.537643,58.001277 48.401393,57.736932 45.795468,60.188537 L 23.796279,84.833852 c -2.539621,2.329534 -2.685377,6.285434 -0.324082,8.795548 2.361295,2.510114 6.318715,2.606109 8.798928,0.21342 l 17.18465,-20.114483 5.978724,7.270774 c 2.247548,2.733245 6.325915,3.027012 8.941982,0.644095 l 39.215789,-45.837397 -0.32208,2.815506 c -0.28142,2.274891 1.34658,4.342611 3.624,4.602804 2.27742,0.260193 4.32986,-1.387034 4.5688,-3.666781 l 1.89179,-16.546527 c 0.51547,-1.622487 -0.0192,-3.394966 -1.34589,-4.46176 -0.005,-0.0032 -0.008,-0.0064 -0.0129,-0.0095 -0.0297,-0.02358 -0.0598,-0.04674 -0.0902,-0.06947 -0.83924,-0.663169 -1.90335,-0.97425 -2.96765,-0.867561 -0.0816,0.0097 -0.16282,0.02198 -0.24365,0.03668 L 91.916396,17.60631 c -0.275008,-0.0042 -0.549745,0.01918 -0.820102,0.06971 z"
     id="path988"
     inkscape:connector-curvature="0"
     sodipodi:nodetypes="cccccccsccccccscccccccccc" />
  <g
     id="g967"
     style="fill:#80b3ff"
     transform="matrix(1.9111999,0,0,1.9111999,275.98008,-66.507155)">
    <path
       style="fill:#80b3ff;stroke-width:0.04767855"
       inkscape:connector-curvature="0"
       d="m 45.196262,73.966829 c -0.433875,-3.604496 -3.737999,-6.312639 -7.547514,-7.566585 1.735499,1.878537 2.975141,4.796463 2.975141,8.377122 h 1.339767 l -5.559318,6.174372 c -0.119197,-0.02859 -0.228857,-0.07152 -0.35759,-0.07152 h -2.28857 v -6.102853 h 5.339998 c 0,-5.49257 -3.285052,-9.154281 -6.102855,-9.154281 -2.817801,0 -6.102853,3.661711 -6.102853,9.154281 h 5.339997 v 6.102853 h -2.28857 c -0.128732,0 -0.238393,0.04291 -0.357589,0.07152 l -5.55932,-6.174372 h 1.339767 c 0,-3.580659 1.239644,-6.498585 2.975143,-8.377122 -3.809517,1.258714 -7.113638,3.966858 -7.547515,7.566585 -0.05245,0.433878 0.324216,0.810537 0.762858,0.810537 h 0.414804 l 6.517656,7.242369 c -0.03337,0.123967 -0.07629,0.247929 -0.07629,0.3862 v 6.102852 c 0,0.84391 0.681804,1.525712 1.525714,1.525712 h 6.102854 c 0.84391,0 1.525713,-0.681802 1.525713,-1.525712 v -6.102852 c 0,-0.138271 -0.04291,-0.257465 -0.07629,-0.3862 l 6.522425,-7.242369 h 0.414803 c 0.44341,0 0.820071,-0.371895 0.767625,-0.810537 z"
       id="path925" />
    <path
       id="path947"
       d="m 31.119141,81.236328 v 2.582031 h -2.378907 v 0.5 h 2.378907 v 2.617188 h -2.378907 v 0.5 h 2.378907 v 2.310547 h 0.5 v -2.310547 h 2.753906 v 2.310547 h 0.5 V 87.435547 H 37.25 v -0.5 H 34.873047 V 84.318359 H 37.25 v -0.5 h -2.376953 v -2.582031 h -0.5 v 2.582031 h -2.753906 v -2.582031 z m 0.5,3.082031 h 2.753906 v 2.617188 h -2.753906 z"
       style="color:#000000;font-style:normal;font-variant:normal;font-weight:normal;font-stretch:normal;font-size:medium;line-height:normal;font-family:sans-serif;font-variant-ligatures:normal;font-variant-position:normal;font-variant-caps:normal;font-variant-numeric:normal;font-variant-alternates:normal;font-feature-settings:normal;text-indent:0;text-align:start;text-decoration:none;text-decoration-line:none;text-decoration-style:solid;text-decoration-color:#000000;letter-spacing:normal;word-spacing:normal;text-transform:none;writing-mode:lr-tb;direction:ltr;text-orientation:mixed;dominant-baseline:auto;baseline-shift:baseline;text-anchor:start;white-space:normal;shape-padding:0;clip-rule:nonzero;display:inline;overflow:visible;visibility:visible;opacity:1;isolation:auto;mix-blend-mode:normal;color-interpolation:sRGB;color-interpolation-filters:linearRGB;solid-color:#000000;solid-opacity:1;vector-effect:none;fill:#ffffff;fill-opacity:1;fill-rule:nonzero;stroke:none;stroke-width:0.5;stroke-linecap:butt;stroke-linejoin:miter;stroke-miterlimit:4;stroke-dasharray:none;stroke-dashoffset:0;stroke-opacity:1;color-rendering:auto;image-rendering:auto;shape-rendering:auto;text-rendering:auto;enable-background:accumulate"
       inkscape:connector-curvature="0" />
  </g>
  <path
     id="path994"
     d="m 61.525682,78.1214 h -8.693403 c -0.809627,0 -1.588895,0.303609 -2.185997,0.85011 l -9.94832,9.108326 c -0.01012,0.01056 -0.02023,0.03038 -0.03038,0.04054 -1.679983,1.578776 -1.649622,4.098742 -0.212532,5.667401 1.285288,1.406728 3.987425,1.781184 5.677526,0.273258 0.01012,-0.01056 0.03038,-0.01056 0.04048,-0.0202 l 8.086176,-7.408108 c 0.657824,-0.597108 1.6901,-0.556619 2.287201,0.101164 0.607222,0.657829 0.556621,1.679985 -0.101197,2.287211 l -2.641416,2.418768 14.735252,11.96227 c 0.293491,0.24288 0.55662,0.50601 0.799504,0.77925 V 84.598456 L 63.812862,79.072734 C 63.215767,78.465511 62.38589,78.121421 61.525665,78.121421 Z m 11.061556,6.497276 v 22.659504 c 0,1.7913 1.447204,3.23852 3.238516,3.23852 h 6.477034 V 84.618676 Z m 4.857768,22.659504 c -0.890585,0 -1.619252,-0.72867 -1.619252,-1.61927 0,-0.8906 0.728667,-1.61925 1.619252,-1.61925 0.890599,0 1.619265,0.72865 1.619265,1.61925 0,0.8906 -0.728666,1.61927 -1.619265,1.61927 z m -59.912564,3.22839 h 6.477036 c 1.791304,0 3.238516,-1.44722 3.238516,-3.23852 V 84.618676 h -9.715552 z m 4.857774,-6.46691 c 0.890595,0 1.619262,0.72865 1.619262,1.61925 0,0.8906 -0.728667,1.61927 -1.619262,1.61927 -0.89059,0 -1.619257,-0.72867 -1.619257,-1.61927 0,-0.90071 0.728667,-1.61925 1.619257,-1.61925 z m 44.114677,1.88238 -15.109705,-12.265872 -3.03611,2.783096 c -3.00575,2.742619 -7.610515,2.479489 -10.292412,-0.445293 -2.722381,-2.975387 -2.509851,-7.580155 0.445294,-10.292415 L 46.790421,78.1214 h -8.480867 c -0.86023,0 -1.679982,0.34409 -2.287204,0.951313 l -5.535839,5.525723 v 22.659504 h 1.852029 l 9.158929,8.28858 c 2.772979,2.25683 6.851487,1.83178 9.108331,-0.9412 l 0.02024,-0.0202 1.811546,1.56866 c 1.609136,1.31565 3.987424,1.06264 5.292955,-0.5465 l 3.177795,-3.90646 0.546504,0.44529 c 1.386483,1.12337 3.430796,0.92096 4.554162,-0.47565 l 0.961423,-1.18408 c 1.133482,-1.39661 0.920958,-3.43081 -0.465538,-4.56429 z"
     inkscape:connector-curvature="0"
     style="fill:#ddafe9;fill-opacity:1;stroke-width:0.10120367" />
  <g
     id="g1048"
     transform="matrix(0.83123333,0,0,0.83123333,6.4041428,-46.96074)">
    <path
       inkscape:connector-curvature="0"
       id="path901"
       d="m 71.871008,71.701859 a 2.5977749,2.5977749 0 0 0 -1.414427,0.365277 l -8.799082,5.081389 a 2.5977749,2.5977749 0 1 0 2.597513,4.498977 l 8.799084,-5.081389 a 2.5977749,2.5977749 0 0 0 -1.183088,-4.864254 z m -19.944045,0.789402 c -0.573619,0 -1.142774,0.192362 -1.609242,0.566178 L 43.466776,78.5386 c -3.440924,2.750479 -7.760009,4.265608 -12.163679,4.265608 H 15.833678 c -2.847968,0 -5.156474,2.308507 -5.156474,5.156473 v 7.733696 c 0,2.847967 2.308506,5.156473 5.156474,5.156473 h 2.715215 c -0.111983,0.84433 -0.17655,1.70229 -0.17655,2.57722 0,3.20406 0.746537,6.23294 2.059748,8.9391 0.418126,0.86124 1.331951,1.37385 2.28906,1.37385 h 5.984432 c 2.098712,0 3.358245,-2.40351 2.086129,-4.07282 -1.321263,-1.73375 -2.106422,-3.8973 -2.106422,-6.24013 0,-0.89507 0.130358,-1.75465 0.355128,-2.57722 h 2.262679 c 4.40367,0 8.723561,1.51513 12.163679,4.26561 l 6.848915,5.48116 a 2.5799255,2.5799255 0 0 0 1.611272,0.56618 c 2.007676,0 2.577222,-1.83645 2.577222,-2.57925 V 96.26867 c 1.53556,-0.893462 2.579251,-2.538415 2.579251,-4.442155 0,-1.903746 -1.044497,-3.54747 -2.579251,-4.440129 V 75.070513 c 0,-0.70494 -0.561488,-2.579252 -2.577222,-2.579252 z m -2.579251,7.942715 v 22.787104 l -2.662454,-2.13077 C 42.334762,97.609915 36.871731,95.694377 31.303097,95.694377 v -7.733696 c 5.568634,0 11.031665,-1.915537 15.382161,-5.395931 z m 13.614631,7.374506 a 2.5977749,2.5977749 0 1 0 0,5.195032 h 10.160749 a 2.5977749,2.5977749 0 1 0 0,-5.195032 z m 0.06087,10.990737 a 2.5977749,2.5977749 0 0 0 -1.365725,4.864251 l 8.799084,5.07936 a 2.5977749,2.5977749 0 1 0 2.597514,-4.49897 l -8.799082,-5.07937 a 2.5977749,2.5977749 0 0 0 -1.231791,-0.365271 z"
       style="fill:#ee7fab;stroke-width:0.08056477;fill-opacity:1" />
    <g
       id="g1042">
      <path
         inkscape:connector-curvature="0"
         style="fill:#fffdfe;fill-opacity:1;stroke-width:0.0348706"
         d="m 17.43883,87.893184 c -1.232677,0 -2.23149,0.998812 -2.23149,2.231488 v 3.348242 c 0,1.232676 0.998813,2.231488 2.23149,2.231488 h 0.665213 v -7.811218 z m 2.24963,0 v 7.811218 h 1.282048 v -7.811218 z"
         id="path969" />
      <path
         style="fill:#ffffff;fill-opacity:1;stroke-width:0.08056477"
         d="m 49.348027,80.433337 -2.66211,2.130859 c -4.3505,3.480394 -9.81419,5.396485 -15.38282,5.396485 v 7.734374 c 5.56863,10e-7 11.03232,1.914137 15.38282,5.394525 l 2.66211,2.13086 z"
         id="path1014"
         inkscape:connector-curvature="0"
         sodipodi:nodetypes="ccccccc" />
    </g>
  </g>
  <path
     id="path890"
     d="m 101.56702,57.95973 -0.50426,0.879389 c -0.18449,0.325929 -0.57806,0.46122 -0.92859,0.332078 -0.725648,-0.270579 -1.389798,-0.658005 -1.974008,-1.143823 -0.28289,-0.233684 -0.35668,-0.645706 -0.17219,-0.965485 l 0.50427,-0.879392 c -0.42432,-0.491967 -0.75641,-1.063876 -0.97779,-1.684989 h -1.01469 c -0.36898,0 -0.68874,-0.264431 -0.75025,-0.633405 -0.12291,-0.737949 -0.12919,-1.512799 0,-2.281499 0.0614,-0.368973 0.38127,-0.639558 0.75025,-0.639558 h 1.01469 c 0.22138,-0.621108 0.55347,-1.193019 0.97779,-1.684984 l -0.50427,-0.879394 c -0.18449,-0.319776 -0.1168,-0.731801 0.17219,-0.965481 0.58421,-0.48582 1.2545,-0.873246 1.974008,-1.143827 0.35053,-0.129139 0.7441,0.0061 0.92859,0.332077 l 0.50426,0.879392 c 0.64571,-0.116848 1.30371,-0.116848 1.94942,0 l 0.50426,-0.879392 c 0.1845,-0.325928 0.57806,-0.461219 0.92859,-0.332077 0.72566,0.270581 1.38982,0.658007 1.97403,1.143827 0.28287,0.23368 0.35667,0.645705 0.17219,0.965481 l -0.50426,0.879394 c 0.42432,0.491965 0.75639,1.063876 0.97778,1.684984 h 1.01467 c 0.36898,0 0.68876,0.264433 0.75025,0.633409 0.12291,0.737949 0.12919,1.5128 0,2.281496 -0.0614,0.368977 -0.38127,0.639557 -0.75025,0.639557 h -1.01467 c -0.22139,0.621113 -0.55346,1.193022 -0.97778,1.684989 l 0.50426,0.879392 c 0.18448,0.319779 0.1168,0.731801 -0.17219,0.965485 -0.58421,0.485818 -1.25452,0.873244 -1.97403,1.143823 -0.35053,0.129139 -0.74409,-0.0061 -0.92859,-0.332078 l -0.50426,-0.879389 c -0.63954,0.116848 -1.30371,0.116848 -1.94942,0 z m -0.6457,-3.615961 c 2.36759,1.82028 5.06726,-0.879393 3.24697,-3.246981 -2.36758,-1.82643 -5.067248,0.879389 -3.24697,3.246981 z m -7.090476,9.464218 2.072398,1.03313 c 0.62112,0.35668 0.8917,1.11308 0.64572,1.78953 -0.54732,1.4882 -1.62349,2.85341 -2.619728,4.04643 -0.45506,0.54732 -1.24221,0.68261 -1.86332,0.32593 l -1.78953,-1.03313 c -0.98393,0.84249 -2.127757,1.51279 -3.37612,1.94941 v 2.06628 c 0,0.71334 -0.510422,1.3283 -1.211474,1.4513 -1.512795,0.25828 -3.099392,0.27058 -4.667536,0 -0.707205,-0.123 -1.229918,-0.7318 -1.229918,-1.4513 v -2.06628 c -1.248365,-0.44276 -2.39219,-1.10692 -3.376124,-1.94941 l -1.789528,1.02698 c -0.614961,0.35668 -1.408257,0.22138 -1.863328,-0.32593 -0.99623,-1.19302 -2.047811,-2.55823 -2.595129,-4.04028 -0.245984,-0.6703 0.0246,-1.4267 0.645709,-1.78953 l 2.047816,-1.03313 c -0.239836,-1.285264 -0.239836,-2.607424 0,-3.89884 l -2.047816,-1.039279 c -0.621107,-0.356676 -0.89784,-1.113074 -0.645709,-1.78338 0.547318,-1.488202 1.598899,-2.853411 2.595129,-4.046429 0.455071,-0.547314 1.242219,-0.682603 1.863328,-0.325927 l 1.789528,1.03313 c 0.983934,-0.842495 2.127759,-1.512801 3.376124,-1.94942 V 49.72543 c 0,-0.707204 0.504265,-1.322162 1.205323,-1.445153 1.512796,-0.258284 3.105539,-0.270585 4.673683,-0.0063 0.707204,0.122993 1.229922,0.731803 1.229922,1.451306 v 2.066264 c 1.248363,0.442767 2.39219,1.106922 3.37612,1.949417 l 1.78953,-1.033131 c 0.61496,-0.356677 1.40826,-0.221388 1.86332,0.325929 0.996238,1.193018 2.041668,2.558229 2.588978,4.046429 0.24599,0.670308 0.007,1.426705 -0.61497,1.78953 l -2.072398,1.033131 c 0.23984,1.291415 0.23984,2.613576 0,3.904995 z m -7.231911,1.29756 c 3.640551,-4.735179 -1.764932,-10.140669 -6.500115,-6.500111 -3.640559,4.735181 1.764931,10.140671 6.500115,6.500111 z m 14.968087,11.2353 -0.50426,0.8794 c -0.18449,0.32592 -0.57806,0.46122 -0.92859,0.33207 -0.725648,-0.27058 -1.389798,-0.658 -1.974008,-1.14382 -0.28289,-0.23368 -0.35668,-0.6457 -0.17219,-0.96549 l 0.50427,-0.87939 c -0.42432,-0.49197 -0.75641,-1.06388 -0.97779,-1.68498 h -1.01469 c -0.36898,0 -0.68874,-0.26444 -0.75025,-0.63341 -0.12291,-0.73796 -0.12919,-1.5128 0,-2.2815 0.0614,-0.36897 0.38127,-0.63956 0.75025,-0.63956 h 1.01469 c 0.22138,-0.62111 0.55347,-1.19302 0.97779,-1.68498 l -0.50427,-0.87939 c -0.18449,-0.31978 -0.1168,-0.73181 0.17219,-0.96549 0.58421,-0.48582 1.2545,-0.87324 1.974008,-1.14382 0.35053,-0.12914 0.7441,0.006 0.92859,0.33207 l 0.50426,0.87939 c 0.64571,-0.11684 1.30371,-0.11684 1.94942,0 l 0.50426,-0.87939 c 0.1845,-0.32592 0.57806,-0.46122 0.92859,-0.33207 0.72566,0.27058 1.38982,0.658 1.97403,1.14382 0.28287,0.23368 0.35667,0.64571 0.17219,0.96549 l -0.50426,0.87939 c 0.42432,0.49196 0.75639,1.06387 0.97778,1.68498 h 1.01467 c 0.36898,0 0.68876,0.26443 0.75025,0.63341 0.12291,0.73795 0.12919,1.5128 0,2.28149 -0.0614,0.36898 -0.38127,0.63957 -0.75025,0.63957 h -1.01467 c -0.22139,0.6211 -0.55346,1.19301 -0.97778,1.68498 l 0.50426,0.87939 c 0.18448,0.31979 0.1168,0.73181 -0.17219,0.96549 -0.58421,0.48582 -1.25452,0.87324 -1.97403,1.14382 -0.35053,0.12914 -0.74409,-0.006 -0.92859,-0.33207 l -0.50426,-0.8794 c -0.63954,0.11685 -1.30371,0.11685 -1.94942,0 z m -0.6457,-3.62211 c 2.36759,1.82028 5.06726,-0.87938 3.24697,-3.24698 -2.36758,-1.82028 -5.067248,0.87939 -3.24697,3.24698 z"
     inkscape:connector-curvature="0"
     style="fill:#b6b6cf;fill-opacity:0.96618359;stroke-width:0.06149587" />
</svg>
