<?xml version="1.0" encoding="UTF-8" standalone="no"?>
<!-- Created with Inkscape (http://www.inkscape.org/) -->

<svg
   xmlns:dc="http://purl.org/dc/elements/1.1/"
   xmlns:cc="http://creativecommons.org/ns#"
   xmlns:rdf="http://www.w3.org/1999/02/22-rdf-syntax-ns#"
   xmlns:svg="http://www.w3.org/2000/svg"
   xmlns="http://www.w3.org/2000/svg"
   xmlns:sodipodi="http://sodipodi.sourceforge.net/DTD/sodipodi-0.dtd"
   xmlns:inkscape="http://www.inkscape.org/namespaces/inkscape"
   width="1024"
   height="1024"
   viewBox="0 0 1024 1024"
   version="1.1"
   id="svg3060"
   inkscape:version="0.92.4 5da689c313, 2019-01-14"
   sodipodi:docname="sitting_bench.svg">
  <defs
     id="defs3054" />
  <sodipodi:namedview
     id="base"
     pagecolor="#ffffff"
     bordercolor="#666666"
     borderopacity="1.0"
     inkscape:pageopacity="0.0"
     inkscape:pageshadow="2"
     inkscape:zoom="0.49497475"
     inkscape:cx="-228.52896"
     inkscape:cy="560.53518"
     inkscape:document-units="px"
     inkscape:current-layer="layer1"
     showgrid="false"
     units="px"
     inkscape:window-width="1920"
     inkscape:window-height="1010"
     inkscape:window-x="1600"
     inkscape:window-y="28"
     inkscape:window-maximized="1" />
  <metadata
     id="metadata3057">
    <rdf:RDF>
      <cc:Work
         rdf:about="">
        <dc:format>image/svg+xml</dc:format>
        <dc:type
           rdf:resource="http://purl.org/dc/dcmitype/StillImage" />
        <dc:title />
      </cc:Work>
    </rdf:RDF>
  </metadata>
  <g
     inkscape:label="Layer 1"
     inkscape:groupmode="layer"
     id="layer1"
     transform="translate(0,-98.519653)">
    <g
       style="display:inline"
       id="g4298"
       transform="matrix(-0.28370225,0,0,0.28370225,3250.122,316.24931)">
      <ellipse
         style="display:inline;opacity:1;fill:#ebebeb;fill-opacity:1;fill-rule:evenodd;stroke:none;stroke-width:224.20864868;stroke-linecap:round;stroke-linejoin:round;stroke-miterlimit:4;stroke-dasharray:none;stroke-dashoffset:0;stroke-opacity:1;paint-order:markers stroke fill"
         id="ellipse4254"
         cx="9651.3936"
         cy="2426.5635"
         rx="1638.7002"
         ry="159.19807" />
      <g
         id="g4296"
         transform="matrix(6.5745355,0,0,6.5745355,6945.3931,-4432.7167)">
        <g
           id="g4288">
          <path
             style="fill:#ffc289;fill-opacity:1;stroke:none;stroke-width:0.53613251px;stroke-linecap:butt;stroke-linejoin:miter;stroke-opacity:1"
             d="m 370.91843,793.54196 20.64226,4.09332 -7.27609,14.93512 -23.55153,-9.95674 z"
             id="path904"
             inkscape:connector-curvature="0" />
          <path
             sodipodi:nodetypes="zccccz"
             inkscape:connector-curvature="0"
             id="path902"
             d="m 296.63442,699.03856 c 25.77001,-2.1125 33.00021,69.28746 38.36536,78.43449 10.035,11.74795 27.18332,12.99834 35.91865,16.06891 2.51892,13.32011 0.66939,6.6501 -2.71781,18.26254 0,0 -27.41594,8.67547 -56.44638,-1.47982 C 294.73826,788.7755 270.86442,701.15105 296.63442,699.03856 Z"
             style="fill:#44b0ce;fill-opacity:1;stroke:none;stroke-width:0.90749812px;stroke-linecap:butt;stroke-linejoin:miter;stroke-opacity:1" />
          <rect
             transform="rotate(-30.798463)"
             ry="8.3102999"
             rx="22.627399"
             y="1019.4313"
             x="-78.496498"
             height="54.285713"
             width="29.642857"
             id="rect4256"
             style="opacity:1;fill:#ffc289;fill-opacity:1;fill-rule:evenodd;stroke:none;stroke-width:25;stroke-linecap:round;stroke-linejoin:round;stroke-miterlimit:4;stroke-dasharray:none;stroke-dashoffset:0;stroke-opacity:1;paint-order:markers stroke fill" />
          <rect
             style="opacity:1;fill:#ffd0a5;fill-opacity:1;fill-rule:evenodd;stroke:none;stroke-width:25;stroke-linecap:round;stroke-linejoin:round;stroke-miterlimit:4;stroke-dasharray:none;stroke-dashoffset:0;stroke-opacity:1;paint-order:markers stroke fill"
             id="rect4258"
             width="29.642857"
             height="54.285713"
             x="267.44962"
             y="1034.9756"
             rx="22.627399"
             ry="8.3102999"
             transform="rotate(-8.5005599)" />
          <path
             style="fill:#37587b;fill-opacity:1;stroke:none;stroke-width:1px;stroke-linecap:butt;stroke-linejoin:miter;stroke-opacity:1"
             d="m 316.17776,823.92633 c 0,0 120.53734,-3.68495 128.28937,0 9.25688,4.40029 52.02285,97.9848 52.02285,97.9848 l -32.32488,18.18274 -55.55839,-73.74113 z"
             id="path4260"
             inkscape:connector-curvature="0"
             sodipodi:nodetypes="cscccc" />
          <path
             style="fill:#41658b;fill-opacity:1;stroke:none;stroke-width:1px;stroke-linecap:butt;stroke-linejoin:miter;stroke-opacity:1"
             d="m 264.65998,848.67507 51.51778,-24.74874 c 0,0 81.15584,7.56006 112.63201,20.70813 13.37405,5.58654 25.95587,99.94775 24.72335,154.04826 l -39.10534,2.37738 c -1.24384,-11.4201 -9.05619,-108.25515 -13.90229,-113.99924 -4.8461,-5.74408 -74.35937,-0.48031 -106.57109,-1.51523 -32.21172,-1.03492 -29.29442,-36.87056 -29.29442,-36.87056 z"
             id="path4262"
             inkscape:connector-curvature="0"
             sodipodi:nodetypes="ccscczzc" />
          <path
             style="fill:#ffd0a5;fill-opacity:1;stroke:none;stroke-width:1px;stroke-linecap:butt;stroke-linejoin:miter;stroke-opacity:1"
             d="m 351.30511,631.61521 c 6.9665,16.14669 3.1001,41.51624 -11.3642,51.51778 -5.317,3.67651 -14.6154,-7.34227 -19.1929,-2.77792 -8.0676,8.04434 14.4702,27.81921 4.7983,33.84012 -13.8354,8.61273 -37.1346,-11.56126 -40.4062,-27.52666 -1.4438,-7.04589 9.4878,-11.31279 11.6168,-18.18275 3.0666,-9.89526 -3.5489,-21.75978 1.0102,-31.06219 5.0516,-10.30736 15.0713,-21.09427 26.5165,-21.97082 10.4648,-0.80147 22.8637,6.52569 27.0215,16.16244 z"
             id="path4264"
             inkscape:connector-curvature="0"
             sodipodi:nodetypes="aaaaaaaaa" />
          <path
             style="fill:#666666;fill-opacity:1;stroke:none;stroke-width:1px;stroke-linecap:butt;stroke-linejoin:miter;stroke-opacity:1"
             d="m 353.48321,628.54974 c -6.8955,5.28931 -18.8609,-4.85113 -26.0714,0 -6.2913,4.23275 0.4642,19.70876 -6.5511,22.58666 -9.9367,5.79244 -6.1914,-6.62492 -17.3341,-8.52811 -11.8137,2.93531 0.9071,23.0122 -7.7959,25.3751 -19.6565,-2.14024 -17.6903,-46.30811 -8.5535,-60.4438 9.1367,-14.13569 70.8372,-12.0804 74.1632,-8.27557 3.3259,3.80483 0.1623,23.13417 -7.8572,29.28572 z"
             id="path4266"
             inkscape:connector-curvature="0"
             sodipodi:nodetypes="ccccczzc" />
          <path
             style="fill:#5fbcd3;fill-opacity:1;stroke:none;stroke-width:1px;stroke-linecap:butt;stroke-linejoin:miter;stroke-opacity:1"
             d="m 265.16505,857.76644 c 10.44181,6.79641 27.72239,2.32264 42.40166,-5.14888 14.67927,-7.47151 26.75723,-17.94079 26.79379,-23.13539 2.31393,-116.74099 -3.53672,-150.02606 -37.33581,-154.01807 -30.44245,-3.59556 -59.54263,66.24344 -31.85964,182.30234 z"
             id="path4268"
             inkscape:connector-curvature="0"
             sodipodi:nodetypes="cscsc" />
          <path
             style="fill:#ffd0a5;fill-opacity:1;stroke:none;stroke-width:1px;stroke-linecap:butt;stroke-linejoin:miter;stroke-opacity:1"
             d="m 370.72599,799.68267 c 0,0 24.09637,-9.21482 30.30459,-9.84899 6.20822,-0.63417 27.2754,19.69669 23.48605,23.48605 -1.78395,1.78394 -14.58057,-7.20962 -19.95052,-6.31346 -5.36995,0.89616 -2.21808,4.50015 -9.09137,6.56599 -6.87329,2.06584 -27.27412,-1.76776 -27.27412,-1.76776 z"
             id="path4270"
             inkscape:connector-curvature="0"
             sodipodi:nodetypes="czszzcc" />
          <path
             style="fill:#87cdde;fill-opacity:1;stroke:none;stroke-width:1px;stroke-linecap:butt;stroke-linejoin:miter;stroke-opacity:1"
             d="m 304.05592,706.24356 c 28.45706,-1.41085 10.07348,69.53722 15.65737,79.80205 10.63465,13.29529 43.52139,8.93471 53.033,12.62691 6.48115,12.78357 4.14317,15.11012 0,27.77919 0,0 -48.19005,7.16545 -79.80205,-5.05076 -17.97493,-24.33804 -17.34538,-113.74654 11.11168,-115.15739 z"
             id="path4272"
             inkscape:connector-curvature="0"
             sodipodi:nodetypes="zccccz" />
          <path
             style="opacity:1;fill:#666666;fill-opacity:1;fill-rule:evenodd;stroke:none;stroke-width:22.4473381;stroke-linecap:round;stroke-linejoin:round;stroke-miterlimit:4;stroke-dasharray:none;stroke-dashoffset:0;stroke-opacity:1;paint-order:markers stroke fill"
             d="m 480.49964,740.43388 c -1.6577,-0.10117 -3.20508,0.96751 -3.65235,2.63671 l -19.0625,71.14454 h -75.37695 c -2.56853,0 -4.63477,2.06818 -4.63477,4.63671 0,2.56854 2.06624,4.63477 4.63477,4.63477 h 75.63672 c 0.9953,0 1.91032,-0.31591 2.66406,-0.8457 1.35175,-0.20947 2.51657,-1.18708 2.89453,-2.59766 l 20.13086,-75.12695 c 0.51116,-1.90767 -0.61382,-3.85603 -2.52148,-4.36719 -0.23846,-0.0639 -0.47608,-0.10078 -0.71289,-0.11523 z"
             id="path4274"
             inkscape:connector-curvature="0" />
          <g
             id="g4280"
             transform="translate(-295.97469)">
            <rect
               ry="3.2142856"
               rx="3.2142856"
               y="1037.7611"
               x="715.31268"
               height="8.3102999"
               width="84.687325"
               id="rect4276"
               style="opacity:1;fill:#cccccc;fill-opacity:1;fill-rule:evenodd;stroke:none;stroke-width:25;stroke-linecap:round;stroke-linejoin:round;stroke-miterlimit:4;stroke-dasharray:none;stroke-dashoffset:0;stroke-opacity:1;paint-order:markers stroke fill" />
            <path
               sodipodi:nodetypes="cccccc"
               inkscape:connector-curvature="0"
               id="path4278"
               d="m 716.04529,1015.9859 c 32.27946,14.1974 27.17823,-4.2053 35.80154,-2.5525 l 46.65566,17.765 c 2.31258,2.8138 4.19028,7.9915 1.83673,10.771 l -85.02655,-0.2797 c -5.96381,-6.1564 -5.19757,-19.5149 0.73262,-25.7038 z"
               style="fill:#666666;fill-opacity:1;stroke:none;stroke-width:1px;stroke-linecap:butt;stroke-linejoin:miter;stroke-opacity:1" />
          </g>
          <g
             id="g4286"
             transform="rotate(-12.55251,287.18833,2089.2588)">
            <rect
               style="opacity:1;fill:#bababa;fill-opacity:1;fill-rule:evenodd;stroke:none;stroke-width:25;stroke-linecap:round;stroke-linejoin:round;stroke-miterlimit:4;stroke-dasharray:none;stroke-dashoffset:0;stroke-opacity:1;paint-order:markers stroke fill"
               id="rect4282"
               width="84.687325"
               height="8.3102999"
               x="715.31268"
               y="1037.7611"
               rx="3.2142856"
               ry="3.2142856" />
            <path
               style="fill:#616161;fill-opacity:1;stroke:none;stroke-width:1px;stroke-linecap:butt;stroke-linejoin:miter;stroke-opacity:1"
               d="m 716.04529,1015.9859 c 32.27946,14.1974 27.17823,-4.2053 35.80154,-2.5525 l 46.65566,17.765 c 2.31258,2.8138 4.19028,7.9915 1.83673,10.771 l -85.02655,-0.2797 c -5.96381,-6.1564 -5.19757,-19.5149 0.73262,-25.7038 z"
               id="path4284"
               inkscape:connector-curvature="0"
               sodipodi:nodetypes="cccccc" />
          </g>
        </g>
        <g
           id="g4294">
          <rect
             ry="6.5579057"
             rx="6.684833"
             y="886.05072"
             x="239.91125"
             height="156.57362"
             width="139.40105"
             id="rect4290"
             style="opacity:1;fill:#999999;fill-opacity:1;fill-rule:evenodd;stroke:none;stroke-width:59.61231232;stroke-linecap:round;stroke-linejoin:round;stroke-miterlimit:4;stroke-dasharray:none;stroke-dashoffset:0;stroke-opacity:1;paint-order:markers stroke fill" />
          <rect
             style="opacity:1;fill:#b3b3b3;fill-opacity:1;fill-rule:evenodd;stroke:none;stroke-width:25;stroke-linecap:round;stroke-linejoin:round;stroke-miterlimit:4;stroke-dasharray:none;stroke-dashoffset:0;stroke-opacity:1;paint-order:markers stroke fill"
             id="rect4292"
             width="172.73608"
             height="22.223356"
             x="223.24374"
             y="883.02026"
             rx="11.111678"
             ry="11.111678" />
        </g>
      </g>
    </g>
  </g>
</svg>
