<?xml version="1.0" encoding="UTF-8"?>
<svg width="128" height="128" version="1.1" viewBox="0 0 128 128" xmlns="http://www.w3.org/2000/svg" xmlns:cc="http://creativecommons.org/ns#" xmlns:dc="http://purl.org/dc/elements/1.1/" xmlns:rdf="http://www.w3.org/1999/02/22-rdf-syntax-ns#"><title>Image</title><metadata><rdf:RDF><cc:Work rdf:about=""><dc:format>image/svg+xml</dc:format><dc:type rdf:resource="http://purl.org/dc/dcmitype/StillImage"/><dc:title>Image</dc:title><dc:date>June 2019</dc:date><dc:creator><cc:Agent><dc:title>Sujaykumar Hublikar</dc:title></cc:Agent></dc:creator><dc:rights><cc:Agent><dc:title>Creative Commons Attribution-NonCommercial-ShareAlike 4.0 International License.</dc:title></cc:Agent></dc:rights><dc:publisher><cc:Agent><dc:title>Sujaykumar Hublikar</dc:title></cc:Agent></dc:publisher><dc:subject><rdf:Bag><rdf:li>image</rdf:li></rdf:Bag></dc:subject><dc:description>Image</dc:description><dc:contributor><cc:Agent><dc:title>https://github.com/Sujaykumarh</dc:title></cc:Agent></dc:contributor><cc:license rdf:resource="http://creativecommons.org/licenses/by-nc-sa/4.0/"/></cc:Work><cc:License rdf:about="http://creativecommons.org/licenses/by-nc-sa/4.0/"><cc:permits rdf:resource="http://creativecommons.org/ns#Reproduction"/><cc:permits rdf:resource="http://creativecommons.org/ns#Distribution"/><cc:requires rdf:resource="http://creativecommons.org/ns#Notice"/><cc:requires rdf:resource="http://creativecommons.org/ns#Attribution"/><cc:prohibits rdf:resource="http://creativecommons.org/ns#CommercialUse"/><cc:permits rdf:resource="http://creativecommons.org/ns#DerivativeWorks"/><cc:requires rdf:resource="http://creativecommons.org/ns#ShareAlike"/></cc:License></rdf:RDF></metadata><g><path d="m44.619 19.701c-4.5874 0-8.3066 3.7173-8.3066 8.3047v71.988c0 4.5874 3.7192 8.3047 8.3066 8.3047h38.762c4.5874 0 8.3066-3.7173 8.3066-8.3047v-71.988c0-4.5874-3.7192-8.3047-8.3066-8.3047h-14.406s1.1372 6.7488-4.9746 6.75c-6.1118 0.0012-4.9766-6.75-4.9766-6.75zm3.6211 8.7773c1.9059 2.58e-4 3.4509 1.5452 3.4512 3.4512-2.59e-4 1.9059-1.5452 3.4509-3.4512 3.4512-1.9059-2.58e-4 -3.4509-1.5452-3.4512-3.4512 2.58e-4 -1.9059 1.5452-3.4509 3.4512-3.4512zm-23.348 6.4492c-0.57404-4.39e-4 -1.0395 0.46502-1.0391 1.0391v1.0391h-3.1152c-0.57252 6.39e-4 -1.0365 0.4646-1.0371 1.0371v2.0762c-4.39e-4 0.57328 0.46383 1.0384 1.0371 1.0391h3.1152v1.0391c6.4e-4 0.57328 0.46578 1.0375 1.0391 1.0371h7.2676v-8.3066zm70.947 0v8.3066h7.2676c0.57328 4.38e-4 1.0384-0.46383 1.0391-1.0371v-1.0391h3.1152c0.57328-6.39e-4 1.0376-0.46578 1.0371-1.0391v-2.0762c-6.4e-4 -0.57252-0.46459-1.0365-1.0371-1.0371h-3.1152v-1.0391c4.4e-4 -0.57404-0.46502-1.0395-1.0391-1.0391zm-70.947 16.613c-0.57328-4.39e-4 -1.0384 0.46383-1.0391 1.0371v1.0391h-3.1152c-0.57328 6.4e-4 -1.0375 0.46578-1.0371 1.0391v2.0762c6.39e-4 0.57252 0.46459 1.0365 1.0371 1.0371h3.1152v1.0391c-4.39e-4 0.57404 0.46502 1.0395 1.0391 1.0391h7.2676v-8.3066zm70.947 0v8.3066h7.2676c0.57404 4.38e-4 1.0395-0.46502 1.0391-1.0391v-1.0391h3.1152c0.57252-6.38e-4 1.0365-0.46459 1.0371-1.0371v-2.0762c4.4e-4 -0.57328-0.46383-1.0384-1.0371-1.0391h-3.1152v-1.0391c-6.4e-4 -0.57328-0.46578-1.0375-1.0391-1.0371zm-70.947 16.611c-0.57404-4.39e-4 -1.0395 0.46502-1.0391 1.0391v1.0391h-3.1152c-0.57252 6.39e-4 -1.0365 0.46459-1.0371 1.0371v2.0762c-4.39e-4 0.57328 0.46383 1.0384 1.0371 1.0391h3.1152v1.0391c6.4e-4 0.57328 0.46578 1.0375 1.0391 1.0371h7.2676v-8.3066zm70.947 0v8.3066h7.2676c0.57328 4.38e-4 1.0384-0.46383 1.0391-1.0371v-1.0391h3.1152c0.57328-6.39e-4 1.0376-0.46578 1.0371-1.0391v-2.0762c-6.4e-4 -0.57252-0.46459-1.0365-1.0371-1.0371h-3.1152v-1.0391c4.4e-4 -0.57404-0.46502-1.0395-1.0391-1.0391zm-70.947 16.613c-0.57328-4.39e-4 -1.0384 0.46383-1.0391 1.0371v1.0391h-3.1152c-0.57328 6.4e-4 -1.0375 0.46578-1.0371 1.0391v2.0762c6.38e-4 0.57252 0.46459 1.0365 1.0371 1.0371h3.1152v1.0391c-4.4e-4 0.57404 0.46502 1.0395 1.0391 1.0391h7.2676v-8.3066zm70.947 0v8.3066h7.2676c0.57404 4.38e-4 1.0395-0.46502 1.0391-1.0391v-1.0391h3.1152c0.57252-6.38e-4 1.0365-0.46459 1.0371-1.0371v-2.0762c4.4e-4 -0.57328-0.46383-1.0384-1.0371-1.0391h-3.1152v-1.0391c-6.4e-4 -0.57328-0.46578-1.0375-1.0391-1.0371z" fill="#bdbad5" stroke-width=".17304"/><rect x="45.75" y="57.66" width="5.3279" height="37.09" rx="2.6639" ry="2.6639" fill="#f1f1f1" fill-rule="evenodd" style="paint-order:normal"/></g></svg>
