<?xml version="1.0" encoding="UTF-8"?>
<svg width="128" height="128" version="1.1" viewBox="0 0 128 128" xmlns="http://www.w3.org/2000/svg" xmlns:cc="http://creativecommons.org/ns#" xmlns:dc="http://purl.org/dc/elements/1.1/" xmlns:rdf="http://www.w3.org/1999/02/22-rdf-syntax-ns#"><title>Image</title><metadata><rdf:RDF><cc:Work rdf:about=""><dc:format>image/svg+xml</dc:format><dc:type rdf:resource="http://purl.org/dc/dcmitype/StillImage"/><dc:title>Image</dc:title><dc:date>June 2019</dc:date><dc:creator><cc:Agent><dc:title>Sujaykumar Hublikar</dc:title></cc:Agent></dc:creator><dc:rights><cc:Agent><dc:title>Creative Commons Attribution-NonCommercial-ShareAlike 4.0 International License.</dc:title></cc:Agent></dc:rights><dc:publisher><cc:Agent><dc:title>Sujaykumar Hublikar</dc:title></cc:Agent></dc:publisher><dc:subject><rdf:Bag><rdf:li>image</rdf:li></rdf:Bag></dc:subject><dc:description>Image</dc:description><dc:contributor><cc:Agent><dc:title>https://github.com/Sujaykumarh</dc:title></cc:Agent></dc:contributor><cc:license rdf:resource="http://creativecommons.org/licenses/by-nc-sa/4.0/"/></cc:Work><cc:License rdf:about="http://creativecommons.org/licenses/by-nc-sa/4.0/"><cc:permits rdf:resource="http://creativecommons.org/ns#Reproduction"/><cc:permits rdf:resource="http://creativecommons.org/ns#Distribution"/><cc:requires rdf:resource="http://creativecommons.org/ns#Notice"/><cc:requires rdf:resource="http://creativecommons.org/ns#Attribution"/><cc:prohibits rdf:resource="http://creativecommons.org/ns#CommercialUse"/><cc:permits rdf:resource="http://creativecommons.org/ns#DerivativeWorks"/><cc:requires rdf:resource="http://creativecommons.org/ns#ShareAlike"/></cc:License></rdf:RDF></metadata><g transform="matrix(1.1972 0 0 1.1972 -24.184 -26.502)" fill-rule="evenodd"><path d="m28.504 32.472 21.975 8 15.975-8 23.975 10v56.005l-23.975-10-15.975 8-21.975-8z" fill="#ccc" style="paint-order:markers fill stroke"/><path d="m50.478 40.472 15.975-8v56.005l-15.975 8z" fill="#e9e9e9" style="paint-order:markers fill stroke"/><path d="m64.283 41.696c0-0.29445-0.19692-0.43285-0.44156-0.31033l-10.752 5.3848c-0.24464 0.12252-0.44156 0.45815-0.44156 0.7526 0 0.29445 0.19692 0.43285 0.44156 0.31033l10.752-5.3848c0.24464-0.12252 0.44156-0.45814 0.44156-0.7526m0 7.0114c0-0.07361-0.01265-0.13702-0.03493-0.18949-0.06685-0.1574-0.22315-0.21273-0.40663-0.12084l-10.752 5.3848c-0.24464 0.12252-0.44156 0.45815-0.44156 0.7526 0 0.29445 0.19692 0.43285 0.44156 0.31033l10.752-5.3848c0.24464-0.12252 0.44156-0.45814 0.44156-0.7526m0 7.0104c0-0.29445-0.19692-0.43285-0.44156-0.31033l-10.752 5.3848c-0.12232 0.06126-0.23278 0.17683-0.31259 0.31285-0.03966 0.06777-0.07276 0.14126-0.09494 0.21572v0.0011c-0.02217 0.07441-0.03391 0.15076-0.03403 0.22402 1.22e-4 0.07315 0.01186 0.13773 0.03403 0.18994 0.02227 0.05214 0.05521 0.0927 0.09494 0.12063v0.0011c0.07981 0.05609 0.19026 0.05995 0.31259-0.0013l7.0838-3.5475c0.0016-7.97e-4 0.0029-0.0025 0.0045-0.0033l3.6642-1.835c0.24464-0.12252 0.44156-0.45814 0.44156-0.7526m0 4.6754c0-0.29445-0.19692-0.43285-0.44156-0.31033l-10.752 5.3848c-0.24464 0.12252-0.44156 0.45814-0.44156 0.7526 0 0.29445 0.19692 0.43285 0.44156 0.31033l10.752-5.3848c0.24464-0.12252 0.44156-0.45814 0.44156-0.7526m0 7.0104c0-0.07325-0.01286-0.13609-0.03493-0.18841-9.9e-5 -2.33e-4 9.8e-5 -8.5e-4 0-0.0011-0.02219-0.05224-0.05438-0.09304-0.09405-0.12108-0.07985-0.05645-0.19-0.06116-0.31259 2.32e-4l-10.752 5.3848c-0.24464 0.12252-0.44156 0.45814-0.44156 0.7526 0 0.14723 0.04917 0.25555 0.12898 0.31164v0.0011c0.07981 0.05609 0.19026 0.05995 0.31259-0.0013l10.752-5.3848c0.12259-0.06139 0.23274-0.17643 0.31259-0.31285 0.07961-0.13569 0.12873-0.29284 0.12898-0.43974v-0.0011m0 7.0114c0-0.07361-0.01265-0.13702-0.03493-0.18949-0.06685-0.1574-0.22315-0.21273-0.40663-0.12084l-10.752 5.3848c-0.24464 0.12252-0.44156 0.45814-0.44156 0.7526s0.19692 0.43285 0.44156 0.31033l10.752-5.3848c0.24464-0.12252 0.44156-0.45814 0.44156-0.7526m0 7.0114c0-0.29445-0.19692-0.43285-0.44156-0.31034l-10.752 5.3848c-0.24464 0.12252-0.44156 0.45815-0.44156 0.7526 0 0.29445 0.19692 0.43285 0.44156 0.31033l10.752-5.3848c0.24464-0.12252 0.44156-0.45815 0.44156-0.7526m-0.91716-34.597c0-0.29445-0.19692-0.43285-0.44156-0.31033l-9.8353 4.9255c-0.24464 0.12252-0.44156 0.45815-0.44156 0.7526 0 0.29445 0.19692 0.43285 0.44156 0.31033l9.8353-4.9255c0.24464-0.12252 0.44156-0.45814 0.44156-0.7526m0 23.37c0-0.29445-0.19692-0.43285-0.44156-0.31033l-9.8353 4.9255c-0.12259 0.06139-0.23274 0.17643-0.31259 0.31285-0.03986 0.0681-0.07274 0.14195-0.09494 0.21679-0.02228 0.07479-0.03403 0.15042-0.03403 0.22402 1.22e-4 0.07315 0.01186 0.13665 0.03403 0.18886 1.11e-4 2.65e-4 -1.11e-4 8.18e-4 0 0.0011 0.02227 0.05214 0.05521 0.0927 0.09494 0.12063 0.07985 0.05644 0.19 0.06116 0.31259-2.31e-4l5.2495-2.6289c0.0016-7.98e-4 0.0029-0.0025 0.0045-0.0033l4.5813-2.2943c0.24464-0.12252 0.44156-0.45815 0.44156-0.7526m0 7.0114c0-0.29445-0.19692-0.43285-0.44156-0.31033l-9.8353 4.9255c-0.24464 0.12252-0.44156 0.45814-0.44156 0.7526 0 0.29445 0.19692 0.43285 0.44156 0.31033l9.8353-4.9255c0.24464-0.12252 0.44156-0.45815 0.44156-0.7526m-1.8343-31.8c0-0.29445-0.19692-0.43285-0.44156-0.31033l-8.001 4.0069c-0.24464 0.12252-0.44156 0.45814-0.44156 0.7526s0.19692 0.43285 0.44156 0.31033l8.001-4.0069c0.24464-0.12252 0.44156-0.45814 0.44156-0.7526m0 7.0114c0-0.29445-0.19692-0.43285-0.44156-0.31033l-8.001 4.0069c-0.24464 0.12252-0.44156 0.45814-0.44156 0.7526s0.19692 0.43285 0.44156 0.31033l8.001-4.0069c0.24464-0.12252 0.44156-0.45814 0.44156-0.7526m0 2.3371c0-0.29445-0.19692-0.43285-0.44156-0.31033l-2.747 1.3757c-0.0016 7.73e-4 -0.0029 3.64e-4 -0.0045 0.0012l-5.2495 2.6289c-0.12259 0.06139-0.23274 0.17644-0.31259 0.31286-0.03986 0.0681-0.07274 0.14194-0.09494 0.2168-0.02228 0.07479-0.03403 0.15041-0.03403 0.22402 1.22e-4 0.07314 0.01186 0.13665 0.03403 0.18886 1.11e-4 2.58e-4 -1.11e-4 8.12e-4 0 0.0011 0.02227 0.05214 0.05521 0.0927 0.09494 0.12063 0.07985 0.05644 0.19 0.06116 0.31259-2.31e-4l8.001-4.0069c0.24464-0.12252 0.44156-0.45814 0.44156-0.7526m0 11.685c0-0.29445-0.19692-0.43285-0.44156-0.31033l-8.001 4.0069c-0.24464 0.12252-0.44156 0.45814-0.44156 0.7526 0 0.14723 0.04917 0.25555 0.12898 0.31164v0.0011c0.07981 0.05609 0.19026 0.05995 0.31259-0.0013l5.2495-2.6289c0.0016-7.97e-4 0.0029-0.0025 0.0045-0.0033l2.747-1.3757c0.24464-0.12252 0.44156-0.45815 0.44156-0.7526m0 7.0114c0-0.29445-0.19692-0.43285-0.44156-0.31034l-8.001 4.0069c-0.24464 0.12252-0.44156 0.45815-0.44156 0.7526 0 0.29445 0.19692 0.43285 0.44156 0.31033l8.001-4.0069c0.24464-0.12252 0.44156-0.45815 0.44156-0.7526m0 7.0114c0-0.29445-0.19692-0.43285-0.44156-0.31033l-8.001 4.0069c-0.24464 0.12252-0.44156 0.45814-0.44156 0.7526s0.19692 0.43285 0.44156 0.31033l8.001-4.0069c0.24464-0.12252 0.44156-0.45814 0.44156-0.7526m-0.91716-20.574c0-0.29445-0.19692-0.43285-0.44156-0.31033l-1.8298 0.91638c-0.0016 7.73e-4 -0.0029 3.69e-4 -0.0045 0.0012l-5.2495 2.6289c-0.12232 0.06126-0.23278 0.17682-0.31259 0.31285-0.03966 0.06776-0.07276 0.14126-0.09494 0.21572-9.8e-5 3.25e-4 9.8e-5 7.46e-4 0 0.0011-0.02217 0.07441-0.03391 0.14968-0.03403 0.22295-1e-6 3.65e-4 0 7.07e-4 0 0.0011 1.22e-4 0.07314 0.01186 0.13666 0.03403 0.18886 1.11e-4 2.59e-4 -1.11e-4 8.12e-4 0 0.0011 0.02227 0.05214 0.05521 0.0927 0.09494 0.12063 0.07985 0.05644 0.19 0.06116 0.31259-2.31e-4l5.2495-2.6289s1.8343-0.91862 1.8343-0.91862c0.24464-0.12252 0.44156-0.45814 0.44156-0.7526m-1.8343 5.5929c0-0.29445-0.19692-0.43285-0.44156-0.31033l-0.91268 0.45707c-0.0016 7.73e-4 -0.0029 3.64e-4 -0.0045 0.0012l-4.3323 2.1696c-0.12259 0.06139-0.23274 0.17644-0.31259 0.31286-0.03986 0.0681-0.07274 0.14194-0.09494 0.2168-0.02228 0.07479-0.03403 0.15041-0.03403 0.22402 1.22e-4 0.07314 0.01186 0.13665 0.03403 0.18886 1.11e-4 2.59e-4 -1.11e-4 8.12e-4 0 0.0011 0.02227 0.05214 0.05521 0.0927 0.09494 0.12063 0.07985 0.05644 0.19 0.06116 0.31259-2.31e-4l5.2495-2.6289c0.24464-0.12252 0.44156-0.45814 0.44156-0.7526" fill="#fff" style="paint-order:markers fill stroke"/><path d="m66.453 32.472 23.975 10v56.005l-23.975-10z" fill="#e1e1e1" style="paint-order:markers fill stroke"/><path d="m69.844 40.159c-0.39116-0.16316-0.70602 0.09029-0.70602 0.56831 0 0.47802 0.31485 0.99412 0.70602 1.1573l17.192 7.171c0.39116 0.16316 0.70602-0.09029 0.70602-0.56831 0-0.47802-0.31485-0.99412-0.70602-1.1573l-17.192-7.171m0 3.7942c-0.39116-0.16316-0.70602 0.0903-0.70602 0.56831 0 0.47802 0.31485 0.99413 0.70602 1.1573l12.793 5.336c0.39116 0.16316 0.70602-0.09029 0.70602-0.56832 0-0.47801-0.31485-0.99412-0.70602-1.1573l-12.793-5.336m0 3.7942c-0.39116-0.16316-0.70602 0.09029-0.70602 0.56831 0 0.47802 0.31485 0.99412 0.70602 1.1573l15.726 6.5593c0.39116 0.16316 0.70602-0.09029 0.70602-0.56831 0-0.47802-0.31485-0.99412-0.70602-1.1573l-15.726-6.5593m0 3.7942c-0.39116-0.16316-0.70602 0.0903-0.70602 0.56831 0 0.47802 0.31485 0.99413 0.70602 1.1573l17.192 7.171c0.39116 0.16316 0.70602-0.09029 0.70602-0.56832 0-0.47801-0.31485-0.99412-0.70602-1.1573l-17.192-7.171m0 3.7942c-0.39116-0.16316-0.70602 0.09029-0.70602 0.56831 0 0.47802 0.31485 0.99412 0.70602 1.1573l12.793 5.336c0.39116 0.16316 0.70602-0.09029 0.70602-0.56831 0-0.47802-0.31485-0.99412-0.70602-1.1573l-12.793-5.336m0 3.7924c-0.39116-0.16316-0.70602 0.09029-0.70602 0.56831 0 0.47802 0.31485 0.99412 0.70602 1.1573l8.3934 3.501c0.39116 0.16316 0.70601-0.09029 0.70601-0.56831 0-0.47802-0.31485-0.99412-0.70601-1.1573l-8.3934-3.501m0 3.7942c-0.39116-0.16316-0.70602 0.09029-0.70602 0.56831 0 0.47801 0.31485 0.99412 0.70602 1.1573l17.192 7.171c0.39116 0.16316 0.70602-0.09029 0.70602-0.56831 0-0.47802-0.31485-0.99412-0.70602-1.1573l-17.192-7.171m0 3.7942c-0.39116-0.16316-0.70602 0.09029-0.70602 0.56831 0 0.47802 0.31485 0.99412 0.70602 1.1573l8.3934 3.501c0.39116 0.16316 0.70601-0.09029 0.70601-0.56831 0-0.47802-0.31485-0.99412-0.70601-1.1573l-8.3934-3.501" fill="#f9f9f9" style="paint-order:markers fill stroke"/><path d="m28.504 32.472 21.975 8v56.005l-21.975-8z" fill="#e1e1e1" style="paint-order:markers fill stroke"/><path d="m33.394 83.142c-0.3357-0.12222-0.60592-0.58087-0.60592-1.0285s0.27022-0.7095 0.60592-0.58728c0 0 14.755 5.3716 14.755 5.3716 0.3357 0.12222 0.60592 0.58087 0.60592 1.0285s-0.27022 0.70949-0.60592 0.58728l-14.755-5.3716m0-3.5527c-0.3357-0.12222-0.60592-0.58087-0.60592-1.0285 0-0.44759 0.27022-0.70949 0.60592-0.58728 0 0 10.979 3.997 10.979 3.997 0.33571 0.12222 0.60592 0.58087 0.60592 1.0285 0 0.44759-0.27022 0.7095-0.60592 0.58728l-10.979-3.997m0-3.5527c-0.3357-0.12222-0.60592-0.58087-0.60592-1.0285 0-0.44759 0.27022-0.70949 0.60592-0.58728l13.496 4.9134c0.33571 0.12222 0.60592 0.58087 0.60592 1.0285 0 0.44759-0.27022 0.7095-0.60592 0.58728l-13.496-4.9134m0-3.5527c-0.3357-0.12222-0.60592-0.58087-0.60592-1.0285 0-0.44759 0.27022-0.70949 0.60592-0.58728l14.755 5.3716c0.3357 0.12222 0.60592 0.58087 0.60592 1.0285 0 0.44759-0.27022 0.70949-0.60592 0.58728l-14.755-5.3716m0-3.5527c-0.3357-0.12222-0.60592-0.58087-0.60592-1.0285 0-0.44759 0.27022-0.70949 0.60592-0.58728l10.979 3.997c0.33571 0.12222 0.60592 0.58087 0.60592 1.0285s-0.27022 0.70949-0.60592 0.58728c0 0-10.979-3.997-10.979-3.997m0-3.551c-0.3357-0.12222-0.60592-0.58087-0.60592-1.0285 0-0.44759 0.27022-0.70949 0.60592-0.58728l7.2035 2.6225c0.3357 0.12222 0.60592 0.58087 0.60592 1.0285 0 0.44759-0.27022 0.70949-0.60592 0.58728l-7.2035-2.6225m0-3.5527c-0.3357-0.12222-0.60592-0.58087-0.60592-1.0285 0-0.44759 0.27022-0.70949 0.60592-0.58728l14.755 5.3716c0.3357 0.12222 0.60592 0.58087 0.60592 1.0285 0 0.44759-0.27022 0.70949-0.60592 0.58728l-14.755-5.3716m0-3.5527c-0.3357-0.12222-0.60592-0.58087-0.60592-1.0285 0-0.44759 0.27022-0.70949 0.60592-0.58728l7.2035 2.6225c0.3357 0.12222 0.60592 0.58087 0.60592 1.0285 0 0.44759-0.27022 0.70949-0.60592 0.58728l-7.2035-2.6225m0-7.1053c-0.3357-0.12222-0.60592-0.58087-0.60592-1.0285 0-0.44759 0.27022-0.70949 0.60592-0.58728l14.755 5.3716c0.3357 0.12222 0.60592 0.58087 0.60592 1.0285s-0.27022 0.70949-0.60592 0.58728l-14.755-5.3716m0-3.5527c-0.3357-0.12222-0.60592-0.58087-0.60592-1.0285s0.27022-0.70949 0.60592-0.58728c0 0 14.755 5.3716 14.755 5.3716 0.3357 0.12222 0.60592 0.58087 0.60592 1.0285 0 0.44759-0.27022 0.70949-0.60592 0.58728l-14.755-5.3716m0-3.5527c-0.3357-0.12222-0.60592-0.58087-0.60592-1.0285 0-0.44759 0.27022-0.70949 0.60592-0.58728l14.755 5.3716c0.3357 0.12222 0.60592 0.58087 0.60592 1.0285 0 0.44759-0.27022 0.7095-0.60592 0.58728 0 0-14.755-5.3716-14.755-5.3716" fill-opacity=".077295" style="paint-order:markers fill stroke"/><path d="m31.442 81.848c-0.3357-0.12222-0.60592-0.58087-0.60592-1.0285s0.27022-0.7095 0.60592-0.58728c0 0 14.755 5.3716 14.755 5.3716 0.3357 0.12222 0.60592 0.58087 0.60592 1.0285s-0.27022 0.70949-0.60592 0.58728l-14.755-5.3716m0-3.5527c-0.3357-0.12222-0.60592-0.58087-0.60592-1.0285 0-0.44759 0.27022-0.70949 0.60592-0.58728 0 0 10.979 3.997 10.979 3.997 0.33571 0.12222 0.60592 0.58087 0.60592 1.0285 0 0.44759-0.27022 0.7095-0.60592 0.58728l-10.979-3.997m0-3.5527c-0.3357-0.12222-0.60592-0.58087-0.60592-1.0285 0-0.44759 0.27022-0.70949 0.60592-0.58728l13.496 4.9134c0.33571 0.12222 0.60592 0.58087 0.60592 1.0285 0 0.44759-0.27022 0.7095-0.60592 0.58728l-13.496-4.9134m0-3.5527c-0.3357-0.12222-0.60592-0.58087-0.60592-1.0285 0-0.44759 0.27022-0.70949 0.60592-0.58728l14.755 5.3716c0.3357 0.12222 0.60592 0.58087 0.60592 1.0285 0 0.44759-0.27022 0.70949-0.60592 0.58728l-14.755-5.3716m0-3.5527c-0.3357-0.12222-0.60592-0.58087-0.60592-1.0285 0-0.44759 0.27022-0.70949 0.60592-0.58728l10.979 3.997c0.33571 0.12222 0.60592 0.58087 0.60592 1.0285s-0.27022 0.70949-0.60592 0.58728c0 0-10.979-3.997-10.979-3.997m0-3.551c-0.3357-0.12222-0.60592-0.58087-0.60592-1.0285 0-0.44759 0.27022-0.70949 0.60592-0.58728l7.2035 2.6225c0.3357 0.12222 0.60592 0.58087 0.60592 1.0285 0 0.44759-0.27022 0.70949-0.60592 0.58728l-7.2035-2.6225m0-3.5527c-0.3357-0.12222-0.60592-0.58087-0.60592-1.0285 0-0.44759 0.27022-0.70949 0.60592-0.58728l14.755 5.3716c0.3357 0.12222 0.60592 0.58087 0.60592 1.0285 0 0.44759-0.27022 0.70949-0.60592 0.58728l-14.755-5.3716m0-3.5527c-0.3357-0.12222-0.60592-0.58087-0.60592-1.0285 0-0.44759 0.27022-0.70949 0.60592-0.58728l7.2035 2.6225c0.3357 0.12222 0.60592 0.58087 0.60592 1.0285 0 0.44759-0.27022 0.70949-0.60592 0.58728l-7.2035-2.6225m0-7.1053c-0.3357-0.12222-0.60592-0.58087-0.60592-1.0285 0-0.44759 0.27022-0.70949 0.60592-0.58728l14.755 5.3716c0.3357 0.12222 0.60592 0.58087 0.60592 1.0285s-0.27022 0.70949-0.60592 0.58728l-14.755-5.3716m0-3.5527c-0.3357-0.12222-0.60592-0.58087-0.60592-1.0285s0.27022-0.70949 0.60592-0.58728c0 0 14.755 5.3716 14.755 5.3716 0.3357 0.12222 0.60592 0.58087 0.60592 1.0285 0 0.44759-0.27022 0.70949-0.60592 0.58728l-14.755-5.3716m0-3.5527c-0.3357-0.12222-0.60592-0.58087-0.60592-1.0285 0-0.44759 0.27022-0.70949 0.60592-0.58728l14.755 5.3716c0.3357 0.12222 0.60592 0.58087 0.60592 1.0285 0 0.44759-0.27022 0.7095-0.60592 0.58728 0 0-14.755-5.3716-14.755-5.3716" fill="#fefefe" style="paint-order:markers fill stroke"/><path d="m72.205 75.752 9.7634 3.5298c0.4516 0.16327 0.8668 0.3866 0.8668 0.8668v9.7634c0 0.48021-0.4152 1.0301-0.8668 0.8668l-9.7634-3.5298c-0.4516-0.16327-0.8668-0.3866-0.8668-0.8668v-9.7634c0-0.48021 0.4152-1.0301 0.8668-0.8668z" fill="#ebebeb" style="paint-order:markers fill stroke"/></g><g transform="matrix(.60395 0 0 .60395 138.26 52.044)" fill-rule="evenodd"><g transform="matrix(1.4244 0 0 1.4244 -321.99 -27.695)"><path d="m154.05 36.961c0-1.1963 1.0127-2.2091 2.2091-2.2091h21.61c1.1963 0 2.2091 1.0127 2.2091 2.2091v47.498c0 1.1963-1.0127 2.2103-2.2091 2.2103h-21.61c-1.1963 0-2.2091-1.014-2.2091-2.2103zm7.6373 8.796v29.907h12.028v-29.907z" color="#000000" color-rendering="auto" dominant-baseline="auto" fill="#bdbdbd" image-rendering="auto" shape-rendering="auto" solid-color="#000000" style="font-feature-settings:normal;font-variant-alternates:normal;font-variant-caps:normal;font-variant-ligatures:normal;font-variant-numeric:normal;font-variant-position:normal;isolation:auto;mix-blend-mode:normal;paint-order:stroke fill markers;shape-padding:0;text-decoration-color:#000000;text-decoration-line:none;text-decoration-style:solid;text-indent:0;text-orientation:mixed;text-transform:none;white-space:normal"/><path d="m156.42 39.63v40.196c0 0.27336 0.25087 0.49344 0.56249 0.49344h20.151c0.31162 0 0.56249-0.22008 0.56249-0.49344v-40.196c0-0.27336-0.25087-0.49343-0.56249-0.49343h-20.151c-0.31162 0-0.56249 0.22007-0.56249 0.49343z" fill="#fff" style="paint-order:stroke fill markers"/><circle transform="matrix(0,1,1,0,0,0)" cx="37.016" cy="170.78" r=".30795" fill="#fff" style="paint-order:stroke fill markers"/><rect x="164.87" y="36.886" width="4.3811" height=".25985" rx=".12992" ry=".12992" fill="#fff" style="paint-order:stroke fill markers"/><circle transform="matrix(0,1,1,0,0,0)" cx="83.596" cy="167.06" r="1.5075" fill="#fff" style="paint-order:stroke fill markers"/></g><path d="m-96.015 33.132c-0.53348 0-0.96289 0.42941-0.96289 0.96289 0 0.53348 0.42941 0.96289 0.96289 0.96289h23.447c0.53348 0 0.96289-0.42941 0.96289-0.96289 0-0.53348-0.42941-0.96289-0.96289-0.96289zm0 4.2344c-0.53348 0-0.96289 0.42941-0.96289 0.96289 0 0.53348 0.42941 0.96289 0.96289 0.96289h17.447c0.53348 0 0.96289-0.42941 0.96289-0.96289 0-0.53348-0.42941-0.96289-0.96289-0.96289zm0 4.2344c-0.53348 0-0.96289 0.42941-0.96289 0.96289 0 0.53348 0.42941 0.96289 0.96289 0.96289h21.447c0.53348 0 0.96289-0.42941 0.96289-0.96289 0-0.53348-0.42941-0.96289-0.96289-0.96289zm0 4.2344c-0.53348 0-0.96289 0.42941-0.96289 0.96289 0 0.53348 0.42941 0.96289 0.96289 0.96289h23.447c0.53348 0 0.96289-0.42941 0.96289-0.96289 0-0.53348-0.42941-0.96289-0.96289-0.96289zm0 4.2344c-0.53348 0-0.96289 0.42941-0.96289 0.96289 0 0.53348 0.42941 0.96289 0.96289 0.96289h17.447c0.53348 0 0.96289-0.42941 0.96289-0.96289 0-0.53348-0.42941-0.96289-0.96289-0.96289zm0 4.2324c-0.53348 0-0.96289 0.42941-0.96289 0.96289 0 0.53348 0.42941 0.96289 0.96289 0.96289h11.447c0.53348 0 0.96289-0.42941 0.96289-0.96289 0-0.53348-0.42941-0.96289-0.96289-0.96289zm0 4.2344c-0.53348 0-0.96289 0.42941-0.96289 0.96289 0 0.53348 0.42941 0.96289 0.96289 0.96289h23.447c0.53348 1e-6 0.96289-0.42941 0.96289-0.96289 0-0.53348-0.42941-0.96289-0.96289-0.96289zm0 4.2344c-0.53348 0-0.96289 0.42941-0.96289 0.96289 0 0.53348 0.42941 0.96289 0.96289 0.96289h11.447c0.53348 0 0.96289-0.42941 0.96289-0.96289 0-0.53348-0.42941-0.96289-0.96289-0.96289zm0 8.4688c-0.53348 0-0.96289 0.42941-0.96289 0.96289 0 0.53348 0.42941 0.96289 0.96289 0.96289h23.447c0.53348-1e-6 0.96289-0.42941 0.96289-0.96289 0-0.53348-0.42941-0.96289-0.96289-0.96289zm0 4.2344c-0.53348 0-0.96289 0.42941-0.96289 0.96289 0 0.53348 0.42941 0.96289 0.96289 0.96289h23.447c0.53348 1e-6 0.96289-0.42941 0.96289-0.96289 0-0.53348-0.42941-0.96289-0.96289-0.96289zm0 4.2344c-0.53348 0-0.96289 0.42941-0.96289 0.96289 0 0.53348 0.42941 0.96289 0.96289 0.96289h23.447c0.53348-1e-6 0.96289-0.42941 0.96289-0.96289 0-0.53348-0.42941-0.96289-0.96289-0.96289z" fill="#eee" style="paint-order:markers fill stroke"/><g transform="matrix(.37237 -.37237 .37237 .37237 -45.632 -8.5302)"><circle cx="-117.93" cy="65.103" r="25.696" fill="#f7ffff" stroke="#b7c8be" stroke-linecap="round" stroke-linejoin="bevel" stroke-width="5" style="paint-order:markers fill stroke"/><rect x="-120.42" y="90.032" width="3.8352" height="15.341" rx="0" ry="0" fill="#b7c8be" style="paint-order:markers fill stroke"/><path d="m-121.14 103.84h5.2749c1.2494 0 2.1965 1.3414 2.2552 3.0052l1.6271 46.148c0.0587 1.6638-1.3403 3.0052-3.0052 3.0052h-7.0291c-1.6649 0-3.0639-1.3414-3.0052-3.0052l1.6271-46.148c0.0587-1.6638 1.0058-3.0052 2.2552-3.0052z" fill="#b3b3b3" style="paint-order:markers fill stroke"/></g></g><path d="m20.338 104.23c1.4175 0.94461 2.4298 2.2766 2.0346 4.7119-0.0453 0.27766 0.08212 0.53568 0.32393 0.67529 0.40766 0.23536 2.2543-0.0523 2.755-0.09-1.745 3.0214-4.6701 4.8738-7.9751 2.9657-2.7836-1.6071-3.7695-4.3177-2.1505-7.1218 0.06588-0.11411 0.15263-0.20932 0.22901-0.31445zm-4.1196-17.513c0.55627 0.32116 0.93553 0.86841 1.1269 1.4555 3.6321 11.031 4.3217 11.639 3.183 13.611-0.29022 0.50268-0.68615 0.91305-1.1402 1.2351l-3.4684 0.59933c-0.30271-0.0867-0.60138-0.19898-0.88574-0.36316-2.279-1.3158-2.6367-3.7469-2.3151-13.884 0.0332-0.68289 0.12233-1.3898 0.46426-1.982 0.61246-1.0608 2.0037-1.2673 3.0352-0.67184z" fill="#bdbdbd" stroke-width=".04237"/><g transform="matrix(.056934 0 0 .056934 29.407 126.13)"><path d="m279.93-748.11c-0.53652-8e-3 -1.0815 9e-3 -1.6309 0.0391-6.1063 0.25992-12.846 2.4206-19.768 5.7051-0.83749 0.39741-1.6796 0.81184-2.5215 1.2402-0.28981 0.14748-0.58088 0.30612-0.8711 0.45703-1.3964 0.72623-2.7964 1.4832-4.1973 2.2813-0.8455 0.48166-1.6938 0.97635-2.5391 1.4805-4.2281 2.5221-8.4404 5.3059-12.533 8.1719-0.97647 0.68371-1.9296 1.3673-2.8672 2.0508-5.8237 4.1823-11.235 8.3445-16.154 12.15-1.4943 1.1246-2.9857 2.2465-4.3906 3.3242-1.9616 1.5048-4.2757 3.3221-5.9394 4.5352-1.9743 1.4329-3.4617 2.5164-5.3379 3.8789-0.0914 0.0664-0.16633 0.12162-0.25976 0.18945-1.1262 0.8175-2.2828 1.659-3.4395 2.4961h-77.551c-14.083 0-26.751 6.0639-35.531 15.725v2e-3c-1.0326 1.1362-2.0125 2.3211-2.9336 3.5527v2e-3c-1.3817 1.8477-2.634 3.798-3.7422 5.8379v2e-3c-3.6941 6.8009-5.793 14.595-5.793 22.879v44.139c-3.0925 2.3325-5.9353 4.4898-8.5996 6.5234-0.15995 0.12209-0.2925 0.22645-0.45117 0.34765-1.4001 1.0695-2.6743 2.0519-3.9863 3.0606-2.3698 1.8218-4.5964 3.549-6.7734 5.2402-0.32375 0.2515-0.63796 0.49831-0.95898 0.74804-2.976 2.3111-5.9478 4.6182-8.8418 6.8867-0.77263 0.62729-1.5198 1.2849-2.252 1.959-0.06859 0.0631-0.14271 0.12003-0.21094 0.18359a47.995 47.995 0 0 0-1.2832 1.1367c-0.69957 0.69721-1.378 1.4153-2.0332 2.1543a47.995 47.995 0 0 0-4.123 5.1074c-0.54443 0.81914-1.0636 1.6548-1.5566 2.5059a47.995 47.995 0 0 0-5.9336 15.039c-4.64e-4 2e-3 -0.0015 4e-3 -2e-3 6e-3v2e-3c-0.15976 0.862-0.29588 1.7282-0.4082 2.5977a47.995 47.995 0 0 0-0.58594 7.082v10.65l96 69.35v-0.16797c21.175 15.537 48.941 35.776 86.588 63.098 16.854 12.287 50.201 41.774 73.412 41.43 0.0387 5.9e-4 0.0804-8e-3 0.11914-8e-3 -1.4134 0.0148-2.8598-0.071-4.3418-0.26562-1.5234-0.20007-3.081-0.50562-4.6641-0.9043-3.1661-0.79735-6.4388-1.9679-9.7656-3.4219-3.3268-1.454-6.7083-3.1903-10.092-5.1172s-6.7692-4.0456-10.105-6.2617c-6.6724-4.4323-13.145-9.2592-19.004-13.746-5.859-4.4869-11.105-8.6333-15.318-11.705-37.647-27.322-65.412-47.56-86.588-63.098v-184.55h320v184.54l30.959-22.365 64.801-46.811v-10.65c0-0.19157-0.0133-0.38098-0.0156-0.57227-8.8e-4 -0.0731-7e-3 -0.14565-8e-3 -0.21875-0.0219-1.3263-0.0964-2.6441-0.22656-3.9531-0.0123-0.15566-0.0253-0.31126-0.0391-0.4668-1e-3 -0.01-2e-3 -0.0196-4e-3 -0.0293-0.15408-1.4018-0.38137-2.7881-0.65625-4.1621-0.047-0.24125-0.0958-0.48215-0.14648-0.72265-3e-4 -1e-3 -2e-3 -3e-3 -2e-3 -4e-3 -0.28988-1.3409-0.63518-2.6646-1.0371-3.9707-4e-3 -0.0142-7e-3 -0.0288-0.0117-0.043-0.0737-0.23365-0.14926-0.46673-0.22657-0.69922-4e-3 -0.0131-9e-3 -0.026-0.0137-0.0391-0.43019-1.3173-0.90585-2.6178-1.4473-3.8906-3e-3 -7e-3 -5e-3 -0.0145-8e-3 -0.0215-0.0733-0.16448-0.14751-0.32855-0.22265-0.49219-6e-3 -0.0147-0.0149-0.0284-0.0215-0.043-0.5565-1.2635-1.1589-2.5057-1.8223-3.7168-0.0492-0.0952-0.0986-0.19027-0.14844-0.28516-0.67806-1.2185-1.4258-2.3975-2.209-3.5547-8e-3 -0.0127-0.0149-0.0265-0.0234-0.0391-0.14153-0.21338-0.28476-0.42563-0.42969-0.63672-5e-3 -8e-3 -0.0122-0.0139-0.0176-0.0215-0.77206-1.0987-1.5958-2.1631-2.4609-3.1973-0.0396-0.0475-0.0813-0.0933-0.1211-0.14062-0.15513-0.18399-0.30876-0.36899-0.4668-0.55078-4e-3 -5e-3 -9e-3 -9e-3 -0.0137-0.0137-0.88363-1.0157-1.805-2.0017-2.7773-2.9453-0.18418-0.17399-0.36973-0.34653-0.55664-0.51758-0.49759-0.46779-1.0002-0.93091-1.5195-1.3789-0.5167-0.45044-1.045-0.89084-1.5859-1.3184-0.0494-0.0431-0.0989-0.086-0.14844-0.12891-3.4133-2.6757-6.9029-5.3849-10.453-8.1367-0.7342-0.56957-1.4094-1.1016-2.1621-1.6836-0.30423-0.23524-0.56527-0.44399-0.87305-0.68164-0.85616-0.66109-1.8249-1.3991-2.7129-2.082-0.50527-0.3886-1.0257-0.78868-1.543-1.1856-1.0564-0.81054-2.0385-1.5694-3.1523-2.4199-0.0355-0.0271-0.0797-0.0608-0.11524-0.0879h-2e-3c-2.6643-2.0341-5.5071-4.1943-8.5996-6.5293v-44.139c0-0.94926-0.0355-1.8905-0.0898-2.8262-0.0169-0.2906-0.0444-0.578-0.0664-0.86719-0.049-0.64283-0.1076-1.2825-0.18164-1.918-0.0387-0.33185-0.0796-0.66244-0.125-0.99219-0.0895-0.65048-0.19325-1.2956-0.30859-1.9375-0.0461-0.25656-0.0885-0.5144-0.13868-0.76953-0.35256-1.7932-0.80336-3.5501-1.3496-5.2656-0.0888-0.27905-0.18745-0.55328-0.28126-0.83008-0.20359-0.60091-0.41608-1.1972-0.64257-1.7871-0.10353-0.26968-0.21013-0.53738-0.31836-0.80469-0.24007-0.59291-0.49307-1.1789-0.75586-1.7598-0.11248-0.24863-0.21937-0.49976-0.33594-0.7461-0.37995-0.80291-0.77678-1.5973-1.1992-2.375v-2e-3c-0.42139-0.77572-0.86986-1.5341-1.332-2.2832-0.14712-0.23848-0.30197-0.47133-0.45312-0.70704-0.33414-0.52097-0.67584-1.036-1.0293-1.543-0.16946-0.24307-0.33986-0.48486-0.51367-0.72461-0.36716-0.50644-0.74662-1.0029-1.1328-1.4941-0.16975-0.21594-0.33445-0.43552-0.50781-0.64844-1.1101-1.3636-2.294-2.6632-3.5449-3.8965-0.18468-0.18208-0.3749-0.35801-0.5625-0.5371-0.45631-0.43563-0.9194-0.8637-1.3926-1.2813-0.22022-0.19432-0.44223-0.38585-0.66601-0.57617-0.48038-0.40853-0.9704-0.80564-1.4668-1.1953-0.20657-0.16215-0.40987-0.32751-0.61914-0.48633-0.7031-0.53361-1.4158-1.0538-2.1484-1.5488-0.57611-0.38921-1.1642-0.76247-1.7578-1.127-0.17135-0.10521-0.34482-0.20743-0.51758-0.31055-0.44915-0.26808-0.90283-0.52757-1.3613-0.78125-0.1731-0.0958-0.34512-0.19341-0.51953-0.28711-1.2322-0.6619-2.4973-1.2717-3.791-1.8262-0.19034-0.0816-0.38263-0.1591-0.57422-0.23828-0.46445-0.19191-0.93265-0.37511-1.4043-0.55273-0.21998-0.0829-0.43865-0.16834-0.66016-0.24805-1.3105-0.47151-2.6472-0.8882-4.0078-1.2461-0.22175-0.0583-0.44497-0.11274-0.66797-0.16797-0.48913-0.12114-0.98164-0.23384-1.4766-0.33985-0.23021-0.0493-0.45999-0.0985-0.69141-0.14453-1.4031-0.27887-2.8273-0.49671-4.2715-0.65039-0.20966-0.0223-0.4204-0.0409-0.63086-0.0605-0.534-0.0497-1.0704-0.089-1.6094-0.1211-0.22453-0.0134-0.44846-0.0288-0.67382-0.0391-0.73717-0.0336-1.4772-0.0566-2.2227-0.0566h-77.551c-0.55793-0.40376-1.111-0.8084-1.6582-1.2051-2.6261-1.9069-4.6484-3.3811-7.377-5.3613-4.2042-3.0652-9.4443-7.2086-15.303-11.695-1.464-1.1216-2.9672-2.2652-4.502-3.418-3.0704-2.3062-6.27-4.6522-9.5449-6.9453-14.131-9.8949-29.673-18.793-42.434-19.336-0.5494-0.0305-1.0945-0.0471-1.6309-0.0391zm-79.76 168c-1.105 0-2.1828 0.11117-3.2246 0.32422-1.0418 0.21304-2.0467 0.52695-3.0039 0.93164-0.95718 0.40469-1.8676 0.89969-2.7188 1.4746-0.85118 0.57492-1.6434 1.2294-2.3672 1.9531s-1.3782 1.518-1.9531 2.3691c-0.57492 0.85118-1.0699 1.7596-1.4746 2.7168-0.40468 0.95719-0.72055 1.9621-0.9336 3.0039s-0.32421 2.1216-0.32421 3.2266v16c0 1.105 0.11116 2.1828 0.32421 3.2246 0.21305 1.0418 0.52892 2.0467 0.9336 3.0039 0.40469 0.95719 0.89969 1.8676 1.4746 2.7188 0.57492 0.85117 1.2294 1.6434 1.9531 2.3672s1.516 1.3782 2.3672 1.9531c0.85117 0.57491 1.7616 1.0699 2.7188 1.4746 0.95719 0.40468 1.9621 0.71859 3.0039 0.93164 1.0418 0.21304 2.1196 0.32617 3.2246 0.32617h160c1.105 0 2.1828-0.11313 3.2246-0.32617 1.0418-0.21305 2.0467-0.52696 3.0039-0.93164 0.95718-0.40468 1.8676-0.8997 2.7188-1.4746 0.85117-0.57492 1.6434-1.2294 2.3672-1.9531s1.3782-1.516 1.9531-2.3672c0.57492-0.85116 1.0699-1.7616 1.4746-2.7188 0.40469-0.95718 0.72056-1.9621 0.9336-3.0039 0.21305-1.0418 0.32422-2.1196 0.32422-3.2246v-16c-1e-5 -1.105-0.11117-2.1848-0.32422-3.2266-0.21304-1.0418-0.52891-2.0467-0.9336-3.0039s-0.89969-1.8656-1.4746-2.7168c-0.57492-0.85117-1.2294-1.6454-1.9531-2.3691s-1.516-1.3782-2.3672-1.9531c-0.85118-0.57492-1.7616-1.0699-2.7188-1.4746-0.95719-0.40469-1.9621-0.7186-3.0039-0.93164-1.0418-0.21305-2.1196-0.32422-3.2246-0.32422zm-176.24 82.859v213.14c0 0.82591 0.02115 1.6473 0.0625 2.4629 0.01517 0.3 0.0477 0.596 0.06836 0.89453 0.09187 1.3243 0.2228 2.6371 0.41992 3.9297 0.24374 1.6005 0.56713 3.1744 0.96484 4.7188 0.19646 0.76277 0.41006 1.518 0.64258 2.2656 1.8699 6.0128 4.8895 11.518 8.8027 16.26l2e-3 2e-3c0.48699 0.59025 0.9878 1.1684 1.502 1.7344 0.0016 2e-3 0.0023 4e-3 0.0039 6e-3 0.51267 0.56424 1.0394 1.1152 1.5781 1.6543 0.0039 4e-3 0.0078 8e-3 0.01172 0.0117 3.8005 3.8007 8.2341 6.9667 13.131 9.3262h2e-3c6.2949 3.0329 13.353 4.7344 20.809 4.7344h416c1.6569 0 3.2946-0.0838 4.9082-0.24805 1.6136-0.16387 3.2033-0.40881 4.7656-0.72851 0.78117-0.15985 1.5553-0.33786 2.3223-0.53516 0.76685-0.1973 1.5278-0.4147 2.2793-0.64844 0.75092-0.2335 1.494-0.48309 2.2285-0.75195l2e-3 -2e-3c0.44472-0.1628 0.87995-0.34407 1.3184-0.51954 0.28579-0.11441 0.57828-0.22012 0.86133-0.33984 0.0172-7e-3 0.0336-0.0161 0.0508-0.0234 5.7214-2.4281 10.875-5.934 15.205-10.264 0.54289-0.54289 1.0733-1.0977 1.5898-1.666 1.033-1.1366 2.0122-2.3246 2.9336-3.5566 0.9214-1.2321 1.7842-2.5086 2.5859-3.8281 0.80177-1.3195 1.5427-2.6811 2.2168-4.0801 0.67381-1.3984 1.2821-2.8349 1.8203-4.3047v-2e-3c0.26896-0.7346 0.52033-1.4776 0.75391-2.2285v-2e-3c0.23355-0.75092 0.44932-1.5092 0.64648-2.2754v-2e-3c0.39443-1.5331 0.71624-3.0952 0.95899-4.6836v-2e-3c0.24278-1.589 0.40729-3.2036 0.49023-4.8398 0.0415-0.81812 0.0625-1.6403 0.0625-2.4688v-213.14l-209.14 151.08c-14.02 10.12-30.439 15.189-46.859 15.189-16.42 0-32.839-5.0594-46.859-15.189zm176.24 13.141c-1.105 0-2.1828 0.11117-3.2246 0.32422-1.0418 0.21304-2.0467 0.52695-3.0039 0.93164-0.95718 0.40469-1.8676 0.89968-2.7188 1.4746-0.85118 0.57492-1.6434 1.2294-2.3672 1.9531s-1.3782 1.518-1.9531 2.3691c-0.57492 0.85118-1.0699 1.7596-1.4746 2.7168-0.40468 0.95719-0.72055 1.9621-0.9336 3.0039-0.21305 1.0418-0.32421 2.1216-0.32421 3.2266v16c0 1.105 0.11116 2.1828 0.32421 3.2246s0.52892 2.0467 0.9336 3.0039c0.40469 0.95719 0.89969 1.8676 1.4746 2.7188 0.57492 0.85118 1.2294 1.6434 1.9531 2.3672s1.516 1.3782 2.3672 1.9531c0.85117 0.57492 1.7616 1.0699 2.7188 1.4746 0.95719 0.40468 1.9621 0.71859 3.0039 0.93164 1.0418 0.21304 2.1196 0.32617 3.2246 0.32617h160c1.105 0 2.1828-0.11313 3.2246-0.32617 1.0418-0.21305 2.0467-0.52696 3.0039-0.93164 0.95718-0.40469 1.8676-0.89969 2.7188-1.4746 0.85117-0.57493 1.6434-1.2294 2.3672-1.9531s1.3782-1.516 1.9531-2.3672c0.57492-0.85117 1.0699-1.7616 1.4746-2.7188s0.72056-1.9621 0.9336-3.0039c0.21305-1.0418 0.32422-2.1196 0.32422-3.2246v-16c-1e-5 -1.105-0.11117-2.1848-0.32422-3.2266-0.21304-1.0418-0.52891-2.0467-0.9336-3.0039s-0.89969-1.8656-1.4746-2.7168c-0.57492-0.85117-1.2294-1.6454-1.9531-2.3691s-1.516-1.3782-2.3672-1.9531c-0.85118-0.57493-1.7616-1.0699-2.7188-1.4746-0.95719-0.40469-1.9621-0.7186-3.0039-0.93164-1.0418-0.21305-2.1196-0.32422-3.2246-0.32422z" fill="#bdbdbd"/><path d="m439.93-464.31v-187.8h-320v187.81c21.175 15.537 48.941 32.521 86.588 59.843 4.2135 3.0718 9.4593 7.2182 15.318 11.705 5.8591 4.4869 12.331 9.3138 19.004 13.746 3.3362 2.2161 6.7219 4.3348 10.105 6.2617s6.765 3.6632 10.092 5.1172c3.3268 1.454 6.5995 2.6245 9.7656 3.4219 1.5831 0.39868 3.1407 0.70423 4.6641 0.9043 1.482 0.19464 2.9284 0.28039 4.3418 0.26562 23.198 0.25103 56.498-29.176 73.295-41.422 37.651-27.324 65.412-44.309 86.586-59.845v0.16992zm-240-115.8h160c1.105 0 2.1828 0.11117 3.2246 0.32422 1.0418 0.21304 2.0467 0.52695 3.0039 0.93164 0.95718 0.40469 1.8676 0.89969 2.7188 1.4746 0.85117 0.57492 1.6434 1.2294 2.3672 1.9531s1.3782 1.518 1.9531 2.3691c0.57492 0.85118 1.0699 1.7596 1.4746 2.7168s0.72056 1.9621 0.9336 3.0039c0.21305 1.0418 0.32421 2.1216 0.32422 3.2266v16c0 1.105-0.11117 2.1828-0.32422 3.2246-0.21304 1.0418-0.52891 2.0467-0.9336 3.0039-0.40469 0.95719-0.89969 1.8676-1.4746 2.7188-0.57492 0.85117-1.2294 1.6434-1.9531 2.3672s-1.516 1.3782-2.3672 1.9531c-0.85118 0.57491-1.7616 1.0699-2.7188 1.4746-0.95719 0.40468-1.9621 0.71859-3.0039 0.93164-1.0418 0.21304-2.1196 0.32617-3.2246 0.32617h-160c-1.105 0-2.1828-0.11313-3.2246-0.32617-1.0418-0.21305-2.0467-0.52696-3.0039-0.93164-0.95718-0.40468-1.8676-0.8997-2.7188-1.4746-0.85118-0.57492-1.6434-1.2294-2.3672-1.9531s-1.3782-1.516-1.9531-2.3672c-0.57492-0.85116-1.0699-1.7616-1.4746-2.7188-0.40468-0.95718-0.72055-1.9621-0.9336-3.0039-0.21305-1.0418-0.32421-2.1196-0.32421-3.2246v-16c0-1.105 0.11116-2.1848 0.32421-3.2266s0.52892-2.0467 0.9336-3.0039c0.40469-0.95719 0.89969-1.8656 1.4746-2.7168 0.57492-0.85117 1.2294-1.6454 1.9531-2.3691s1.516-1.3782 2.3672-1.9531c0.85117-0.57492 1.7616-1.0699 2.7188-1.4746 0.95719-0.40469 1.9621-0.7186 3.0039-0.93164 1.0418-0.21305 2.1196-0.32422 3.2246-0.32422zm0 96h160c1.105 0 2.1828 0.11117 3.2246 0.32422 1.0418 0.21304 2.0467 0.52695 3.0039 0.93164 0.95718 0.40469 1.8676 0.89968 2.7188 1.4746 0.85117 0.57492 1.6434 1.2294 2.3672 1.9531s1.3782 1.518 1.9531 2.3691c0.57492 0.85118 1.0699 1.7596 1.4746 2.7168s0.72056 1.9621 0.9336 3.0039c0.21305 1.0418 0.32421 2.1216 0.32422 3.2266v16c0 1.105-0.11117 2.1828-0.32422 3.2246-0.21304 1.0418-0.52891 2.0467-0.9336 3.0039s-0.89969 1.8676-1.4746 2.7188c-0.57492 0.85118-1.2294 1.6434-1.9531 2.3672s-1.516 1.3782-2.3672 1.9531c-0.85118 0.57492-1.7616 1.0699-2.7188 1.4746-0.95719 0.40468-1.9621 0.71859-3.0039 0.93164-1.0418 0.21304-2.1196 0.32617-3.2246 0.32617h-160c-1.105 0-2.1828-0.11313-3.2246-0.32617-1.0418-0.21305-2.0467-0.52696-3.0039-0.93164-0.95718-0.40469-1.8676-0.89969-2.7188-1.4746-0.85118-0.57493-1.6434-1.2294-2.3672-1.9531s-1.3782-1.516-1.9531-2.3672c-0.57492-0.85117-1.0699-1.7616-1.4746-2.7188-0.40468-0.95719-0.72055-1.9621-0.9336-3.0039s-0.32421-2.1196-0.32421-3.2246v-16c0-1.105 0.11116-2.1848 0.32421-3.2266 0.21305-1.0418 0.52892-2.0467 0.9336-3.0039 0.40469-0.95719 0.89969-1.8656 1.4746-2.7168 0.57492-0.85117 1.2294-1.6454 1.9531-2.3691s1.516-1.3782 2.3672-1.9531c0.85117-0.57493 1.7616-1.0699 2.7188-1.4746 0.95719-0.40469 1.9621-0.7186 3.0039-0.93164 1.0418-0.21305 2.1196-0.32422 3.2246-0.32422z" fill="#fff"/></g></svg>
