<?xml version="1.0" encoding="UTF-8"?>
<svg width="128" height="128" version="1.1" viewBox="0 0 128 128" xmlns="http://www.w3.org/2000/svg" xmlns:cc="http://creativecommons.org/ns#" xmlns:dc="http://purl.org/dc/elements/1.1/" xmlns:rdf="http://www.w3.org/1999/02/22-rdf-syntax-ns#"><title>Image</title><metadata><rdf:RDF><cc:Work rdf:about=""><dc:format>image/svg+xml</dc:format><dc:type rdf:resource="http://purl.org/dc/dcmitype/StillImage"/><dc:title>Image</dc:title><dc:date>June 2019</dc:date><dc:creator><cc:Agent><dc:title>Sujaykumar Hublikar</dc:title></cc:Agent></dc:creator><dc:rights><cc:Agent><dc:title>Creative Commons Attribution-NonCommercial-ShareAlike 4.0 International License.</dc:title></cc:Agent></dc:rights><dc:publisher><cc:Agent><dc:title>Sujaykumar Hublikar</dc:title></cc:Agent></dc:publisher><dc:subject><rdf:Bag><rdf:li>image</rdf:li></rdf:Bag></dc:subject><dc:description>Image</dc:description><dc:contributor><cc:Agent><dc:title>https://github.com/Sujaykumarh</dc:title></cc:Agent></dc:contributor><cc:license rdf:resource="http://creativecommons.org/licenses/by-nc-sa/4.0/"/></cc:Work><cc:License rdf:about="http://creativecommons.org/licenses/by-nc-sa/4.0/"><cc:permits rdf:resource="http://creativecommons.org/ns#Reproduction"/><cc:permits rdf:resource="http://creativecommons.org/ns#Distribution"/><cc:requires rdf:resource="http://creativecommons.org/ns#Notice"/><cc:requires rdf:resource="http://creativecommons.org/ns#Attribution"/><cc:prohibits rdf:resource="http://creativecommons.org/ns#CommercialUse"/><cc:permits rdf:resource="http://creativecommons.org/ns#DerivativeWorks"/><cc:requires rdf:resource="http://creativecommons.org/ns#ShareAlike"/></cc:License></rdf:RDF></metadata><g transform="translate(0,-32)"><g transform="matrix(1.2602 0 0 1.2602 -20.485 -30.732)"><path d="m29.392 108.85c-0.9432 0-1.7031 0.75797-1.7031 1.7012v9.0606c0 0.9432 0.75992 1.7031 1.7031 1.7031h10.678c0.9432 0 1.7031-0.75993 1.7031-1.7031v-9.0606c0-0.9432-0.75992-1.7012-1.7031-1.7012zm64.625 0c-0.9432 0-1.7031 0.75797-1.7031 1.7012v9.0606c0 0.9432 0.75992 1.7031 1.7031 1.7031h10.678c0.94321 0 1.7031-0.75993 1.7031-1.7031v-9.0606c0-0.9432-0.75992-1.7012-1.7031-1.7012z" fill="#80b3ff" fill-rule="evenodd"/><path d="m67.043 55.721c-4.5831 0-8.3418 3.7587-8.3418 8.3418 0 3.643 2.3782 6.7573 5.6543 7.8848v12.805h-23.297c-4.5904 0-8.2852 3.6948-8.2852 8.2852v44.094c0 4.5904 3.6948 8.2852 8.2852 8.2852h51.969c4.5904 0 8.2871-3.6948 8.2871-8.2852v-44.094c0-4.5904-3.6967-8.2852-8.2871-8.2852h-23.297v-12.805c3.2766-1.1275 5.6562-4.2417 5.6562-7.8848 0-4.5831-3.7607-8.3418-8.3438-8.3418zm0 4.082c2.377 0 4.2617 1.8828 4.2617 4.2598s-1.8847 4.2598-4.2617 4.2598c-2.377 0-4.2598-1.8828-4.2598-4.2598s1.8828-4.2598 4.2598-4.2598z" fill="#acf" fill-rule="evenodd"/><g transform="translate(.3803)" fill="none" stroke="#fff" stroke-width="4.0824"><circle cx="83.351" cy="106.19" r="6.3012"/><circle cx="49.976" cy="106.19" r="6.3012"/></g><path d="m56.096 126.68c7.8308 3.4053 15.155 3.5714 21.896 0 1.1608-0.61502 2.3712 1.0576 2.3712 2.3712s-1.2532 1.6815-2.3712 2.3712c-8.3882 5.175-15.225 2.9817-21.896 0-1.1993-0.53605-2.3712-1.0576-2.3712-2.3712s1.1665-2.8951 2.3712-2.3712z" fill="#fff" fill-rule="evenodd" style="paint-order:stroke fill markers"/></g></g></svg>
