<?xml version="1.0" encoding="UTF-8"?>
<svg width="128" height="128" version="1.1" viewBox="0 0 128 128" xmlns="http://www.w3.org/2000/svg" xmlns:cc="http://creativecommons.org/ns#" xmlns:dc="http://purl.org/dc/elements/1.1/" xmlns:rdf="http://www.w3.org/1999/02/22-rdf-syntax-ns#"><title>Image</title><metadata><rdf:RDF><cc:Work rdf:about=""><dc:format>image/svg+xml</dc:format><dc:type rdf:resource="http://purl.org/dc/dcmitype/StillImage"/><dc:title>Image</dc:title><dc:date>June 2019</dc:date><dc:creator><cc:Agent><dc:title>Sujaykumar Hublikar</dc:title></cc:Agent></dc:creator><dc:rights><cc:Agent><dc:title>Creative Commons Attribution-NonCommercial-ShareAlike 4.0 International License.</dc:title></cc:Agent></dc:rights><dc:publisher><cc:Agent><dc:title>Sujaykumar Hublikar</dc:title></cc:Agent></dc:publisher><dc:subject><rdf:Bag><rdf:li>image</rdf:li></rdf:Bag></dc:subject><dc:description>Image</dc:description><dc:contributor><cc:Agent><dc:title>https://github.com/Sujaykumarh</dc:title></cc:Agent></dc:contributor><cc:license rdf:resource="http://creativecommons.org/licenses/by-nc-sa/4.0/"/></cc:Work><cc:License rdf:about="http://creativecommons.org/licenses/by-nc-sa/4.0/"><cc:permits rdf:resource="http://creativecommons.org/ns#Reproduction"/><cc:permits rdf:resource="http://creativecommons.org/ns#Distribution"/><cc:requires rdf:resource="http://creativecommons.org/ns#Notice"/><cc:requires rdf:resource="http://creativecommons.org/ns#Attribution"/><cc:prohibits rdf:resource="http://creativecommons.org/ns#CommercialUse"/><cc:permits rdf:resource="http://creativecommons.org/ns#DerivativeWorks"/><cc:requires rdf:resource="http://creativecommons.org/ns#ShareAlike"/></cc:License></rdf:RDF></metadata><g transform="matrix(1.2079 0 0 1.2079 -13.302 -51.958)"><path transform="translate(0,32)" d="m59.877 80.658c-0.46532 0-0.45796 0.82913-0.83984 1.5918l-2.1855 4.3652c-0.08761 0.17497-0.0079 0.34494 0.15625 0.48828h-1.7773c-0.95705 0-0.91591 0.71778-1.7285 1.4238l-4.4941 3.9043c-0.43753 0.38015 1.0908 0.75195 2.4473 0.75195h25.637c1.3565 0 2.8848-0.3718 2.4473-0.75195l-4.4941-3.9043c-0.81261-0.70605-0.77147-1.4238-1.7285-1.4238h-1.7773c0.16414-0.14334 0.24386-0.31331 0.15625-0.48828l-2.1855-4.3652c-0.38188-0.76267-0.37452-1.5918-0.83984-1.5918z" fill="#fff" fill-rule="evenodd" stroke="#ac8be9" stroke-linecap="round" stroke-linejoin="bevel" stroke-width="5" style="paint-order:stroke fill markers"/><path d="m20.019 55.007h85.92c1.7699 0 3.1948 1.4249 3.1948 3.1948v50.661c0 1.7699-1.4249 3.1948-3.1948 3.1948h-85.92c-1.7699 0-3.1948-1.4249-3.1948-3.1948v-50.661c0-1.7699 1.4249-3.1948 3.1948-3.1948z" fill="#fff" fill-rule="evenodd" stroke="#ac8be9" stroke-linecap="round" stroke-linejoin="bevel" stroke-width="5" style="paint-order:stroke fill markers"/><path d="m26.102 131.97h62.124c0.56047 0 0.6169 0.37795 1.0117 0.65771l5.2383 3.7122c0.48435 0.34324-0.52489 0.65771-1.1769 0.65771h-72.27c-0.65201 0-1.6612-0.31447-1.1769-0.65771l5.2383-3.7122c0.39477-0.27976 0.45119-0.65771 1.0117-0.65771z" fill="#fff" fill-rule="evenodd" stroke="#ac8be9" stroke-linecap="round" stroke-linejoin="bevel" stroke-width="5" style="paint-order:stroke fill markers"/><path d="m105.23 132.97h4.3828c0.31354 0 0.35741 0.386 0.56754 0.8093l0.96417 1.9423c0.20048 0.40386-0.34251 0.76948-0.76587 0.76948h-5.9145c-0.4247 0-0.96636-0.36562-0.76588-0.76948l0.96418-1.9423c0.21012-0.4233 0.25312-0.8093 0.56754-0.8093z" fill="#fff" fill-rule="evenodd" stroke="#ac8be9" stroke-linecap="round" stroke-linejoin="bevel" stroke-width="5" style="paint-order:stroke fill markers"/><path transform="translate(0,32)" d="m16.383 71.016a1.2501 1.2501 0 1 0 0 2.5h93.045a1.2501 1.2501 0 1 0 0-2.5zm46.596 3.9453a1.6428 1.6428 0 0 0-1.6426 1.6426 1.6428 1.6428 0 0 0 1.6426 1.6426 1.6428 1.6428 0 0 0 1.6426-1.6426 1.6428 1.6428 0 0 0-1.6426-1.6426z" color="#000000" color-rendering="auto" dominant-baseline="auto" fill="#ac8be9" image-rendering="auto" shape-rendering="auto" solid-color="#000000" style="font-feature-settings:normal;font-variant-alternates:normal;font-variant-caps:normal;font-variant-ligatures:normal;font-variant-numeric:normal;font-variant-position:normal;isolation:auto;mix-blend-mode:normal;shape-padding:0;text-decoration-color:#000000;text-decoration-line:none;text-decoration-style:solid;text-indent:0;text-orientation:mixed;text-transform:none;white-space:normal"/><g fill-rule="evenodd"><path d="m22.723 62.946c-0.42045 0-0.75781 0.33932-0.75781 0.75977 0 0.42045 0.33736 0.75781 0.75781 0.75781h50.807c0.42045 0 0.75976-0.33736 0.75976-0.75781 0-0.42045-0.33932-0.75977-0.75976-0.75977zm0 4.2383c-0.42045 0-0.75781 0.33736-0.75781 0.75781s0.33736 0.75977 0.75781 0.75977h46.807c0.42045 0 0.75976-0.33932 0.75976-0.75977s-0.33932-0.75781-0.75976-0.75781zm0 4.2363c-0.42045 0-0.75781 0.33932-0.75781 0.75976 0 0.42045 0.33736 0.75781 0.75781 0.75781h50.807c0.42045 0 0.75976-0.33737 0.75976-0.75781 0-0.42045-0.33932-0.75976-0.75976-0.75976zm0 4.2383c-0.42045 0-0.75781 0.33736-0.75781 0.75781s0.33736 0.75977 0.75781 0.75977h42.807c0.42045 0 0.75976-0.33932 0.75976-0.75977s-0.33932-0.75781-0.75976-0.75781zm0 4.2363c-0.42045 0-0.75781 0.33932-0.75781 0.75976 0 0.42045 0.33736 0.75781 0.75781 0.75781h26.807c0.42045 0 0.75977-0.33737 0.75976-0.75781 1e-6 -0.42045-0.33932-0.75976-0.75976-0.75976zm31.488 0c-0.42045 0-0.75781 0.33932-0.75781 0.75976 0 0.42045 0.33736 0.75781 0.75781 0.75781h4.8066c0.42045 0 0.75977-0.33737 0.75977-0.75781s-0.33932-0.75976-0.75977-0.75976zm9.4883 0c-0.42045 0-0.75781 0.33932-0.75781 0.75976 0 0.42045 0.33736 0.75781 0.75781 0.75781h8.8066c0.42045 0 0.75977-0.33737 0.75977-0.75781s-0.33932-0.75976-0.75977-0.75976zm-41.064 4.2383c-0.42045 0-0.75977 0.33736-0.75977 0.75781s0.33932 0.75976 0.75977 0.75976h30.807c0.42045 0 0.75781-0.33932 0.75781-0.75976s-0.33736-0.75781-0.75781-0.75781zm33.531 0c-0.42045 0-0.75781 0.33736-0.75781 0.75781 0 0.42045 0.33736 0.75976 0.75781 0.75976h4.8066c0.42045 0 0.75977-0.33932 0.75977-0.75976 0-0.42045-0.33932-0.75781-0.75977-0.75781zm7.5332 0c-0.42045 0-0.75781 0.33736-0.75781 0.75781 0 0.42045 0.33736 0.75976 0.75781 0.75976h8.8066c0.42045 0 0.75977-0.33932 0.75977-0.75976 0-0.42045-0.33932-0.75781-0.75977-0.75781zm-40.977 4.2363c-0.42045 0-0.75781 0.33932-0.75781 0.75977 0 0.42045 0.33736 0.75781 0.75781 0.75781h38.807c0.42045 0 0.75977-0.33736 0.75976-0.75781 0-0.42045-0.33932-0.75977-0.75976-0.75977zm44.051 0c-0.42045 0-0.75977 0.33932-0.75977 0.75977 0 0.42045 0.33932 0.75781 0.75977 0.75781h4.8066c0.42045 0 0.75977-0.33736 0.75977-0.75781 0-0.42045-0.33932-0.75977-0.75977-0.75977zm-44.051 4.2383c-0.42045 0-0.75781 0.33736-0.75781 0.75781 0 0.42045 0.33736 0.75977 0.75781 0.75977h50.807c0.42045 0 0.75976-0.33932 0.75976-0.75977 0-0.42045-0.33932-0.75781-0.75976-0.75781z" fill="#d2dfec" style="paint-order:stroke fill markers"/><rect x="85.803" y="65.046" width="12.481" height="26.98" rx="1.462" ry="1.462" fill="#fdfefe" stroke="#829fbe" stroke-linecap="round" stroke-linejoin="round" stroke-width="2.5" style="paint-order:stroke fill markers"/><circle cx="92.043" cy="89.818" r=".49343" fill="#eff4f9" stroke="#829fbe" stroke-linecap="round" stroke-linejoin="round" stroke-width=".76756" style="paint-order:stroke fill markers"/></g></g></svg>
