<?xml version="1.0" encoding="UTF-8"?>
<svg width="128" height="128" version="1.1" viewBox="0 0 128 128" xmlns="http://www.w3.org/2000/svg" xmlns:cc="http://creativecommons.org/ns#" xmlns:dc="http://purl.org/dc/elements/1.1/" xmlns:rdf="http://www.w3.org/1999/02/22-rdf-syntax-ns#"><title>Image</title><metadata><rdf:RDF><cc:Work rdf:about=""><dc:format>image/svg+xml</dc:format><dc:type rdf:resource="http://purl.org/dc/dcmitype/StillImage"/><dc:title>Image</dc:title><dc:date>June 2019</dc:date><dc:creator><cc:Agent><dc:title>Sujaykumar Hublikar</dc:title></cc:Agent></dc:creator><dc:rights><cc:Agent><dc:title>Creative Commons Attribution-NonCommercial-ShareAlike 4.0 International License.</dc:title></cc:Agent></dc:rights><dc:publisher><cc:Agent><dc:title>Sujaykumar Hublikar</dc:title></cc:Agent></dc:publisher><dc:subject><rdf:Bag><rdf:li>image</rdf:li></rdf:Bag></dc:subject><dc:description>Image</dc:description><dc:contributor><cc:Agent><dc:title>https://github.com/Sujaykumarh</dc:title></cc:Agent></dc:contributor><cc:license rdf:resource="http://creativecommons.org/licenses/by-nc-sa/4.0/"/></cc:Work><cc:License rdf:about="http://creativecommons.org/licenses/by-nc-sa/4.0/"><cc:permits rdf:resource="http://creativecommons.org/ns#Reproduction"/><cc:permits rdf:resource="http://creativecommons.org/ns#Distribution"/><cc:requires rdf:resource="http://creativecommons.org/ns#Notice"/><cc:requires rdf:resource="http://creativecommons.org/ns#Attribution"/><cc:prohibits rdf:resource="http://creativecommons.org/ns#CommercialUse"/><cc:permits rdf:resource="http://creativecommons.org/ns#DerivativeWorks"/><cc:requires rdf:resource="http://creativecommons.org/ns#ShareAlike"/></cc:License></rdf:RDF></metadata><g transform="translate(-2.8084e-6 -.058372)"><g transform="matrix(1.1985 0 0 1.1985 -13.346 -8.6136)" fill-rule="evenodd"><path d="m14.473 78.002c0.99944 2.0173 3.0713 3.4008 5.4833 3.4008h89.033c2.4119 0 4.4838-1.3837 5.4833-3.4008z" fill="#a1bbe4" style="paint-order:stroke fill markers"/><path transform="matrix(.85154 0 0 .85154 11.067 4.1213)" d="m18.947 26.105c-2.2048 0-4.0703 1.8675-4.0703 4.0723v50.885c0 2.2048 1.8655 4.0703 4.0703 4.0703h0.09766v0.89258h84.072v-0.89258h3.3672c2.2048 0 4.0742-1.8655 4.0742-4.0703v-50.885c0-2.2048-1.8694-4.0723-4.0742-4.0723zm1.8008 8.2207h83.938v44.936h-1.5684v-20.949h-82.369z" fill="#a1bbe4" style="paint-order:stroke fill markers"/><path d="m27.202 30.852h74.541c0.53572 0 0.96701 0.43128 0.96701 0.967v39.33c0 0.53572-0.43129 0.967-0.96701 0.967h-74.541c-0.53572 0-0.967-0.43128-0.967-0.967v-39.33c0-0.53572 0.43128-0.967 0.967-0.967z" fill="#fff" style="paint-order:stroke fill markers"/><circle cx="64.473" cy="28.796" r=".82801" fill="#fff" style="paint-order:stroke fill markers"/></g><path d="m75.617 50.603-0.49899 0.87019c-0.18256 0.32252-0.57202 0.45639-0.91887 0.3286-0.71806-0.26775-1.3753-0.65112-1.9534-1.1319-0.27992-0.23124-0.35295-0.63895-0.17039-0.95538l0.49899-0.87019c-0.41988-0.48682-0.74848-1.0528-0.96756-1.6674h-1.0041c-0.36511 0-0.68154-0.26166-0.7424-0.62678-0.1217-0.73023-0.12779-1.497 0-2.2576 0.06086-0.36512 0.37729-0.63287 0.7424-0.63287h1.0041c0.21907-0.61461 0.54768-1.1805 0.96756-1.6674l-0.49899-0.87019c-0.18256-0.31643-0.11562-0.72415 0.17039-0.95538 0.5781-0.48073 1.2414-0.86411 1.9534-1.1319 0.34685-0.12779 0.73631 0.0057 0.91887 0.3286l0.49899 0.87019c0.63895-0.11562 1.2901-0.11562 1.929 0l0.49898-0.87019c0.18256-0.32252 0.57202-0.45639 0.91887-0.3286 0.71806 0.26775 1.3753 0.65112 1.9534 1.1319 0.27992 0.23124 0.35295 0.63895 0.17039 0.95538l-0.49899 0.87019c0.41989 0.48682 0.74848 1.0528 0.96756 1.6674h1.0041c0.36511 0 0.68155 0.26166 0.7424 0.62678 0.1217 0.73023 0.12779 1.497 0 2.2576-0.06086 0.36512-0.37729 0.63287-0.7424 0.63287h-1.0041c-0.21907 0.61461-0.54767 1.1805-0.96756 1.6674l0.49899 0.87019c0.18256 0.31643 0.11562 0.72415-0.17039 0.95538-0.5781 0.48074-1.2414 0.86411-1.9534 1.1319-0.34685 0.12779-0.73631-0.0057-0.91887-0.3286l-0.49898-0.87019c-0.63287 0.11562-1.2901 0.11562-1.929 0zm-0.63895-3.5781c2.3428 1.8012 5.0142-0.87019 3.213-3.213-2.3428-1.8073-5.0142 0.87019-3.213 3.213zm-7.0163 9.3652 2.0507 1.0223c0.61461 0.35294 0.88236 1.1014 0.63895 1.7708-0.54158 1.4726-1.6065 2.8236-2.5923 4.0041-0.45031 0.54159-1.2292 0.67546-1.8438 0.32252l-1.7708-1.0223c-0.97363 0.83368-2.1055 1.497-3.3408 1.929v2.0446c0 0.70589-0.50507 1.3144-1.1988 1.4361-1.497 0.25558-3.067 0.26775-4.6187 0-0.6998-0.1217-1.217-0.72414-1.217-1.4361v-2.0446c-1.2353-0.43814-2.3672-1.0953-3.3408-1.929l-1.7708 1.0162c-0.60852 0.35294-1.3935 0.21907-1.8438-0.32252-0.98581-1.1805-2.0264-2.5315-2.568-3.998-0.24341-0.66329 0.02433-1.4118 0.63895-1.7708l2.0264-1.0223c-0.23732-1.2718-0.23732-2.5801 0-3.858l-2.0264-1.0284c-0.61461-0.35295-0.88844-1.1014-0.63895-1.7647 0.54159-1.4726 1.5822-2.8236 2.568-4.0041 0.45031-0.54158 1.2292-0.67546 1.8438-0.32251l1.7708 1.0223c0.97364-0.83368 2.1055-1.497 3.3408-1.929v-2.0507c0-0.6998 0.49899-1.3083 1.1927-1.43 1.497-0.25558 3.0731-0.26775 4.6248-0.0057 0.69981 0.1217 1.217 0.72414 1.217 1.4361v2.0446c1.2353 0.43814 2.3672 1.0953 3.3408 1.929l1.7708-1.0223c0.60852-0.35294 1.3935-0.21906 1.8438 0.32252 0.98581 1.1805 2.0203 2.5315 2.5619 4.0041 0.24341 0.66329 0.0057 1.4118-0.60852 1.7708l-2.0507 1.0223c0.23733 1.2779 0.23733 2.5862 0 3.8641zm-7.1563 1.284c3.6025-4.6856-1.7465-10.035-6.4321-6.4321-3.6025 4.6856 1.7465 10.035 6.4321 6.4321zm14.811 11.118-0.49899 0.87019c-0.18256 0.32252-0.57202 0.45639-0.91887 0.3286-0.71806-0.26775-1.3753-0.65112-1.9534-1.1319-0.27992-0.23124-0.35295-0.63895-0.17039-0.95538l0.49899-0.87019c-0.41988-0.48682-0.74848-1.0527-0.96756-1.6674h-1.0041c-0.36511 0-0.68154-0.26166-0.7424-0.62678-0.1217-0.73023-0.12779-1.497 0-2.2576 0.06086-0.36511 0.37729-0.63286 0.7424-0.63286h1.0041c0.21907-0.61461 0.54768-1.1805 0.96756-1.6674l-0.49899-0.87019c-0.18256-0.31643-0.11562-0.72415 0.17039-0.95538 0.5781-0.48074 1.2414-0.86411 1.9534-1.1319 0.34685-0.12779 0.73631 0.0057 0.91887 0.3286l0.49899 0.87019c0.63895-0.11562 1.2901-0.11562 1.929 0l0.49898-0.87019c0.18256-0.32252 0.57202-0.45639 0.91887-0.3286 0.71806 0.26775 1.3753 0.65112 1.9534 1.1319 0.27992 0.23124 0.35295 0.63895 0.17039 0.95538l-0.49899 0.87019c0.41989 0.48682 0.74848 1.0527 0.96756 1.6674h1.0041c0.36511 0 0.68155 0.26167 0.7424 0.62678 0.1217 0.73023 0.12779 1.497 0 2.2576-0.06086 0.36512-0.37729 0.63287-0.7424 0.63287h-1.0041c-0.21907 0.61461-0.54767 1.1805-0.96756 1.6674l0.49899 0.87019c0.18256 0.31643 0.11562 0.72414-0.17039 0.95538-0.5781 0.48073-1.2414 0.8641-1.9534 1.1319-0.34685 0.12779-0.73631-0.0061-0.91887-0.3286l-0.49898-0.87019c-0.63287 0.11562-1.2901 0.11562-1.929 0zm-0.63895-3.5842c2.3428 1.8012 5.0142-0.87019 3.213-3.213-2.3428-1.8012-5.0142 0.87019-3.213 3.213z" fill="#acf" stroke-width=".060852"/><path d="m117.34 88.754c0.22862-1.2398 0.22862-2.5059 0-3.7457l2.2685-1.3101c0.26377-0.14948 0.37808-0.45722 0.29016-0.74738-0.58912-1.8992-1.6003-3.6226-2.9192-5.047-0.20222-0.21982-0.52755-0.27257-0.79134-0.1231l-2.2685 1.3101c-0.9584-0.81772-2.0575-1.4508-3.2445-1.8728v-2.6202c0-0.29895-0.21103-0.56273-0.50118-0.62428-1.9608-0.43963-3.9567-0.42205-5.8207 0-0.29016 0.06155-0.50119 0.32533-0.50119 0.62428v2.6202c-1.187 0.42205-2.2861 1.0551-3.2445 1.8728l-2.2685-1.3101c-0.25499-0.14948-0.58912-0.09672-0.79134 0.1231-1.3189 1.4244-2.3301 3.1478-2.9192 5.047-0.08797 0.29016 0.03521 0.5979 0.29016 0.74738l2.2685 1.3101c-0.22862 1.2398-0.22862 2.5059 0 3.7457l-2.2685 1.3101c-0.26378 0.14947-0.37808 0.45722-0.29016 0.74738 0.58911 1.8992 1.6003 3.6138 2.9192 5.047 0.20223 0.21982 0.52756 0.27257 0.79134 0.1231l2.2685-1.3101c0.9584 0.81771 2.0575 1.4508 3.2445 1.8728v2.6202c0 0.29895 0.21103 0.56272 0.50119 0.62427 1.9608 0.43963 3.9567 0.42205 5.8207 0 0.29015-0.06154 0.50118-0.32533 0.50118-0.62427v-2.6202c1.187-0.42206 2.2861-1.0551 3.2445-1.8728l2.2685 1.3101c0.25499 0.14947 0.58912 0.09675 0.79134-0.1231 1.3189-1.4244 2.3301-3.1478 2.9192-5.047 0.088-0.29016-0.0352-0.5979-0.29016-0.74738zm-10.068 2.3916c-2.3564 0-4.2644-1.9168-4.2644-4.2644 0-2.3476 1.9168-4.2644 4.2644-4.2644s4.2644 1.9168 4.2644 4.2644c0 2.3476-1.908 4.2644-4.2644 4.2644zm-23.916-12.705c6.2164 0 11.255-5.0382 11.255-11.255 0-6.2164-5.0382-11.255-11.255-11.255-6.2164 0-11.255 5.0382-11.255 11.255 0 6.2164 5.0382 11.255 11.255 11.255zm17.691 19.915c-0.20223-0.10552-0.40447-0.22862-0.59791-0.34292l-0.69462 0.40446c-0.52755 0.29896-1.1255 0.46601-1.7234 0.46601-0.9584 0-1.8816-0.40446-2.5411-1.1079-1.6091-1.741-2.84-3.86-3.5347-6.1197-0.4836-1.5563 0.16707-3.2005 1.5739-4.0182l0.69462-0.40446c-0.0092-0.22861-0.0092-0.45722 0-0.68583l-0.69462-0.40446c-1.4068-0.80892-2.0575-2.4619-1.5739-4.0182 0.07909-0.25499 0.19344-0.50998 0.28137-0.76496-0.33412-0.02638-0.65945-0.10551-1.0024-0.10551h-1.4684c-1.952 0.89685-4.1238 1.4068-6.4099 1.4068-2.2861 0-4.4491-0.50998-6.4099-1.4068h-1.4684c-6.5242 0-11.817 5.2932-11.817 11.817v3.6578c0 2.3301 1.8904 4.2205 4.2205 4.2205h30.95c0.88806 0 1.7146-0.28136 2.3916-0.74738-0.10551-0.33412-0.17585-0.67704-0.17585-1.0375z" fill="#5f8dd3" stroke="#fff" stroke-width="8.1646" style="paint-order:markers stroke fill"/><g transform="matrix(.81867 0 0 .81867 -107.78 34.195)" fill-rule="evenodd"><path d="m154.05 36.961c0-1.1963 1.0127-2.2091 2.2091-2.2091h21.61c1.1963 0 2.2091 1.0127 2.2091 2.2091v47.498c0 1.1963-1.0127 2.2103-2.2091 2.2103h-21.61c-1.1963 0-2.2091-1.014-2.2091-2.2103zm7.6373 8.796v29.907h12.028v-29.907z" color="#000000" color-rendering="auto" dominant-baseline="auto" fill="#5f8dd3" image-rendering="auto" shape-rendering="auto" solid-color="#000000" style="font-feature-settings:normal;font-variant-alternates:normal;font-variant-caps:normal;font-variant-ligatures:normal;font-variant-numeric:normal;font-variant-position:normal;isolation:auto;mix-blend-mode:normal;paint-order:stroke fill markers;shape-padding:0;text-decoration-color:#000000;text-decoration-line:none;text-decoration-style:solid;text-indent:0;text-orientation:mixed;text-transform:none;white-space:normal"/><path d="m156.42 39.63v40.196c0 0.27336 0.25087 0.49344 0.56249 0.49344h20.151c0.31162 0 0.56249-0.22008 0.56249-0.49344v-40.196c0-0.27336-0.25087-0.49343-0.56249-0.49343h-20.151c-0.31162 0-0.56249 0.22007-0.56249 0.49343z" fill="#fff" style="paint-order:stroke fill markers"/><circle transform="matrix(0,1,1,0,0,0)" cx="37.016" cy="170.78" r=".30795" fill="#fff" style="paint-order:stroke fill markers"/><rect x="164.87" y="36.886" width="4.3811" height=".25985" rx=".12992" ry=".12992" fill="#fff" style="paint-order:stroke fill markers"/><circle transform="matrix(0,1,1,0,0,0)" cx="83.596" cy="167.06" r="1.5075" fill="#fff" style="paint-order:stroke fill markers"/></g><path d="m32.524 82.714-0.15098 0.2633c-0.05524 0.09759-0.17308 0.1381-0.27803 0.09943-0.21727-0.08101-0.41613-0.19701-0.59105-0.34248-0.0847-0.06996-0.10679-0.19333-0.05156-0.28908l0.15098-0.2633c-0.12704-0.1473-0.22647-0.31854-0.29276-0.50451h-0.30381c-0.11048 0-0.20622-0.07917-0.22463-0.18965-0.03683-0.22095-0.03867-0.45295 0-0.68311 0.01842-0.11048 0.11416-0.19149 0.22463-0.19149h0.30381c0.06628-0.18597 0.16572-0.35721 0.29276-0.50451l-0.15098-0.2633c-0.05524-0.09575-0.03499-0.21911 0.05156-0.28908 0.17492-0.14546 0.37562-0.26146 0.59105-0.34248 0.10495-0.03867 0.22279 0.0017 0.27803 0.09943l0.15098 0.2633c0.19333-0.03499 0.39035-0.03499 0.58368 0l0.15098-0.2633c0.05524-0.09759 0.17308-0.13809 0.27803-0.09943 0.21727 0.08102 0.41613 0.19702 0.59105 0.34248 0.0847 0.06996 0.10679 0.19333 0.05156 0.28908l-0.15098 0.2633c0.12705 0.1473 0.22648 0.31854 0.29276 0.50451h0.30381c0.11047 0 0.20622 0.07917 0.22463 0.18965 0.03683 0.22095 0.03867 0.45295 0 0.68311-0.01842 0.11048-0.11416 0.19149-0.22463 0.19149h-0.30381c-0.06628 0.18597-0.16571 0.35721-0.29276 0.50451l0.15098 0.2633c0.05524 0.09574 0.03499 0.21911-0.05156 0.28908-0.17492 0.14546-0.37562 0.26146-0.59105 0.34248-0.10495 0.03867-0.22279-0.0017-0.27803-0.09943l-0.15098-0.2633c-0.19149 0.03499-0.39035 0.03499-0.58368 0zm-0.19333-1.0827c0.70889 0.54502 1.5172-0.2633 0.97219-0.97218-0.70889-0.54686-1.5172 0.2633-0.97219 0.97218zm-2.123 2.8337 0.62051 0.30933c0.18597 0.10679 0.26698 0.33327 0.19333 0.53581-0.16387 0.44558-0.4861 0.85435-0.78438 1.2116-0.13625 0.16387-0.37194 0.20438-0.5579 0.09759l-0.53581-0.30934c-0.2946 0.25225-0.63708 0.45295-1.0109 0.58368v0.61866c0 0.21359-0.15282 0.39771-0.36273 0.43454-0.45295 0.07733-0.928 0.08102-1.3975 0-0.21174-0.03683-0.36825-0.21911-0.36825-0.43454v-0.61866c-0.37378-0.13257-0.71625-0.33143-1.0109-0.58368l-0.53581 0.30749c-0.18413 0.10679-0.42165 0.06628-0.5579-0.09759-0.29829-0.35721-0.61314-0.76597-0.77701-1.2097-0.07365-0.2007 0.0074-0.42718 0.19333-0.53581l0.61314-0.30933c-0.07181-0.38482-0.07181-0.7807 0-1.1674l-0.61314-0.31118c-0.18597-0.10679-0.26882-0.33327-0.19333-0.53397 0.16387-0.44559 0.47873-0.85435 0.77701-1.2116 0.13625-0.16387 0.37194-0.20438 0.5579-0.09758l0.53581 0.30933c0.2946-0.25225 0.63708-0.45295 1.0109-0.58368v-0.62051c0-0.21174 0.15098-0.39587 0.36089-0.4327 0.45295-0.07733 0.92984-0.08101 1.3994-0.0017 0.21175 0.03683 0.36825 0.21911 0.36825 0.43454v0.61866c0.37378 0.13257 0.71625 0.33143 1.0109 0.58368l0.53581-0.30933c0.18413-0.10679 0.42165-0.06628 0.5579 0.09759 0.29828 0.35721 0.6113 0.76597 0.77517 1.2116 0.07365 0.2007 0.0017 0.42717-0.18413 0.53581l-0.62051 0.30933c0.07181 0.38666 0.07181 0.78254 0 1.1692zm-2.1653 0.38851c1.09-1.4178-0.52844-3.0362-1.9462-1.9462-1.09 1.4178 0.52844 3.0362 1.9462 1.9462zm4.4816 3.364-0.15098 0.2633c-0.05524 0.09759-0.17308 0.1381-0.27803 0.09943-0.21727-0.08102-0.41613-0.19702-0.59105-0.34247-0.0847-0.06997-0.10679-0.19333-0.05156-0.28908l0.15098-0.2633c-0.12704-0.1473-0.22647-0.31854-0.29276-0.50451h-0.30381c-0.11048 0-0.20622-0.07917-0.22463-0.18965-0.03683-0.22095-0.03867-0.45295 0-0.68311 0.01842-0.11048 0.11416-0.19149 0.22463-0.19149h0.30381c0.06628-0.18597 0.16572-0.3572 0.29276-0.50451l-0.15098-0.2633c-0.05524-0.09575-0.03499-0.21911 0.05156-0.28908 0.17492-0.14546 0.37562-0.26146 0.59105-0.34248 0.10495-0.03867 0.22279 0.0017 0.27803 0.09943l0.15098 0.2633c0.19333-0.03499 0.39035-0.03499 0.58368 0l0.15098-0.2633c0.05524-0.09759 0.17308-0.13809 0.27803-0.09943 0.21727 0.08101 0.41613 0.19702 0.59105 0.34248 0.0847 0.06996 0.10679 0.19333 0.05156 0.28908l-0.15098 0.2633c0.12705 0.1473 0.22648 0.31854 0.29276 0.50451h0.30381c0.11047 0 0.20622 0.07917 0.22463 0.18965 0.03683 0.22095 0.03867 0.45295 0 0.68311-0.01842 0.11048-0.11416 0.19149-0.22463 0.19149h-0.30381c-0.06628 0.18597-0.16571 0.35721-0.29276 0.50451l0.15098 0.2633c0.05524 0.09575 0.03499 0.21911-0.05156 0.28908-0.17492 0.14546-0.37562 0.26146-0.59105 0.34247-0.10495 0.03867-0.22279-0.0018-0.27803-0.09943l-0.15098-0.2633c-0.19149 0.03499-0.39035 0.03499-0.58368 0zm-0.19333-1.0845c0.70889 0.54502 1.5172-0.2633 0.97219-0.97219-0.70889-0.54501-1.5172 0.2633-0.97219 0.97219z" fill="#acf" stroke-width=".018413"/></g></svg>
