<?xml version="1.0" encoding="UTF-8"?>
<svg width="128" height="128" version="1.1" viewBox="0 0 128 128" xmlns="http://www.w3.org/2000/svg" xmlns:cc="http://creativecommons.org/ns#" xmlns:dc="http://purl.org/dc/elements/1.1/" xmlns:rdf="http://www.w3.org/1999/02/22-rdf-syntax-ns#"><title>Image</title><metadata><rdf:RDF><cc:Work rdf:about=""><dc:format>image/svg+xml</dc:format><dc:type rdf:resource="http://purl.org/dc/dcmitype/StillImage"/><dc:title>Image</dc:title><dc:date>June 2019</dc:date><dc:creator><cc:Agent><dc:title>Sujaykumar Hublikar</dc:title></cc:Agent></dc:creator><dc:rights><cc:Agent><dc:title>Creative Commons Attribution-NonCommercial-ShareAlike 4.0 International License.</dc:title></cc:Agent></dc:rights><dc:publisher><cc:Agent><dc:title>Sujaykumar Hublikar</dc:title></cc:Agent></dc:publisher><dc:subject><rdf:Bag><rdf:li>image</rdf:li></rdf:Bag></dc:subject><dc:description>Image</dc:description><dc:contributor><cc:Agent><dc:title>https://github.com/Sujaykumarh</dc:title></cc:Agent></dc:contributor><cc:license rdf:resource="http://creativecommons.org/licenses/by-nc-sa/4.0/"/></cc:Work><cc:License rdf:about="http://creativecommons.org/licenses/by-nc-sa/4.0/"><cc:permits rdf:resource="http://creativecommons.org/ns#Reproduction"/><cc:permits rdf:resource="http://creativecommons.org/ns#Distribution"/><cc:requires rdf:resource="http://creativecommons.org/ns#Notice"/><cc:requires rdf:resource="http://creativecommons.org/ns#Attribution"/><cc:prohibits rdf:resource="http://creativecommons.org/ns#CommercialUse"/><cc:permits rdf:resource="http://creativecommons.org/ns#DerivativeWorks"/><cc:requires rdf:resource="http://creativecommons.org/ns#ShareAlike"/></cc:License></rdf:RDF></metadata><g transform="translate(0,-32)"><path d="m57.07 37.622c-18.042 0.00752-33.115 13.42-35.581 31.112-10.317 3.3812-17.462 12.977-17.473 23.962a2.6146 2.6146 0 0 0 0 0.0082c0.00312 1.5052-0.093786 3.3749 0.15523 5.3308 0.24901 1.9558 0.89105 4.152 2.6531 5.8107 2.764 2.6019 6.574 2.8072 9.7996 2.9432 3.2257 0.13598 5.9741-0.15522 5.9741-0.15522a2.6146 2.6146 0 1 0-0.54125-5.2s-2.4241 0.24824-5.2123 0.13071c-2.7882-0.11757-5.8334-0.95877-6.4357-1.5257-0.53282-0.50158-0.88055-1.3339-1.0498-2.6633-0.16904-1.3277-0.11106-2.9959-0.11438-4.6751v-0.0021c-3e-6 -0.0015 4e-6 -0.0026 0-0.0041 0.0119-9.2037 6.2441-17.198 15.167-19.456a2.6146 2.6146 0 0 0 1.9628-2.3018c1.4248-15.918 14.714-28.078 30.696-28.086 14.769 0.01327 27.425 10.458 30.24 24.957a2.6146 2.6146 0 0 0 3.1004 2.0608c1.5445-0.32268 3.1176-0.48967 4.6956-0.49835 13.058 0.0038 23.587 10.535 23.586 23.594-4e-3 1.7101 0.13387 3.371 0.0347 4.6629-0.0992 1.2936-0.37783 1.9994-0.81085 2.4019-1.3025 1.2106-5.8705 2.1014-10.024 2.0567-4.1538-0.0446-7.7592-0.63112-7.7592-0.63112a2.6146 2.6146 0 1 0-0.84353 5.1592s3.9353 0.6489 8.5476 0.69851c4.6123 0.0496 10.036-0.10436 13.639-3.4538 1.7941-1.6675 2.3164-3.919 2.4632-5.8312 0.14676-1.9122-0.0218-3.7056-0.0184-5.0571a2.6146 2.6146 0 0 0 0-0.0062c7e-4 -15.887-12.934-28.822-28.821-28.823a2.6146 2.6146 0 0 0-0.0143 0c-1.1119 0.0059-2.2063 0.21741-3.3088 0.3513-4.1549-15.681-18.282-26.856-34.703-26.87a2.6146 2.6146 0 0 0-0.0041 0zm-0.33088 12.402c-11.783 0.0049-21.643 9.0253-22.694 20.761a1.6526 1.6526 0 1 0 3.2904 0.29411c0.90061-10.062 9.3033-17.747 19.405-17.751a1.6526 1.6526 0 1 0-0.0021-3.3047zm-9.7118 29.742c-2.1631 0-3.946 1.7829-3.946 3.946 0 2.1631 1.7829 3.944 3.946 3.944 0.81115 0 1.5694-0.24893 2.1997-0.67605l7.4958 5.0326v35.216h-2.0016v-22.383l-8.6068-4.5669c0.05647-0.26362 0.08782-0.53554 0.08782-0.81493 0-2.1631-1.7829-3.946-3.946-3.946-2.1631 0-3.946 1.7829-3.946 3.946 0 2.1631 1.7829 3.944 3.946 3.944 1.1363 0 2.1587-0.49838 2.8819-1.2786l7.4917 3.9746v21.166c-2.1307 0.18759-3.8568 1.7778-4.2258 3.852h-3.7029c0.0047-0.0778 0.02246-0.15188 0.02246-0.2308 0-2.1631-1.7829-3.946-3.946-3.946s-3.946 1.7829-3.946 3.946c0 2.1631 1.7829 3.944 3.946 3.944 1.2946 0 2.4443-0.64569 3.1658-1.6217h4.3769v2.4714h-18.607c0.01114-0.11955 0.03677-0.23516 0.03677-0.35742 0-2.1631-1.7829-3.946-3.946-3.946-2.1631 0-3.946 1.7829-3.946 3.946 0 2.1631 1.7829 3.944 3.946 3.944 1.2366 0 2.3356-0.59229 3.0616-1.4951h19.454v2.4714h-25.545l-3.9092 6.0579h-0.58618c4.55e-4 -0.0244 0.0082-0.047 0.0082-0.0715 0-2.1631-1.7829-3.946-3.946-3.946s-3.946 1.7829-3.946 3.946c0 2.1631 1.7829 3.944 3.946 3.944 1.3668 0 2.579-0.71176 3.2883-1.781h2.3754l3.9092-6.0579h24.477c0.32335 2.1325 2.0692 3.7852 4.2421 3.9746a1.0458 1.0458 0 0 0-0.0041 0.0898v6.9157a1.0458 1.0458 0 1 0 2.0915 0v-6.9157a1.0458 1.0458 0 0 0-0.0021-0.049h2.0057a1.0458 1.0458 0 0 0-0.0021 0.049v6.9157a1.0458 1.0458 0 1 0 2.0915 0v-6.9157a1.0458 1.0458 0 0 0-0.0021-0.049h2.0077a1.0458 1.0458 0 0 0-0.0021 0.049v6.9157a1.0458 1.0458 0 1 0 2.0915 0v-6.9157a1.0458 1.0458 0 0 0-0.0021-0.0673c2.2285-0.0859 4.0625-1.7142 4.4546-3.852a1.0458 1.0458 0 0 0 0.46976 0.10415h4.8876c0.12568 2.0535 1.8388 3.7091 3.9215 3.7091 2.1631 0 3.946-1.7809 3.946-3.944 0-2.1631-1.7829-3.946-3.946-3.946-1.4905 0-2.7853 0.85524-3.4558 2.0894h-5.3532a1.0458 1.0458 0 0 0-0.38398 0.0694v-2.8002a1.0458 1.0458 0 0 0 0.38398 0.0675h24.857c0.51917 1.5745 1.9952 2.7328 3.7336 2.7328 2.1631 0 3.946-1.7809 3.946-3.944 0-2.1631-1.7829-3.946-3.946-3.946-1.8598 0-3.4316 1.3213-3.8377 3.0657h-24.752a1.0458 1.0458 0 0 0-0.38398 0.0694v-2.7981a1.0458 1.0458 0 0 0 0.38398 0.0674h13.006l8.0901-6.0579h15.864c0.59429 1.4321 2.01 2.451 3.6458 2.451 2.1631 0 3.946-1.7809 3.946-3.944 0-2.1631-1.7829-3.946-3.946-3.946-1.9583 0-3.5905 1.4658-3.8847 3.3476h-16.319l-8.0921 6.0579h-12.31a1.0458 1.0458 0 0 0-0.46976 0.1062c-0.39268-2.1362-2.2256-3.7612-4.4525-3.848v-32.577l7.2486-6.1314c0.61072 0.38887 1.3269 0.6209 2.0976 0.6209 2.1631 0 3.946-1.7809 3.946-3.944 0-2.1631-1.7829-3.946-3.946-3.946-2.1631 0-3.946 1.7829-3.946 3.946 0 0.6379 0.16907 1.2352 0.44321 1.7708l-7.9349 6.7135v33.529h-2.0036v-36.331l-8.2249-5.5228c0.23999-0.50752 0.38398-1.0684 0.38398-1.6625 0-2.1631-1.7829-3.946-3.946-3.946zm6.0129 49h0.31862a1.0458 1.0458 0 0 0 0.63316 0h3.4599a1.0458 1.0458 0 0 0 0.63316 0h3.4619a1.0458 1.0458 0 0 0 0.63316 0h0.54737c1.7756 0 3.1821 1.4045 3.1821 3.1801v9.6873c0 1.7756-1.4065 3.1801-3.1821 3.1801h-9.6873c-1.7756 0-3.1801-1.4045-3.1801-3.1801v-9.6873c0-1.7756 1.4045-3.1801 3.1801-3.1801zm1.2969 1.5829c-1.6031 0-2.8941 1.289-2.8941 2.8921v7.0975c0 1.6032 1.291 2.8921 2.8941 2.8921h7.0954c1.6031 0 2.8941-1.289 2.8941-2.8921v-7.0975c0-1.6031-1.291-2.8921-2.8941-2.8921z" color="#000000" color-rendering="auto" dominant-baseline="auto" fill="#abcdf0" fill-rule="evenodd" image-rendering="auto" shape-rendering="auto" solid-color="#000000" style="font-feature-settings:normal;font-variant-alternates:normal;font-variant-caps:normal;font-variant-ligatures:normal;font-variant-numeric:normal;font-variant-position:normal;isolation:auto;mix-blend-mode:normal;paint-order:normal;shape-padding:0;text-decoration-color:#000000;text-decoration-line:none;text-decoration-style:solid;text-indent:0;text-orientation:mixed;text-transform:none;white-space:normal"/></g></svg>
