<?xml version="1.0" encoding="UTF-8"?>
<svg width="128" height="128" version="1.1" viewBox="0 0 128 128" xmlns="http://www.w3.org/2000/svg" xmlns:cc="http://creativecommons.org/ns#" xmlns:dc="http://purl.org/dc/elements/1.1/" xmlns:rdf="http://www.w3.org/1999/02/22-rdf-syntax-ns#"><title>Image</title><metadata><rdf:RDF><cc:Work rdf:about=""><dc:format>image/svg+xml</dc:format><dc:type rdf:resource="http://purl.org/dc/dcmitype/StillImage"/><dc:title>Image</dc:title><dc:date>June 2019</dc:date><dc:creator><cc:Agent><dc:title>Sujaykumar Hublikar</dc:title></cc:Agent></dc:creator><dc:rights><cc:Agent><dc:title>Creative Commons Attribution-NonCommercial-ShareAlike 4.0 International License.</dc:title></cc:Agent></dc:rights><dc:publisher><cc:Agent><dc:title>Sujaykumar Hublikar</dc:title></cc:Agent></dc:publisher><dc:subject><rdf:Bag><rdf:li>image</rdf:li></rdf:Bag></dc:subject><dc:description>Image</dc:description><dc:contributor><cc:Agent><dc:title>https://github.com/Sujaykumarh</dc:title></cc:Agent></dc:contributor><cc:license rdf:resource="http://creativecommons.org/licenses/by-nc-sa/4.0/"/></cc:Work><cc:License rdf:about="http://creativecommons.org/licenses/by-nc-sa/4.0/"><cc:permits rdf:resource="http://creativecommons.org/ns#Reproduction"/><cc:permits rdf:resource="http://creativecommons.org/ns#Distribution"/><cc:requires rdf:resource="http://creativecommons.org/ns#Notice"/><cc:requires rdf:resource="http://creativecommons.org/ns#Attribution"/><cc:prohibits rdf:resource="http://creativecommons.org/ns#CommercialUse"/><cc:permits rdf:resource="http://creativecommons.org/ns#DerivativeWorks"/><cc:requires rdf:resource="http://creativecommons.org/ns#ShareAlike"/></cc:License></rdf:RDF></metadata><g transform="matrix(1.1743 0 0 1.1743 -12.996 -4.8398)" fill-rule="evenodd"><path d="m14.473 78.002c0.99944 2.0173 3.0713 3.4008 5.4833 3.4008h89.033c2.4119 0 4.4838-1.3837 5.4833-3.4008z" fill="#a1bbe4" style="paint-order:stroke fill markers"/><path transform="matrix(.85154 0 0 .85154 11.067 4.1213)" d="m18.947 26.105c-2.2048 0-4.0703 1.8675-4.0703 4.0723v50.885c0 2.2048 1.8655 4.0703 4.0703 4.0703h0.09766v0.89258h84.072v-0.89258h3.3672c2.2048 0 4.0742-1.8655 4.0742-4.0703v-50.885c0-2.2048-1.8694-4.0723-4.0742-4.0723zm1.8008 8.2207h83.938v44.936h-1.5684v-20.949h-82.369z" fill="#a1bbe4" style="paint-order:stroke fill markers"/><path d="m27.202 30.852h74.541c0.53572 0 0.96701 0.43128 0.96701 0.967v39.33c0 0.53572-0.43129 0.967-0.96701 0.967h-74.541c-0.53572 0-0.967-0.43128-0.967-0.967v-39.33c0-0.53572 0.43128-0.967 0.967-0.967z" fill="#fff" style="paint-order:stroke fill markers"/><circle cx="64.473" cy="28.796" r=".82801" fill="#fff" style="paint-order:stroke fill markers"/><g transform="matrix(0 .6372 .6372 0 67.838 -91.31)"><path d="m201.3 26.352c-1.8775 0-3.4668 1.5893-3.4668 3.4668v43.33c0 1.8775 1.5893 3.4668 3.4668 3.4668h74.541c1.8775 0 3.4688-1.5893 3.4688-3.4668v-43.33c0-1.8775-1.5913-3.4668-3.4688-3.4668zm13.804 11.986h46.935v28.292h-46.935z" color="#000000" color-rendering="auto" dominant-baseline="auto" fill="#acf" image-rendering="auto" shape-rendering="auto" solid-color="#000000" style="font-feature-settings:normal;font-variant-alternates:normal;font-variant-caps:normal;font-variant-ligatures:normal;font-variant-numeric:normal;font-variant-position:normal;isolation:auto;mix-blend-mode:normal;paint-order:stroke fill markers;shape-padding:0;text-decoration-color:#000000;text-decoration-line:none;text-decoration-style:solid;text-indent:0;text-orientation:mixed;text-transform:none;white-space:normal"/><path d="m203.2 30.852h66.541c0.53572 0 0.96701 0.43128 0.96701 0.967v39.33c0 0.53572-0.43129 0.967-0.96701 0.967h-66.541c-0.53572 0-0.967-0.43128-0.967-0.967v-39.33c0-0.53572 0.43128-0.967 0.967-0.967z" fill="#fff" style="paint-order:stroke fill markers"/><circle cx="274.78" cy="50.626" r="1.4992" fill="#fff" style="paint-order:stroke fill markers"/></g><g transform="matrix(.69713 0 0 .69713 -36.376 30.468)"><path d="m154.05 36.961c0-1.1963 1.0127-2.2091 2.2091-2.2091h21.61c1.1963 0 2.2091 1.0127 2.2091 2.2091v47.498c0 1.1963-1.0127 2.2103-2.2091 2.2103h-21.61c-1.1963 0-2.2091-1.014-2.2091-2.2103zm7.6373 8.796v29.907h12.028v-29.907z" color="#000000" color-rendering="auto" dominant-baseline="auto" fill="#5f8dd3" image-rendering="auto" shape-rendering="auto" solid-color="#000000" style="font-feature-settings:normal;font-variant-alternates:normal;font-variant-caps:normal;font-variant-ligatures:normal;font-variant-numeric:normal;font-variant-position:normal;isolation:auto;mix-blend-mode:normal;paint-order:stroke fill markers;shape-padding:0;text-decoration-color:#000000;text-decoration-line:none;text-decoration-style:solid;text-indent:0;text-orientation:mixed;text-transform:none;white-space:normal"/><path d="m156.42 39.63v40.196c0 0.27336 0.25087 0.49344 0.56249 0.49344h20.151c0.31162 0 0.56249-0.22008 0.56249-0.49344v-40.196c0-0.27336-0.25087-0.49343-0.56249-0.49343h-20.151c-0.31162 0-0.56249 0.22007-0.56249 0.49343z" fill="#fff" style="paint-order:stroke fill markers"/><circle transform="matrix(0,1,1,0,0,0)" cx="37.016" cy="170.78" r=".30795" fill="#fff" style="paint-order:stroke fill markers"/><rect x="164.87" y="36.886" width="4.3811" height=".25985" rx=".12992" ry=".12992" fill="#fff" style="paint-order:stroke fill markers"/><circle transform="matrix(0,1,1,0,0,0)" cx="83.596" cy="167.06" r="1.5075" fill="#fff" style="paint-order:stroke fill markers"/></g></g></svg>
