<?xml version="1.0" encoding="UTF-8"?>
<svg width="128" height="128" version="1.1" viewBox="0 0 128 128" xmlns="http://www.w3.org/2000/svg" xmlns:cc="http://creativecommons.org/ns#" xmlns:dc="http://purl.org/dc/elements/1.1/" xmlns:rdf="http://www.w3.org/1999/02/22-rdf-syntax-ns#"><title>Image</title><metadata><rdf:RDF><cc:Work rdf:about=""><dc:format>image/svg+xml</dc:format><dc:type rdf:resource="http://purl.org/dc/dcmitype/StillImage"/><dc:title>Image</dc:title><dc:date>June 2019</dc:date><dc:creator><cc:Agent><dc:title>Sujaykumar Hublikar</dc:title></cc:Agent></dc:creator><dc:rights><cc:Agent><dc:title>Creative Commons Attribution-NonCommercial-ShareAlike 4.0 International License.</dc:title></cc:Agent></dc:rights><dc:publisher><cc:Agent><dc:title>Sujaykumar Hublikar</dc:title></cc:Agent></dc:publisher><dc:subject><rdf:Bag><rdf:li>image</rdf:li></rdf:Bag></dc:subject><dc:description>Image</dc:description><dc:contributor><cc:Agent><dc:title>https://github.com/Sujaykumarh</dc:title></cc:Agent></dc:contributor><cc:license rdf:resource="http://creativecommons.org/licenses/by-nc-sa/4.0/"/></cc:Work><cc:License rdf:about="http://creativecommons.org/licenses/by-nc-sa/4.0/"><cc:permits rdf:resource="http://creativecommons.org/ns#Reproduction"/><cc:permits rdf:resource="http://creativecommons.org/ns#Distribution"/><cc:requires rdf:resource="http://creativecommons.org/ns#Notice"/><cc:requires rdf:resource="http://creativecommons.org/ns#Attribution"/><cc:prohibits rdf:resource="http://creativecommons.org/ns#CommercialUse"/><cc:permits rdf:resource="http://creativecommons.org/ns#DerivativeWorks"/><cc:requires rdf:resource="http://creativecommons.org/ns#ShareAlike"/></cc:License></rdf:RDF></metadata><g transform="translate(0,-32)"><g transform="matrix(1.0563 0 0 1.0563 -.32431 -6.5614)" fill="#ffa6a6"><path d="m57.991 80.089c1.8606 8.6e-5 3.369 1.5084 3.3691 3.3691-0.0018 0.82303-0.30475 1.6169-0.85174 2.2319l6.0447 11.389v9.1909c-1.72e-4 0.01 3.8e-4 0.0178 0 0.0267-3.81e-4 0.01-0.0016 0.0178-0.0022 0.0267h2.1896c-0.0011-0.0178-0.0019-0.0356-0.0022-0.0536v-24.381c-0.02184-1.5438 2.305-1.5438 2.2832 0v24.382c-3.41e-4 0.0178-1e-3 0.0358-0.0022 0.0536h2.1918c-0.0011-0.0178-0.0019-0.0356-0.0022-0.0536v-24.382c-0.02184-1.5438 2.305-1.5438 2.2832 0v24.382c2.8e-5 0.0245-6.8e-4 0.049-0.0022 0.0735 2.4328 0.0938 4.435 1.8714 4.8629 4.2052 0.15978-0.0773 0.33537-0.11623 0.51283-0.1137h5.3356c0.13721-2.2418 2.0073-4.0491 4.281-4.0491 2.3614 0 4.3077 1.9442 4.3077 4.3055 0 2.3614-1.9464 4.3077-4.3077 4.3077-1.6272 0-3.0406-0.93364-3.7726-2.281h-5.844c-0.14325 7.9e-4 -0.28544-0.0245-0.41918-0.0758v3.0569c0.13387-0.0506 0.27607-0.0755 0.41918-0.0737h27.135c0.56676-1.7188 2.1781-2.9833 4.0759-2.9833 2.3614 0 4.3078 1.9442 4.3078 4.3055 0 2.3614-1.9464 4.3078-4.3078 4.3078-2.0303 0-3.7462-1.4424-4.1896-3.3467h-27.022c-0.14325 7.9e-4 -0.28544-0.0243-0.41918-0.0758v3.0547c0.13389-0.0506 0.27608-0.0755 0.41918-0.0736h0.49945l8.8318 6.6132h10.468c0.64878-1.5634 2.1942-2.6756 3.98-2.6756 2.3614 0 4.3078 1.9442 4.3078 4.3055 0 2.3614-1.9464 4.3078-4.3078 4.3078-2.1379 0-3.9197-1.6001-4.2409-3.6545h-10.966l-8.834-6.6132h0.26087c-0.17763 2e-3 -0.35323-0.038-0.51283-0.11592-0.42868 2.332-2.4296 4.106-4.8607 4.2007v5.8819l7.9131 6.6935c0.66671-0.42452 1.4486-0.67782 2.2899-0.67782 2.3614 0 4.3077 1.9442 4.3078 4.3055 0 2.3614-1.9464 4.3078-4.3078 4.3078-2.3614 0-4.3077-1.9464-4.3077-4.3078 0-0.69637 0.18457-1.3485 0.48384-1.9331l-8.6623-7.329v-6.9209h-2.1873v14.546l-8.9789 6.029c0.262 0.55405 0.41918 1.1663 0.41918 1.815 0 2.3614-1.9464 4.3077-4.3078 4.3077-2.3614 0-4.3077-1.9464-4.3078-4.3077 0-2.3614 1.9464-4.3055 4.3078-4.3055 0.88551 0 1.7133 0.27176 2.4014 0.73802l8.1829-5.4939v-13.329h-2.1851v3.8863l-9.3959 4.9856c0.06165 0.2878 0.09587 0.58464 0.09587 0.88966 0 2.3614-1.9464 4.3077-4.3078 4.3077-2.3614 0-4.3078-1.9464-4.3078-4.3077 0-2.3614 1.9464-4.3055 4.3078-4.3055 1.2405 0 2.3566 0.54407 3.1461 1.3958l8.1785-4.339v-2.5574c-2.326-0.20481-4.2104-1.9408-4.6132-4.2052h-4.0424c0.0051 0.0849 0.02453 0.1658 0.02453 0.25196 0 2.3614-1.9464 4.3077-4.3077 4.3077-2.3614 0-4.3077-1.9464-4.3077-4.3077 0-2.3614 1.9464-4.3055 4.3077-4.3055 1.4133 0 2.6683 0.70488 3.456 1.7704h4.7782v-2.6979h-20.312c0.01218 0.13047 0.04014 0.25673 0.04014 0.39019 0 2.3614-1.9464 4.3078-4.3078 4.3078-2.3614 0-4.3078-1.9464-4.3078-4.3078 0-2.3614 1.9464-4.3055 4.3078-4.3055 1.35 0 2.5497 0.64658 3.3423 1.6321h21.238v-2.6979h-7.8866l-4.2676-6.6133h-0.63991c5.03e-4 0.0266 0.0092 0.0512 0.0092 0.0782 0 2.3614-1.9464 4.3078-4.3078 4.3078-2.3614 0-4.3078-1.9464-4.3078-4.3078 0-2.3614 1.9464-4.3055 4.3078-4.3055 1.4921 0 2.8154 0.777 3.5898 1.9443h2.5931l4.2676 6.6132h6.7205c0.35299-2.328 2.2589-4.1322 4.6311-4.339-0.0013-0.0163-0.0016-0.0328-0.0022-0.049-7.42e-4 -0.0162-0.0022-0.0326-0.0022-0.049v-9.1907l-5.4917-10.35c-0.25758 0.06356-0.52177 0.09647-0.78708 0.09805-1.8607-2.6e-5 -3.3691-1.5084-3.3692-3.3691 8.7e-5 -1.8606 1.5084-3.369 3.3691-3.3691zm17.302 27.916h-10.575c-1.9384 0-3.4716 1.5333-3.4716 3.4716v10.575c0 1.9384 1.5333 3.4716 3.4716 3.4716h0.34783c0.22486-0.0715 0.46633-0.0715 0.6912 0h3.7771c0.22487-0.0715 0.46634-0.0715 0.6912 0h3.7793c0.22486-0.0715 0.46633-0.0715 0.6912 0h0.59756c1.9384 0 3.4738-1.5333 3.4738-3.4716v-10.575c0-1.9384-1.5355-3.4716-3.4738-3.4716zm-1.4136 1.728c1.7501 0 3.1595 1.4071 3.1595 3.1572v7.7481c0 1.7501-1.4093 3.1572-3.1595 3.1572h-7.7459c-1.7501 0-3.1595-1.4071-3.1595-3.1572v-7.7481c0-1.7501 1.4093-3.1572 3.1595-3.1572z" color="#000000" color-rendering="auto" dominant-baseline="auto" fill-rule="evenodd" image-rendering="auto" shape-rendering="auto" solid-color="#000000" style="font-feature-settings:normal;font-variant-alternates:normal;font-variant-caps:normal;font-variant-ligatures:normal;font-variant-numeric:normal;font-variant-position:normal;isolation:auto;mix-blend-mode:normal;paint-order:normal;shape-padding:0;text-decoration-color:#000000;text-decoration-line:none;text-decoration-style:solid;text-indent:0;text-orientation:mixed;text-transform:none;white-space:normal"/><g transform="matrix(.41514 0 0 .41514 -10.606 60.055)" stroke-width=".22427"><path d="m73.393 112.7c-1.1672-0.57773-2.4423-2.0188-2.7425-3.0993-0.12217-0.43979-0.22269-1.7389-0.22338-2.8869-0.0018-2.8536-0.31451-3.957-1.4405-5.0813-1.4504-1.4482-3.6252-1.866-5.401-1.0374-0.4934 0.23021-1.5531 1.0971-2.3548 1.9265-2.3819 2.4638-4.6417 3.1598-6.913 2.1291-1.377-0.62491-6.3753-5.573-7.1014-7.0301-0.68588-1.3764-0.73574-2.9957-0.13309-4.3228 0.23119-0.50911 1.2819-1.8348 2.3349-2.9459 2.0796-2.1944 2.3142-2.7226 2.1176-4.7686-0.1274-1.3259-0.84327-2.4618-2.0793-3.2993-0.83055-0.56276-1.1216-0.61825-3.9247-0.74815-1.6652-0.07717-3.3121-0.25655-3.6597-0.39864-1.155-0.47205-2.1428-1.4024-2.721-2.5628-0.55122-1.1061-0.57156-1.2958-0.56945-5.3082 0.0021-3.9107 0.03434-4.2301 0.53654-5.3086 0.54393-1.1682 1.5059-2.0794 2.7142-2.5713 0.3695-0.1504 2.0343-0.33658 3.6995-0.41375 2.8031-0.1299 3.0942-0.18538 3.9247-0.74815 1.3347-0.90434 1.9756-1.9875 2.087-3.5266 0.13691-1.8928-0.19791-2.6031-2.2252-4.7207-2.0725-2.1649-2.6541-3.2182-2.658-4.8136-0.0047-1.9436 0.70632-3.0514 3.8891-6.059 3.1479-2.9748 3.9377-3.4937 5.5531-3.649 1.7195-0.16522 2.9308 0.42478 5.0643 2.4665 1.0133 0.9697 2.1959 1.9108 2.628 2.0914 1.7101 0.71453 4.0511 0.2062 5.3297-1.1573 1.0442-1.1136 1.3012-2.0684 1.3036-4.8429 0.0018-2.1889 0.07353-2.6815 0.531-3.6516 0.63016-1.3363 1.2503-1.9454 2.6066-2.5603 0.89802-0.40712 1.4677-0.45808 5.1703-0.46246 4.0151-0.0048 4.2013 0.01512 5.3082 0.56672 2.1958 1.0942 2.9778 2.8111 2.9778 6.5375 0 1.8507 0.08777 2.4988 0.428 3.1602 0.88025 1.7113 2.5282 2.7384 4.3938 2.7384 1.529 0 2.4481-0.49519 4.3447-2.3408 2.6764-2.6045 4.5387-3.1622 6.8689-2.0569 1.6337 0.77495 7.1479 6.4076 7.4887 7.6496 0.64126 2.3371 0.20198 3.4879-2.37 6.2093-2.4176 2.558-2.7576 3.3302-2.3468 5.3303 0.30631 1.4913 1.1713 2.6381 2.5029 3.3184 0.83883 0.42856 1.3439 0.5048 3.3511 0.50586 1.2999 6.73e-4 2.7446 0.10711 3.2105 0.2365 1.0695 0.297 2.2874 1.3573 2.9226 2.5444 0.45984 0.85934 0.4914 1.2136 0.4914 5.5159 0 4.2834-0.0331 4.6588-0.48407 5.4946-1.1583 2.1465-2.5771 2.8034-6.0552 2.8034-2.5432 0-3.3094 0.21044-4.538 1.2463-1.4555 1.2272-1.9856 3.4377-1.2479 5.2034 0.1904 0.45568 1.1347 1.6383 2.0985 2.628 0.96377 0.98971 1.9356 2.1527 2.1596 2.5844 0.57312 1.1044 0.54453 3.2089-0.0594 4.3733-0.25591 0.4934-1.8662 2.2741-3.5785 3.957-3.321 3.2641-3.8086 3.5575-5.9003 3.5499-1.5004-5e-3 -2.7723-0.70145-4.6871-2.5648-0.94485-0.91947-2.0901-1.8273-2.5451-2.0174-1.7515-0.73182-3.8543-0.23066-5.2572 1.253-0.99707 1.0544-1.1908 1.7165-1.1936 4.0789-0.0033 2.7667-0.15769 3.5417-0.98069 4.9234-0.54363 0.91271-0.96936 1.3104-1.9165 1.7901-1.2018 0.60871-1.2734 0.61674-5.4946 0.61657-3.9019-1.6e-4 -4.361-0.0418-5.2346-0.4742zm7.5736-23.083c6.7062-1.0578 12.022-5.8241 13.71-12.294 0.60801-2.33 0.60801-5.8081 0-8.1381-1.6686-6.3941-6.7715-11.08-13.297-12.21-3.6051-0.62428-6.7156-0.13754-10.183 1.5935-3.8788 1.9364-6.7468 5.2538-8.1926 9.4763-0.70178 2.0496-0.74693 2.3645-0.74693 5.2092s0.04515 3.1595 0.74693 5.2092c2.6132 7.6322 10.245 12.371 17.963 11.154z"/><path d="m73.844 112.87c-1.197-0.43412-2.3085-1.477-2.8782-2.7004-0.45598-0.97928-0.5356-1.4974-0.53853-3.504-0.0041-2.8067-0.20532-3.6399-1.1579-4.7947-0.91117-1.1046-2.2104-1.6979-3.7321-1.7042-1.5546-6e-3 -2.2751 0.38583-4.3061 2.3445-0.92512 0.89217-2.0353 1.8108-2.467 2.0414-1.0334 0.55195-3.6306 0.57787-4.6166 0.0461-0.38051-0.20524-2.0151-1.6681-3.6324-3.2507-3.123-3.0561-3.8488-4.1449-3.8555-5.7837-0.0073-1.7783 0.39412-2.5658 2.3375-4.586 2.2633-2.3527 2.6645-3.0757 2.649-4.7735-0.01462-1.604-0.79725-3.052-2.1241-3.9301-0.8531-0.56456-1.1405-0.61797-3.9969-0.74268-2.8851-0.12597-3.1531-0.17679-4.2827-0.81216-0.83189-0.4679-1.4134-1.0122-1.8778-1.7578l-0.67281-1.08v-4.6151c0-4.6066 0.0011-4.617 0.60366-5.642 0.55571-0.94526 1.6532-1.8717 2.7604-2.3301 0.2467-0.10214 1.8278-0.24666 3.5136-0.32115 2.943-0.13005 3.1032-0.16228 4.0246-0.80986 1.297-0.9116 2.0931-2.4757 2.0565-4.0405-0.03692-1.5768-0.44336-2.2839-2.6525-4.6149-1.9538-2.0616-2.341-2.8194-2.3434-4.5861-0.0022-1.6113 0.87565-2.9044 3.9504-5.819 3.4277-3.2492 3.9636-3.5728 5.9163-3.5722 1.8634 5.61e-4 2.7844 0.47984 4.7097 2.4508 1.8192 1.8625 2.7341 2.3548 4.3755 2.3548 1.3589 0 2.3175-0.37906 3.3258-1.3152 1.1697-1.0859 1.3541-1.703 1.4926-4.9944 0.12182-2.8952 0.16431-3.1153 0.79972-4.1431 0.41344-0.66872 1.0927-1.346 1.7693-1.7642l1.0982-0.67874h4.6147c5.0271 0 5.2789 0.05254 6.6043 1.3779 1.288 1.288 1.5602 2.167 1.6971 5.4815 0.11792 2.8536 0.16479 3.1025 0.73901 3.9247 0.92476 1.3241 2.0067 1.9573 3.5331 2.0677 1.9547 0.14139 2.7936-0.24207 4.8246-2.2052 2.2765-2.2004 2.9511-2.5581 4.8218-2.5572 2.0643 0.0011 2.7576 0.44728 6.3012 4.0557 2.7939 2.845 3.073 3.2042 3.3318 4.2886 0.52815 2.2125-0.066 3.6575-2.4641 5.9932-1.7955 1.7488-2.447 2.8966-2.4543 4.3244-9e-3 1.7371 1.0936 3.4975 2.7056 4.3198 0.68968 0.35185 1.3199 0.43871 3.183 0.43871 2.8278 0 4.2814 0.38574 5.2587 1.3955 1.2732 1.3155 1.4862 2.1406 1.586 6.1423 0.10684 4.2869-0.13107 5.753-1.149 7.0808-1.1626 1.5165-2.0458 1.8384-5.4217 1.976-2.107 0.0859-3.1021 0.22143-3.5883 0.48868-1.4834 0.81532-2.5791 2.5466-2.5791 4.0751 0 1.7141 0.25629 2.1991 2.2896 4.3336 2.2004 2.3097 2.6768 3.1755 2.6922 4.8924 0.0172 1.9083-0.57654 2.8371-3.889 6.0837-3.4144 3.3465-4.261 3.8289-6.3436 3.6139-1.5677-0.1618-1.9609-0.38862-4.168-2.4044-2.4357-2.2246-3.0615-2.5386-4.8348-2.4256-1.0785 0.0687-1.6087 0.235-2.3198 0.72782-1.6097 1.1155-1.8935 1.8289-2.0657 5.192-0.1755 3.4285-0.52683 4.4672-1.9421 5.742-0.50443 0.45435-1.3027 0.93317-1.774 1.064-1.1731 0.32575-8.5033 0.27998-9.4378-0.0589zm9.0213-23.6c4.5462-1.2264 8.6984-4.6197 10.646-8.7001 1.7957-3.7625 2.1735-8.1051 1.0369-11.918-2.7857-9.3456-12.486-14.213-21.679-10.878-3.9922 1.4485-7.5955 4.7977-9.2942 8.6388-3.8585 8.7247 0.37663 18.969 9.2194 22.301 3.0935 1.1655 7.0115 1.3822 10.071 0.55686z"/><path d="m73.566 112.7c-2.3733-1.076-2.9475-2.2211-3.1391-6.2608-0.15413-3.2498-0.34526-3.8865-1.4945-4.9781-0.88089-0.83673-2.1015-1.3014-3.4184-1.3014-1.6246 0-2.0655 0.2412-4.2843 2.344-1.6796 1.5918-2.2128 1.9615-3.2735 2.2699-1.3706 0.39843-2.5846 0.31618-3.7923-0.25694-0.38717-0.18372-2.1241-1.769-3.8599-3.5229-2.4818-2.5077-3.2085-3.3805-3.402-4.086-0.62633-2.2845-0.12518-3.6662 2.1934-6.0471 2.1671-2.2255 2.585-2.9785 2.5731-4.6368-0.01137-1.5827-0.82185-3.0748-2.1463-3.9513-0.85133-0.56338-1.1444-0.61831-3.9684-0.7438-3.3708-0.14979-4.2426-0.43004-5.574-1.7919-1.1666-1.1932-1.4001-2.2739-1.3987-6.4735 6.95e-4 -2.0441 0.10833-4.1022 0.2392-4.5735 0.31536-1.1357 1.6487-2.5824 2.8993-3.1459 0.78073-0.3518 1.6783-0.48376 3.9644-0.58285 2.8322-0.12275 2.9955-0.15642 3.9247-0.80882 1.3383-0.93962 2.081-2.3411 2.0737-3.9128-0.0076-1.634-0.44004-2.4001-2.6596-4.7122-2.0473-2.1326-2.5415-3.2223-2.2909-5.0507 0.21638-1.5787 0.63107-2.1538 3.7552-5.208 3.0761-3.0072 3.7618-3.4923 5.2972-3.7475 1.7773-0.2954 3.2114 0.33499 5.2955 2.3277 2.1921 2.096 2.9977 2.548 4.5136 2.5324 1.4402-0.01482 2.2864-0.33946 3.2259-1.2377 1.2981-1.241 1.4649-1.7727 1.6057-5.1184 0.12182-2.8952 0.16431-3.1153 0.79972-4.1431 0.41272-0.66756 1.0934-1.3467 1.7681-1.7642l1.097-0.67874 4.112-0.07389c4.7837-0.08596 5.7701 0.12045 7.0724 1.4799 1.3823 1.443 1.5829 2.0767 1.7332 5.4772 0.13015 2.9446 0.16323 3.1097 0.80623 4.0246 1.3042 1.8556 4.0444 2.6191 5.9426 1.6559 0.42852-0.21746 1.536-1.1253 2.4612-2.0175 0.92512-0.89217 2.0353-1.8105 2.467-2.0408 1.0395-0.55439 3.395-0.55473 4.4854-6.5e-4 1.0817 0.54967 6.4289 5.8689 7.0065 6.9699 0.64073 1.2213 0.64124 3.2624 1e-3 4.4854-0.25824 0.4934-1.1949 1.6035-2.0814 2.467-0.88654 0.86344-1.8003 1.9736-2.0306 2.467-1.0496 2.2485-0.046 4.9811 2.2626 6.1612 0.58897 0.30105 1.4849 0.4256 3.5883 0.49885 3.0019 0.10453 4.0234 0.41817 5.0915 1.5631 1.0357 1.1103 1.1757 1.8818 1.2007 6.6145 0.0248 4.6985-0.0604 5.2275-1.0501 6.5252-1.026 1.3451-2.0596 1.6907-5.5784 1.8651-1.7269 0.0856-3.1647 0.16749-3.1952 0.18197-0.46359 0.22032-1.9877 1.8823-2.3157 2.5252-0.48019 0.94124-0.57212 2.7102-0.19282 3.7101 0.13172 0.34724 1.09 1.5009 2.1295 2.5637 1.0395 1.0628 2.0419 2.2959 2.2275 2.7401 0.43498 1.041 0.43241 3.0764-5e-3 4.1237-0.41563 0.99474-5.4475 6.1565-6.7549 6.9293-0.51159 0.30241-1.4199 0.60764-2.0184 0.6783-1.8979 0.22405-2.7533-0.17283-5.1304-2.3804-2.3924-2.2218-3.1141-2.5694-5.0443-2.4298-1.6393 0.11858-2.8796 0.89613-3.7218 2.3333-0.5561 0.94891-0.62289 1.3128-0.75208 4.098-0.10249 2.2097-0.24589 3.2523-0.51757 3.7629-0.51224 0.96285-2.0922 2.2752-3.0642 2.5452-0.43978 0.12217-2.5657 0.22048-4.7243 0.21846-3.4663-3e-3 -4.0426-0.0571-4.934-0.46121zm8.1573-23.181c3.3485-0.64068 6.0714-2.0739 8.5451-4.4979 8.1893-8.0247 5.8817-21.785-4.4796-26.712-9.1593-4.3561-19.955 0.39423-22.992 10.116-0.75296 2.411-0.86367 6.1883-0.25325 8.6401 2.1619 8.6834 10.52 14.111 19.179 12.454z"/></g><g transform="matrix(4.2838 0 0 4.2838 13.936 18.885)"><path d="m12.13 12h-0.26l-4.87-1.37v3.37c0 1.1 2.24 2 5 2s5-0.9 5-2v-3.37z"/><path d="m21.13 7.52-9-2.5a0.39 0.39 0 0 0-0.26 0l-9 2.5a0.5 0.5 0 0 0 0 1l9 2.5 0.13-0.02h0.13l9-2.5a0.5 0.5 0 0 0 0-1z"/><path d="m19.5 12.5a1 1 0 0 0-0.5-0.85v-3.65h-1v3.65a1 1 0 0 0-0.5 0.85 1 1 0 0 0 0.45 0.81l-0.45 2.69c0 0.37 0.45 0.67 1 0.67s1-0.3 1-0.67l-0.45-2.69a1 1 0 0 0 0.45-0.81z"/></g></g></g></svg>
