<?xml version="1.0" encoding="UTF-8"?>
<svg width="128" height="128" version="1.1" viewBox="0 0 128 128" xmlns="http://www.w3.org/2000/svg" xmlns:cc="http://creativecommons.org/ns#" xmlns:dc="http://purl.org/dc/elements/1.1/" xmlns:rdf="http://www.w3.org/1999/02/22-rdf-syntax-ns#"><title>Image</title><metadata><rdf:RDF><cc:Work rdf:about=""><dc:format>image/svg+xml</dc:format><dc:type rdf:resource="http://purl.org/dc/dcmitype/StillImage"/><dc:title>Image</dc:title><dc:date>June 2019</dc:date><dc:creator><cc:Agent><dc:title>Sujaykumar Hublikar</dc:title></cc:Agent></dc:creator><dc:rights><cc:Agent><dc:title>Creative Commons Attribution-NonCommercial-ShareAlike 4.0 International License.</dc:title></cc:Agent></dc:rights><dc:publisher><cc:Agent><dc:title>Sujaykumar Hublikar</dc:title></cc:Agent></dc:publisher><dc:subject><rdf:Bag><rdf:li>image</rdf:li></rdf:Bag></dc:subject><dc:description>Image</dc:description><dc:contributor><cc:Agent><dc:title>https://github.com/Sujaykumarh</dc:title></cc:Agent></dc:contributor><cc:license rdf:resource="http://creativecommons.org/licenses/by-nc-sa/4.0/"/></cc:Work><cc:License rdf:about="http://creativecommons.org/licenses/by-nc-sa/4.0/"><cc:permits rdf:resource="http://creativecommons.org/ns#Reproduction"/><cc:permits rdf:resource="http://creativecommons.org/ns#Distribution"/><cc:requires rdf:resource="http://creativecommons.org/ns#Notice"/><cc:requires rdf:resource="http://creativecommons.org/ns#Attribution"/><cc:prohibits rdf:resource="http://creativecommons.org/ns#CommercialUse"/><cc:permits rdf:resource="http://creativecommons.org/ns#DerivativeWorks"/><cc:requires rdf:resource="http://creativecommons.org/ns#ShareAlike"/></cc:License></rdf:RDF></metadata><g transform="matrix(1.2276 0 0 1.2276 -19.557 -22.299)" fill-rule="evenodd"><g transform="matrix(1.0246 0 0 1.0246 11.379 7.1402)"><circle cx="39.051" cy="34.983" r="16.542" fill="#8686bf" style="paint-order:normal"/><path d="m39.051 18.441a16.542 16.542 0 0 0-14.977 9.5605 19.83 19.83 0 0 0 5.6621 16.17 19.83 19.83 0 0 0 16.809 5.5586 16.542 16.542 0 0 0 9.0488-14.748 16.542 16.542 0 0 0-16.543-16.541z" fill="#d7d7ff" style="paint-order:normal"/><circle cx="46.169" cy="27.458" r="4.9492" fill="#efefff" style="paint-order:normal"/></g><g transform="matrix(-.80856 0 0 .80856 139.32 24.929)"><path d="m27.678 39.351 37.406 9.3728 24.12-12.124-35.614-7.2192z" fill="#efefff" style="paint-order:normal"/><path d="m65.084 48.724v39.818l24.12-16.378v-35.564z" fill="#8686bf" style="paint-order:normal"/><path d="m27.678 39.351 37.406 9.3728v39.818l-37.406-11.381z" fill="#d7d7ff" style="paint-order:normal"/></g><g transform="matrix(.7522 0 0 .7522 -69.394 19.678)"><path d="m159.05 126.15-41.282-8.7101 36.622-54.609z" fill="#8686bf" style="paint-order:normal"/><path d="m192.38 117.44-33.335 8.7101-4.6603-63.319z" fill="#d7d7ff" style="paint-order:normal"/></g></g><g transform="translate(2.3858)" fill-rule="evenodd"><rect x="51.272" y="-29.995" width="7.6519" height="7.6519" rx="2.6943" ry="2.6943" fill="#d7d7ff" style="paint-order:normal"/><rect x="64.092" y="-30.102" width="7.8644" height="7.8644" rx="2.6943" ry="2.6943" fill="#8686bf" style="paint-order:normal"/><rect x="38.345" y="-29.995" width="7.6519" height="7.6519" rx="2.6943" ry="2.6943" fill="#efefff" style="paint-order:normal"/><rect x="77.019" y="-30.102" width="7.8644" height="7.8644" rx="2.6943" ry="2.6943" fill="#4d4d9f" style="paint-order:normal"/></g></svg>
