<?xml version="1.0" encoding="UTF-8" standalone="no"?>
<svg
   xmlns:dc="http://purl.org/dc/elements/1.1/"
   xmlns:cc="http://creativecommons.org/ns#"
   xmlns:rdf="http://www.w3.org/1999/02/22-rdf-syntax-ns#"
   xmlns:svg="http://www.w3.org/2000/svg"
   xmlns="http://www.w3.org/2000/svg"
   xmlns:sodipodi="http://sodipodi.sourceforge.net/DTD/sodipodi-0.dtd"
   xmlns:inkscape="http://www.inkscape.org/namespaces/inkscape"
   inkscape:version="0.92.4 5da689c313, 2019-01-14"
   sodipodi:docname="icon-dtp.svg"
   width="128"
   height="128"
   viewBox="0 0 128 128"
   version="1.1"
   id="SVGRoot">
  <sodipodi:namedview
     pagecolor="#ffffff"
     bordercolor="#666666"
     borderopacity="1"
     objecttolerance="10"
     gridtolerance="10"
     guidetolerance="10"
     inkscape:pageopacity="0"
     inkscape:pageshadow="2"
     inkscape:window-width="1920"
     inkscape:window-height="1010"
     id="namedview1887"
     showgrid="false"
     inkscape:zoom="10.429825"
     inkscape:cx="24.309569"
     inkscape:cy="25.246236"
     inkscape:window-x="1600"
     inkscape:window-y="28"
     inkscape:window-maximized="1"
     inkscape:current-layer="SVGRoot" />
  <title
     id="title1601">Image </title>
  <defs
     id="defs849" />
  <metadata
     id="metadata852">
    <rdf:RDF>
      <cc:Work
         rdf:about="">
        <dc:format>image/svg+xml</dc:format>
        <dc:type
           rdf:resource="http://purl.org/dc/dcmitype/StillImage" />
        <dc:title>Image </dc:title>
        <dc:date>June 2019</dc:date>
        <dc:creator>
          <cc:Agent>
            <dc:title>Sujaykumar Hublikar</dc:title>
          </cc:Agent>
        </dc:creator>
        <dc:rights>
          <cc:Agent>
            <dc:title>Creative Commons Attribution-NonCommercial-ShareAlike 4.0 International License.</dc:title>
          </cc:Agent>
        </dc:rights>
        <dc:publisher>
          <cc:Agent>
            <dc:title>Sujaykumar Hublikar</dc:title>
          </cc:Agent>
        </dc:publisher>
        <dc:subject>
          <rdf:Bag>
            <rdf:li>image</rdf:li>
          </rdf:Bag>
        </dc:subject>
        <dc:description>Image</dc:description>
        <dc:contributor>
          <cc:Agent>
            <dc:title>https://github.com/Sujaykumarh</dc:title>
          </cc:Agent>
        </dc:contributor>
        <cc:license
           rdf:resource="http://creativecommons.org/licenses/by-nc-sa/4.0/" />
      </cc:Work>
      <cc:License
         rdf:about="http://creativecommons.org/licenses/by-nc-sa/4.0/">
        <cc:permits
           rdf:resource="http://creativecommons.org/ns#Reproduction" />
        <cc:permits
           rdf:resource="http://creativecommons.org/ns#Distribution" />
        <cc:requires
           rdf:resource="http://creativecommons.org/ns#Notice" />
        <cc:requires
           rdf:resource="http://creativecommons.org/ns#Attribution" />
        <cc:prohibits
           rdf:resource="http://creativecommons.org/ns#CommercialUse" />
        <cc:permits
           rdf:resource="http://creativecommons.org/ns#DerivativeWorks" />
        <cc:requires
           rdf:resource="http://creativecommons.org/ns#ShareAlike" />
      </cc:License>
    </rdf:RDF>
  </metadata>
  <g
     id="g1292"
     transform="matrix(1.1972103,0,0,1.1972103,-24.183914,-26.502445)">
    <path
       sodipodi:nodetypes="ccccccccc"
       inkscape:connector-curvature="0"
       id="rect942"
       d="m 28.503571,32.471867 21.974555,8 15.974554,-8 23.974555,10 v 56.005416 l -23.974555,-10 -15.974554,8 -21.974555,-8 z"
       style="opacity:1;fill:#cccccc;fill-opacity:1;fill-rule:evenodd;stroke:none;stroke-width:4.12182665;stroke-linecap:round;stroke-linejoin:bevel;stroke-miterlimit:4;stroke-dasharray:none;stroke-dashoffset:0;stroke-opacity:1;paint-order:markers fill stroke" />
    <path
       style="opacity:1;fill:#e9e9e9;fill-opacity:1;fill-rule:evenodd;stroke:none;stroke-width:4.12182665;stroke-linecap:round;stroke-linejoin:bevel;stroke-miterlimit:4;stroke-dasharray:none;stroke-dashoffset:0;stroke-opacity:1;paint-order:markers fill stroke"
       d="m 50.478126,40.471867 15.974554,-8 v 56.005416 l -15.974554,8 z"
       id="path1211"
       inkscape:connector-curvature="0"
       sodipodi:nodetypes="ccccc" />
    <path
       inkscape:connector-curvature="0"
       style="opacity:1;fill:#ffffff;fill-opacity:1;fill-rule:evenodd;stroke:none;stroke-width:3.64190793;stroke-linecap:round;stroke-linejoin:bevel;stroke-miterlimit:4;stroke-dasharray:none;stroke-dashoffset:0;stroke-opacity:1;paint-order:markers fill stroke"
       d="m 64.283189,41.695855 c 0,-0.294447 -0.19692,-0.432847 -0.441563,-0.31033 0,0 -10.752446,5.384787 -10.752446,5.384787 -0.244643,0.122516 -0.441562,0.458149 -0.441562,0.752595 0,0.294452 0.196919,0.432847 0.441562,0.31033 0,0 10.752446,-5.384786 10.752446,-5.384786 0.244643,-0.122517 0.441563,-0.458144 0.441563,-0.752596 0,0 0,0 0,0 m 0,7.011437 c 0,-0.07361 -0.01265,-0.137018 -0.03493,-0.189486 -0.06685,-0.157401 -0.22315,-0.212731 -0.406632,-0.120844 0,0 -10.752446,5.384787 -10.752446,5.384787 -0.244643,0.122516 -0.441562,0.458149 -0.441562,0.752595 0,0.294452 0.196919,0.432847 0.441562,0.310331 0,0 10.752446,-5.384787 10.752446,-5.384787 0.244643,-0.122517 0.441563,-0.458144 0.441563,-0.752596 0,0 0,0 0,0 m 0,7.010355 c 0,-0.294452 -0.19692,-0.432846 -0.441563,-0.31033 0,0 -10.752446,5.384787 -10.752446,5.384787 -0.122322,0.06126 -0.232776,0.17683 -0.312586,0.312853 -0.03966,0.06777 -0.07276,0.141261 -0.09494,0.215718 0,0 0,0.0011 0,0.0011 -0.02217,0.07441 -0.03391,0.150758 -0.03403,0.224024 1.22e-4,0.07315 0.01186,0.13773 0.03403,0.189935 0.02227,0.05214 0.05521,0.0927 0.09494,0.120626 0,0 0,0.0011 0,0.0011 0.07981,0.05609 0.190264,0.05995 0.312586,-0.0013 0,0 7.083806,-3.547545 7.083806,-3.547545 0.0016,-7.97e-4 0.0029,-0.0025 0.0045,-0.0033 0,0 3.664162,-1.834999 3.664162,-1.834999 0.244643,-0.122516 0.441563,-0.458144 0.441563,-0.752596 0,0 0,0 0,0 m 0,4.675366 c 0,-0.294452 -0.19692,-0.432846 -0.441563,-0.31033 0,0 -3.66864,1.837242 -3.66864,1.837242 0,0 -7.083806,3.547545 -7.083806,3.547545 -0.244643,0.122516 -0.441562,0.458144 -0.441562,0.752595 0,0.294452 0.196919,0.432847 0.441562,0.310331 0,0 7.083806,-3.547545 7.083806,-3.547545 0,0 3.66864,-1.837242 3.66864,-1.837242 0.244643,-0.122517 0.441563,-0.458144 0.441563,-0.752596 0,0 0,0 0,0 m 0,7.010361 c 0,-0.07325 -0.01286,-0.13609 -0.03493,-0.18841 -9.9e-5,-2.33e-4 9.8e-5,-8.5e-4 0,-0.0011 -0.02219,-0.05224 -0.05438,-0.09304 -0.09405,-0.121076 -0.07985,-0.05645 -0.189996,-0.06116 -0.312587,2.32e-4 0,0 -6.420119,3.215173 -6.420119,3.215173 0,0 -4.332327,2.169614 -4.332327,2.169614 -0.244643,0.122516 -0.441562,0.458143 -0.441562,0.752595 0,0.147226 0.04917,0.255546 0.128976,0.311638 0,0 0,0.0011 0,0.0011 0.07981,0.05609 0.190264,0.05995 0.312586,-0.0013 0,0 10.752446,-5.384787 10.752446,-5.384787 0.122591,-0.06139 0.232736,-0.176434 0.312587,-0.312853 0.07961,-0.135692 0.12873,-0.292835 0.128976,-0.439743 0,-3.7e-4 0,-7.12e-4 0,-0.0011 0,0 0,0 0,0 m 0,7.011431 c 0,-0.07361 -0.01265,-0.137017 -0.03493,-0.189486 -0.06685,-0.1574 -0.22315,-0.212731 -0.406632,-0.120844 0,0 -10.752446,5.384787 -10.752446,5.384787 -0.244643,0.122517 -0.441562,0.458144 -0.441562,0.752596 0,0.294452 0.196919,0.432847 0.441562,0.31033 0,0 10.752446,-5.384787 10.752446,-5.384787 0.244643,-0.122516 0.441563,-0.458144 0.441563,-0.752596 0,0 0,0 0,0 m 0,7.011437 c 0,-0.294451 -0.19692,-0.432851 -0.441563,-0.310335 0,0 -10.752446,5.384787 -10.752446,5.384787 -0.244643,0.122522 -0.441562,0.458149 -0.441562,0.752601 0,0.294446 0.196919,0.432847 0.441562,0.31033 0,0 10.752446,-5.384787 10.752446,-5.384787 0.244643,-0.122516 0.441563,-0.458149 0.441563,-0.752596 0,0 0,0 0,0 m -0.91716,-34.596787 c 0,-0.294447 -0.19692,-0.432847 -0.441563,-0.31033 0,0 -9.835286,4.925476 -9.835286,4.925476 -0.244643,0.122517 -0.441562,0.458149 -0.441562,0.752596 0,0.294452 0.196919,0.432847 0.441562,0.31033 0,0 9.835286,-4.925476 9.835286,-4.925476 0.244643,-0.122517 0.441563,-0.458144 0.441563,-0.752596 0,0 0,0 0,0 m 0,23.370371 c 0,-0.294452 -0.19692,-0.432846 -0.441563,-0.31033 0,0 -9.835286,4.925477 -9.835286,4.925477 -0.122589,0.06139 -0.232736,0.176434 -0.312586,0.312853 -0.03986,0.0681 -0.07274,0.14195 -0.09494,0.216794 -0.02228,0.07479 -0.03403,0.150417 -0.03403,0.224025 1.22e-4,0.07315 0.01186,0.136654 0.03403,0.188858 1.11e-4,2.65e-4 -1.11e-4,8.18e-4 0,0.0011 0.02227,0.05214 0.05521,0.0927 0.09494,0.120626 0.07985,0.05644 0.189997,0.06116 0.312586,-2.31e-4 0,0 5.249487,-2.628924 5.249487,-2.628924 0.0016,-7.98e-4 0.0029,-0.0025 0.0045,-0.0033 0,0 4.581321,-2.29431 4.581321,-2.29431 0.244643,-0.122516 0.441563,-0.458149 0.441563,-0.752596 0,0 0,0 0,0 m 0,7.011437 c 0,-0.294452 -0.19692,-0.432846 -0.441563,-0.31033 0,0 -9.835286,4.925477 -9.835286,4.925477 -0.244643,0.122516 -0.441562,0.458143 -0.441562,0.752595 0,0.294447 0.196919,0.432847 0.441562,0.310331 0,0 9.835286,-4.925477 9.835286,-4.925477 0.244643,-0.122516 0.441563,-0.458149 0.441563,-0.752596 0,0 0,0 0,0 m -1.83432,-31.800329 c 0,-0.294452 -0.196919,-0.432847 -0.441563,-0.31033 0,0 -8.000966,4.006855 -8.000966,4.006855 -0.244643,0.122517 -0.441562,0.458144 -0.441562,0.752596 0,0.294452 0.196919,0.432846 0.441562,0.31033 0,0 8.000966,-4.006856 8.000966,-4.006856 0.244644,-0.122516 0.441563,-0.458143 0.441563,-0.752595 0,0 0,0 0,0 m 0,7.011431 c 0,-0.294446 -0.196919,-0.432846 -0.441563,-0.31033 0,0 -8.000966,4.006856 -8.000966,4.006856 -0.244643,0.122516 -0.441562,0.458143 -0.441562,0.752595 0,0.294452 0.196919,0.432847 0.441562,0.310331 0,0 8.000966,-4.006856 8.000966,-4.006856 0.244644,-0.122516 0.441563,-0.458144 0.441563,-0.752596 0,0 0,0 0,0 m 0,2.337148 c 0,-0.294447 -0.196919,-0.432847 -0.441563,-0.31033 0,0 -2.747001,1.375688 -2.747001,1.375688 -0.0016,7.73e-4 -0.0029,3.64e-4 -0.0045,0.0012 0,0 -5.249487,2.628924 -5.249487,2.628924 -0.122589,0.06139 -0.232736,0.17644 -0.312586,0.312859 -0.03986,0.0681 -0.07274,0.141945 -0.09494,0.216795 -0.02228,0.07479 -0.03403,0.150411 -0.03403,0.224024 1.22e-4,0.07314 0.01186,0.136654 0.03403,0.188859 1.11e-4,2.58e-4 -1.11e-4,8.12e-4 0,0.0011 0.02227,0.05214 0.05521,0.0927 0.09494,0.120626 0.07985,0.05644 0.189997,0.06116 0.312586,-2.31e-4 0,0 8.000966,-4.006855 8.000966,-4.006855 0.244644,-0.122517 0.441563,-0.458144 0.441563,-0.752596 0,0 0,0 0,0 m 0,11.684645 c 0,-0.294452 -0.196919,-0.432847 -0.441563,-0.31033 0,0 -3.668639,1.837241 -3.668639,1.837241 0,0 -4.332327,2.169614 -4.332327,2.169614 -0.244643,0.122517 -0.441562,0.458144 -0.441562,0.752596 0,0.147226 0.04917,0.255546 0.128976,0.311637 0,0 0,0.0011 0,0.0011 0.07981,0.05609 0.190264,0.05995 0.312586,-0.0013 0,0 5.249487,-2.628924 5.249487,-2.628924 0.0016,-7.97e-4 0.0029,-0.0025 0.0045,-0.0033 0,0 2.747001,-1.375689 2.747001,-1.375689 0.244644,-0.122516 0.441563,-0.458149 0.441563,-0.752595 0,0 0,0 0,0 m 0,7.011437 c 0,-0.294452 -0.196919,-0.432852 -0.441563,-0.310336 0,0 -8.000966,4.006856 -8.000966,4.006856 -0.244643,0.122522 -0.441562,0.458149 -0.441562,0.752601 0,0.294446 0.196919,0.432846 0.441562,0.31033 0,0 8.000966,-4.006855 8.000966,-4.006855 0.244644,-0.122517 0.441563,-0.45815 0.441563,-0.752596 0,0 0,0 0,0 m 0,7.011431 c 0,-0.294452 -0.196919,-0.432846 -0.441563,-0.31033 0,0 -8.000966,4.006856 -8.000966,4.006856 -0.244643,0.122516 -0.441562,0.458143 -0.441562,0.752595 0,0.294452 0.196919,0.432847 0.441562,0.310331 0,0 8.000966,-4.006856 8.000966,-4.006856 0.244644,-0.122516 0.441563,-0.458144 0.441563,-0.752596 0,0 0,0 0,0 m -0.91716,-20.573913 c 0,-0.294452 -0.196919,-0.432847 -0.441563,-0.31033 0,0 -1.829841,0.916378 -1.829841,0.916378 -0.0016,7.73e-4 -0.0029,3.69e-4 -0.0045,0.0012 0,0 -5.249487,2.628925 -5.249487,2.628925 -0.122322,0.06126 -0.232776,0.176824 -0.312586,0.312853 -0.03966,0.06776 -0.07276,0.141255 -0.09494,0.215718 -9.8e-5,3.25e-4 9.8e-5,7.46e-4 0,0.0011 -0.02217,0.07441 -0.03391,0.149677 -0.03403,0.222948 -10e-7,3.65e-4 0,7.07e-4 0,0.0011 1.22e-4,0.07314 0.01186,0.136655 0.03403,0.188859 1.11e-4,2.59e-4 -1.11e-4,8.12e-4 0,0.0011 0.02227,0.05214 0.05521,0.0927 0.09494,0.120626 0.07985,0.05644 0.189997,0.06116 0.312586,-2.31e-4 0,0 5.249487,-2.628925 5.249487,-2.628925 0,0 1.834319,-0.91862 1.834319,-0.91862 0.244644,-0.122517 0.441563,-0.458144 0.441563,-0.752596 0,0 0,0 0,0 m -1.83432,5.59291 c 0,-0.294446 -0.196919,-0.432846 -0.441562,-0.31033 0,0 -0.912682,0.457068 -0.912682,0.457068 -0.0016,7.73e-4 -0.0029,3.64e-4 -0.0045,0.0012 0,0 -4.332327,2.169614 -4.332327,2.169614 -0.122589,0.06139 -0.232736,0.176439 -0.312586,0.312858 -0.03986,0.0681 -0.07274,0.141945 -0.09494,0.216795 -0.02228,0.07479 -0.03403,0.150411 -0.03403,0.224024 1.22e-4,0.07314 0.01186,0.136654 0.03403,0.188859 1.11e-4,2.59e-4 -1.11e-4,8.12e-4 0,0.0011 0.02227,0.05214 0.05521,0.0927 0.09494,0.120626 0.07985,0.05644 0.189997,0.06116 0.312586,-2.31e-4 0,0 5.249487,-2.628924 5.249487,-2.628924 0.244643,-0.122517 0.441562,-0.458144 0.441562,-0.752596 0,0 0,0 0,0"
       id="path1240" />
    <path
       style="opacity:1;fill:#e1e1e1;fill-opacity:1;fill-rule:evenodd;stroke:none;stroke-width:4.12182665;stroke-linecap:round;stroke-linejoin:bevel;stroke-miterlimit:4;stroke-dasharray:none;stroke-dashoffset:0;stroke-opacity:1;paint-order:markers fill stroke"
       d="m 66.45268,32.471867 23.974555,10 v 56.005416 l -23.974555,-10 z"
       id="path985"
       inkscape:connector-curvature="0"
       sodipodi:nodetypes="ccccc" />
    <path
       sodipodi:nodetypes="csssssccsssssccsssssccscsscccsscscccsssssccsccscccscsssc"
       inkscape:connector-curvature="0"
       id="path987"
       d="m 69.843901,40.159113 c -0.391161,-0.163157 -0.706015,0.09029 -0.706015,0.568308 0,0.478022 0.314854,0.994121 0.706015,1.157278 l 17.192113,7.170983 c 0.391161,0.163157 0.706015,-0.09029 0.706015,-0.568308 0,-0.478022 -0.314854,-0.994121 -0.706015,-1.157278 L 69.843901,40.159113 m 0,3.794187 c -0.391161,-0.163157 -0.706015,0.0903 -0.706015,0.568308 0,0.478022 0.314854,0.99413 0.706015,1.157287 l 12.792766,5.335976 c 0.391161,0.163157 0.706015,-0.09029 0.706015,-0.568317 0,-0.478013 -0.314854,-0.994121 -0.706015,-1.157278 L 69.843901,43.9533 m 0,3.794196 c -0.391161,-0.163157 -0.706015,0.09029 -0.706015,0.568308 0,0.478022 0.314854,0.994121 0.706015,1.157278 l 15.725664,6.559314 c 0.391161,0.163157 0.706015,-0.09029 0.706015,-0.568308 0,-0.478022 -0.314854,-0.994121 -0.706015,-1.157278 L 69.843901,47.747496 m 0,3.794188 c -0.391161,-0.163156 -0.706015,0.0903 -0.706015,0.568308 0,0.478023 0.314854,0.994131 0.706015,1.157287 l 17.192113,7.170983 c 0.391161,0.163157 0.706015,-0.09029 0.706015,-0.568316 0,-0.478014 -0.314854,-0.994122 -0.706015,-1.157278 L 69.843901,51.541684 m 0,3.794196 c -0.391161,-0.163156 -0.706015,0.09029 -0.706015,0.568308 0,0.478022 0.314854,0.994121 0.706015,1.157278 l 12.792766,5.335977 c 0.391161,0.163156 0.706015,-0.09029 0.706015,-0.568308 0,-0.478023 -0.314854,-0.994122 -0.706015,-1.157278 L 69.843901,55.33588 m 0,3.79244 c -0.391161,-0.163157 -0.706015,0.09029 -0.706015,0.568308 0,0.478022 0.314854,0.994121 0.706015,1.157278 l 8.393419,3.500969 c 0.391161,0.163157 0.706014,-0.09029 0.706014,-0.568308 0,-0.478022 -0.314853,-0.994121 -0.706014,-1.157278 L 69.843901,59.12832 m 0,3.794196 c -0.391161,-0.163157 -0.706015,0.09029 -0.706015,0.568308 0,0.478013 0.314854,0.994121 0.706015,1.157277 l 17.192113,7.170984 c 0.391161,0.163156 0.706015,-0.09029 0.706015,-0.568308 0,-0.478022 -0.314854,-0.994122 -0.706015,-1.157278 L 69.843901,62.922516 m 0,3.794186 c -0.391161,-0.163156 -0.706015,0.09029 -0.706015,0.568308 0,0.478023 0.314854,0.994122 0.706015,1.157278 l 8.393419,3.50097 c 0.391161,0.163157 0.706014,-0.09029 0.706014,-0.568308 0,-0.478022 -0.314853,-0.994121 -0.706014,-1.157278 l -8.393419,-3.50097"
       style="opacity:1;fill:#f9f9f9;fill-opacity:1;fill-rule:evenodd;stroke:none;stroke-width:3.87997651;stroke-linecap:round;stroke-linejoin:bevel;stroke-miterlimit:4;stroke-dasharray:none;stroke-dashoffset:0;stroke-opacity:1;paint-order:markers fill stroke" />
    <path
       style="opacity:1;fill:#e1e1e1;fill-opacity:1;fill-rule:evenodd;stroke:none;stroke-width:4.12182665;stroke-linecap:round;stroke-linejoin:bevel;stroke-miterlimit:4;stroke-dasharray:none;stroke-dashoffset:0;stroke-opacity:1;paint-order:markers fill stroke"
       d="m 28.503571,32.471867 21.974555,8 v 56.005416 l -21.974555,-8 z"
       id="path983"
       inkscape:connector-curvature="0"
       sodipodi:nodetypes="ccccc" />
    <path
       inkscape:connector-curvature="0"
       id="path1155"
       d="m 33.394369,83.14216 c -0.335705,-0.122216 -0.605922,-0.580869 -0.605922,-1.028459 0,-0.44759 0.270217,-0.709495 0.605922,-0.587279 0,0 14.754775,5.371586 14.754775,5.371586 0.335705,0.122216 0.605922,0.580869 0.605922,1.028459 0,0.44759 -0.270217,0.709494 -0.605922,0.587278 0,0 -14.754775,-5.371585 -14.754775,-5.371585 m 0,-3.552655 c -0.335705,-0.122216 -0.605922,-0.580868 -0.605922,-1.028459 0,-0.44759 0.270217,-0.709494 0.605922,-0.587278 0,0 10.979126,3.997032 10.979126,3.997032 0.335706,0.122216 0.605923,0.58087 0.605923,1.028459 0,0.447591 -0.270217,0.709495 -0.605923,0.587279 0,0 -10.979126,-3.997033 -10.979126,-3.997033 m 0,-3.552654 c -0.335705,-0.122216 -0.605922,-0.580869 -0.605922,-1.02846 0,-0.447589 0.270217,-0.709494 0.605922,-0.587278 0,0 13.496225,4.913401 13.496225,4.913401 0.335706,0.122216 0.605922,0.58087 0.605922,1.028459 0,0.447591 -0.270216,0.709495 -0.605922,0.587279 0,0 -13.496225,-4.913401 -13.496225,-4.913401 m 0,-3.552655 c -0.335705,-0.122216 -0.605922,-0.580868 -0.605922,-1.028459 0,-0.44759 0.270217,-0.709494 0.605922,-0.587278 0,0 14.754775,5.371585 14.754775,5.371585 0.335705,0.122216 0.605922,0.580869 0.605922,1.028459 0,0.447591 -0.270217,0.709494 -0.605922,0.587278 0,0 -14.754775,-5.371585 -14.754775,-5.371585 m 0,-3.552654 c -0.335705,-0.122216 -0.605922,-0.580869 -0.605922,-1.02846 0,-0.447589 0.270217,-0.709494 0.605922,-0.587278 0,0 10.979126,3.997033 10.979126,3.997033 0.335706,0.122216 0.605923,0.580869 0.605923,1.028459 0,0.44759 -0.270217,0.709494 -0.605923,0.587278 0,0 -10.979126,-3.997032 -10.979126,-3.997032 m 0,-3.551016 c -0.335705,-0.122216 -0.605922,-0.580869 -0.605922,-1.02846 0,-0.447589 0.270217,-0.709494 0.605922,-0.587278 0,0 7.203478,2.62248 7.203478,2.62248 0.335705,0.122216 0.605922,0.580869 0.605922,1.028459 0,0.447591 -0.270217,0.709494 -0.605922,0.587278 0,0 -7.203478,-2.622479 -7.203478,-2.622479 m 0,-3.552655 c -0.335705,-0.122216 -0.605922,-0.580868 -0.605922,-1.028459 0,-0.44759 0.270217,-0.709493 0.605922,-0.587277 0,0 14.754775,5.371585 14.754775,5.371585 0.335705,0.122215 0.605922,0.580868 0.605922,1.028458 0,0.447591 -0.270217,0.709494 -0.605922,0.587278 0,0 -14.754775,-5.371585 -14.754775,-5.371585 m 0,-3.552654 c -0.335705,-0.122216 -0.605922,-0.580869 -0.605922,-1.02846 0,-0.447589 0.270217,-0.709494 0.605922,-0.587278 0,0 7.203478,2.62248 7.203478,2.62248 0.335705,0.122216 0.605922,0.580869 0.605922,1.028459 0,0.447591 -0.270217,0.709494 -0.605922,0.587278 0,0 -7.203478,-2.622479 -7.203478,-2.622479 m 0,-7.105309 c -0.335705,-0.122217 -0.605922,-0.580869 -0.605922,-1.02846 0,-0.447589 0.270217,-0.709494 0.605922,-0.587278 0,0 14.754775,5.371585 14.754775,5.371585 0.335705,0.122217 0.605922,0.58087 0.605922,1.02846 0,0.44759 -0.270217,0.709494 -0.605922,0.587278 0,0 -14.754775,-5.371585 -14.754775,-5.371585 m 0,-3.552655 c -0.335705,-0.122216 -0.605922,-0.580869 -0.605922,-1.028459 0,-0.44759 0.270217,-0.709494 0.605922,-0.587278 0,0 14.754775,5.371586 14.754775,5.371586 0.335705,0.122215 0.605922,0.580868 0.605922,1.028458 0,0.447591 -0.270217,0.709494 -0.605922,0.587278 0,0 -14.754775,-5.371585 -14.754775,-5.371585 m 0,-3.552655 c -0.335705,-0.122216 -0.605922,-0.580868 -0.605922,-1.028459 0,-0.44759 0.270217,-0.709494 0.605922,-0.587278 0,0 14.754775,5.371585 14.754775,5.371585 0.335705,0.122217 0.605922,0.58087 0.605922,1.028459 0,0.447591 -0.270217,0.709495 -0.605922,0.587279 0,0 -14.754775,-5.371586 -14.754775,-5.371586"
       style="opacity:1;fill:#000000;fill-opacity:0.07729468;fill-rule:evenodd;stroke:none;stroke-width:3.63297892;stroke-linecap:round;stroke-linejoin:bevel;stroke-miterlimit:4;stroke-dasharray:none;stroke-dashoffset:0;stroke-opacity:1;paint-order:markers fill stroke" />
    <path
       style="opacity:1;fill:#fefefe;fill-opacity:1;fill-rule:evenodd;stroke:none;stroke-width:3.63297892;stroke-linecap:round;stroke-linejoin:bevel;stroke-miterlimit:4;stroke-dasharray:none;stroke-dashoffset:0;stroke-opacity:1;paint-order:markers fill stroke"
       d="m 31.442309,81.847795 c -0.335705,-0.122216 -0.605922,-0.580869 -0.605922,-1.028459 0,-0.44759 0.270217,-0.709495 0.605922,-0.587279 0,0 14.754775,5.371586 14.754775,5.371586 0.335705,0.122216 0.605922,0.580869 0.605922,1.028459 0,0.44759 -0.270217,0.709494 -0.605922,0.587278 0,0 -14.754775,-5.371585 -14.754775,-5.371585 m 0,-3.552655 c -0.335705,-0.122216 -0.605922,-0.580868 -0.605922,-1.028459 0,-0.44759 0.270217,-0.709494 0.605922,-0.587278 0,0 10.979126,3.997032 10.979126,3.997032 0.335706,0.122216 0.605923,0.58087 0.605923,1.028459 0,0.447591 -0.270217,0.709495 -0.605923,0.587279 0,0 -10.979126,-3.997033 -10.979126,-3.997033 m 0,-3.552654 c -0.335705,-0.122216 -0.605922,-0.580869 -0.605922,-1.02846 0,-0.447589 0.270217,-0.709494 0.605922,-0.587278 0,0 13.496225,4.913401 13.496225,4.913401 0.335706,0.122216 0.605922,0.58087 0.605922,1.028459 0,0.447591 -0.270216,0.709495 -0.605922,0.587279 0,0 -13.496225,-4.913401 -13.496225,-4.913401 m 0,-3.552655 c -0.335705,-0.122216 -0.605922,-0.580868 -0.605922,-1.028459 0,-0.44759 0.270217,-0.709494 0.605922,-0.587278 0,0 14.754775,5.371585 14.754775,5.371585 0.335705,0.122216 0.605922,0.580869 0.605922,1.028459 0,0.447591 -0.270217,0.709494 -0.605922,0.587278 0,0 -14.754775,-5.371585 -14.754775,-5.371585 m 0,-3.552654 c -0.335705,-0.122216 -0.605922,-0.580869 -0.605922,-1.02846 0,-0.447589 0.270217,-0.709494 0.605922,-0.587278 0,0 10.979126,3.997033 10.979126,3.997033 0.335706,0.122216 0.605923,0.580869 0.605923,1.028459 0,0.44759 -0.270217,0.709494 -0.605923,0.587278 0,0 -10.979126,-3.997032 -10.979126,-3.997032 m 0,-3.551016 c -0.335705,-0.122216 -0.605922,-0.580869 -0.605922,-1.02846 0,-0.447589 0.270217,-0.709494 0.605922,-0.587278 0,0 7.203478,2.62248 7.203478,2.62248 0.335705,0.122216 0.605922,0.580869 0.605922,1.028459 0,0.447591 -0.270217,0.709494 -0.605922,0.587278 0,0 -7.203478,-2.622479 -7.203478,-2.622479 m 0,-3.552655 c -0.335705,-0.122216 -0.605922,-0.580868 -0.605922,-1.028459 0,-0.44759 0.270217,-0.709493 0.605922,-0.587277 0,0 14.754775,5.371585 14.754775,5.371585 0.335705,0.122215 0.605922,0.580868 0.605922,1.028458 0,0.447591 -0.270217,0.709494 -0.605922,0.587278 0,0 -14.754775,-5.371585 -14.754775,-5.371585 m 0,-3.552654 c -0.335705,-0.122216 -0.605922,-0.580869 -0.605922,-1.02846 0,-0.447589 0.270217,-0.709494 0.605922,-0.587278 0,0 7.203478,2.62248 7.203478,2.62248 0.335705,0.122216 0.605922,0.580869 0.605922,1.028459 0,0.447591 -0.270217,0.709494 -0.605922,0.587278 0,0 -7.203478,-2.622479 -7.203478,-2.622479 m 0,-7.105309 c -0.335705,-0.122217 -0.605922,-0.580869 -0.605922,-1.02846 0,-0.447589 0.270217,-0.709494 0.605922,-0.587278 0,0 14.754775,5.371585 14.754775,5.371585 0.335705,0.122217 0.605922,0.58087 0.605922,1.02846 0,0.44759 -0.270217,0.709494 -0.605922,0.587278 0,0 -14.754775,-5.371585 -14.754775,-5.371585 m 0,-3.552655 c -0.335705,-0.122216 -0.605922,-0.580869 -0.605922,-1.028459 0,-0.44759 0.270217,-0.709494 0.605922,-0.587278 0,0 14.754775,5.371586 14.754775,5.371586 0.335705,0.122215 0.605922,0.580868 0.605922,1.028458 0,0.447591 -0.270217,0.709494 -0.605922,0.587278 0,0 -14.754775,-5.371585 -14.754775,-5.371585 m 0,-3.552655 c -0.335705,-0.122216 -0.605922,-0.580868 -0.605922,-1.028459 0,-0.44759 0.270217,-0.709494 0.605922,-0.587278 0,0 14.754775,5.371585 14.754775,5.371585 0.335705,0.122217 0.605922,0.58087 0.605922,1.028459 0,0.447591 -0.270217,0.709495 -0.605922,0.587279 0,0 -14.754775,-5.371586 -14.754775,-5.371586"
       id="path1033"
       inkscape:connector-curvature="0" />
    <path
       sodipodi:nodetypes="sssssssss"
       inkscape:connector-curvature="0"
       id="rect1181"
       d="m 72.204907,75.752344 9.763445,3.529797 c 0.451601,0.163268 0.866804,0.386595 0.866804,0.866804 v 9.763445 c 0,0.480209 -0.415201,1.030073 -0.866804,0.866804 l -9.763445,-3.529797 c -0.451601,-0.163268 -0.866804,-0.386595 -0.866804,-0.866804 v -9.763445 c 0,-0.480209 0.415203,-1.030072 0.866804,-0.866804 z"
       style="opacity:1;fill:#ebebeb;fill-opacity:1;fill-rule:evenodd;stroke:none;stroke-width:6.37831116;stroke-linecap:round;stroke-linejoin:bevel;stroke-miterlimit:4;stroke-dasharray:none;stroke-dashoffset:0;stroke-opacity:1;paint-order:markers fill stroke" />
  </g>
  <g
     id="g1315"
     transform="matrix(0.60395486,0,0,0.60395486,138.26348,52.044381)">
    <g
       id="g1301">
      <g
         id="g2559"
         transform="matrix(1.4244112,0,0,1.4244112,-321.99305,-27.694821)">
        <path
           sodipodi:nodetypes="sssssssssccccc"
           inkscape:connector-curvature="0"
           id="path2539"
           d="m 154.04526,36.960978 c 0,-1.196339 1.01272,-2.209061 2.20906,-2.209061 h 21.61012 c 1.19634,0 2.20906,1.012722 2.20906,2.209061 v 47.497883 c 0,1.196333 -1.01272,2.210304 -2.20906,2.210304 h -21.61012 c -1.19634,0 -2.20906,-1.013971 -2.20906,-2.210304 z m 7.63734,8.796043 v 29.90704 h 12.02797 v -29.90704 z"
           style="color:#000000;font-style:normal;font-variant:normal;font-weight:normal;font-stretch:normal;font-size:medium;line-height:normal;font-family:sans-serif;font-variant-ligatures:normal;font-variant-position:normal;font-variant-caps:normal;font-variant-numeric:normal;font-variant-alternates:normal;font-feature-settings:normal;text-indent:0;text-align:start;text-decoration:none;text-decoration-line:none;text-decoration-style:solid;text-decoration-color:#000000;letter-spacing:normal;word-spacing:normal;text-transform:none;writing-mode:lr-tb;direction:ltr;text-orientation:mixed;dominant-baseline:auto;baseline-shift:baseline;text-anchor:start;white-space:normal;shape-padding:0;clip-rule:nonzero;display:inline;overflow:visible;visibility:visible;opacity:1;isolation:auto;mix-blend-mode:normal;color-interpolation:sRGB;color-interpolation-filters:linearRGB;solid-color:#000000;solid-opacity:1;vector-effect:none;fill:#bdbdbd;fill-opacity:1;fill-rule:evenodd;stroke:none;stroke-width:3.18602324;stroke-linecap:round;stroke-linejoin:bevel;stroke-miterlimit:4;stroke-dasharray:none;stroke-dashoffset:0;stroke-opacity:1;paint-order:stroke fill markers;color-rendering:auto;image-rendering:auto;shape-rendering:auto;text-rendering:auto;enable-background:accumulate" />
        <path
           style="opacity:1;fill:#ffffff;fill-opacity:1;fill-rule:evenodd;stroke:none;stroke-width:2.72402763;stroke-linecap:round;stroke-linejoin:bevel;stroke-miterlimit:4;stroke-dasharray:none;stroke-dashoffset:0;stroke-opacity:1;paint-order:stroke fill markers"
           d="m 156.42155,39.63019 v 40.195757 c 0,0.27336 0.25087,0.493435 0.56249,0.493435 h 20.15068 c 0.31162,0 0.56249,-0.220075 0.56249,-0.493435 V 39.63019 c 0,-0.273361 -0.25087,-0.493431 -0.56249,-0.493431 h -20.15068 c -0.31162,0 -0.56249,0.22007 -0.56249,0.493431 z"
           id="path2541"
           inkscape:connector-curvature="0"
           sodipodi:nodetypes="sssssssss" />
        <circle
           transform="matrix(0,1,1,0,0,0)"
           r="0.30794692"
           cy="170.7823"
           cx="37.016403"
           id="circle2543"
           style="opacity:1;fill:#ffffff;fill-opacity:1;fill-rule:evenodd;stroke:none;stroke-width:1.07061088;stroke-linecap:round;stroke-linejoin:round;stroke-miterlimit:4;stroke-dasharray:none;stroke-dashoffset:0;stroke-opacity:1;paint-order:stroke fill markers" />
        <rect
           style="opacity:1;fill:#ffffff;fill-opacity:1;fill-rule:evenodd;stroke:none;stroke-width:0.53981924;stroke-linecap:round;stroke-linejoin:round;stroke-miterlimit:4;stroke-dasharray:none;stroke-dashoffset:0;stroke-opacity:1;paint-order:stroke fill markers"
           id="rect2552"
           width="4.3811092"
           height="0.25984573"
           x="164.86882"
           y="36.886482"
           rx="0.12992261"
           ry="0.12992248" />
        <circle
           style="opacity:1;fill:#ffffff;fill-opacity:1;fill-rule:evenodd;stroke:none;stroke-width:5.24103642;stroke-linecap:round;stroke-linejoin:round;stroke-miterlimit:4;stroke-dasharray:none;stroke-dashoffset:0;stroke-opacity:1;paint-order:stroke fill markers"
           id="circle832"
           cx="83.595612"
           cy="167.05939"
           r="1.5075142"
           transform="matrix(0,1,1,0,0,0)" />
      </g>
      <path
         style="opacity:1;fill:#eeeeee;fill-opacity:1;fill-rule:evenodd;stroke:none;stroke-width:5;stroke-linecap:round;stroke-linejoin:bevel;stroke-miterlimit:4;stroke-dasharray:none;stroke-dashoffset:0;stroke-opacity:1;paint-order:markers fill stroke"
         d="m -96.01483,33.131535 c -0.533479,0 -0.962891,0.429412 -0.962891,0.962891 0,0.533478 0.429412,0.962891 0.962891,0.962891 h 23.447266 c 0.533479,0 0.96289,-0.429413 0.96289,-0.962891 0,-0.533479 -0.429411,-0.962891 -0.96289,-0.962891 z m 0,4.234375 c -0.533479,0 -0.962891,0.429412 -0.962891,0.962891 0,0.533478 0.429412,0.962891 0.962891,0.962891 h 17.447266 c 0.533479,0 0.96289,-0.429413 0.96289,-0.962891 0,-0.533479 -0.429411,-0.962891 -0.96289,-0.962891 z m 0,4.234375 c -0.533479,0 -0.962891,0.429412 -0.962891,0.962891 0,0.533478 0.429412,0.962891 0.962891,0.962891 h 21.447266 c 0.533479,0 0.96289,-0.429413 0.96289,-0.962891 0,-0.533479 -0.429411,-0.962891 -0.96289,-0.962891 z m 0,4.234375 c -0.533479,0 -0.962891,0.429412 -0.962891,0.962891 0,0.533478 0.429412,0.962891 0.962891,0.962891 h 23.447266 c 0.533479,0 0.96289,-0.429413 0.96289,-0.962891 0,-0.533479 -0.429411,-0.962891 -0.96289,-0.962891 z m 0,4.234375 c -0.533479,0 -0.962891,0.429412 -0.962891,0.962891 0,0.533478 0.429412,0.962891 0.962891,0.962891 h 17.447266 c 0.533479,0 0.96289,-0.429413 0.96289,-0.962891 0,-0.533479 -0.429411,-0.962891 -0.96289,-0.962891 z m 0,4.232422 c -0.533479,0 -0.962891,0.429412 -0.962891,0.962891 0,0.533478 0.429412,0.962891 0.962891,0.962891 h 11.447266 c 0.533479,0 0.96289,-0.429413 0.96289,-0.962891 0,-0.533479 -0.429411,-0.962891 -0.96289,-0.962891 z m 0,4.234375 c -0.533479,0 -0.962891,0.429412 -0.962891,0.962891 0,0.533478 0.429412,0.96289 0.962891,0.96289 h 23.447266 c 0.533479,10e-7 0.96289,-0.429412 0.96289,-0.96289 0,-0.533479 -0.429411,-0.962891 -0.96289,-0.962891 z m 0,4.234375 c -0.533479,0 -0.962891,0.429412 -0.962891,0.962891 0,0.533478 0.429412,0.962891 0.962891,0.962891 h 11.447266 c 0.533479,0 0.96289,-0.429413 0.96289,-0.962891 0,-0.533479 -0.429411,-0.962891 -0.96289,-0.962891 z m 0,8.46875 c -0.533479,0 -0.962891,0.429412 -0.962891,0.962891 0,0.533478 0.429412,0.962891 0.962891,0.962891 h 23.447266 c 0.533479,-10e-7 0.96289,-0.429413 0.96289,-0.962891 0,-0.533479 -0.429411,-0.962891 -0.96289,-0.962891 z m 0,4.234375 c -0.533479,0 -0.962891,0.429412 -0.962891,0.962891 0,0.533478 0.429412,0.96289 0.962891,0.96289 h 23.447266 c 0.533479,10e-7 0.96289,-0.429412 0.96289,-0.96289 0,-0.533479 -0.429411,-0.962891 -0.96289,-0.962891 z m 0,4.234375 c -0.533479,0 -0.962891,0.429412 -0.962891,0.962891 0,0.533478 0.429412,0.962891 0.962891,0.962891 h 23.447266 c 0.533479,-10e-7 0.96289,-0.429413 0.96289,-0.962891 0,-0.533479 -0.429411,-0.962891 -0.96289,-0.962891 z"
         id="rect917"
         inkscape:connector-curvature="0" />
    </g>
    <g
       transform="matrix(0.37237186,-0.37237186,0.37237186,0.37237186,-45.631522,-8.5302368)"
       id="g915">
      <circle
         style="opacity:1;fill:#f7ffff;fill-opacity:1;fill-rule:evenodd;stroke:#b7c8be;stroke-width:5;stroke-linecap:round;stroke-linejoin:bevel;stroke-miterlimit:4;stroke-dasharray:none;stroke-dashoffset:0;stroke-opacity:1;paint-order:markers fill stroke"
         id="path905"
         cx="-117.93103"
         cy="65.103455"
         r="25.695541" />
      <rect
         ry="0"
         rx="0"
         y="90.031952"
         x="-120.42388"
         height="15.340623"
         width="3.8351557"
         id="rect909"
         style="opacity:1;fill:#b7c8be;fill-opacity:1;fill-rule:evenodd;stroke:none;stroke-width:2.94117665;stroke-linecap:round;stroke-linejoin:bevel;stroke-miterlimit:4;stroke-dasharray:none;stroke-dashoffset:0;stroke-opacity:1;paint-order:markers fill stroke" />
      <path
         style="opacity:1;fill:#b3b3b3;fill-opacity:1;fill-rule:evenodd;stroke:none;stroke-width:10;stroke-linecap:round;stroke-linejoin:bevel;stroke-miterlimit:4;stroke-dasharray:none;stroke-dashoffset:0;stroke-opacity:1;paint-order:markers fill stroke"
         d="m -121.14375,103.83852 h 5.27489 c 1.24938,0 2.19654,1.34142 2.2552,3.0052 l 1.62712,46.14771 c 0.0587,1.66385 -1.34032,3.0052 -3.0052,3.0052 h -7.02913 c -1.66488,0 -3.06387,-1.34135 -3.0052,-3.0052 l 1.62712,-46.14771 c 0.0587,-1.66378 1.00582,-3.0052 2.2552,-3.0052 z"
         id="rect907"
         inkscape:connector-curvature="0"
         sodipodi:nodetypes="sssssssss" />
    </g>
  </g>
  <path
     id="path1317"
     d="m 20.338026,104.23233 c 1.417485,0.94461 2.42978,2.27662 2.034554,4.71189 -0.0453,0.27766 0.08212,0.53568 0.323934,0.67529 0.407656,0.23536 2.254268,-0.0523 2.75501,-0.09 -1.745047,3.02144 -4.670084,4.87381 -7.975054,2.96568 -2.783553,-1.60708 -3.769477,-4.31773 -2.150527,-7.12184 0.06588,-0.11411 0.152633,-0.20932 0.229008,-0.31445 z M 16.218377,86.719578 c 0.556274,0.321165 0.935531,0.868411 1.126946,1.455451 3.632118,11.030602 4.3217,11.638612 3.183007,13.610891 -0.290225,0.50268 -0.686152,0.91305 -1.140175,1.23508 l -3.468386,0.59933 c -0.302708,-0.0867 -0.601376,-0.19898 -0.885744,-0.36316 -2.279024,-1.31579 -2.636706,-3.746889 -2.315092,-13.883758 0.0332,-0.682894 0.122332,-1.389765 0.464255,-1.981994 0.612456,-1.060804 2.003744,-1.267345 3.035189,-0.67184 z"
     inkscape:connector-curvature="0"
     style="fill:#bdbdbd;stroke-width:0.04236979;fill-opacity:1" />
  <g
     id="g1492"
     transform="matrix(0.05693382,0,0,0.05693382,29.407177,126.12844)">
    <path
       id="path1487"
       d="m 279.93164,-748.11328 c -0.53652,-0.008 -1.08146,0.009 -1.63086,0.0391 -6.10631,0.25992 -12.84613,2.42063 -19.76758,5.70508 -0.83749,0.39741 -1.67959,0.81184 -2.52148,1.24023 -0.28981,0.14748 -0.58088,0.30612 -0.8711,0.45703 -1.39637,0.72623 -2.79635,1.48319 -4.19726,2.28126 -0.8455,0.48166 -1.69381,0.97635 -2.53906,1.48046 -4.22811,2.52208 -8.44043,5.30586 -12.53321,8.17188 -0.97647,0.68371 -1.92965,1.36727 -2.86718,2.05078 -5.82367,4.18231 -11.23462,8.34453 -16.1543,12.15039 -1.49426,1.12457 -2.98572,2.24648 -4.39063,3.32422 -1.96164,1.50483 -4.27572,3.32214 -5.93945,4.53516 -1.97434,1.43288 -3.46172,2.51635 -5.33789,3.8789 -0.0914,0.0664 -0.16633,0.12162 -0.25976,0.18945 -1.1262,0.8175 -2.28275,1.65903 -3.43946,2.4961 h -77.55078 c -14.08349,0 -26.750749,6.06392 -35.531249,15.72461 v 0.002 c -1.032635,1.13622 -2.012486,2.32107 -2.933594,3.55274 v 0.002 c -1.381727,1.84772 -2.634049,3.79798 -3.742188,5.83789 v 0.002 c -3.694129,6.80092 -5.792968,14.59515 -5.792968,22.87891 v 44.13867 c -3.092475,2.33248 -5.935306,4.48979 -8.59961,6.52344 -0.159953,0.12209 -0.292496,0.22645 -0.451172,0.34765 -1.400082,1.06946 -2.674269,2.05189 -3.986328,3.06055 -2.369776,1.8218 -4.596381,3.54896 -6.773437,5.24024 -0.323748,0.2515 -0.637955,0.49831 -0.958985,0.74804 -2.975986,2.3111 -5.947821,4.61817 -8.841797,6.88672 -0.772629,0.62729 -1.519838,1.28492 -2.251953,1.95899 -0.06859,0.0631 -0.142711,0.12003 -0.210937,0.18359 a 47.995,47.995 0 0 0 -1.283203,1.13672 c -0.699566,0.69721 -1.377983,1.41527 -2.033203,2.15429 a 47.995,47.995 0 0 0 -4.123047,5.10743 c -0.544431,0.81914 -1.063557,1.65482 -1.556641,2.50586 a 47.995,47.995 0 0 0 -5.933594,15.03906 c -4.64e-4,0.002 -0.0015,0.004 -0.002,0.006 v 0.002 c -0.159764,0.862 -0.295883,1.72821 -0.408203,2.59766 a 47.995,47.995 0 0 0 -0.585937,7.08203 v 0.004 10.64648 l 95.999996,69.34961 v -0.16797 c 21.17549,15.53727 48.94106,35.77565 86.58789,63.09766 16.854,12.287 50.20111,41.77368 73.41211,41.42968 0.0387,5.9e-4 0.0804,-0.008 0.11914,-0.008 -1.4134,0.0148 -2.85976,-0.071 -4.3418,-0.26562 -1.52337,-0.20007 -3.081,-0.50562 -4.66406,-0.9043 -3.16612,-0.79735 -6.43878,-1.96788 -9.76562,-3.42188 -3.32684,-1.45399 -6.70826,-3.19026 -10.0918,-5.11718 -3.38354,-1.92692 -6.76924,-4.04559 -10.10547,-6.26172 -6.67245,-4.43227 -13.14485,-9.25924 -19.00391,-13.7461 -5.85905,-4.48686 -11.10485,-8.63332 -15.31835,-11.70507 -37.64683,-27.32201 -65.4124,-47.56039 -86.58789,-63.09766 V -652.113 h 320 v 184.54492 l 30.95898,-22.36523 64.80078,-46.81055 v -10.64648 -0.004 c 0,-0.19157 -0.0133,-0.38098 -0.0156,-0.57227 -8.8e-4,-0.0731 -0.007,-0.14565 -0.008,-0.21875 -0.0219,-1.32631 -0.0964,-2.6441 -0.22656,-3.95312 -0.0123,-0.15566 -0.0253,-0.31126 -0.0391,-0.4668 -10e-4,-0.01 -0.002,-0.0196 -0.004,-0.0293 -0.15408,-1.40182 -0.38137,-2.78806 -0.65625,-4.16211 -0.047,-0.24125 -0.0958,-0.48215 -0.14648,-0.72265 -3e-4,-10e-4 -0.002,-0.003 -0.002,-0.004 -0.28988,-1.3409 -0.63518,-2.66465 -1.0371,-3.9707 -0.004,-0.0142 -0.007,-0.0288 -0.0117,-0.043 -0.0737,-0.23365 -0.14926,-0.46673 -0.22657,-0.69922 -0.004,-0.0131 -0.009,-0.026 -0.0137,-0.0391 -0.43019,-1.31727 -0.90585,-2.61775 -1.44726,-3.89063 -0.003,-0.007 -0.005,-0.0145 -0.008,-0.0215 -0.0733,-0.16448 -0.14751,-0.32855 -0.22265,-0.49219 -0.006,-0.0147 -0.0149,-0.0284 -0.0215,-0.043 -0.5565,-1.26347 -1.1589,-2.50573 -1.82226,-3.71679 -0.0492,-0.0952 -0.0986,-0.19027 -0.14844,-0.28516 -0.67806,-1.21846 -1.42578,-2.39752 -2.20898,-3.55469 -0.008,-0.0127 -0.0149,-0.0265 -0.0234,-0.0391 -0.14153,-0.21338 -0.28476,-0.42563 -0.42969,-0.63672 -0.005,-0.008 -0.0122,-0.0139 -0.0176,-0.0215 -0.77206,-1.09871 -1.59579,-2.16309 -2.46093,-3.19727 -0.0396,-0.0475 -0.0813,-0.0933 -0.1211,-0.14062 -0.15513,-0.18399 -0.30876,-0.36899 -0.4668,-0.55078 -0.004,-0.005 -0.009,-0.009 -0.0137,-0.0137 -0.88363,-1.0157 -1.80495,-2.00171 -2.77734,-2.94531 -0.18418,-0.17399 -0.36973,-0.34653 -0.55664,-0.51758 -0.49759,-0.46779 -1.00021,-0.93091 -1.51953,-1.3789 -0.5167,-0.45044 -1.04505,-0.89084 -1.58594,-1.31836 -0.0494,-0.0431 -0.0989,-0.086 -0.14844,-0.12891 -3.41326,-2.67569 -6.90289,-5.38492 -10.45312,-8.13672 -0.7342,-0.56957 -1.40944,-1.1016 -2.16211,-1.68359 -0.30423,-0.23524 -0.56527,-0.44399 -0.87305,-0.68164 -0.85616,-0.66109 -1.82489,-1.39909 -2.71289,-2.08203 -0.50527,-0.3886 -1.02574,-0.78868 -1.54297,-1.18555 -1.05637,-0.81054 -2.03848,-1.56937 -3.15234,-2.41992 -0.0355,-0.0271 -0.0797,-0.0608 -0.11524,-0.0879 h -0.002 c -2.66431,-2.03412 -5.50711,-4.1943 -8.59961,-6.5293 v -44.13867 c 0,-0.94926 -0.0355,-1.89054 -0.0898,-2.82617 -0.0169,-0.2906 -0.0444,-0.578 -0.0664,-0.86719 -0.049,-0.64283 -0.1076,-1.28247 -0.18164,-1.91797 -0.0387,-0.33185 -0.0796,-0.66244 -0.125,-0.99219 -0.0895,-0.65048 -0.19325,-1.2956 -0.30859,-1.9375 -0.0461,-0.25656 -0.0885,-0.5144 -0.13868,-0.76953 -0.35256,-1.79319 -0.80336,-3.55011 -1.3496,-5.26562 -0.0888,-0.27905 -0.18745,-0.55328 -0.28126,-0.83008 -0.20359,-0.60091 -0.41608,-1.19715 -0.64257,-1.78711 -0.10353,-0.26968 -0.21013,-0.53738 -0.31836,-0.80469 -0.24007,-0.59291 -0.49307,-1.17891 -0.75586,-1.75976 -0.11248,-0.24863 -0.21937,-0.49976 -0.33594,-0.7461 -0.37995,-0.80291 -0.77678,-1.59729 -1.19922,-2.375 v -0.002 c -0.42139,-0.77572 -0.86986,-1.53407 -1.33203,-2.2832 -0.14712,-0.23848 -0.30197,-0.47133 -0.45312,-0.70704 -0.33414,-0.52097 -0.67584,-1.03601 -1.0293,-1.54296 -0.16946,-0.24307 -0.33986,-0.48486 -0.51367,-0.72461 -0.36716,-0.50644 -0.74662,-1.00289 -1.13282,-1.49414 -0.16975,-0.21594 -0.33445,-0.43552 -0.50781,-0.64844 -1.11013,-1.36357 -2.29402,-2.66321 -3.54492,-3.89649 -0.18468,-0.18208 -0.3749,-0.35801 -0.5625,-0.5371 -0.45631,-0.43563 -0.9194,-0.8637 -1.39258,-1.28126 -0.22022,-0.19432 -0.44223,-0.38585 -0.66601,-0.57617 -0.48038,-0.40853 -0.9704,-0.80564 -1.4668,-1.19531 -0.20657,-0.16215 -0.40987,-0.32751 -0.61914,-0.48633 -0.7031,-0.53361 -1.41577,-1.05385 -2.14844,-1.54883 -0.57611,-0.38921 -1.16425,-0.76247 -1.75781,-1.12695 -0.17135,-0.10521 -0.34482,-0.20743 -0.51758,-0.31055 -0.44915,-0.26808 -0.90283,-0.52757 -1.36133,-0.78125 -0.1731,-0.0958 -0.34512,-0.19341 -0.51953,-0.28711 -1.23219,-0.6619 -2.49728,-1.27173 -3.79101,-1.82617 -0.19034,-0.0816 -0.38263,-0.1591 -0.57422,-0.23828 -0.46445,-0.19191 -0.93265,-0.37511 -1.4043,-0.55273 -0.21998,-0.0829 -0.43865,-0.16834 -0.66016,-0.24805 -1.31053,-0.47151 -2.64722,-0.8882 -4.00781,-1.24609 -0.22175,-0.0583 -0.44497,-0.11274 -0.66797,-0.16797 -0.48913,-0.12114 -0.98164,-0.23384 -1.47656,-0.33985 -0.23021,-0.0493 -0.45999,-0.0985 -0.69141,-0.14453 -1.40307,-0.27887 -2.82726,-0.49671 -4.27148,-0.65039 -0.20966,-0.0223 -0.4204,-0.0409 -0.63086,-0.0605 -0.534,-0.0497 -1.07042,-0.089 -1.60938,-0.1211 -0.22453,-0.0134 -0.44846,-0.0288 -0.67382,-0.0391 -0.73717,-0.0336 -1.47719,-0.0566 -2.22266,-0.0566 h -77.54883 -0.002 c -0.55793,-0.40376 -1.11102,-0.8084 -1.6582,-1.20508 -2.62614,-1.90686 -4.6484,-3.38108 -7.37696,-5.36133 -4.20425,-3.06525 -9.44431,-7.20858 -15.30273,-11.69531 -1.46401,-1.12156 -2.96724,-2.26519 -4.50195,-3.41797 -3.07042,-2.30622 -6.27001,-4.65221 -9.54493,-6.94531 -14.13113,-9.89488 -29.67319,-18.79349 -42.43359,-19.33594 -0.5494,-0.0305 -1.09449,-0.0471 -1.63086,-0.0391 z m -79.75976,168 c -1.10501,0 -2.18281,0.11117 -3.22461,0.32422 -1.0418,0.21304 -2.04672,0.52695 -3.00391,0.93164 -0.95718,0.40469 -1.86758,0.89969 -2.71875,1.47461 -0.85118,0.57492 -1.64344,1.22937 -2.36719,1.95312 -0.72375,0.72375 -1.3782,1.51797 -1.95312,2.36914 -0.57492,0.85118 -1.06992,1.75961 -1.47461,2.7168 -0.40468,0.95719 -0.72055,1.96211 -0.9336,3.00391 -0.21305,1.0418 -0.32421,2.12155 -0.32421,3.22656 v 16 c 0,1.105 0.11116,2.18281 0.32421,3.22461 0.21305,1.04179 0.52892,2.04672 0.9336,3.0039 0.40469,0.95719 0.89969,1.86759 1.47461,2.71875 0.57492,0.85117 1.22937,1.64345 1.95312,2.36719 0.72375,0.72374 1.51601,1.37821 2.36719,1.95313 0.85117,0.57491 1.76157,1.06993 2.71875,1.47461 0.95719,0.40468 1.96211,0.71859 3.00391,0.93164 1.0418,0.21304 2.11961,0.32617 3.22461,0.32617 h 160 c 1.10498,0 2.1828,-0.11313 3.2246,-0.32617 1.0418,-0.21305 2.04672,-0.52696 3.00391,-0.93164 0.95718,-0.40468 1.86757,-0.8997 2.71875,-1.47461 0.85117,-0.57492 1.64344,-1.22939 2.36719,-1.95313 0.72375,-0.72374 1.3782,-1.51602 1.95312,-2.36719 0.57492,-0.85116 1.06992,-1.76156 1.47461,-2.71875 0.40469,-0.95718 0.72056,-1.96211 0.9336,-3.0039 0.21305,-1.0418 0.32422,-2.11961 0.32422,-3.22461 v -16 c -10e-6,-1.10501 -0.11117,-2.18476 -0.32422,-3.22656 -0.21304,-1.0418 -0.52891,-2.04672 -0.9336,-3.00391 -0.40469,-0.95719 -0.89969,-1.86562 -1.47461,-2.7168 -0.57492,-0.85117 -1.22937,-1.64539 -1.95312,-2.36914 -0.72375,-0.72375 -1.51602,-1.3782 -2.36719,-1.95312 -0.85118,-0.57492 -1.76157,-1.06992 -2.71875,-1.47461 -0.95719,-0.40469 -1.96211,-0.7186 -3.00391,-0.93164 -1.0418,-0.21305 -2.11961,-0.32422 -3.2246,-0.32422 z m -176.240239,82.85937 v 213.13868 0.002 c 0,0.82591 0.02115,1.64728 0.0625,2.46289 0.01517,0.3 0.0477,0.596 0.06836,0.89453 0.09187,1.32433 0.222803,2.63708 0.419922,3.92969 0.243741,1.60046 0.567133,3.17436 0.964844,4.71875 0.196462,0.76277 0.410055,1.51802 0.642578,2.26562 1.869889,6.01279 4.889524,11.51804 8.802734,16.25977 l 0.002,0.002 c 0.486989,0.59025 0.987805,1.16835 1.501953,1.73438 0.0016,0.002 0.0023,0.004 0.0039,0.006 0.512673,0.56424 1.039443,1.11521 1.578125,1.65429 0.0039,0.004 0.0078,0.008 0.01172,0.0117 3.800457,3.80068 8.234051,6.96667 13.13086,9.32617 h 0.002 c 6.29494,3.0329 13.353288,4.73438 20.808594,4.73438 H 487.93164 c 1.65688,0 3.29455,-0.0838 4.9082,-0.24805 1.61364,-0.16387 3.20328,-0.40881 4.76563,-0.72851 0.78117,-0.15985 1.55527,-0.33786 2.32226,-0.53516 0.76685,-0.1973 1.52779,-0.4147 2.2793,-0.64844 0.75092,-0.2335 1.49395,-0.48309 2.22852,-0.75195 l 0.002,-0.002 c 0.44472,-0.1628 0.87995,-0.34407 1.31836,-0.51954 0.28579,-0.11441 0.57828,-0.22012 0.86133,-0.33984 0.0172,-0.007 0.0336,-0.0161 0.0508,-0.0234 5.72138,-2.42809 10.87537,-5.93397 15.20508,-10.26367 0.54289,-0.54289 1.07334,-1.09774 1.58984,-1.66601 1.033,-1.13656 2.01219,-2.32458 2.93359,-3.55664 0.9214,-1.23208 1.78419,-2.50858 2.58594,-3.82813 0.80177,-1.31953 1.54272,-2.68112 2.2168,-4.08008 0.67381,-1.39843 1.28212,-2.83491 1.82031,-4.30469 v -0.002 c 0.26896,-0.7346 0.52033,-1.4776 0.75391,-2.22851 v -0.002 c 0.23355,-0.75092 0.44932,-1.50916 0.64648,-2.27539 v -0.002 c 0.39443,-1.53309 0.71624,-3.09525 0.95899,-4.68359 v -0.002 c 0.24278,-1.589 0.40729,-3.20358 0.49023,-4.83984 0.0415,-0.81812 0.0625,-1.64032 0.0625,-2.46875 v -0.002 -213.13868 l -209.14062,151.08008 c -14.02001,10.12001 -30.43936,15.18945 -46.85938,15.18945 -16.42,0 -32.83936,-5.05938 -46.85937,-15.18945 z m 176.240239,13.14063 c -1.10501,0 -2.18281,0.11117 -3.22461,0.32422 -1.0418,0.21304 -2.04672,0.52695 -3.00391,0.93164 -0.95718,0.40469 -1.86758,0.89968 -2.71875,1.47461 -0.85118,0.57492 -1.64344,1.22937 -2.36719,1.95312 -0.72375,0.72375 -1.3782,1.51797 -1.95312,2.36914 -0.57492,0.85118 -1.06992,1.75961 -1.47461,2.7168 -0.40468,0.95719 -0.72055,1.96211 -0.9336,3.00391 -0.21305,1.04179 -0.32421,2.12156 -0.32421,3.22656 v 16 c 0,1.105 0.11116,2.18281 0.32421,3.22461 0.21305,1.0418 0.52892,2.04671 0.9336,3.0039 0.40469,0.95719 0.89969,1.86758 1.47461,2.71875 0.57492,0.85118 1.22937,1.64344 1.95312,2.36719 0.72375,0.72375 1.51601,1.3782 2.36719,1.95313 0.85117,0.57492 1.76157,1.06992 2.71875,1.47461 0.95719,0.40468 1.96211,0.71859 3.00391,0.93164 1.0418,0.21304 2.11961,0.32617 3.22461,0.32617 h 160 c 1.10498,0 2.1828,-0.11313 3.2246,-0.32617 1.0418,-0.21305 2.04672,-0.52696 3.00391,-0.93164 0.95718,-0.40469 1.86757,-0.89969 2.71875,-1.47461 0.85117,-0.57493 1.64344,-1.22938 2.36719,-1.95313 0.72375,-0.72375 1.3782,-1.51601 1.95312,-2.36719 0.57492,-0.85117 1.06992,-1.76156 1.47461,-2.71875 0.40469,-0.95719 0.72056,-1.9621 0.9336,-3.0039 0.21305,-1.0418 0.32422,-2.11961 0.32422,-3.22461 v -16 c -10e-6,-1.105 -0.11117,-2.18477 -0.32422,-3.22656 -0.21304,-1.0418 -0.52891,-2.04672 -0.9336,-3.00391 -0.40469,-0.95719 -0.89969,-1.86562 -1.47461,-2.7168 -0.57492,-0.85117 -1.22937,-1.64539 -1.95312,-2.36914 -0.72375,-0.72375 -1.51602,-1.3782 -2.36719,-1.95312 -0.85118,-0.57493 -1.76157,-1.06992 -2.71875,-1.47461 -0.95719,-0.40469 -1.96211,-0.7186 -3.00391,-0.93164 -1.0418,-0.21305 -2.11961,-0.32422 -3.2246,-0.32422 z"
       inkscape:connector-curvature="0"
       style="fill:#bdbdbd;fill-opacity:1" />
    <path
       sodipodi:nodetypes="cccccscsccccccccsscccscsccscccscccsscccscccsssccscccssscccscsccscscscccsscccsccssscccscccs"
       inkscape:connector-curvature="0"
       style="fill:#ffffff"
       id="path1481"
       d="m 439.93164,-464.31412 v -187.79916 h -320 v 187.80502 c 21.17549,15.53727 48.94106,32.52141 86.58789,59.84342 4.2135,3.07175 9.4593,7.21821 15.31835,11.70507 5.85906,4.48686 12.33146,9.31383 19.00391,13.7461 3.33623,2.21613 6.72193,4.3348 10.10547,6.26172 3.38354,1.92692 6.76496,3.66319 10.0918,5.11718 3.32684,1.454 6.5995,2.62453 9.76562,3.42188 1.58306,0.39868 3.14069,0.70423 4.66406,0.9043 1.48204,0.19464 2.9284,0.28039 4.3418,0.26562 23.19814,0.25103 56.498,-29.17634 73.29492,-41.42187 37.65051,-27.32441 65.41246,-44.30945 86.58594,-59.84537 v 0.16992 z m -240,-115.79916 h 160 c 1.105,0 2.1828,0.11117 3.2246,0.32422 1.0418,0.21304 2.04672,0.52695 3.00391,0.93164 0.95718,0.40469 1.86757,0.89969 2.71875,1.47461 0.85117,0.57492 1.64344,1.22937 2.36719,1.95312 0.72375,0.72375 1.3782,1.51797 1.95312,2.36914 0.57492,0.85118 1.06992,1.75961 1.47461,2.7168 0.40469,0.95719 0.72056,1.96211 0.9336,3.00391 0.21305,1.0418 0.32421,2.12155 0.32422,3.22656 v 16 c 0,1.105 -0.11117,2.18281 -0.32422,3.22461 -0.21304,1.04179 -0.52891,2.04672 -0.9336,3.0039 -0.40469,0.95719 -0.89969,1.86759 -1.47461,2.71875 -0.57492,0.85117 -1.22937,1.64345 -1.95312,2.36719 -0.72375,0.72374 -1.51602,1.37821 -2.36719,1.95313 -0.85118,0.57491 -1.76157,1.06993 -2.71875,1.47461 -0.95719,0.40468 -1.96211,0.71859 -3.00391,0.93164 -1.0418,0.21304 -2.11961,0.32617 -3.2246,0.32617 h -160 c -1.105,0 -2.18281,-0.11313 -3.22461,-0.32617 -1.0418,-0.21305 -2.04672,-0.52696 -3.00391,-0.93164 -0.95718,-0.40468 -1.86758,-0.8997 -2.71875,-1.47461 -0.85118,-0.57492 -1.64344,-1.22939 -2.36719,-1.95313 -0.72375,-0.72374 -1.3782,-1.51602 -1.95312,-2.36719 -0.57492,-0.85116 -1.06992,-1.76156 -1.47461,-2.71875 -0.40468,-0.95718 -0.72055,-1.96211 -0.9336,-3.0039 -0.21305,-1.0418 -0.32421,-2.11961 -0.32421,-3.22461 v -16 c 0,-1.10501 0.11116,-2.18476 0.32421,-3.22656 0.21305,-1.0418 0.52892,-2.04672 0.9336,-3.00391 0.40469,-0.95719 0.89969,-1.86562 1.47461,-2.7168 0.57492,-0.85117 1.22937,-1.64539 1.95312,-2.36914 0.72375,-0.72375 1.51601,-1.3782 2.36719,-1.95312 0.85117,-0.57492 1.76157,-1.06992 2.71875,-1.47461 0.95719,-0.40469 1.96211,-0.7186 3.00391,-0.93164 1.0418,-0.21305 2.1196,-0.32422 3.22461,-0.32422 z m 0,96 h 160 c 1.105,0 2.1828,0.11117 3.2246,0.32422 1.0418,0.21304 2.04672,0.52695 3.00391,0.93164 0.95718,0.40469 1.86757,0.89968 2.71875,1.47461 0.85117,0.57492 1.64344,1.22937 2.36719,1.95312 0.72375,0.72375 1.3782,1.51797 1.95312,2.36914 0.57492,0.85118 1.06992,1.75961 1.47461,2.7168 0.40469,0.95719 0.72056,1.96211 0.9336,3.00391 0.21305,1.04179 0.32421,2.12156 0.32422,3.22656 v 16 c 0,1.105 -0.11117,2.18281 -0.32422,3.22461 -0.21304,1.0418 -0.52891,2.04671 -0.9336,3.0039 -0.40469,0.95719 -0.89969,1.86758 -1.47461,2.71875 -0.57492,0.85118 -1.22937,1.64344 -1.95312,2.36719 -0.72375,0.72375 -1.51602,1.3782 -2.36719,1.95313 -0.85118,0.57492 -1.76157,1.06992 -2.71875,1.47461 -0.95719,0.40468 -1.96211,0.71859 -3.00391,0.93164 -1.0418,0.21304 -2.11961,0.32617 -3.2246,0.32617 h -160 c -1.105,0 -2.18281,-0.11313 -3.22461,-0.32617 -1.0418,-0.21305 -2.04672,-0.52696 -3.00391,-0.93164 -0.95718,-0.40469 -1.86758,-0.89969 -2.71875,-1.47461 -0.85118,-0.57493 -1.64344,-1.22938 -2.36719,-1.95313 -0.72375,-0.72375 -1.3782,-1.51601 -1.95312,-2.36719 -0.57492,-0.85117 -1.06992,-1.76156 -1.47461,-2.71875 -0.40468,-0.95719 -0.72055,-1.9621 -0.9336,-3.0039 -0.21305,-1.0418 -0.32421,-2.11961 -0.32421,-3.22461 v -16 c 0,-1.105 0.11116,-2.18477 0.32421,-3.22656 0.21305,-1.0418 0.52892,-2.04672 0.9336,-3.00391 0.40469,-0.95719 0.89969,-1.86562 1.47461,-2.7168 0.57492,-0.85117 1.22937,-1.64539 1.95312,-2.36914 0.72375,-0.72375 1.51601,-1.3782 2.36719,-1.95312 0.85117,-0.57493 1.76157,-1.06992 2.71875,-1.47461 0.95719,-0.40469 1.96211,-0.7186 3.00391,-0.93164 1.0418,-0.21305 2.1196,-0.32422 3.22461,-0.32422 z" />
  </g>
</svg>
