<?xml version="1.0" encoding="UTF-8"?>
<svg width="128" height="128" version="1.1" viewBox="0 0 128 128" xmlns="http://www.w3.org/2000/svg" xmlns:cc="http://creativecommons.org/ns#" xmlns:dc="http://purl.org/dc/elements/1.1/" xmlns:rdf="http://www.w3.org/1999/02/22-rdf-syntax-ns#"><title>Image</title><metadata><rdf:RDF><cc:Work rdf:about=""><dc:format>image/svg+xml</dc:format><dc:type rdf:resource="http://purl.org/dc/dcmitype/StillImage"/><dc:title>Image</dc:title><dc:date>June 2019</dc:date><dc:creator><cc:Agent><dc:title>Sujaykumar Hublikar</dc:title></cc:Agent></dc:creator><dc:rights><cc:Agent><dc:title>Creative Commons Attribution-NonCommercial-ShareAlike 4.0 International License.</dc:title></cc:Agent></dc:rights><dc:publisher><cc:Agent><dc:title>Sujaykumar Hublikar</dc:title></cc:Agent></dc:publisher><dc:subject><rdf:Bag><rdf:li>image</rdf:li></rdf:Bag></dc:subject><dc:description>Image</dc:description><dc:contributor><cc:Agent><dc:title>https://github.com/Sujaykumarh</dc:title></cc:Agent></dc:contributor><cc:license rdf:resource="http://creativecommons.org/licenses/by-nc-sa/4.0/"/></cc:Work><cc:License rdf:about="http://creativecommons.org/licenses/by-nc-sa/4.0/"><cc:permits rdf:resource="http://creativecommons.org/ns#Reproduction"/><cc:permits rdf:resource="http://creativecommons.org/ns#Distribution"/><cc:requires rdf:resource="http://creativecommons.org/ns#Notice"/><cc:requires rdf:resource="http://creativecommons.org/ns#Attribution"/><cc:prohibits rdf:resource="http://creativecommons.org/ns#CommercialUse"/><cc:permits rdf:resource="http://creativecommons.org/ns#DerivativeWorks"/><cc:requires rdf:resource="http://creativecommons.org/ns#ShareAlike"/></cc:License></rdf:RDF></metadata><path d="m91.096 17.676c-4.9476 0.93073-4.2301 8.226 0.80394 8.1752l4.2437 0.0077-35.289 42.259-6.0449-7.3536c-2.2726-2.7634-6.4089-3.0277-9.0148-0.5761l-21.999 24.645c-2.5396 2.3295-2.6854 6.2854-0.32408 8.7955s6.3187 2.6061 8.7989 0.21342l17.185-20.114 5.9787 7.2708c2.2475 2.7332 6.3259 3.027 8.942 0.6441l39.216-45.837-0.32208 2.8155c-0.28142 2.2749 1.3466 4.3426 3.624 4.6028s4.3299-1.387 4.5688-3.6668l1.8918-16.547c0.51547-1.6225-0.0192-3.395-1.3459-4.4618-5e-3 -0.0032-8e-3 -0.0064-0.0129-0.0095-0.0297-0.02358-0.0598-0.04674-0.0902-0.06947-0.83924-0.66317-1.9034-0.97425-2.9676-0.86756-0.0816 0.0097-0.16282 0.02198-0.24365 0.03668l-16.778-0.03289c-0.27501-0.0042-0.54974 0.01918-0.8201 0.06971z" color="#000000" color-rendering="auto" dominant-baseline="auto" fill="#e9e3e9" fill-opacity=".81643" image-rendering="auto" shape-rendering="auto" solid-color="#000000" style="font-feature-settings:normal;font-variant-alternates:normal;font-variant-caps:normal;font-variant-ligatures:normal;font-variant-numeric:normal;font-variant-position:normal;isolation:auto;mix-blend-mode:normal;paint-order:normal;shape-padding:0;text-decoration-color:#000000;text-decoration-line:none;text-decoration-style:solid;text-indent:0;text-orientation:mixed;text-transform:none;white-space:normal"/><g transform="matrix(1.9112 0 0 1.9112 275.98 -66.507)"><path d="m45.196 73.967c-0.43388-3.6045-3.738-6.3126-7.5475-7.5666 1.7355 1.8785 2.9751 4.7965 2.9751 8.3771h1.3398l-5.5593 6.1744c-0.1192-0.02859-0.22886-0.07152-0.35759-0.07152h-2.2886v-6.1029h5.34c0-5.4926-3.2851-9.1543-6.1029-9.1543-2.8178 0-6.1029 3.6617-6.1029 9.1543h5.34v6.1029h-2.2886c-0.12873 0-0.23839 0.04291-0.35759 0.07152l-5.5593-6.1744h1.3398c0-3.5807 1.2396-6.4986 2.9751-8.3771-3.8095 1.2587-7.1136 3.9669-7.5475 7.5666-0.05245 0.43388 0.32422 0.81054 0.76286 0.81054h0.4148l6.5177 7.2424c-0.03337 0.12397-0.07629 0.24793-0.07629 0.3862v6.1029c0 0.84391 0.6818 1.5257 1.5257 1.5257h6.1029c0.84391 0 1.5257-0.6818 1.5257-1.5257v-6.1029c0-0.13827-0.04291-0.25746-0.07629-0.3862l6.5224-7.2424h0.4148c0.44341 0 0.82007-0.3719 0.76762-0.81054z" fill="#80b3ff" stroke-width=".047679"/><path d="m31.119 81.236v2.582h-2.3789v0.5h2.3789v2.6172h-2.3789v0.5h2.3789v2.3105h0.5v-2.3105h2.7539v2.3105h0.5v-2.3105h2.377v-0.5h-2.377v-2.6172h2.377v-0.5h-2.377v-2.582h-0.5v2.582h-2.7539v-2.582zm0.5 3.082h2.7539v2.6172h-2.7539z" color="#000000" color-rendering="auto" dominant-baseline="auto" fill="#fff" image-rendering="auto" shape-rendering="auto" solid-color="#000000" style="font-feature-settings:normal;font-variant-alternates:normal;font-variant-caps:normal;font-variant-ligatures:normal;font-variant-numeric:normal;font-variant-position:normal;isolation:auto;mix-blend-mode:normal;shape-padding:0;text-decoration-color:#000000;text-decoration-line:none;text-decoration-style:solid;text-indent:0;text-orientation:mixed;text-transform:none;white-space:normal"/></g><path d="m61.526 78.121h-8.6934c-0.80963 0-1.5889 0.30361-2.186 0.85011l-9.9483 9.1083c-0.01012 0.01056-0.02023 0.03038-0.03038 0.04054-1.68 1.5788-1.6496 4.0987-0.21253 5.6674 1.2853 1.4067 3.9874 1.7812 5.6775 0.27326 0.01012-0.01056 0.03038-0.01056 0.04048-0.0202l8.0862-7.4081c0.65782-0.59711 1.6901-0.55662 2.2872 0.10116 0.60722 0.65783 0.55662 1.68-0.1012 2.2872l-2.6414 2.4188 14.735 11.962c0.29349 0.24288 0.55662 0.50601 0.7995 0.77925v-19.583l-5.5257-5.5257c-0.5971-0.60722-1.427-0.95131-2.2872-0.95131zm11.062 6.4973v22.66c0 1.7913 1.4472 3.2385 3.2385 3.2385h6.477v-25.898zm4.8578 22.66c-0.89058 0-1.6193-0.72867-1.6193-1.6193s0.72867-1.6192 1.6193-1.6192c0.8906 0 1.6193 0.72865 1.6193 1.6192s-0.72867 1.6193-1.6193 1.6193zm-59.913 3.2284h6.477c1.7913 0 3.2385-1.4472 3.2385-3.2385v-22.649h-9.7156zm4.8578-6.4669c0.8906 0 1.6193 0.72865 1.6193 1.6192s-0.72867 1.6193-1.6193 1.6193c-0.89059 0-1.6193-0.72867-1.6193-1.6193 0-0.90071 0.72867-1.6192 1.6193-1.6192zm44.115 1.8824-15.11-12.266-3.0361 2.7831c-3.0058 2.7426-7.6105 2.4795-10.292-0.44529-2.7224-2.9754-2.5099-7.5802 0.44529-10.292l8.2785-7.5802h-8.4809c-0.86023 0-1.68 0.34409-2.2872 0.95131l-5.5358 5.5257v22.66h1.852l9.1589 8.2886c2.773 2.2568 6.8515 1.8318 9.1083-0.9412l0.02024-0.0202 1.8115 1.5687c1.6091 1.3156 3.9874 1.0626 5.293-0.5465l3.1778-3.9065 0.5465 0.44529c1.3865 1.1234 3.4308 0.92096 4.5542-0.47565l0.96142-1.1841c1.1335-1.3966 0.92096-3.4308-0.46554-4.5643z" fill="#ddafe9" stroke-width=".1012"/><g transform="matrix(.83123 0 0 .83123 6.4041 -46.961)"><path d="m71.871 71.702a2.5978 2.5978 0 0 0-1.4144 0.36528l-8.7991 5.0814a2.5978 2.5978 0 1 0 2.5975 4.499l8.7991-5.0814a2.5978 2.5978 0 0 0-1.1831-4.8643zm-19.944 0.7894c-0.57362 0-1.1428 0.19236-1.6092 0.56618l-6.8509 5.4812c-3.4409 2.7505-7.76 4.2656-12.164 4.2656h-15.469c-2.848 0-5.1565 2.3085-5.1565 5.1565v7.7337c0 2.848 2.3085 5.1565 5.1565 5.1565h2.7152c-0.11198 0.84433-0.17655 1.7023-0.17655 2.5772 0 3.2041 0.74654 6.2329 2.0597 8.9391 0.41813 0.86124 1.332 1.3738 2.2891 1.3738h5.9844c2.0987 0 3.3582-2.4035 2.0861-4.0728-1.3213-1.7338-2.1064-3.8973-2.1064-6.2401 0-0.89507 0.13036-1.7546 0.35513-2.5772h2.2627c4.4037 0 8.7236 1.5151 12.164 4.2656l6.8489 5.4812a2.5799 2.5799 0 0 0 1.6113 0.56618c2.0077 0 2.5772-1.8364 2.5772-2.5792v-12.316c1.5356-0.89346 2.5793-2.5384 2.5793-4.4422 0-1.9037-1.0445-3.5475-2.5793-4.4401v-12.316c0-0.70494-0.56149-2.5793-2.5772-2.5793zm-2.5793 7.9427v22.787l-2.6625-2.1308c-4.3505-3.4804-9.8135-5.3959-15.382-5.3959v-7.7337c5.5686 0 11.032-1.9155 15.382-5.3959zm13.615 7.3745a2.5978 2.5978 0 1 0 0 5.195h10.161a2.5978 2.5978 0 1 0 0-5.195zm0.06087 10.991a2.5978 2.5978 0 0 0-1.3657 4.8643l8.7991 5.0794a2.5978 2.5978 0 1 0 2.5975-4.499l-8.7991-5.0794a2.5978 2.5978 0 0 0-1.2318-0.36527z" fill="#ee7fab" stroke-width=".080565"/><path d="m17.439 87.893c-1.2327 0-2.2315 0.99881-2.2315 2.2315v3.3482c0 1.2327 0.99881 2.2315 2.2315 2.2315h0.66521v-7.8112zm2.2496 0v7.8112h1.282v-7.8112z" fill="#fffdfe" stroke-width=".034871"/><path d="m49.348 80.433-2.6621 2.1309c-4.3505 3.4804-9.8142 5.3965-15.383 5.3965v7.7344c5.5686 1e-6 11.032 1.9141 15.383 5.3945l2.6621 2.1309z" fill="#fff" stroke-width=".080565"/></g><path d="m101.57 57.96-0.50426 0.87939c-0.18449 0.32593-0.57806 0.46122-0.92859 0.33208-0.72565-0.27058-1.3898-0.658-1.974-1.1438-0.28289-0.23368-0.35668-0.64571-0.17219-0.96548l0.50427-0.87939c-0.42432-0.49197-0.75641-1.0639-0.97779-1.685h-1.0147c-0.36898 0-0.68874-0.26443-0.75025-0.6334-0.12291-0.73795-0.12919-1.5128 0-2.2815 0.0614-0.36897 0.38127-0.63956 0.75025-0.63956h1.0147c0.22138-0.62111 0.55347-1.193 0.97779-1.685l-0.50427-0.87939c-0.18449-0.31978-0.1168-0.7318 0.17219-0.96548 0.58421-0.48582 1.2545-0.87325 1.974-1.1438 0.35053-0.12914 0.7441 0.0061 0.92859 0.33208l0.50426 0.87939c0.64571-0.11685 1.3037-0.11685 1.9494 0l0.50426-0.87939c0.1845-0.32593 0.57806-0.46122 0.92859-0.33208 0.72566 0.27058 1.3898 0.65801 1.974 1.1438 0.28287 0.23368 0.35667 0.6457 0.17219 0.96548l-0.50426 0.87939c0.42432 0.49196 0.75639 1.0639 0.97778 1.685h1.0147c0.36898 0 0.68876 0.26443 0.75025 0.63341 0.12291 0.73795 0.12919 1.5128 0 2.2815-0.0614 0.36898-0.38127 0.63956-0.75025 0.63956h-1.0147c-0.22139 0.62111-0.55346 1.193-0.97778 1.685l0.50426 0.87939c0.18448 0.31978 0.1168 0.7318-0.17219 0.96548-0.58421 0.48582-1.2545 0.87324-1.974 1.1438-0.35053 0.12914-0.74409-0.0061-0.92859-0.33208l-0.50426-0.87939c-0.63954 0.11685-1.3037 0.11685-1.9494 0zm-0.6457-3.616c2.3676 1.8203 5.0673-0.87939 3.247-3.247-2.3676-1.8264-5.0672 0.87939-3.247 3.247zm-7.0905 9.4642 2.0724 1.0331c0.62112 0.35668 0.8917 1.1131 0.64572 1.7895-0.54732 1.4882-1.6235 2.8534-2.6197 4.0464-0.45506 0.54732-1.2422 0.68261-1.8633 0.32593l-1.7895-1.0331c-0.98393 0.84249-2.1278 1.5128-3.3761 1.9494v2.0663c0 0.71334-0.51042 1.3283-1.2115 1.4513-1.5128 0.25828-3.0994 0.27058-4.6675 0-0.7072-0.123-1.2299-0.7318-1.2299-1.4513v-2.0663c-1.2484-0.44276-2.3922-1.1069-3.3761-1.9494l-1.7895 1.027c-0.61496 0.35668-1.4083 0.22138-1.8633-0.32593-0.99623-1.193-2.0478-2.5582-2.5951-4.0403-0.24598-0.6703 0.0246-1.4267 0.64571-1.7895l2.0478-1.0331c-0.23984-1.2853-0.23984-2.6074 0-3.8988l-2.0478-1.0393c-0.62111-0.35668-0.89784-1.1131-0.64571-1.7834 0.54732-1.4882 1.5989-2.8534 2.5951-4.0464 0.45507-0.54731 1.2422-0.6826 1.8633-0.32593l1.7895 1.0331c0.98393-0.8425 2.1278-1.5128 3.3761-1.9494v-2.0724c0-0.7072 0.50426-1.3222 1.2053-1.4452 1.5128-0.25828 3.1055-0.27058 4.6737-0.0063 0.7072 0.12299 1.2299 0.7318 1.2299 1.4513v2.0663c1.2484 0.44277 2.3922 1.1069 3.3761 1.9494l1.7895-1.0331c0.61496-0.35668 1.4083-0.22139 1.8633 0.32593 0.99624 1.193 2.0417 2.5582 2.589 4.0464 0.24599 0.67031 7e-3 1.4267-0.61497 1.7895l-2.0724 1.0331c0.23984 1.2914 0.23984 2.6136 0 3.905zm-7.2319 1.2976c3.6406-4.7352-1.7649-10.141-6.5001-6.5001-3.6406 4.7352 1.7649 10.141 6.5001 6.5001zm14.968 11.235-0.50426 0.8794c-0.18449 0.32592-0.57806 0.46122-0.92859 0.33207-0.72565-0.27058-1.3898-0.658-1.974-1.1438-0.28289-0.23368-0.35668-0.6457-0.17219-0.96549l0.50427-0.87939c-0.42432-0.49197-0.75641-1.0639-0.97779-1.685h-1.0147c-0.36898 0-0.68874-0.26444-0.75025-0.63341-0.12291-0.73796-0.12919-1.5128 0-2.2815 0.0614-0.36897 0.38127-0.63956 0.75025-0.63956h1.0147c0.22138-0.62111 0.55347-1.193 0.97779-1.685l-0.50427-0.87939c-0.18449-0.31978-0.1168-0.73181 0.17219-0.96549 0.58421-0.48582 1.2545-0.87324 1.974-1.1438 0.35053-0.12914 0.7441 6e-3 0.92859 0.33207l0.50426 0.87939c0.64571-0.11684 1.3037-0.11684 1.9494 0l0.50426-0.87939c0.1845-0.32592 0.57806-0.46122 0.92859-0.33207 0.72566 0.27058 1.3898 0.658 1.974 1.1438 0.28287 0.23368 0.35667 0.64571 0.17219 0.96549l-0.50426 0.87939c0.42432 0.49196 0.75639 1.0639 0.97778 1.685h1.0147c0.36898 0 0.68876 0.26443 0.75025 0.63341 0.12291 0.73795 0.12919 1.5128 0 2.2815-0.0614 0.36898-0.38127 0.63957-0.75025 0.63957h-1.0147c-0.22139 0.6211-0.55346 1.193-0.97778 1.685l0.50426 0.87939c0.18448 0.31979 0.1168 0.73181-0.17219 0.96549-0.58421 0.48582-1.2545 0.87324-1.974 1.1438-0.35053 0.12914-0.74409-6e-3 -0.92859-0.33207l-0.50426-0.8794c-0.63954 0.11685-1.3037 0.11685-1.9494 0zm-0.6457-3.6221c2.3676 1.8203 5.0673-0.87938 3.247-3.247-2.3676-1.8203-5.0672 0.87939-3.247 3.247z" fill="#b6b6cf" fill-opacity=".96618" stroke-width=".061496"/></svg>
