<?xml version="1.0" encoding="UTF-8"?>
<svg width="1024" height="1024" version="1.1" viewBox="0 0 1024 1024" xmlns="http://www.w3.org/2000/svg" xmlns:cc="http://creativecommons.org/ns#" xmlns:dc="http://purl.org/dc/elements/1.1/" xmlns:rdf="http://www.w3.org/1999/02/22-rdf-syntax-ns#"><metadata><rdf:RDF><cc:Work rdf:about=""><dc:format>image/svg+xml</dc:format><dc:type rdf:resource="http://purl.org/dc/dcmitype/StillImage"/><dc:title/></cc:Work></rdf:RDF></metadata><g transform="translate(0 -98.52)"><g transform="matrix(-.2837 0 0 .2837 3250.1 316.25)"><ellipse cx="9651.4" cy="2426.6" rx="1638.7" ry="159.2" fill="#ebebeb" fill-rule="evenodd" style="paint-order:markers stroke fill"/><g transform="matrix(6.5745 0 0 6.5745 6945.4 -4432.7)"><path d="m370.92 793.54 20.642 4.0933-7.2761 14.935-23.552-9.9567z" fill="#ffc289"/><path d="m296.63 699.04c25.77-2.1125 33 69.287 38.365 78.434 10.035 11.748 27.183 12.998 35.919 16.069 2.5189 13.32 0.66939 6.6501-2.7178 18.263 0 0-27.416 8.6755-56.446-1.4798-17.016-21.549-40.89-109.17-15.12-111.29z" fill="#44b0ce"/><rect transform="rotate(-30.798)" x="-78.496" y="1019.4" width="29.643" height="54.286" rx="22.627" ry="8.3103" fill="#ffc289" fill-rule="evenodd" style="paint-order:markers stroke fill"/><rect transform="rotate(-8.5006)" x="267.45" y="1035" width="29.643" height="54.286" rx="22.627" ry="8.3103" fill="#ffd0a5" fill-rule="evenodd" style="paint-order:markers stroke fill"/><path d="m316.18 823.93s120.54-3.685 128.29 0c9.2569 4.4003 52.023 97.985 52.023 97.985l-32.325 18.183-55.558-73.741z" fill="#37587b"/><path d="m264.66 848.68 51.518-24.749s81.156 7.5601 112.63 20.708c13.374 5.5865 25.956 99.948 24.723 154.05l-39.105 2.3774c-1.2438-11.42-9.0562-108.26-13.902-114-4.8461-5.7441-74.359-0.48031-106.57-1.5152s-29.294-36.871-29.294-36.871z" fill="#41658b"/><path d="m351.31 631.62c6.9665 16.147 3.1001 41.516-11.364 51.518-5.317 3.6765-14.615-7.3423-19.193-2.7779-8.0676 8.0443 14.47 27.819 4.7983 33.84-13.835 8.6127-37.135-11.561-40.406-27.527-1.4438-7.0459 9.4878-11.313 11.617-18.183 3.0666-9.8953-3.5489-21.76 1.0102-31.062 5.0516-10.307 15.071-21.094 26.516-21.971 10.465-0.80147 22.864 6.5257 27.022 16.162z" fill="#ffd0a5"/><path d="m353.48 628.55c-6.8955 5.2893-18.861-4.8511-26.071 0-6.2913 4.2328 0.4642 19.709-6.5511 22.587-9.9367 5.7924-6.1914-6.6249-17.334-8.5281-11.814 2.9353 0.9071 23.012-7.7959 25.375-19.656-2.1402-17.69-46.308-8.5535-60.444 9.1367-14.136 70.837-12.08 74.163-8.2756 3.3259 3.8048 0.1623 23.134-7.8572 29.286z" fill="#666"/><path d="m265.17 857.77c10.442 6.7964 27.722 2.3226 42.402-5.1489 14.679-7.4715 26.757-17.941 26.794-23.135 2.3139-116.74-3.5367-150.03-37.336-154.02-30.442-3.5956-59.543 66.243-31.86 182.3z" fill="#5fbcd3"/><path d="m370.73 799.68s24.096-9.2148 30.305-9.849 27.275 19.697 23.486 23.486c-1.784 1.7839-14.581-7.2096-19.951-6.3135s-2.2181 4.5002-9.0914 6.566-27.274-1.7678-27.274-1.7678z" fill="#ffd0a5"/><path d="m304.06 706.24c28.457-1.4108 10.073 69.537 15.657 79.802 10.635 13.295 43.521 8.9347 53.033 12.627 6.4812 12.784 4.1432 15.11 0 27.779 0 0-48.19 7.1654-79.802-5.0508-17.975-24.338-17.345-113.75 11.112-115.16z" fill="#87cdde"/><path d="m480.5 740.43c-1.6577-0.10117-3.2051 0.96751-3.6524 2.6367l-19.062 71.145h-75.377c-2.5685 0-4.6348 2.0682-4.6348 4.6367 0 2.5685 2.0662 4.6348 4.6348 4.6348h75.637c0.9953 0 1.9103-0.31591 2.6641-0.8457 1.3518-0.20947 2.5166-1.1871 2.8945-2.5977l20.131-75.127c0.51116-1.9077-0.61382-3.856-2.5215-4.3672-0.23846-0.0639-0.47608-0.10078-0.71289-0.11523z" fill="#666" fill-rule="evenodd" style="paint-order:markers stroke fill"/><g transform="translate(-295.97)"><rect x="715.31" y="1037.8" width="84.687" height="8.3103" rx="3.2143" ry="3.2143" fill="#ccc" fill-rule="evenodd" style="paint-order:markers stroke fill"/><path d="m716.05 1016c32.279 14.197 27.178-4.2053 35.802-2.5525l46.656 17.765c2.3126 2.8138 4.1903 7.9915 1.8367 10.771l-85.027-0.2797c-5.9638-6.1564-5.1976-19.515 0.73262-25.704z" fill="#666"/></g><g transform="rotate(-12.553 287.19 2089.3)"><rect x="715.31" y="1037.8" width="84.687" height="8.3103" rx="3.2143" ry="3.2143" fill="#bababa" fill-rule="evenodd" style="paint-order:markers stroke fill"/><path d="m716.05 1016c32.279 14.197 27.178-4.2053 35.802-2.5525l46.656 17.765c2.3126 2.8138 4.1903 7.9915 1.8367 10.771l-85.027-0.2797c-5.9638-6.1564-5.1976-19.515 0.73262-25.704z" fill="#616161"/></g><g fill-rule="evenodd"><rect x="239.91" y="886.05" width="139.4" height="156.57" rx="6.6848" ry="6.5579" fill="#999" style="paint-order:markers stroke fill"/><rect x="223.24" y="883.02" width="172.74" height="22.223" rx="11.112" ry="11.112" fill="#b3b3b3" style="paint-order:markers stroke fill"/></g></g></g></g></svg>
