<?xml version="1.0" encoding="UTF-8"?>
<svg width="1024" height="1024" version="1.1" viewBox="0 0 1024 1024" xmlns="http://www.w3.org/2000/svg" xmlns:cc="http://creativecommons.org/ns#" xmlns:dc="http://purl.org/dc/elements/1.1/" xmlns:rdf="http://www.w3.org/1999/02/22-rdf-syntax-ns#"><title>Image</title><metadata><rdf:RDF><cc:Work rdf:about=""><dc:format>image/svg+xml</dc:format><dc:type rdf:resource="http://purl.org/dc/dcmitype/StillImage"/><dc:title>Image</dc:title><dc:date>March 2019</dc:date><dc:creator><cc:Agent><dc:title>Sujaykumar Hublikar</dc:title></cc:Agent></dc:creator><dc:rights><cc:Agent><dc:title>Creative Commons Attribution-NonCommercial-ShareAlike 4.0 International License.</dc:title></cc:Agent></dc:rights><dc:publisher><cc:Agent><dc:title>Sujaykumar Hublikar</dc:title></cc:Agent></dc:publisher><dc:subject><rdf:Bag><rdf:li>image</rdf:li></rdf:Bag></dc:subject><dc:description>Image</dc:description><dc:contributor><cc:Agent><dc:title>https://github.com/Sujaykumarh</dc:title></cc:Agent></dc:contributor><cc:license rdf:resource="http://creativecommons.org/licenses/by-nc-sa/4.0/"/></cc:Work><cc:License rdf:about="http://creativecommons.org/licenses/by-nc-sa/4.0/"><cc:permits rdf:resource="http://creativecommons.org/ns#Reproduction"/><cc:permits rdf:resource="http://creativecommons.org/ns#Distribution"/><cc:requires rdf:resource="http://creativecommons.org/ns#Notice"/><cc:requires rdf:resource="http://creativecommons.org/ns#Attribution"/><cc:prohibits rdf:resource="http://creativecommons.org/ns#CommercialUse"/><cc:permits rdf:resource="http://creativecommons.org/ns#DerivativeWorks"/><cc:requires rdf:resource="http://creativecommons.org/ns#ShareAlike"/></cc:License></rdf:RDF></metadata><g><g transform="translate(55.042 5.5268)"><g><g transform="matrix(.10654 -.028546 .028546 .10654 572.11 397.03)"><rect x="1077.8" y="319.8" width="47.758" height="238.79" rx=".69046" ry=".43895" fill="#37abc8" fill-rule="evenodd" style="paint-order:markers stroke fill"/><path d="m1077.8 319.8h47.758l-22.603-33.943z" fill="#fca"/><path d="m1103 285.86c-5.4653-0.13742-9.9375 13.41-9.9375 13.41h18.867s-3.4644-13.273-8.9297-13.41z" fill="#37abc8"/></g><rect transform="rotate(15)" x="784.13" y="166.06" width="17.324" height="103.94" rx=".69046" ry=".43895" fill="#f3f3f3" fill-rule="evenodd" style="paint-order:markers stroke fill"/><g transform="matrix(-.13656 -.020729 -.020729 .13656 868.64 376.49)"><rect x="1077.8" y="319.8" width="47.758" height="238.79" rx=".69046" ry=".43895" fill="#f55" fill-rule="evenodd" style="paint-order:markers stroke fill"/><path d="m1077.8 319.8h47.758l-22.603-33.943z" fill="#fca"/><path d="m1103 285.86c-5.4653-0.13742-9.9375 13.41-9.9375 13.41h18.867s-3.4644-13.273-8.9297-13.41z" fill="#f55"/></g><g transform="matrix(.62824 .16834 -.16834 .62824 310.27 21.408)"><path d="m764.57 385.93c-0.0604 0-0.10715 0.0309-0.10914 0.0692l-2.2049 19.314c-3e-3 0.0578 0.0322 0.11025 0.0918 0.14844-0.0601 0.069-0.0952 0.16276-0.0918 0.26758l1.1289 34.807c4e-3 0.13859 0.0978 0.25 0.21875 0.25h3.8594c0.121 0 0.2123-0.11128 0.2168-0.25l1.1309-34.807c3e-3 -0.10479-0.0317-0.19854-0.0918-0.26758 0.0596-0.0382 0.0952-0.0907 0.0918-0.14844l-2.2069-19.314c-2e-3 -0.0384-0.0478-0.0692-0.10817-0.0692z" fill="#f95" fill-rule="evenodd" style="paint-order:markers stroke fill"/><path d="m764.57 385.93c-0.0604 0-0.10738 0.0301-0.10937 0.0684l-1.3242 11.6h4.793l-1.3262-11.6c-2e-3 -0.0384-0.0471-0.0684-0.10743-0.0684z" fill="#ccc" fill-rule="evenodd" style="paint-order:markers stroke fill"/><path d="m766.53 385.95s6.0038-9.0813 5.1317-13.264-11.306-9.7794-11.306-9.7794 2.8407 6.4791-0.11605 11.6 4.3304 11.425 4.3304 11.425z" fill="#d45500"/><path d="m765.54 367.72s3.3771 2.8825 3.6993 5.0928c0.32218 2.2103-1.6762 5.75-1.6762 5.75s0.62146-3.6766 0.289-5.5857-2.3121-5.2571-2.3121-5.2571z" fill="#e4e4e4"/></g><g transform="rotate(-7.8067 708.67 440.75)" fill-rule="evenodd"><g transform="translate(-94.44 -25.162)"><rect x="785.43" y="400.57" width="7.0232" height="45.885" rx="3.5116" ry="3.5116" fill="#59f" style="paint-order:markers stroke fill"/><rect x="790.14" y="405.19" width="1.3809" height="15.217" rx=".69046" ry=".69046" fill="#e6e6e6" style="paint-order:markers stroke fill"/><rect x="790.75" y="406.28" width=".53227" height="5.8654" rx=".26613" ry=".26613" fill="#f3f3f3" style="paint-order:markers stroke fill"/></g><rect x="690.98" y="398.29" width="7.0543" height=".43895" rx=".21948" ry=".21948" fill="#f3f3f3" style="paint-order:markers stroke fill"/></g><g fill-rule="evenodd"><path d="m681.63 404.79h48.045c1.7291 0 3.5532 2.3923 3.1211 5.068l-10.255 63.506c-0.26885 1.6648-0.86608 3.1532-1.9419 3.1532h-29.893c-1.0758 0-1.673-1.4884-1.9419-3.1532l-10.255-63.506c-0.43209-2.6757 1.392-5.068 3.1211-5.068z" fill="#fd5" style="paint-order:markers stroke fill"/><path d="m689.16 404.9c-1.8166 0-3.7332 2.5132-3.2793 5.3242l10.705 66.285h24.008c1.0758 0 1.6726-1.4876 1.9414-3.1523l10.256-63.506c0.37639-2.3308-0.95961-4.4445-2.4531-4.9512z" fill="#ffd72d" style="paint-order:markers stroke fill"/></g></g><g transform="translate(12.581)" fill-rule="evenodd"><path d="m486.68 430.62c-0.29455 0-0.37843 0.30536-0.53187 0.60048l-21.69 41.701h-19.963c-1.1212 0-2.0239 0.90262-2.0239 2.0239 0 1.1213 0.90265 2.0242 2.0239 2.0242h127.92c1.1212 0 2.0239-0.90291 2.0239-2.0242 0-1.1213-0.90265-2.0239-2.0239-2.0239h-25.711l-21.69-41.701c-0.15344-0.29512-0.23731-0.60048-0.53186-0.60048z" fill="#636363" style="paint-order:markers stroke fill"/><g transform="matrix(.068947 0 0 .068947 -373.71 -210.71)"><rect transform="rotate(90)" x="7125.9" y="-14698" width="2263.1" height="3806.5" rx="106.79" ry="106.79" fill="#333" style="paint-order:markers stroke fill"/><g transform="matrix(1.408 0 0 1.408 -10714 7954.7)"><rect x="15423" y="-444.75" width="2545.2" height="1333.8" rx="28.97" ry="26.989" fill="#fff" style="paint-order:markers stroke fill"/><path d="m15452-444.75c-16.05 0-28.971 12.038-28.971 26.99v31.031h2545.2v-31.031c0-14.952-12.921-26.99-28.971-26.99z" fill="#666" style="paint-order:markers stroke fill"/><path transform="translate(-180 -1565.2)" d="m16384 2366.4c-5.499 0-9.926 4.9981-9.926 11.207v44.256c0 6.209 4.427 11.207 9.926 11.207h46.82c5.499 0 9.926-4.998 9.926-11.207v-44.256c0-6.2089-4.427-11.207-9.926-11.207zm85.22 0c-5.498 0-9.925 4.9981-9.925 11.207v44.256c0 6.209 4.427 11.207 9.925 11.207h46.819c5.499 0 9.926-4.998 9.926-11.207v-44.256c0-6.2089-4.427-11.207-9.926-11.207zm85.221 0c-5.499 0-9.926 4.9981-9.926 11.207v44.256c0 6.209 4.427 11.207 9.926 11.207h46.819c5.498 0 9.925-4.998 9.925-11.207v-44.256c0-6.2089-4.427-11.207-9.925-11.207zm85.221 0c-5.499 0-9.926 4.9981-9.926 11.207v44.256c0 6.209 4.427 11.207 9.926 11.207h46.818c5.499 0 9.926-4.998 9.926-11.207v-44.256c0-6.2089-4.427-11.207-9.926-11.207zm85.219 0c-5.499 0-9.926 4.9981-9.926 11.207v44.256c0 6.209 4.427 11.207 9.926 11.207h46.818c5.499 0 9.926-4.998 9.926-11.207v-44.256c0-6.2089-4.427-11.207-9.926-11.207zm85.22 0c-5.498 0-9.925 4.9981-9.925 11.207v44.256c0 6.209 4.427 11.207 9.925 11.207h46.819c5.498 0 9.925-4.998 9.925-11.207v-44.256c0-6.2089-4.427-11.207-9.925-11.207zm85.221 0c-5.499 0-9.926 4.9981-9.926 11.207v44.256c0 6.209 4.427 11.207 9.926 11.207h46.818c5.499 0 9.926-4.998 9.926-11.207v-44.256c0-6.2089-4.427-11.207-9.926-11.207zm85.219 0c-5.499 0-9.926 4.9981-9.926 11.207v44.256c0 6.209 4.427 11.207 9.926 11.207h46.818c5.499 0 9.926-4.998 9.926-11.207v-44.256c0-6.2089-4.427-11.207-9.926-11.207zm85.22 0c-5.498 0-9.925 4.9981-9.925 11.207v44.256c0 6.209 4.427 11.207 9.925 11.207h46.819c5.499 0 9.926-4.998 9.926-11.207v-44.256c0-6.2089-4.427-11.207-9.926-11.207zm85.221 0c-5.499 0-9.926 4.9981-9.926 11.207v44.256c0 6.209 4.427 11.207 9.926 11.207h46.819c5.498 0 9.925-4.998 9.925-11.207v-44.256c0-6.2089-4.427-11.207-9.925-11.207zm85.219 0c-5.499 0-9.926 4.9981-9.926 11.207v44.256c0 6.209 4.427 11.207 9.926 11.207h46.818c5.499 0 9.926-4.998 9.926-11.207v-44.256c0-6.2089-4.427-11.207-9.926-11.207zm85.221 0c-5.499 0-9.926 4.9981-9.926 11.207v44.256c0 6.209 4.427 11.207 9.926 11.207h46.818c5.499 0 9.926-4.998 9.926-11.207v-44.256c0-6.2089-4.427-11.207-9.926-11.207z" fill="#efefef" style="paint-order:markers stroke fill"/><rect x="15488" y="-300.27" width="1709.2" height="895.69" rx="19.455" ry="18.124" fill="#f9f9f9" style="paint-order:markers stroke fill"/><path d="m15507-300.27c-10.778 0-19.454 8.0837-19.454 18.125v39.823h1709.2v-39.823c0-10.041-8.678-18.125-19.456-18.125z" fill="#666" style="paint-order:markers stroke fill"/><ellipse cx="17064" cy="-271.29" rx="10.39" ry="10.39" fill="#37c837" style="paint-order:markers stroke fill"/><ellipse cx="17096" cy="-271.29" rx="10.39" ry="10.39" fill="#ffd42a" style="paint-order:markers stroke fill"/><ellipse cx="17127" cy="-271.29" rx="10.39" ry="10.39" fill="#f55" style="paint-order:markers stroke fill"/><path transform="translate(-180 -1565.2)" d="m16168 1379.8c-4.632 0-8.361 4.2109-8.361 9.4414 0 5.2304 3.729 9.4414 8.361 9.4414h1133.8c4.633 0 8.364-4.211 8.364-9.4414 0-5.2305-3.731-9.4414-8.364-9.4414zm-1.209 52.41c-3.963 0-7.152 4.211-7.152 9.4414 0 5.2305 3.189 9.4414 7.152 9.4414h970c3.963 0 7.153-4.2109 7.153-9.4414 0-5.2304-3.19-9.4414-7.153-9.4414zm1.209 52.41c-4.632 0-8.361 4.2109-8.361 9.4414s3.729 9.4414 8.361 9.4414h1133.8c4.633 0 8.364-4.2109 8.364-9.4414s-3.731-9.4414-8.364-9.4414zm0 52.41c-4.632 0-8.361 4.211-8.361 9.4414 0 5.2305 3.729 9.4414 8.361 9.4414h1133.8c4.633 1e-4 8.364-4.2109 8.364-9.4414 0-5.2304-3.731-9.4414-8.364-9.4414zm-2.863 52.41c-3.046 0-5.498 4.2109-5.498 9.4414s2.452 9.4414 5.498 9.4414h745.62c3.046 0 5.498-4.2109 5.498-9.4414s-2.452-9.4414-5.498-9.4414zm2.863 52.41c-4.632-1e-4 -8.361 4.2109-8.361 9.4414 0 5.2304 3.729 9.4414 8.361 9.4414h1133.8c4.633 0 8.364-4.211 8.364-9.4414 0-5.2305-3.731-9.4414-8.364-9.4414zm0 52.41c-4.632 0-8.361 4.2109-8.361 9.4414s3.729 9.4414 8.361 9.4414h1133.8c4.633 0 8.364-4.2109 8.364-9.4414s-3.731-9.4414-8.364-9.4414zm-0.711 52.412c-4.239 0-7.65 4.209-7.65 9.4395 0 5.2304 3.411 9.4414 7.65 9.4414h1037.7c4.24 0 7.653-4.211 7.653-9.4414 0-5.2305-3.413-9.4395-7.653-9.4395zm0.711 52.41c-4.632 0-8.361 4.2109-8.361 9.4414 0 5.2304 3.729 9.4414 8.361 9.4414h1133.8c4.633 0 8.364-4.211 8.364-9.4414 0-5.2305-3.731-9.4414-8.364-9.4414zm0 52.41c-4.632 0-8.361 4.211-8.361 9.4414 0 5.2305 3.729 9.4414 8.361 9.4414h1133.8c4.633 0 8.364-4.2109 8.364-9.4414 0-5.2304-3.731-9.4414-8.364-9.4414zm-4.703 52.41c-2.027 0-3.658 4.2109-3.658 9.4414s1.631 9.4414 3.658 9.4414h496.32c2.027 0 3.66-4.2109 3.66-9.4414s-1.633-9.4414-3.66-9.4414zm4.703 52.41c-4.632 0-8.361 4.211-8.361 9.4414 0 5.2305 3.729 9.4415 8.361 9.4415h1133.8c4.633 0 8.364-4.211 8.364-9.4415 0-5.2304-3.731-9.4414-8.364-9.4414zm-4.703 52.41c-2.027 0-3.658 4.2109-3.658 9.4414s1.631 9.4414 3.658 9.4414h496.32c2.027 0 3.66-4.2109 3.66-9.4414s-1.633-9.4414-3.66-9.4414z" fill="#ddd" style="paint-order:markers stroke fill"/><path transform="translate(-180 -1565.2)" d="m15770 1374.2c-4.923 0-8.885 4.0712-8.885 9.127s3.962 9.125 8.885 9.125h282.18c4.923 0 8.885-4.0692 8.885-9.125s-3.962-9.127-8.885-9.127zm43.883 41.227c-4.154 0-7.497 4.0712-7.497 9.1269 0 5.0558 3.343 9.125 7.497 9.125h238.12c4.153 0 7.498-4.0692 7.498-9.125 0-5.0557-3.345-9.1269-7.498-9.1269zm-1.659 41.227c-3.234 0-5.838 4.0711-5.838 9.1269s2.604 9.125 5.838 9.125h185.42c3.235 0 5.84-4.0692 5.84-9.125s-2.605-9.1269-5.84-9.1269zm-2.035 41.226c-2.107 0-3.803 4.0712-3.803 9.127s1.696 9.125 3.803 9.125h120.82c2.107 0 3.804-4.0692 3.804-9.125s-1.697-9.127-3.804-9.127zm3.694 41.227c-4.154 0-7.497 4.0712-7.497 9.1269 0 5.0558 3.343 9.125 7.497 9.125h238.12c4.153 0 7.498-4.0692 7.498-9.125 0-5.0557-3.345-9.1269-7.498-9.1269zm-1.553 41.228c-3.294 0-5.944 4.0692-5.944 9.125s2.65 9.125 5.944 9.125h188.82c3.294 0 5.945-4.0692 5.945-9.125s-2.651-9.125-5.945-9.125zm0.91 41.227c-3.798 0-6.854 4.0692-6.854 9.125 0 5.0557 3.056 9.125 6.854 9.125h217.72c3.798 0 6.855-4.0693 6.855-9.125 0-5.0558-3.057-9.125-6.855-9.125zm80.322 41.226c-2.191 0-3.953 4.0692-3.953 9.125s1.762 9.125 3.953 9.125h125.6c2.191 0 3.955-4.0692 3.955-9.125s-1.764-9.125-3.955-9.125zm-5.41 41.227c-1.855 0-3.348 4.0692-3.348 9.125s1.493 9.1269 3.348 9.1269h106.32c1.855 0 3.348-4.0711 3.348-9.1269s-1.493-9.125-3.348-9.125zm0.588 41.226c-2.181 0-3.936 4.0693-3.936 9.125 0 5.0558 1.755 9.127 3.936 9.127h125.02c2.181 0 3.938-4.0712 3.938-9.127 0-5.0557-1.757-9.125-3.938-9.125zm-1.553 41.227c-1.321 0-2.383 4.0692-2.383 9.125s1.062 9.127 2.383 9.127h75.723c1.321 0 2.385-4.0712 2.385-9.127s-1.064-9.125-2.385-9.125zm1.553 41.227c-2.181 0-3.936 4.0692-3.936 9.125s1.755 9.1269 3.936 9.1269h125.02c2.181 0 3.938-4.0711 3.938-9.1269s-1.757-9.125-3.938-9.125zm-75.5 41.226c-3.798 0-6.854 4.0693-6.854 9.125 0 5.0558 3.056 9.127 6.854 9.127h217.72c3.798 0 6.855-4.0712 6.855-9.127 0-5.0557-3.057-9.125-6.855-9.125zm-2.516 41.227c-2.404 0-4.338 4.0692-4.338 9.125s1.934 9.1269 4.338 9.1269h137.82c2.404 1e-4 4.34-4.0711 4.34-9.1269s-1.936-9.125-4.34-9.125zm-1.338 41.227c-1.662 0-3 4.0692-3 9.125 0 5.0557 1.338 9.1269 3 9.1269h95.319c1.663 0 3.002-4.0712 3.002-9.1269 0-5.0558-1.339-9.125-3.002-9.125zm2.463 41.226c-3.026 0-5.463 4.0692-5.463 9.125s2.437 9.127 5.463 9.127h173.52c3.027 0 5.463-4.0712 5.463-9.127s-2.436-9.125-5.463-9.125zm80.858 41.227c-1.717 0-3.098 4.0692-3.098 9.125s1.381 9.1269 3.098 9.1269h98.402c1.717 0 3.1-4.0711 3.1-9.1269s-1.383-9.125-3.1-9.125zm-5.198 41.226c-1.498 0-2.705 4.0693-2.705 9.125 0 5.0558 1.207 9.127 2.705 9.127h85.922c1.499 0 2.705-4.0712 2.705-9.127 0-5.0557-1.206-9.125-2.705-9.125z" fill="#cacaca" fill-opacity=".91765" style="paint-order:markers stroke fill"/><g><path d="m17347-301.44h424.32c10.778 0 19.455 8.0834 19.455 18.124v859.44c0 10.041-8.677 18.124-19.455 18.124h-424.32c-10.778 0-19.455-8.0834-19.455-18.124v-859.44c0-10.041 8.677-18.124 19.455-18.124z" fill="#f9f9f9" style="paint-order:markers stroke fill"/><path d="m17347-301.44c-10.778 0-19.454 8.0837-19.454 18.125v39.823h463.23v-39.823c0-10.041-8.678-18.125-19.456-18.125z" fill="#666" style="paint-order:markers stroke fill"/><circle cx="17688" cy="-272.46" r="10.39" fill="#37c837" style="paint-order:markers stroke fill"/><circle cx="17720" cy="-272.46" r="10.39" fill="#ffd42a" style="paint-order:markers stroke fill"/><circle cx="17751" cy="-272.46" r="10.39" fill="#f55" style="paint-order:markers stroke fill"/><path transform="translate(-180 -1565.2)" d="m17559 1360.6c-10.778 0-19.455 8.0822-19.455 18.123v63.758c0 10.041 8.677 18.123 19.455 18.123h61.095c10.778 0 19.456-8.0822 19.456-18.123v-63.758c0-10.041-8.678-18.123-19.456-18.123zm0 133.95c-10.778 0-19.455 8.0842-19.455 18.125v63.756c0 10.041 8.677 18.125 19.455 18.125h61.095c10.778 0 19.456-8.0842 19.456-18.125v-63.756c0-10.041-8.678-18.125-19.456-18.125zm0 133.95c-10.778 0-19.455 8.0822-19.455 18.123v63.758c0 10.041 8.677 18.123 19.455 18.123h61.095c10.778 0 19.456-8.0823 19.456-18.123v-63.758c0-10.041-8.678-18.123-19.456-18.123zm0 133.95c-10.778 0-19.455 8.0842-19.455 18.125v63.756c0 10.041 8.677 18.125 19.455 18.125h61.095c10.778 0 19.456-8.0842 19.456-18.125v-63.756c0-10.041-8.678-18.125-19.456-18.125zm0 133.95c-10.778 0-19.455 8.0822-19.455 18.123v63.758c0 10.041 8.677 18.123 19.455 18.123h61.095c10.778 0 19.456-8.0823 19.456-18.123v-63.758c0-10.041-8.678-18.123-19.456-18.123zm0 133.95c-10.778 0-19.455 8.0842-19.455 18.125v63.756c0 10.041 8.677 18.125 19.455 18.125h61.095c10.778 0 19.456-8.0842 19.456-18.125v-63.756c0-10.041-8.678-18.125-19.456-18.125z" fill="#ebebeb" style="paint-order:markers stroke fill"/><path transform="translate(-180 -1565.2)" d="m17679 1370.6c-7.555 0-13.637 6.0818-13.637 13.637 0 7.555 6.082 13.637 13.637 13.637h231.33c7.555 0 13.637-6.0817 13.637-13.637 0-7.5549-6.082-13.637-13.637-13.637zm-1.971 46.568c-6.463 0-11.666 6.0818-11.666 13.637s5.203 13.637 11.666 13.637h197.89c6.463 0 11.666-6.0818 11.666-13.637s-5.203-13.637-11.666-13.637zm1.971 87.377c-7.555 0-13.637 6.0818-13.637 13.637 0 7.555 6.082 13.639 13.637 13.639h231.33c7.555 0 13.637-6.0837 13.637-13.639 0-7.5549-6.082-13.637-13.637-13.637zm-1.971 46.568c-6.463 0-11.666 6.0818-11.666 13.637s5.203 13.639 11.666 13.639h197.89c6.463 0 11.666-6.0838 11.666-13.639s-5.203-13.637-11.666-13.637zm1.971 87.379c-7.555 0-13.637 6.0818-13.637 13.637s6.082 13.637 13.637 13.637h231.33c7.555 0 13.637-6.0818 13.637-13.637s-6.082-13.637-13.637-13.637zm-1.971 46.568c-6.463 0-11.666 6.0818-11.666 13.637 0 7.5549 5.203 13.637 11.666 13.637h197.89c6.463 0 11.666-6.0818 11.666-13.637 0-7.555-5.203-13.637-11.666-13.637zm1.971 87.377c-7.555 0-13.637 6.0818-13.637 13.637s6.082 13.637 13.637 13.637h231.33c7.555 0 13.637-6.0818 13.637-13.637s-6.082-13.637-13.637-13.637zm-1.971 46.568c-6.463 0-11.666 6.0817-11.666 13.637 0 7.5549 5.203 13.639 11.666 13.639h197.89c6.463 0 11.666-6.0837 11.666-13.639 0-7.555-5.203-13.637-11.666-13.637zm1.971 87.379c-7.555 0-13.637 6.0817-13.637 13.637 0 7.5549 6.082 13.637 13.637 13.637h231.33c7.555 0 13.637-6.0818 13.637-13.637 0-7.555-6.082-13.637-13.637-13.637zm-1.971 46.568c-6.463 0-11.666 6.0818-11.666 13.637 0 7.555 5.203 13.637 11.666 13.637h197.89c6.463 0 11.666-6.0818 11.666-13.637 0-7.5549-5.203-13.637-11.666-13.637zm1.971 87.377c-7.555 0-13.637 6.0818-13.637 13.637s6.082 13.637 13.637 13.637h231.33c7.555 0 13.637-6.0818 13.637-13.637s-6.082-13.637-13.637-13.637zm-1.971 46.568c-6.463 0-11.666 6.0818-11.666 13.637 0 7.555 5.203 13.639 11.666 13.639h197.89c6.463 0 11.666-6.0837 11.666-13.639 0-7.5549-5.203-13.637-11.666-13.637z" fill="#efefef" style="paint-order:markers stroke fill"/></g></g><g><circle cx="12795" cy="7224.9" r="39.775" fill="#666" style="paint-order:markers stroke fill"/><circle cx="12795" cy="7224.9" r="31.962" fill="#777" style="paint-order:markers stroke fill"/></g></g></g><path d="m267.35 487.42c-1.8157 0-3.2773 1.4616-3.2773 3.2773v39.799c0 1.8157 1.4616 3.2773 3.2773 3.2773h60.4v277.53h23.41v-277.53h260.33v279.53h25.283v-285.53h129.23v285.53h23.41v-283.53h16.387c1.8157 0 3.2793-1.4616 3.2793-3.2773v-35.799c0-1.8157-1.4636-3.2773-3.2793-3.2773zm-92.238 30.902v292.98h23.41v-292.98z" fill="#4e576e" fill-rule="evenodd" style="paint-order:markers stroke fill"/><g transform="matrix(-.072445 0 0 .072445 2104.6 489.76)"><g transform="translate(432.35 -884.89)" fill-rule="evenodd"><path d="m19579-261.48c-12.988 0-23.445 10.457-23.445 23.445 0 7.6858 3.663 14.483 9.344 18.754v724.69c0 112.38 90.474 202.86 202.86 202.86h370.08c99.853 0 182.4-71.427 199.57-166.18 18.957 5.5865 39.038 8.5977 59.852 8.5977 116.4 0 210.11-93.709 210.11-210.11v-268.7c0-116.4-93.709-210.11-210.11-210.11-19.615 0-38.58 2.6702-56.566 7.6523v-88.691c5.68-4.2706 9.343-11.068 9.343-18.754 0-12.988-10.455-23.445-23.443-23.445h-558.84zm799.07 218.66c79.311 0 143.16 71.599 143.16 160.54v205.3c0 88.936-63.849 160.53-143.16 160.53-12.941 0-25.466-1.9174-37.373-5.4941v-515.38c11.907-3.5768 24.432-5.4941 37.373-5.4941z" fill="#f55" style="paint-order:markers stroke fill"/><path d="m20340-219.28-56.198 6.9398s89.679 742.21-104.81 854.49-640.92-173.93-578.53-20.705c36.586 52.547 97.437 86.818 166.6 86.818h370.08c88.751 0 163.83-56.428 191.48-135.51 2.506-9.6482 5.153-19.747 8.091-30.674 1.541-18.985 3.286-64.033 3.286-64.033v-515.38z" fill-opacity=".068493" style="paint-order:markers stroke fill"/><g><rect x="19659" y="-45.31" width="53.875" height="323.25" rx="26.937" ry="26.937" fill="#f7f7f7" style="paint-order:markers stroke fill"/><ellipse cx="19686" cy="-104.4" rx="24.676" ry="24.115" fill="#fff" style="paint-order:markers stroke fill"/></g></g><path d="m20490-1243.4s407.35-276.63 278.8-428.3-141.42-606.09-141.42-606.09-80.47 577.17 28.284 646.5c108.76 69.323-165.66 387.9-165.66 387.9z" fill-opacity=".068493"/><path d="m20311-1229.2s-106.77-51.889-71.155-165.42c35.613-113.53 23.281-195.04 23.281-195.04s38.193 173.4 8.063 225.29c-30.13 51.886 39.811 135.17 39.811 135.17z" fill-opacity=".068493"/><path d="m20386-1291.8s76.768-121.69 41.155-387.92c-35.613-266.24 6.719-457.41 6.719-457.41s-68.193 406.65-38.063 528.33c30.13 121.68-9.811 317-9.811 317z" fill-opacity=".068493"/></g><rect x="233.08" y="476.38" width="348.25" height="33.083" rx="0" ry="0" fill="#d38d5f" fill-rule="evenodd" style="paint-order:markers stroke fill"/><g transform="matrix(.975 0 0 .975 626.64 9.7201)"><g transform="translate(-663.6)"><path d="m337.9 365.44-42.644 29.522s50.987 56.592 83.154 72.164c33.799 3.5861 94.923 4.7266 88.524-6.0458-6.3994-10.772-57.58-18.203-77.752-26.686-22.349-9.8875-51.282-68.954-51.282-68.954z" fill="#ffd0a5"/><g transform="translate(758.62)"><g transform="matrix(.87146 .012457 -.012457 .87146 -691.25 35.761)"><path d="m361.11 174.6c-16.229 0-29.295 13.066-29.295 29.295v31.314c0 8.962 3.99 16.953 10.291 22.318l-26.977 100.68c-2.458 9.1736 2.9475 18.538 12.121 20.996l16.645 4.4609c9.1736 2.458 18.538-2.9495 20.996-12.123l13.426-50.104h26.754c16.229 0 29.295-13.066 29.295-29.295v-42.965c2.2432-4.147 3.5156-8.903 3.5156-13.967v-31.314c0-16.229-13.066-29.295-29.295-29.295z" fill="#ffdfc4" fill-rule="evenodd" style="paint-order:markers stroke fill"/><path d="m461.97 230.5c-11.666 8.9484-31.909-8.207-44.107 0-10.644 7.1609 0.78526 33.343-11.083 38.212-16.811 9.7996 0.23976-21.922-18.611-25.142-19.986 4.9659-6.9167 77.302-51.458 65.909-44.542-11.393-25.23-97.037-9.7727-120.95 15.457-23.914 142.7-14.009 148.33-7.5719 5.6266 6.4369 0.27451 39.138-13.293 49.545z" fill="#20374f"/></g><g transform="translate(-1099.7 -1.8008)"><path d="m685.47 325.87c-65.585-0.29757-123.25 122.65-124.05 193.85h118.95c-14.37-82.986 92.046-154.81 27.295-188.75-7.1804-3.7641-14.765-5.0659-22.193-5.0996z" fill="#ff8080"/><path d="m699.4 327.86c-28.949-8.9257-107.65 115.95-104.15 191.86h85.104c10.292-83.781 90.384-163.23 27.295-188.75-2.7403-1.2888-5.4925-2.3176-8.2539-3.1074z" fill="#ff6969"/></g><g transform="translate(-1046.9)" fill-rule="evenodd"><g transform="translate(324.29)"><path d="m184.28 517.91v49.496c0 24.623 19.824 44.447 44.447 44.447h30.053c1.8222 0 3.6134-0.121 5.377-0.33203h138.2l53.958 171.67 46.025-12.2-58.591-199.38c-3.0222-14.994-15.757-26.189-31.102-26.189h-109.42v-27.514z" fill="#20364e" style="paint-order:markers stroke fill"/><path d="m184.28 517.91v49.496c0 24.623 19.824 44.447 44.447 44.447h30.053c0.95581 0 1.9026-0.0355 2.8418-0.0977-23.299-1.4464-41.627-20.674-41.627-44.35v-49.496z" fill="#3d4b6a" style="paint-order:markers stroke fill"/></g><rect x="550.36" y="525.07" width="70" height="10.714" rx="0" ry="0" fill="#3d4b6a" style="paint-order:markers stroke fill"/><rect transform="rotate(90)" x="517.93" y="-589.29" width="20.357" height="10.714" rx="0" ry="0" fill="#20364e" style="paint-order:markers stroke fill"/></g><g transform="matrix(.92424 0 0 .92424 -1710.7 2.1386)"><rect x="1552.4" y="851.36" width="135.91" height="13.337" rx="5.1583" ry="5.1583" fill="#e6e6e6" fill-rule="evenodd" style="paint-order:markers stroke fill"/><path d="m1553.6 816.42c51.803 22.784 43.616-6.7487 57.455-4.0963l74.874 28.51c3.7113 4.5156 6.7247 12.825 2.9477 17.285l-136.45-0.44886c-9.5708-9.8799-8.3412-31.318 1.1757-41.25z" fill="#4d5b7b"/></g><path d="m-385.81 597.47h50.003s-47.963 124.64-62.182 173.84c-12.898 8.7703-46.766-1.5421-46.766-1.5421z" fill="#20364e" fill-rule="evenodd" style="paint-order:markers stroke fill"/><g transform="matrix(.92088 0 0 .92088 -1871.4 5.2662)"><rect x="1552.4" y="851.36" width="135.91" height="13.337" rx="5.1583" ry="5.1583" fill="#ececec" fill-rule="evenodd" style="paint-order:markers stroke fill"/><path d="m1553.6 816.42c51.803 22.784 43.616-6.7487 57.455-4.0963l74.874 28.51c3.7113 4.5156 6.7247 12.825 2.9477 17.285l-136.45-0.44886c-9.5708-9.8799-8.3412-31.318 1.1757-41.25z" fill="#3d4b6a"/></g></g><path d="m386.21 380.07-42.644 29.522s50.987 56.592 83.154 72.164c33.799 3.5861 46.379-3.5386 68.747-15.355a25.011 21.526 0 0 0 3.0876 0.18388 25.011 21.526 0 0 0 25.013-21.526 25.011 21.526 0 0 0-25.013-21.526 25.011 21.526 0 0 0-24.708 18.371c-10.849 1.5464-22.783 3.1396-34.334-1.971-22.349-9.8875-53.302-59.863-53.302-59.863z" fill="#ffdfc4"/><path d="m345.12 343c-5.8365 0.0456-11.695 1.918-16.734 5.7812-12.405 9.5095-15.012 27.367-5.2285 39.557l30.838 38.422 43.996-35.311-30.049-37.441c-5.8091-7.2378-14.292-11.074-22.822-11.008z" fill="#ffa1a1" fill-rule="evenodd" style="paint-order:markers stroke fill"/></g><g fill-rule="evenodd"><g transform="matrix(.92601 0 0 .92601 -27.189 48.344)"><g transform="matrix(.029321 0 0 .029321 -898.06 604.5)"><circle cx="15661" cy="6728.8" r="383.86" fill="#4e576e" style="paint-order:markers stroke fill"/><path d="m15263 6780.6a68.3 68.3 0 0 1-67.266-69.26c0-166.25 88.85-320.14 232.83-403.27 143.98-83.127 321.68-83.127 465.66 0 143.98 83.127 232.83 237.02 232.83 403.27a68.3 68.3 0 1 1-136.59 0c0-117.67-62.626-226.14-164.54-284.98-101.91-58.837-227.16-58.837-329.07 0-101.91 58.837-164.54 167.31-164.54 284.98a68.3 68.3 0 0 1-69.322 69.258z" color="#000000" color-rendering="auto" dominant-baseline="auto" fill="#676f83" image-rendering="auto" shape-rendering="auto" solid-color="#000000" style="font-feature-settings:normal;font-variant-alternates:normal;font-variant-caps:normal;font-variant-ligatures:normal;font-variant-numeric:normal;font-variant-position:normal;isolation:auto;mix-blend-mode:normal;paint-order:stroke fill markers;shape-padding:0;text-decoration-color:#000000;text-decoration-line:none;text-decoration-style:solid;text-indent:0;text-orientation:mixed;text-transform:none;white-space:normal"/></g><g transform="matrix(.034668 0 0 .034668 -919.24 566.54)"><circle cx="15661" cy="6728.8" r="383.86" fill="#4e576e" style="paint-order:markers stroke fill"/><path d="m15263 6780.6a68.3 68.3 0 0 1-67.266-69.26c0-166.25 88.85-320.14 232.83-403.27 143.98-83.127 321.68-83.127 465.66 0 143.98 83.127 232.83 237.02 232.83 403.27a68.3 68.3 0 1 1-136.59 0c0-117.67-62.626-226.14-164.54-284.98-101.91-58.837-227.16-58.837-329.07 0-101.91 58.837-164.54 167.31-164.54 284.98a68.3 68.3 0 0 1-69.322 69.258z" color="#000000" color-rendering="auto" dominant-baseline="auto" fill="#676f83" image-rendering="auto" shape-rendering="auto" solid-color="#000000" style="font-feature-settings:normal;font-variant-alternates:normal;font-variant-caps:normal;font-variant-ligatures:normal;font-variant-numeric:normal;font-variant-position:normal;isolation:auto;mix-blend-mode:normal;paint-order:stroke fill markers;shape-padding:0;text-decoration-color:#000000;text-decoration-line:none;text-decoration-style:solid;text-indent:0;text-orientation:mixed;text-transform:none;white-space:normal"/></g><g transform="matrix(.029321 0 0 .029321 -780.07 604.5)"><circle cx="15661" cy="6728.8" r="383.86" fill="#4e576e" style="paint-order:markers stroke fill"/><path d="m15263 6780.6a68.3 68.3 0 0 1-67.266-69.26c0-166.25 88.85-320.14 232.83-403.27 143.98-83.127 321.68-83.127 465.66 0 143.98 83.127 232.83 237.02 232.83 403.27a68.3 68.3 0 1 1-136.59 0c0-117.67-62.626-226.14-164.54-284.98-101.91-58.837-227.16-58.837-329.07 0-101.91 58.837-164.54 167.31-164.54 284.98a68.3 68.3 0 0 1-69.322 69.258z" color="#000000" color-rendering="auto" dominant-baseline="auto" fill="#676f83" image-rendering="auto" shape-rendering="auto" solid-color="#000000" style="font-feature-settings:normal;font-variant-alternates:normal;font-variant-caps:normal;font-variant-ligatures:normal;font-variant-numeric:normal;font-variant-position:normal;isolation:auto;mix-blend-mode:normal;paint-order:stroke fill markers;shape-padding:0;text-decoration-color:#000000;text-decoration-line:none;text-decoration-style:solid;text-indent:0;text-orientation:mixed;text-transform:none;white-space:normal"/></g><g transform="translate(4.0917e-6 6.7444e-5)"><path d="m-409.06 644.45c-0.91634 0.0883-1.4375 0.86342-1.4375 2.9297v2.6973h-42.453v0.22656c0 9.2291 7.2618 16.658 16.285 16.658h26.168v24.77c0 6.3764 4.9534 11.539 11.236 11.9v64.482h-33.383c-11.476 0-20.713 9.2372-20.713 20.713v3.7871h146.01v-3.7871c0-11.476-9.2485-20.249-20.715-20.713h-49.459v-64.605c5.7161-0.89361 10.066-5.8027 10.066-11.777v-24.77h43.414c9.0233 0 16.287-7.4291 16.287-16.658v-0.22852c-0.0296 8e-5 -0.0582 2e-3 -0.0879 2e-3h-63.98c-2.0569-1.6841-4.6906-2.6934-7.5684-2.6934h-19.17c-4.5458 0-8.4802-3.1277-10.496-2.9336z" fill="#676f83" style="paint-order:markers stroke fill"/><path d="m-402.93 644.65v5.4336h-15.59v0.22656c0 8.9882 6.8951 16.249 15.59 16.623v23.105c0 6.6795 5.188 12.089 11.77 12.467v65.615h-6.3906c-11.476 0-20.713 9.2372-20.713 20.713v3.7871h110.91v-3.7871c0-11.476-9.2485-20.249-20.715-20.713h-49.459v-64.605c5.7161-0.89361 10.066-5.8028 10.066-11.777v-24.77h43.414c9.0233 0 16.287-7.4291 16.287-16.658v-0.22656h-64.068c-2.0569-1.6841-4.6906-2.6934-7.5684-2.6934h-19.17c-1.543 0-3.014-1.1186-4.3652-2.7402z" fill="#4e576e" style="paint-order:markers stroke fill"/></g></g><g transform="translate(-638.42)"><rect x="121.43" y="609" width="186.43" height="41.429" rx="20.714" ry="20.714" fill="#3d649a" style="paint-order:markers stroke fill"/><rect x="265.71" y="609" width="159.29" height="41.429" rx="20.714" ry="20.714" fill="#4b75b3" style="paint-order:markers stroke fill"/></g><g transform="translate(-750.22)" shape-rendering="auto"><path d="m262.31 518.42a15.002 15.002 0 0 0-14.773 15.211v66.082c0 24.39 19.944 45.543 45.031 44.521l16.266-0.66211a15.002 15.002 0 1 0-1.2207-29.977l-16.266 0.66211c-7.4851 0.30472-13.811-6.2123-13.811-14.545v-66.082a15.002 15.002 0 0 0-15.227-15.211z" color="#000000" color-rendering="auto" dominant-baseline="auto" fill="#4d566e" image-rendering="auto" solid-color="#000000" style="font-feature-settings:normal;font-variant-alternates:normal;font-variant-caps:normal;font-variant-ligatures:normal;font-variant-numeric:normal;font-variant-position:normal;isolation:auto;mix-blend-mode:normal;paint-order:markers stroke fill;shape-padding:0;text-decoration-color:#000000;text-decoration-line:none;text-decoration-style:solid;text-indent:0;text-orientation:mixed;text-transform:none;white-space:normal"/><path d="m262.31 518.42a15.002 15.002 0 0 0-14.773 15.211v66.082c0 24.39 19.944 45.543 45.031 44.521l5.0957-0.20703c-21.813-3.9509-37.953-23.913-37.953-46.498v-70.016a15.894 15.894 0 0 1 2.7227-9.0898 15.002 15.002 0 0 0-0.12305-4e-3z" color="#000000" color-rendering="auto" dominant-baseline="auto" fill="#676f83" image-rendering="auto" solid-color="#000000" style="font-feature-settings:normal;font-variant-alternates:normal;font-variant-caps:normal;font-variant-ligatures:normal;font-variant-numeric:normal;font-variant-position:normal;isolation:auto;mix-blend-mode:normal;paint-order:markers stroke fill;shape-padding:0;text-decoration-color:#000000;text-decoration-line:none;text-decoration-style:solid;text-indent:0;text-orientation:mixed;text-transform:none;white-space:normal"/></g><g transform="translate(-638.42)"><rect x="102.14" y="409.71" width="128.42" height="155.84" rx="28.214" ry="28.214" fill="#3d649a" style="paint-order:markers stroke fill"/><rect x="72.857" y="409.71" width="128.42" height="155.84" rx="28.214" ry="28.214" fill="#4b75b3" style="paint-order:markers stroke fill"/></g></g></g><rect x="51.648" y="790.92" width="810.62" height="25.328" rx="12.664" ry="12.664" fill="#ccc" fill-rule="evenodd" style="paint-order:markers stroke fill"/><rect x="577.33" y="476.38" width="258.86" height="33.083" rx="0" ry="0" fill="#deaa87" fill-rule="evenodd" style="paint-order:markers stroke fill"/><g transform="matrix(.92154 0 0 .92154 -335.22 61.189)"><path d="m1188 664.71a1.0001 1.0001 0 0 0-0.9726 0.92383c-1.8332 20.345-7.217 29.412-11.818 40.977s-8.3096 25.494-6.543 54.898a1.0001 1.0001 0 1 0 1.9961-0.11914c-1.7544-29.202 1.8708-42.642 6.4063-54.041 4.5355-11.399 10.091-20.892 11.951-41.535a1.0001 1.0001 0 0 0-1.0195-1.1035z" color="#000000" color-rendering="auto" dominant-baseline="auto" fill="#447821" image-rendering="auto" shape-rendering="auto" solid-color="#000000" style="font-feature-settings:normal;font-variant-alternates:normal;font-variant-caps:normal;font-variant-ligatures:normal;font-variant-numeric:normal;font-variant-position:normal;isolation:auto;mix-blend-mode:normal;shape-padding:0;text-decoration-color:#000000;text-decoration-line:none;text-decoration-style:solid;text-indent:0;text-orientation:mixed;text-transform:none;white-space:normal"/><g transform="matrix(-.26924 .55978 .55978 .26924 1151.3 -145.88)"><path d="m1151.8 619.67c-31.955 20.459-98.462-55.324-117.56-79.407 64.465 13.487 80.021 12.515 117.56 79.407z" fill="#447821"/><path d="m1151.8 619.67c-46.258-43.917-98.916-64.543-117.56-79.407 61.903 5.2258 98.107 13.431 117.56 79.407z" fill="#3a651f"/></g><path d="m1129.2 665.64a1.0001 1.0001 0 0 0-0.795 1.6289c11.26 14.291 13.343 29.201 12.928 44.514-0.4149 15.313-3.393 30.967-2.1211 46.443a1.0004 1.0004 0 1 0 1.9941-0.16406c-1.2417-15.11 1.7042-30.693 2.125-46.225 0.4209-15.532-1.7495-31.076-13.355-45.807a1.0001 1.0001 0 0 0-0.7754-0.39063z" color="#000000" color-rendering="auto" dominant-baseline="auto" fill="#5ea533" image-rendering="auto" shape-rendering="auto" solid-color="#000000" style="font-feature-settings:normal;font-variant-alternates:normal;font-variant-caps:normal;font-variant-ligatures:normal;font-variant-numeric:normal;font-variant-position:normal;isolation:auto;mix-blend-mode:normal;shape-padding:0;text-decoration-color:#000000;text-decoration-line:none;text-decoration-style:solid;text-indent:0;text-orientation:mixed;text-transform:none;white-space:normal"/><g transform="matrix(.49632 0 0 .49632 564.28 353.96)"><path d="m1138.2 630.02c-29.45 18.33-91.256-50.898-115.22-70.851 67.616-7.8599 133-10.273 115.22 70.851z" fill="#8dd35f"/><path d="m1138.2 630.02c-45.558-81.632-91.935-57.512-115.22-70.851 67.616-7.8599 133-10.273 115.22 70.851z" fill="#71c837"/></g><path d="m1162.2 678.28a1.0001 1.0001 0 0 0-0.9766 1.1133c2.5354 25.216 1.7903 38.296 0.2364 48.395-1.554 10.098-3.9608 17.337-4.7188 30.635a1.0006 1.0006 0 1 0 1.998 0.11328c0.7467-13.098 3.1183-20.182 4.6973-30.443 1.5791-10.261 2.3216-23.575-0.2246-48.898a1.0001 1.0001 0 0 0-1.0117-0.91406z" color="#000000" color-rendering="auto" dominant-baseline="auto" fill="#5ea533" image-rendering="auto" shape-rendering="auto" solid-color="#000000" style="font-feature-settings:normal;font-variant-alternates:normal;font-variant-caps:normal;font-variant-ligatures:normal;font-variant-numeric:normal;font-variant-position:normal;isolation:auto;mix-blend-mode:normal;shape-padding:0;text-decoration-color:#000000;text-decoration-line:none;text-decoration-style:solid;text-indent:0;text-orientation:mixed;text-transform:none;white-space:normal"/><g transform="matrix(.60247 .39481 -.39481 .60247 725.24 -149.66)"><path d="m1138.2 630.02c-31.955 20.459-84.874-65.675-103.97-89.757 64.465 13.487 120.88 14.589 103.97 89.757z" fill="#71c837"/><path d="m1138.2 630.02c-38.174-90.905-85.328-74.893-103.97-89.757 61.903 5.2258 121.76 8.6335 103.97 89.757z" fill="#8dd35f"/></g><path d="m1215.6 671.44a1.0001 1.0001 0 0 0-0.457 0.0937c-10.04 4.4981-19.691 9.9559-26.682 19.877s-11.259 24.222-10.805 46.223a1.0002 1.0002 0 1 0 2-0.041c-0.4485-21.725 3.7482-35.534 10.44-45.029 6.6912-9.4956 15.94-14.758 25.865-19.205a1.0001 1.0001 0 0 0-0.3613-1.918z" color="#000000" color-rendering="auto" dominant-baseline="auto" fill="#447821" image-rendering="auto" shape-rendering="auto" solid-color="#000000" style="font-feature-settings:normal;font-variant-alternates:normal;font-variant-caps:normal;font-variant-ligatures:normal;font-variant-numeric:normal;font-variant-position:normal;isolation:auto;mix-blend-mode:normal;shape-padding:0;text-decoration-color:#000000;text-decoration-line:none;text-decoration-style:solid;text-indent:0;text-orientation:mixed;text-transform:none;white-space:normal"/><g transform="matrix(-.3365 -.090165 -.090165 .3365 1655.4 563.08)"><path d="m1138.2 630.02c-29.45 18.33-91.256-50.898-115.22-70.851 67.616-7.8599 133-10.273 115.22 70.851z" fill="#3a651f"/><path d="m1138.2 630.02c-45.558-81.632-91.935-57.512-115.22-70.851 67.616-7.8599 133-10.273 115.22 70.851z" fill="#447821"/></g><path d="m1195.3 696.66a1.0001 1.0001 0 0 0-0.6875 0.30274c-12.352 12.354-12.858 23.715-10.277 34.35s7.9728 20.666 7.5899 31.102a1.0001 1.0001 0 1 0 1.998 0.0723c0.4094-11.157-5.1496-21.363-7.6445-31.645-2.495-10.281-2.2004-20.514 9.748-32.465a1.0001 1.0001 0 0 0-0.7265-1.7168z" color="#000000" color-rendering="auto" dominant-baseline="auto" fill="#5ea533" image-rendering="auto" shape-rendering="auto" solid-color="#000000" style="font-feature-settings:normal;font-variant-alternates:normal;font-variant-caps:normal;font-variant-ligatures:normal;font-variant-numeric:normal;font-variant-position:normal;isolation:auto;mix-blend-mode:normal;shape-padding:0;text-decoration-color:#000000;text-decoration-line:none;text-decoration-style:solid;text-indent:0;text-orientation:mixed;text-transform:none;white-space:normal"/><g transform="matrix(-.53862 -.14432 -.14432 .53862 1899.3 522.6)"><path d="m1138.2 630.02c-29.45 18.33-91.256-50.898-115.22-70.851 67.616-7.8599 133-10.273 115.22 70.851z" fill="#71c837"/><path d="m1138.2 630.02c-45.558-81.632-91.935-57.512-115.22-70.851 67.616-7.8599 133-10.273 115.22 70.851z" fill="#8dd35f"/></g><g transform="matrix(2.0853 0 0 1 -300.72 317.17)" fill-rule="evenodd"><path d="m681.63 404.79h48.045c1.7291 0 3.5532 2.3923 3.1211 5.068l-10.255 63.506c-0.26885 1.6648-0.86608 3.1532-1.9419 3.1532h-29.893c-1.0758 0-1.673-1.4884-1.9419-3.1532l-10.255-63.506c-0.43209-2.6757 1.392-5.068 3.1211-5.068z" fill="#ff7f2a" style="paint-order:markers stroke fill"/><path d="m689.16 404.9c-1.8166 0-3.7332 2.5132-3.2793 5.3242l10.705 66.285h24.008c1.0758 0 1.6726-1.4876 1.9414-3.1523l10.256-63.506c0.37639-2.3308-0.95961-4.4445-2.4531-4.9512z" fill="#f95" style="paint-order:markers stroke fill"/></g></g></g></g><g display="none"><rect transform="rotate(-8.5006)" x="2126.8" y="-165.35" width="162.25" height="297.12" rx="123.85" ry="45.485" display="inline" fill="#ffdfc4" fill-rule="evenodd" style="paint-order:markers stroke fill"/><g transform="matrix(2.7333 0 0 2.7333 -2593.2 -1636.2)" display="inline"><rect x="1552.4" y="851.36" width="135.91" height="13.337" rx="5.1583" ry="5.1583" fill="#ccc" fill-rule="evenodd" style="paint-order:markers stroke fill"/><path d="m1553.6 816.42c51.803 22.784 43.616-6.7487 57.455-4.0963l74.874 28.51c3.7113 4.5156 6.7247 12.825 2.9477 17.285l-136.45-0.44886c-9.5708-9.8799-8.3412-31.318 1.1757-41.25z" fill="#003380"/></g><g transform="matrix(-.21267 0 0 .21267 6000.7 -87.519)" display="inline"><g transform="translate(432.35 -884.89)" fill-rule="evenodd"><path d="m19579-261.48c-12.988 0-23.445 10.457-23.445 23.445 0 7.6858 3.663 14.483 9.344 18.754v724.69c0 112.38 90.474 202.86 202.86 202.86h370.08c99.853 0 182.4-71.427 199.57-166.18 18.957 5.5865 39.038 8.5977 59.852 8.5977 116.4 0 210.11-93.709 210.11-210.11v-268.7c0-116.4-93.709-210.11-210.11-210.11-19.615 0-38.58 2.6702-56.566 7.6523v-88.691c5.68-4.2706 9.343-11.068 9.343-18.754 0-12.988-10.455-23.445-23.443-23.445h-558.84zm799.07 218.66c79.311 0 143.16 71.599 143.16 160.54v205.3c0 88.936-63.849 160.53-143.16 160.53-12.941 0-25.466-1.9174-37.373-5.4941v-515.38c11.907-3.5768 24.432-5.4941 37.373-5.4941z" fill="#f55" style="paint-order:markers stroke fill"/><path d="m20340-219.28-56.198 6.9398s89.679 742.21-104.81 854.49-640.92-173.93-578.53-20.705c36.586 52.547 97.437 86.818 166.6 86.818h370.08c88.751 0 163.83-56.428 191.48-135.51 2.506-9.6482 5.153-19.747 8.091-30.674 1.541-18.985 3.286-64.033 3.286-64.033v-515.38z" fill-opacity=".068493" style="paint-order:markers stroke fill"/><g><rect x="19659" y="-45.31" width="53.875" height="323.25" rx="26.937" ry="26.937" fill="#f7f7f7" style="paint-order:markers stroke fill"/><ellipse cx="19686" cy="-104.4" rx="24.676" ry="24.115" fill="#fff" style="paint-order:markers stroke fill"/></g></g><path d="m20490-1243.4s407.35-276.63 278.8-428.3-141.42-606.09-141.42-606.09-80.47 577.17 28.284 646.5c108.76 69.323-165.66 387.9-165.66 387.9z" fill-opacity=".068493"/><path d="m20311-1229.2s-106.77-51.889-71.155-165.42c35.613-113.53 23.281-195.04 23.281-195.04s38.193 173.4 8.063 225.29c-30.13 51.886 39.811 135.17 39.811 135.17z" fill-opacity=".068493"/><path d="m20386-1291.8s76.768-121.69 41.155-387.92c-35.613-266.24 6.719-457.41 6.719-457.41s-68.193 406.65-38.063 528.33c30.13 121.68-9.811 317-9.811 317z" fill-opacity=".068493"/></g><path d="m2528.6 632.33-16.265 0.66216c-16.286 0.66302-29.422-13.172-29.422-29.533v-66.082" display="inline" fill="none" stroke="#000" stroke-linecap="round" stroke-linejoin="round" stroke-width="30" style="paint-order:markers stroke fill"/><g transform="matrix(.22973 0 0 .22973 -1163.8 -1364)" display="inline" fill-rule="evenodd"><circle cx="15661" cy="6728.8" r="383.86" fill="#4e576e" style="paint-order:markers stroke fill"/><path d="m15263 6780.6a68.3 68.3 0 0 1-67.266-69.26c0-166.25 88.85-320.14 232.83-403.27 143.98-83.127 321.68-83.127 465.66 0 143.98 83.127 232.83 237.02 232.83 403.27a68.3 68.3 0 1 1-136.59 0c0-117.67-62.626-226.14-164.54-284.98-101.91-58.837-227.16-58.837-329.07 0-101.91 58.837-164.54 167.31-164.54 284.98a68.3 68.3 0 0 1-69.322 69.258z" color="#000000" color-rendering="auto" display="inline" dominant-baseline="auto" fill="#676f83" image-rendering="auto" shape-rendering="auto" solid-color="#000000" style="font-feature-settings:normal;font-variant-alternates:normal;font-variant-caps:normal;font-variant-ligatures:normal;font-variant-numeric:normal;font-variant-position:normal;isolation:auto;mix-blend-mode:normal;paint-order:stroke fill markers;shape-padding:0;text-decoration-color:#000000;text-decoration-line:none;text-decoration-style:solid;text-indent:0;text-orientation:mixed;text-transform:none;white-space:normal"/></g><g transform="matrix(1.6354 0 0 1.6354 286.21 -133.47)" display="inline"><path d="m1188 664.71a1.0001 1.0001 0 0 0-0.9726 0.92383c-1.8332 20.345-7.217 29.412-11.818 40.977s-8.3096 25.494-6.543 54.898a1.0001 1.0001 0 1 0 1.9961-0.11914c-1.7544-29.202 1.8708-42.642 6.4063-54.041 4.5355-11.399 10.091-20.892 11.951-41.535a1.0001 1.0001 0 0 0-1.0195-1.1035z" color="#000000" color-rendering="auto" display="inline" dominant-baseline="auto" fill="#447821" image-rendering="auto" shape-rendering="auto" solid-color="#000000" style="font-feature-settings:normal;font-variant-alternates:normal;font-variant-caps:normal;font-variant-ligatures:normal;font-variant-numeric:normal;font-variant-position:normal;isolation:auto;mix-blend-mode:normal;shape-padding:0;text-decoration-color:#000000;text-decoration-line:none;text-decoration-style:solid;text-indent:0;text-orientation:mixed;text-transform:none;white-space:normal"/><g transform="matrix(-.26924 .55978 .55978 .26924 1151.3 -145.88)"><path d="m1151.8 619.67c-31.955 20.459-98.462-55.324-117.56-79.407 64.465 13.487 80.021 12.515 117.56 79.407z" fill="#447821"/><path d="m1151.8 619.67c-46.258-43.917-98.916-64.543-117.56-79.407 61.903 5.2258 98.107 13.431 117.56 79.407z" fill="#3a651f"/></g><path d="m1129.2 665.64a1.0001 1.0001 0 0 0-0.795 1.6289c11.26 14.291 13.343 29.201 12.928 44.514-0.4149 15.313-3.393 30.967-2.1211 46.443a1.0004 1.0004 0 1 0 1.9941-0.16406c-1.2417-15.11 1.7042-30.693 2.125-46.225 0.4209-15.532-1.7495-31.076-13.355-45.807a1.0001 1.0001 0 0 0-0.7754-0.39063z" color="#000000" color-rendering="auto" display="inline" dominant-baseline="auto" fill="#5ea533" image-rendering="auto" shape-rendering="auto" solid-color="#000000" style="font-feature-settings:normal;font-variant-alternates:normal;font-variant-caps:normal;font-variant-ligatures:normal;font-variant-numeric:normal;font-variant-position:normal;isolation:auto;mix-blend-mode:normal;shape-padding:0;text-decoration-color:#000000;text-decoration-line:none;text-decoration-style:solid;text-indent:0;text-orientation:mixed;text-transform:none;white-space:normal"/><g transform="matrix(.49632 0 0 .49632 564.28 353.96)"><path d="m1138.2 630.02c-29.45 18.33-91.256-50.898-115.22-70.851 67.616-7.8599 133-10.273 115.22 70.851z" fill="#8dd35f"/><path d="m1138.2 630.02c-45.558-81.632-91.935-57.512-115.22-70.851 67.616-7.8599 133-10.273 115.22 70.851z" fill="#71c837"/></g><path d="m1162.2 678.28a1.0001 1.0001 0 0 0-0.9766 1.1133c2.5354 25.216 1.7903 38.296 0.2364 48.395-1.554 10.098-3.9608 17.337-4.7188 30.635a1.0006 1.0006 0 1 0 1.998 0.11328c0.7467-13.098 3.1183-20.182 4.6973-30.443 1.5791-10.261 2.3216-23.575-0.2246-48.898a1.0001 1.0001 0 0 0-1.0117-0.91406z" color="#000000" color-rendering="auto" display="inline" dominant-baseline="auto" fill="#5ea533" image-rendering="auto" shape-rendering="auto" solid-color="#000000" style="font-feature-settings:normal;font-variant-alternates:normal;font-variant-caps:normal;font-variant-ligatures:normal;font-variant-numeric:normal;font-variant-position:normal;isolation:auto;mix-blend-mode:normal;shape-padding:0;text-decoration-color:#000000;text-decoration-line:none;text-decoration-style:solid;text-indent:0;text-orientation:mixed;text-transform:none;white-space:normal"/><g transform="matrix(.60247 .39481 -.39481 .60247 725.24 -149.66)"><path d="m1138.2 630.02c-31.955 20.459-84.874-65.675-103.97-89.757 64.465 13.487 120.88 14.589 103.97 89.757z" fill="#71c837"/><path d="m1138.2 630.02c-38.174-90.905-85.328-74.893-103.97-89.757 61.903 5.2258 121.76 8.6335 103.97 89.757z" fill="#8dd35f"/></g><path d="m1215.6 671.44a1.0001 1.0001 0 0 0-0.457 0.0937c-10.04 4.4981-19.691 9.9559-26.682 19.877s-11.259 24.222-10.805 46.223a1.0002 1.0002 0 1 0 2-0.041c-0.4485-21.725 3.7482-35.534 10.44-45.029 6.6912-9.4956 15.94-14.758 25.865-19.205a1.0001 1.0001 0 0 0-0.3613-1.918z" color="#000000" color-rendering="auto" display="inline" dominant-baseline="auto" fill="#447821" image-rendering="auto" shape-rendering="auto" solid-color="#000000" style="font-feature-settings:normal;font-variant-alternates:normal;font-variant-caps:normal;font-variant-ligatures:normal;font-variant-numeric:normal;font-variant-position:normal;isolation:auto;mix-blend-mode:normal;shape-padding:0;text-decoration-color:#000000;text-decoration-line:none;text-decoration-style:solid;text-indent:0;text-orientation:mixed;text-transform:none;white-space:normal"/><g transform="matrix(-.3365 -.090165 -.090165 .3365 1655.4 563.08)"><path d="m1138.2 630.02c-29.45 18.33-91.256-50.898-115.22-70.851 67.616-7.8599 133-10.273 115.22 70.851z" fill="#3a651f"/><path d="m1138.2 630.02c-45.558-81.632-91.935-57.512-115.22-70.851 67.616-7.8599 133-10.273 115.22 70.851z" fill="#447821"/></g><path d="m1195.3 696.66a1.0001 1.0001 0 0 0-0.6875 0.30274c-12.352 12.354-12.858 23.715-10.277 34.35s7.9728 20.666 7.5899 31.102a1.0001 1.0001 0 1 0 1.998 0.0723c0.4094-11.157-5.1496-21.363-7.6445-31.645-2.495-10.281-2.2004-20.514 9.748-32.465a1.0001 1.0001 0 0 0-0.7265-1.7168z" color="#000000" color-rendering="auto" display="inline" dominant-baseline="auto" fill="#5ea533" image-rendering="auto" shape-rendering="auto" solid-color="#000000" style="font-feature-settings:normal;font-variant-alternates:normal;font-variant-caps:normal;font-variant-ligatures:normal;font-variant-numeric:normal;font-variant-position:normal;isolation:auto;mix-blend-mode:normal;shape-padding:0;text-decoration-color:#000000;text-decoration-line:none;text-decoration-style:solid;text-indent:0;text-orientation:mixed;text-transform:none;white-space:normal"/><g transform="matrix(-.53862 -.14432 -.14432 .53862 1899.3 522.6)"><path d="m1138.2 630.02c-29.45 18.33-91.256-50.898-115.22-70.851 67.616-7.8599 133-10.273 115.22 70.851z" fill="#71c837"/><path d="m1138.2 630.02c-45.558-81.632-91.935-57.512-115.22-70.851 67.616-7.8599 133-10.273 115.22 70.851z" fill="#8dd35f"/></g><g transform="matrix(2.0853 0 0 1 -300.72 317.17)" fill-rule="evenodd"><path d="m681.63 404.79h48.045c1.7291 0 3.5532 2.3923 3.1211 5.068l-10.255 63.506c-0.26885 1.6648-0.86608 3.1532-1.9419 3.1532h-29.893c-1.0758 0-1.673-1.4884-1.9419-3.1532l-10.255-63.506c-0.43209-2.6757 1.392-5.068 3.1211-5.068z" fill="#ff7f2a" style="paint-order:markers stroke fill"/><path d="m689.16 404.9c-1.8166 0-3.7332 2.5132-3.2793 5.3242l10.705 66.285h24.008c1.0758 0 1.6726-1.4876 1.9414-3.1523l10.256-63.506c0.37639-2.3308-0.95961-4.4445-2.4531-4.9512z" fill="#f95" style="paint-order:markers stroke fill"/></g></g></g></svg>
