<?xml version="1.0" encoding="UTF-8" standalone="no"?>
<svg
   xmlns:dc="http://purl.org/dc/elements/1.1/"
   xmlns:cc="http://creativecommons.org/ns#"
   xmlns:rdf="http://www.w3.org/1999/02/22-rdf-syntax-ns#"
   xmlns:svg="http://www.w3.org/2000/svg"
   xmlns="http://www.w3.org/2000/svg"
   xmlns:sodipodi="http://sodipodi.sourceforge.net/DTD/sodipodi-0.dtd"
   xmlns:inkscape="http://www.inkscape.org/namespaces/inkscape"
   id="svg1859"
   version="1.1"
   viewBox="0 0 1024 1024"
   height="1024"
   width="1024"
   sodipodi:docname="sitting_top.svg"
   inkscape:version="0.92.4 5da689c313, 2019-01-14">
  <title
     id="title2211">Image - Sitting Top View</title>
  <sodipodi:namedview
     pagecolor="#ffffff"
     bordercolor="#666666"
     borderopacity="1"
     objecttolerance="10"
     gridtolerance="10"
     guidetolerance="10"
     inkscape:pageopacity="0"
     inkscape:pageshadow="2"
     inkscape:window-width="1920"
     inkscape:window-height="1010"
     id="namedview42"
     showgrid="false"
     inkscape:zoom="0.65186406"
     inkscape:cx="539.04775"
     inkscape:cy="570.36481"
     inkscape:window-x="1600"
     inkscape:window-y="28"
     inkscape:window-maximized="1"
     inkscape:current-layer="svg1859" />
  <defs
     id="defs1853" />
  <metadata
     id="metadata1856">
    <rdf:RDF>
      <cc:Work
         rdf:about="">
        <dc:format>image/svg+xml</dc:format>
        <dc:type
           rdf:resource="http://purl.org/dc/dcmitype/StillImage" />
        <dc:title>Image - Sitting Top View</dc:title>
        <dc:date>March 2019</dc:date>
        <dc:creator>
          <cc:Agent>
            <dc:title>Sujaykumar Hublikar</dc:title>
          </cc:Agent>
        </dc:creator>
        <dc:rights>
          <cc:Agent>
            <dc:title>Creative Commons Attribution-NonCommercial-ShareAlike 4.0 International License.</dc:title>
          </cc:Agent>
        </dc:rights>
        <dc:publisher>
          <cc:Agent>
            <dc:title>Sujaykumar Hublikar</dc:title>
          </cc:Agent>
        </dc:publisher>
        <dc:subject>
          <rdf:Bag>
            <rdf:li>image</rdf:li>
          </rdf:Bag>
        </dc:subject>
        <dc:description>Image</dc:description>
        <dc:contributor>
          <cc:Agent>
            <dc:title>https://github.com/Sujaykumarh</dc:title>
          </cc:Agent>
        </dc:contributor>
      </cc:Work>
    </rdf:RDF>
  </metadata>
  <g
     transform="matrix(0.80618867,0,0,0.80618867,99.23139,19.805948)"
     id="layer1">
    <g
       transform="matrix(0.51162592,0,0,0.51162592,-3801.0374,-4579.5919)"
       id="g9743"
       style="display:inline">
      <path
         style="fill:#2e364d;fill-opacity:1;stroke:none;stroke-width:1px;stroke-linecap:butt;stroke-linejoin:miter;stroke-opacity:1"
         d="m 8485.2813,10184 c 3.466,-261.3368 -472.0627,-722.6119 -216.5514,-791.0759 255.5113,-68.464 721.5282,431.3506 715.9456,777.8179 -5.5826,346.467 -581.2545,765.293 -715.9456,729.203 -372.0406,-99.688 213.0854,-454.608 216.5514,-715.945 z"
         id="path3290"
         inkscape:connector-curvature="0" />
      <g
         id="g9667"
         transform="translate(24.25)">
        <g
           id="g3295">
          <rect
             style="opacity:1;fill:#f6f6f6;fill-opacity:1;fill-rule:evenodd;stroke:none;stroke-width:25;stroke-linecap:round;stroke-linejoin:round;stroke-miterlimit:4;stroke-dasharray:none;stroke-dashoffset:0;stroke-opacity:1;paint-order:markers stroke fill"
             id="rect3103"
             width="479.50677"
             height="806.5437"
             x="7999.686"
             y="9735.4297"
             rx="22.627399"
             ry="22.627399" />
          <path
             id="path3286"
             d="m 8065.345,10355.267 v 1.129 c 0.033,8.854 0.7753,18.785 1.952,19.962 1.1466,1.147 6.7136,1.892 14.12,1.892 9.9803,0 12.5224,-0.506 13.835,-2.76 1.7881,-3.07 2.2504,-22.509 0.7179,-30.172 l -0.9858,-4.93 h -13.8326 c -11.1581,0 -14.0179,0.482 -14.7902,2.496 -0.6838,1.782 -0.9984,6.774 -1.0165,12.383 z m 0,-44.173 v 1.13 c 0.033,8.853 0.7753,18.784 1.952,19.96 3.0132,3.014 25.9966,2.52 27.74,-0.595 1.8577,-3.32 1.944,-5.399 0.8987,-21.57 l -0.8924,-13.804 h -13.862 c -11.1851,0 -14.0474,0.482 -14.82,2.496 -0.6838,1.782 -0.9984,6.775 -1.0165,12.383 z m 0,-44.173 v 1.129 c 0.033,8.855 0.7753,18.785 1.952,19.962 1.1466,1.146 6.7136,1.893 14.12,1.893 9.9803,0 12.5224,-0.507 13.835,-2.761 1.7434,-2.994 2.256,-25.782 0.7097,-31.552 -0.8949,-3.339 -1.772,-3.55 -14.7969,-3.55 -11.1701,0 -14.031,0.482 -14.8035,2.496 -0.6838,1.782 -0.9984,6.775 -1.0165,12.383 z m 0,-124.414 c 0.019,5.608 0.3328,10.601 1.0165,12.383 1.3328,3.474 26.6273,3.667 28.5572,0.218 1.5861,-2.835 1.4807,-31.08 -0.1258,-33.679 -1.5879,-2.57 -24.9284,-2.581 -27.4957,-0.01 -1.1766,1.177 -1.9188,11.108 -1.9519,19.962 0,0.379 0,0.756 0,1.13 z m 0,-88.347 c 0.019,5.609 0.3328,10.601 1.0165,12.384 0.7732,2.014 3.6398,2.495 14.8777,2.495 13.221,0 13.9477,-0.177 14.4698,-3.549 0.8742,-5.644 0.043,-30.856 -1.0774,-32.668 -1.4369,-2.325 -24.9751,-2.111 -27.3344,0.248 -1.1766,1.177 -1.9188,11.107 -1.9519,19.962 0,0.378 0,0.754 0,1.128 z m 0,-44.173 c 0.019,5.609 0.3328,10.602 1.0165,12.384 0.7732,2.015 3.6398,2.496 14.8777,2.496 13.1764,0 13.9574,-0.19 14.6198,-3.551 1.0938,-5.548 0.3025,-30.1918 -1.0395,-32.3628 -1.6129,-2.61 -24.9212,-2.658 -27.5223,-0.06 -1.1766,1.177 -1.9188,11.1078 -1.9519,19.9618 0,0.378 0,0.755 0,1.129 z m 0,-44.1729 c 0.019,5.6081 0.3328,10.6011 1.0165,12.3831 1.4597,3.804 28.5587,3.671 29.2961,-0.143 0.9554,-4.945 0.2329,-31.5421 -0.907,-33.3859 -1.5484,-2.5062 -24.9397,-2.4581 -27.4534,0.056 -1.1766,1.1768 -1.9188,11.1071 -1.9519,19.9607 0,0.3784 0,0.7558 0,1.1296 z m 0.059,261.7109 c 0,10.671 0.6036,15.166 2.2167,16.505 1.3909,1.155 6.8237,1.667 14.5819,1.377 12.3181,-0.462 12.3691,-0.482 13.4084,-5.197 0.8114,-3.68 0.7386,-19.441 -0.1434,-31.157 -0.049,-0.652 -6.4025,-1.184 -14.1188,-1.184 -11.3379,0 -14.2135,0.479 -14.9874,2.496 -0.5267,1.372 -0.9574,9.095 -0.9574,17.16 z m 0,-310.6607 c 0,8.0653 0.4307,15.7874 0.9574,17.1603 0.7743,2.0168 3.6539,2.4951 15.0375,2.4951 h 14.0796 l -0.4443,-18.5369 -0.4443,-18.5369 -12.3761,-0.4635 c -7.7667,-0.2905 -13.2019,0.222 -14.5931,1.3766 -1.6131,1.3386 -2.2167,5.8339 -2.2167,16.5053 z m 0,-88.4845 c 0,8.1421 0.4307,15.9262 0.9574,17.2982 0.7731,2.0149 3.6394,2.496 14.8718,2.496 11.911,0 14.023,-0.3978 14.672,-2.7615 1.2355,-4.499 0.7495,-29.8819 -0.6144,-32.0883 -1.5298,-2.4757 -22.9432,-3.4628 -27.0798,-1.2489 -2.385,1.2757 -2.807,3.7282 -2.807,16.3045 z m 0,571.1672 c -0.013,8.321 0.5924,17.886 1.6305,19.826 1.4057,2.626 3.3908,3.051 14.2493,3.051 11.0277,0 12.7587,-0.384 13.7485,-3.049 0.6228,-1.677 0.9779,-8.954 0.789,-16.171 -0.189,-7.217 -0.3664,-14.364 -0.3944,-15.882 -0.044,-2.419 -1.7904,-2.76 -14.0809,-2.76 -11.3379,0 -14.2136,0.478 -14.9875,2.495 -0.6473,1.686 -0.9455,6.797 -0.9545,12.49 z m 0,-522.1859 c 0.01,5.6932 0.3072,10.8037 0.9545,12.4902 0.7732,2.0149 3.6415,2.4951 14.8925,2.4951 h 13.9341 l 0.5309,-5.9153 c 0.8003,-8.9202 0.117,-28.3535 -1.0639,-30.2639 -0.5952,-0.9631 -6.3775,-1.6829 -13.5127,-1.6829 -10.7163,0 -12.7016,0.4293 -14.1049,3.0511 -1.0381,1.94 -1.6436,11.505 -1.6305,19.8257 z m 0.021,305.2659 c 0,7.408 0.311,14.814 0.9333,16.436 1.4782,3.852 26.6271,3.621 28.8908,-0.265 1.788,-3.07 2.2505,-22.509 0.718,-30.172 l -0.9857,-4.93 h -13.8326 c -11.158,0 -14.0181,0.482 -14.7905,2.495 -0.6223,1.622 -0.9333,9.03 -0.9333,16.436 z m 0,-88.346 c 0,7.407 0.311,14.815 0.9333,16.436 0.7731,2.014 3.6397,2.495 14.8721,2.495 11.8892,0 14.0324,-0.401 14.7288,-2.76 1.0858,-3.678 0,-31.304 -1.3138,-33.43 -0.5941,-0.961 -6.6225,-1.673 -14.1813,-1.673 -10.5338,0 -13.3386,0.497 -14.1058,2.496 -0.6223,1.622 -0.9333,9.029 -0.9333,16.436 z m 0,-308.4231 c 0,7.0134 0.311,14.0259 0.9332,15.6468 0.3596,0.9381 1.174,1.5431 3.0723,1.9215 v 0.5745 h 11.8106 13.9244 l 0.6045,-4.3389 c 0.4961,-3.5599 0.3164,-26.4662 -0.2413,-30.7635 -0.084,-0.6504 -6.4668,-1.1832 -14.1831,-1.1832 -11.3379,0 -14.2137,0.4792 -14.9874,2.496 -0.6222,1.6208 -0.9332,8.6343 -0.9332,15.6468 z m 0.2412,665.1921 c 0,6.991 0.4555,12.167 1.1923,12.903 1.8414,1.841 19.6777,3.225 24.8471,1.927 3.3147,-0.832 3.5857,-1.865 4.0579,-15.469 0.2783,-8.017 0.3046,-15.523 0.059,-16.678 -0.2459,-1.156 -0.4469,-2.78 -0.4469,-3.609 0,-0.883 -6.0504,-1.32 -14.5931,-1.054 l -14.5925,0.453 -0.4527,16.428 c -0.049,1.775 -0.072,3.486 -0.071,5.099 z m 0.058,43.182 c -0.011,6.641 0.323,12.018 0.8541,12.827 1.3679,2.084 5.1899,2.552 18.8316,2.308 9.3788,-0.167 9.7806,-0.342 10.4126,-4.513 1.1253,-7.43 1.1386,-10.321 0.097,-21.354 l -1.011,-10.705 -14.3598,0.451 -14.3591,0.451 -0.3998,15.775 c -0.042,1.627 -0.063,3.228 -0.066,4.76 z m 4.9539,11.266 c -0.01,-0.07 0.037,-0.136 0.1266,-0.212 v 0.367 c -0.078,-0.05 -0.1205,-0.1 -0.1266,-0.155 z m 34.0644,3.694 h 19.8177 19.8167 l -0.4426,-19.325 -0.4432,-19.326 h -18.9309 -18.9319 l -0.4426,19.326 z m 0,-132.519 0.4432,19.326 0.4426,19.325 17.2528,0.452 c 9.4888,0.248 18.185,0.09 19.3256,-0.345 1.5537,-0.596 2.0733,-5.552 2.0733,-19.777 v -18.981 h -19.7688 z m 0,-140.505 0.4437,19.375 0.4429,19.375 17.2527,0.45 c 9.4888,0.248 18.2078,0.08 19.3758,-0.364 1.6494,-0.633 2.0242,-4.961 1.6789,-19.382 l -0.4447,-18.567 -19.3747,-0.444 z m 0,-7.79 h 19.8177 19.8167 l -0.4426,-19.325 -0.4432,-19.326 h -18.9309 -18.9319 l -0.4426,19.326 z m 0,-132.519 0.4432,19.326 0.4426,19.325 17.2528,0.451 c 9.4888,0.248 18.185,0.09 19.3256,-0.345 1.5537,-0.596 2.0733,-5.552 2.0733,-19.776 v -18.981 h -19.7688 z m 0,-7.888 h 19.8177 19.8167 l -0.4426,-19.325 -0.4432,-19.326 h -18.9309 -18.9319 l -0.4426,19.326 z m 0,-132.6174 0.4437,19.3756 0.4429,19.374 17.2527,0.451 c 9.4888,0.248 18.2078,0.08 19.3758,-0.364 1.6494,-0.633 2.0242,-4.961 1.6789,-19.382 l -0.4447,-18.5683 -19.3747,-0.4432 z m 0,-7.7897 h 19.8177 19.8167 l -0.4426,-19.326 -0.4432,-19.3261 h -18.9309 -18.9319 l -0.4426,19.3261 z m 0,-179.8479 0.4432,19.326 0.4426,19.3252 17.2528,0.4514 c 9.4888,0.248 18.185,0.093 19.3256,-0.345 1.5537,-0.5967 2.0733,-5.5527 2.0733,-19.7766 v -18.981 h -19.7688 z m 0.3672,588.926 c 0.019,7.112 0.3487,12.181 0.8646,12.209 2.5864,0.14 34.4592,0.202 36.3822,0.07 1.5508,-0.105 1.9177,-4.63 1.5778,-19.463 l -0.4432,-19.326 h -18.9309 -18.9319 l -0.4426,19.326 c -0.045,1.993 -0.07,3.919 -0.076,5.734 0,0.491 0,0.974 0,1.449 z m 0.5186,106.011 17.2528,0.451 c 9.4888,0.248 18.2073,0.08 19.3744,-0.364 1.6528,-0.634 2.0243,-5.096 1.679,-20.17 l -0.4434,-19.357 h -18.9309 -18.9319 v 19.72 z m 0,-140.407 17.2528,0.451 c 9.4888,0.248 18.2073,0.08 19.3744,-0.364 1.6528,-0.634 2.0243,-5.096 1.679,-20.171 l -0.4434,-19.357 h -18.9309 -18.9319 v 19.72 z m 0,-140.408 17.2528,0.451 c 9.4888,0.248 18.185,0.09 19.3256,-0.345 1.5534,-0.595 2.0733,-5.547 2.0733,-19.746 0,-22.368 1.5712,-20.975 -22.8754,-20.261 l -15.7763,0.461 v 19.72 z m 0,-140.407 17.2528,0.452 c 9.4888,0.247 18.2073,0.08 19.3744,-0.365 1.6528,-0.633 2.0243,-5.095 1.679,-20.17 l -0.4434,-19.356 h -18.9309 -18.9319 v 19.72 z m 0,-140.4069 17.2528,0.4506 c 9.4888,0.2479 18.1964,0.093 19.3508,-0.3543 1.6902,-0.6486 2.0171,-9.1848 1.679,-43.8357 l -0.4198,-43.0289 h -18.9309 -18.9319 v 43.3842 z m 7.1309,413.1029 c 0,-0.131 0.039,-0.257 0.1009,-0.378 v 0.837 c -0.071,-0.158 -0.1058,-0.311 -0.1009,-0.459 z m 12.7448,-96.53 c 0.088,-0.169 0.2242,-0.167 0.4196,0 z m 26.6099,163.809 c 0,8.659 0.6488,17.318 1.947,18.616 2.5961,2.597 34.6355,2.597 37.2315,0 2.5962,-2.596 2.5962,-34.636 0,-37.231 -2.596,-2.597 -34.6354,-2.597 -37.2315,0 -1.2982,1.298 -1.947,9.957 -1.947,18.615 z m 0,-140.408 c 0,8.66 0.6488,17.319 1.947,18.617 1.2342,1.234 7.7125,1.893 18.6156,1.893 10.903,0 17.3817,-0.659 18.6159,-1.893 2.5962,-2.597 2.5962,-34.636 0,-37.232 -2.596,-2.596 -34.6354,-2.596 -37.2315,0 -1.2982,1.298 -1.947,9.957 -1.947,18.615 z m 0,-140.406 c 0,8.658 0.6488,17.317 1.947,18.615 1.2342,1.234 7.7125,1.893 18.6156,1.893 10.903,0 17.3817,-0.659 18.6159,-1.893 2.5962,-2.596 2.5962,-34.635 0,-37.231 -2.596,-2.597 -34.6354,-2.597 -37.2315,0 -1.2982,1.298 -1.947,9.957 -1.947,18.616 z m 0,-140.4083 c 0,8.6593 0.6488,17.3185 1.947,18.6165 2.5961,2.596 34.6355,2.596 37.2315,0 2.5962,-2.596 2.5962,-34.6361 0,-37.2321 -2.596,-2.5959 -34.6354,-2.5959 -37.2315,0 -1.2982,1.298 -1.947,9.9573 -1.947,18.6156 z m 0.069,459.0183 c 0,3.048 0.1677,6.937 0.3127,11.899 l 0.4614,15.776 18.0459,0.449 c 9.9253,0.247 18.9768,0.09 20.1145,-0.345 1.5235,-0.585 2.0684,-5.136 2.0684,-17.279 0,-9.067 -0.4308,-17.608 -0.9575,-18.981 -0.7986,-2.082 -4.0637,-2.495 -19.6899,-2.495 -17.623,0 -20.3401,-0.985 -20.3555,10.976 z m 0,-75.589 c 0.016,11.961 2.7358,10.973 20.3932,10.973 13.5262,0 18.9989,-0.55 19.5905,-1.971 0.4516,-1.085 0.6882,-9.781 0.5259,-19.326 l -0.2952,-17.354 h -19.7202 -19.7199 l -0.4614,15.777 c -0.145,4.962 -0.3168,8.851 -0.3129,11.901 z m 0,-64.819 c 0,3.048 0.1677,6.938 0.3127,11.899 l 0.4614,15.777 18.0459,0.449 c 9.9253,0.247 18.9768,0.09 20.1145,-0.345 1.5235,-0.585 2.0684,-5.136 2.0684,-17.28 0,-9.066 -0.4308,-17.608 -0.9575,-18.981 -0.7986,-2.081 -4.0637,-2.495 -19.6899,-2.495 -17.623,0 -20.3401,-0.984 -20.3555,10.976 z m 0,-75.589 c 0.016,11.961 2.7358,10.975 20.3932,10.975 13.5262,0 18.9989,-0.552 19.5905,-1.973 0.4516,-1.084 0.6882,-9.78 0.5259,-19.325 l -0.2952,-17.353 h -19.7202 -19.7199 l -0.4614,15.775 c -0.145,4.962 -0.3168,8.853 -0.3129,11.901 z m 0,-64.819 c 0,3.049 0.1677,6.939 0.3127,11.9 l 0.4614,15.777 18.0459,0.448 c 9.9253,0.247 18.9768,0.09 20.1145,-0.345 1.5235,-0.584 2.0684,-5.136 2.0684,-17.279 0,-9.067 -0.4308,-17.609 -0.9575,-18.98 -0.7986,-2.082 -4.0637,-2.496 -19.6899,-2.496 -17.623,0 -20.3401,-0.985 -20.3555,10.975 z m 0,-75.588 c 0.016,11.961 2.7358,10.974 20.3932,10.974 13.5262,0 18.9989,-0.551 19.5905,-1.972 0.4516,-1.085 0.6882,-9.781 0.5259,-19.325 l -0.2952,-17.354 h -19.7202 -19.7199 l -0.4614,15.775 c -0.145,4.963 -0.3168,8.853 -0.3129,11.902 z m 0,-64.8188 c 0,3.0488 0.1677,6.9378 0.3127,11.8988 l 0.4614,15.777 18.0459,0.449 c 9.9253,0.247 18.9768,0.09 20.1145,-0.345 1.5235,-0.585 2.0684,-5.136 2.0684,-17.279 0,-9.0668 -0.4308,-17.6078 -0.9575,-18.9808 -0.7986,-2.082 -4.0637,-2.495 -19.6899,-2.495 -17.623,0 -20.3401,-0.985 -20.3555,10.975 z m 0,-75.5937 c 0.016,11.9573 2.7242,10.9786 20.2604,10.9786 10.2512,0 19.1329,-0.4941 19.7374,-1.0991 0.6046,-0.6041 0.9005,-9.3004 0.6576,-19.3251 l -0.4421,-18.227 h -19.7199 -19.7201 l -0.4614,15.7763 c -0.1449,4.9596 -0.3159,8.848 -0.3119,11.8963 z m 0,-126.2041 c 0.016,11.9611 2.7358,10.974 20.3932,10.974 13.5262,0 18.9989,-0.5505 19.5905,-1.9715 0.4516,-1.0852 0.6882,-9.7814 0.5259,-19.326 l -0.2952,-17.3537 h -19.7202 -19.7199 l -0.4614,15.7763 c -0.145,4.9624 -0.3168,8.8517 -0.3129,11.9009 z m 0.013,58.253 c 0.023,13.2312 0.4159,25.1257 1.232,26.4098 0.7841,1.2341 6.4881,2.0149 16.1463,2.2101 23.9987,0.4867 22.0336,1.4136 22.0336,-10.3874 v -10.2153 l 24.8474,-0.4339 24.8474,-0.4348 0.8489,-7.0986 c 1.7843,-14.9168 1.6882,-36.5446 -0.1723,-38.7871 -1.5122,-1.8216 -9.6197,-2.2315 -44.1988,-2.2315 -40.2523,0 -42.4274,0.1508 -43.9798,3.052 -1.0066,1.8808 -1.5729,19.093 -1.6044,35.2551 0,0.8909 0,1.779 0,2.6616 z m 0.7604,653.9696 18.046,0.449 c 9.9253,0.247 18.9941,0.08 20.1528,-0.36 1.6653,-0.64 2.0162,-6.347 1.6742,-27.269 l -0.433,-26.458 h -19.7199 -19.7201 v 26.818 z m 48.0199,-223.232 h 19.8171 19.8173 l -0.4428,-19.325 -0.443,-19.326 h -18.9315 -18.9312 l -0.4429,19.326 z m 0,-272.927 0.443,19.326 0.4429,19.325 17.2522,0.452 c 9.4888,0.248 18.1854,0.09 19.3258,-0.345 1.5538,-0.597 2.0734,-5.553 2.0734,-19.777 v -18.981 h -19.7685 z m 0,-140.4079 0.443,19.326 0.4429,19.3261 17.2525,0.4505 c 9.4888,0.248 18.1852,0.093 19.3255,-0.345 1.5538,-0.5958 2.0734,-5.5518 2.0734,-19.7766 v -18.981 h -19.7685 z m 0,-104.122 0.443,19.326 0.4429,19.3261 17.2525,0.4505 c 9.4888,0.248 18.1852,0.093 19.3255,-0.3451 1.5538,-0.5957 2.0734,-5.5517 2.0734,-19.7766 v -18.9809 h -19.7685 z m 0.038,741.4769 h 19.7495 19.7498 v -36.333 -36.333 l -19.3258,0.443 -19.3256,0.442 -0.424,35.891 z m 0.8479,-84.402 19.3747,0.443 19.3746,0.444 -0.4433,-19.375 -0.4433,-19.375 h -18.9315 -18.9312 v 18.932 z m 0,-45.75 17.2522,0.45 c 9.4888,0.248 18.2075,0.08 19.3747,-0.363 1.6527,-0.634 2.0241,-5.097 1.6791,-20.171 l -0.4433,-19.358 h -18.9315 -18.9312 v 19.721 z m 0,-47.328 17.2522,0.45 c 9.4888,0.248 18.1854,0.09 19.3258,-0.345 1.5542,-0.597 2.0734,-5.56 2.0734,-19.825 v -19.029 l -19.3258,0.442 -19.3256,0.444 v 18.931 z m 0,-93.08 17.2522,0.451 c 9.4888,0.248 18.2075,0.08 19.3747,-0.363 1.6527,-0.635 2.0241,-5.097 1.6791,-20.171 l -0.4433,-19.357 h -18.9315 -18.9312 v 19.721 z m 0,-47.328 17.2522,0.451 c 9.4888,0.247 18.1854,0.09 19.3258,-0.345 1.5542,-0.596 2.0734,-5.561 2.0734,-19.825 v -19.029 l -19.3258,0.443 -19.3256,0.443 v 18.931 z m 0,-47.328 19.3747,0.443 19.3746,0.443 -0.4433,-19.374 -0.4433,-19.375 h -18.9315 -18.9312 v 18.932 z m 0,-45.751 17.2522,0.451 c 9.4888,0.248 18.2075,0.08 19.3747,-0.364 1.6527,-0.634 2.0241,-5.096 1.6791,-20.17 l -0.4433,-19.357 h -18.9315 -18.9312 v 19.72 z m 0,-94.657 19.3747,0.443 19.3746,0.444 -0.4433,-19.3748 -0.4433,-19.3744 h -18.9315 -18.9312 v 18.9314 z m 0,-45.7508 17.2522,0.4515 c 9.4888,0.247 18.2075,0.083 19.3747,-0.3645 1.6527,-0.6337 2.0241,-5.0966 1.6791,-20.1707 l -0.4433,-19.3566 h -18.9315 -18.9312 v 19.7201 z m 48.0201,-190.1021 0.4427,19.326 0.4431,19.3261 17.2523,0.4505 c 9.4889,0.248 18.1855,0.093 19.3258,-0.3451 1.5538,-0.5957 2.0734,-5.5517 2.0734,-19.7766 v -18.9809 h -19.7686 z m 0,175.3138 0.4422,19.2262 0.4419,19.2261 17.2525,0.452 c 9.4887,0.248 18.1855,0.09 19.3258,-0.345 3.1082,-1.193 2.9532,-36.5286 -0.1679,-38.2854 -1.2324,-0.6939 -10.128,-1.0399 -19.7678,-0.7679 z m 0.037,-8.0866 h 18.6976 c 10.2836,0 19.1707,-0.4736 19.7492,-1.0518 0.5784,-0.5783 1.0519,-16.893 1.0519,-36.2551 0,-41.1667 2.4516,-37.2533 -22.8756,-36.5132 l -15.7762,0.4607 -0.4231,36.6797 z m 0.058,574.0407 4.3385,0.5 c 2.3862,0.273 11.2788,0.273 19.7617,0 l 15.4231,-0.501 -0.4357,-23.163 -0.4361,-23.165 -19.3259,-0.443 -19.3256,-0.442 v 23.607 z m 0,-55.007 h 18.6684 c 10.2677,0 19.163,-0.495 19.7675,-1.099 0.6046,-0.605 0.9003,-9.301 0.6574,-19.326 l -0.4418,-18.227 -19.3259,-0.442 -19.3256,-0.443 v 19.768 z m 0,-47.329 h 18.6684 c 10.2677,0 19.163,-0.494 19.7675,-1.099 0.6046,-0.604 0.9003,-9.301 0.6574,-19.325 l -0.4418,-18.227 -19.3259,-0.443 -19.3256,-0.442 v 19.768 z m 0,-47.328 h 18.6684 c 10.2677,0 19.163,-0.494 19.7675,-1.099 0.6046,-0.604 0.9003,-9.301 0.6574,-19.326 l -0.4418,-18.226 -19.3259,-0.443 -19.3256,-0.443 v 19.769 z m 0,-47.328 h 18.6684 c 10.2677,0 19.163,-0.495 19.7675,-1.099 0.6046,-0.605 0.9003,-9.301 0.6574,-19.326 l -0.4418,-18.226 -19.3259,-0.443 -19.3256,-0.443 v 19.768 z m 0.235,-485.6567 c 0,0.5098 0,1.0399 0,1.5904 0.01,2.0306 0.044,4.3425 0.1067,6.9644 l 0.4467,18.8061 17.2525,0.4505 c 9.4888,0.248 18.1855,0.093 19.3259,-0.345 1.5473,-0.5931 2.0734,-5.4213 2.0734,-19.0264 0,-18.1187 -0.025,-18.2408 -4.047,-19.7701 -4.8798,-1.8549 -30.6246,-2.0131 -33.4738,-0.2054 -1.1467,0.7272 -1.6545,3.8893 -1.6846,11.5355 z m 0.035,426.1937 c 0.019,7.128 0.3488,12.235 0.8646,12.308 5.3194,0.748 33.3665,1.075 35.5924,0.416 2.5259,-0.748 2.7639,-2.764 2.3663,-20.036 l -0.4418,-19.205 h -18.9313 -18.9315 l -0.443,19.326 c -0.045,1.993 -0.07,3.921 -0.076,5.739 0,0.492 0,0.976 0,1.452 z m 0.5187,-34.404 15.7762,0.461 c 8.677,0.254 17.3951,0.06 19.374,-0.436 3.5316,-0.882 3.5897,-1.254 3.1552,-20.182 l -0.4426,-19.284 h -18.9313 -18.9315 v 19.72 z m 0,-47.329 17.2525,0.451 c 9.4887,0.248 18.2072,0.08 19.3743,-0.363 1.6528,-0.635 2.0243,-5.097 1.6791,-20.171 l -0.4431,-19.357 h -18.9313 -18.9315 v 19.72 z m 0,-47.328 17.2525,0.451 c 9.4887,0.248 18.2072,0.08 19.3743,-0.363 1.6528,-0.635 2.0243,-5.097 1.6791,-20.172 l -0.4431,-19.357 h -18.9313 -18.9315 v 19.72 z m 0,-47.328 17.2525,0.45 c 9.4887,0.248 18.2072,0.08 19.3743,-0.363 1.6528,-0.634 2.0243,-5.096 1.6791,-20.171 l -0.4431,-19.357 h -18.9313 -18.9315 v 19.72 z m 0,-47.328 17.2525,0.45 c 9.4887,0.248 18.1855,0.09 19.3258,-0.345 1.5536,-0.596 2.0734,-5.547 2.0734,-19.746 0,-22.3678 1.5711,-20.9758 -22.8755,-20.2618 l -15.7762,0.462 v 19.7198 z m 8.8683,-9.307 h 1.1941 c -0.1751,0.07 -0.3746,0.103 -0.5966,0.103 -0.2223,0 -0.4221,-0.04 -0.5975,-0.103 z m 37.926,394.632 c -0.01,8.085 0.4818,12.796 1.4627,13.978 1.3537,1.631 6.2292,2.198 18.9064,2.198 14.6043,0 17.3154,-0.4 18.6903,-2.761 2.5609,-4.397 2.1562,-34.34 -0.4941,-36.539 -1.4547,-1.208 -8.2552,-1.673 -20.1146,-1.377 l -17.9165,0.448 -0.4477,17.917 c -0.056,2.223 -0.084,4.269 -0.086,6.136 z m 0,-55.993 c 0,1.866 0.03,3.911 0.086,6.135 l 0.4477,17.917 17.9165,0.448 c 11.8594,0.296 18.6599,-0.169 20.1147,-1.377 2.6701,-2.216 3.1256,-31.463 0.5647,-36.248 -1.4605,-2.729 -3.4416,-3.052 -18.7382,-3.052 -12.6968,0 -17.5752,0.566 -18.9291,2.198 -0.9809,1.181 -1.4719,5.893 -1.4628,13.979 z m 0,-332.876 c 0,1.866 0.03,3.912 0.086,6.136 l 0.4477,17.916 18.1233,0.45 c 15.6716,0.389 18.3926,0.08 20.1145,-2.273 2.4482,-3.349 2.7274,-30.927 0.3581,-35.354 -1.4605,-2.73 -3.4416,-3.052 -18.7382,-3.052 -12.6968,0 -17.5752,0.566 -18.9291,2.198 -0.9809,1.182 -1.4721,5.893 -1.4628,13.979 z m 0,-186.9596 c -0.01,8.0857 0.4818,12.7965 1.4627,13.9788 2.3967,2.8874 34.5622,3.1501 37.4073,0.3044 2.6452,-2.645 2.564,-32.871 -0.098,-36.5123 -1.7218,-2.3545 -4.4428,-2.6616 -20.1144,-2.273 l -18.1233,0.4496 -0.4477,17.917 c -0.056,2.2231 -0.084,4.2695 -0.086,6.1355 z m 0.036,374.5466 c -0.028,52.449 0.4172,73.636 1.4696,74.904 1.3014,1.569 6.3827,2.147 18.8635,2.147 14.6043,0 17.3154,-0.401 18.6903,-2.761 2.5571,-4.391 2.2796,-224.602 -0.2875,-228.113 -1.7218,-2.354 -4.4428,-2.662 -20.1144,-2.273 l -18.1233,0.45 -0.405,114.202 c -0.056,15.573 -0.087,29.341 -0.093,41.444 z m 0,269.469 c -0.018,14.216 0.3229,24.96 0.8704,25.508 0.6742,0.674 9.2939,1.335 19.155,1.47 13.6221,0.186 18.2563,-0.271 19.2908,-1.904 1.7291,-2.729 1.8001,-66.139 0.077,-68.855 -0.9552,-1.506 -6.1058,-1.91 -20.0904,-1.578 l -18.8056,0.447 -0.426,34.597 c -0.044,3.568 -0.068,7.034 -0.071,10.315 z m 0.4971,-147.456 18.8056,0.446 c 13.9845,0.333 19.1352,-0.07 20.0904,-1.577 0.7065,-1.114 1.2846,-9.124 1.2846,-17.801 0,-8.677 -0.5781,-16.686 -1.2846,-17.8 -0.9552,-1.505 -6.1059,-1.91 -20.0904,-1.578 l -18.8056,0.447 v 18.931 z m 0,-332.876 18.8056,0.447 c 13.9845,0.332 19.1352,-0.07 20.0904,-1.578 0.7065,-1.1138 1.2846,-9.1228 1.2846,-17.7998 0,-8.677 -0.5781,-16.6883 -1.2846,-17.8012 -0.9552,-1.5061 -6.1059,-1.9104 -20.0904,-1.5783 l -18.8056,0.4468 v 18.9327 z m 0,-47.3285 18.8056,0.4468 c 13.9845,0.3322 19.1352,-0.074 20.0904,-1.5782 0.7065,-1.113 1.2846,-10.8981 1.2846,-21.7444 0,-10.8463 -0.5781,-20.6314 -1.2846,-21.7444 -0.9552,-1.5051 -6.1059,-1.9104 -20.0904,-1.5773 l -18.8056,0.4468 v 22.8749 z m 0,-55.2166 18.8056,0.4468 c 13.9845,0.3321 19.1352,-0.074 20.0904,-1.5774 0.7065,-1.1138 1.2846,-9.1236 1.2846,-17.8005 0,-8.6777 -0.5781,-16.6875 -1.2846,-17.8005 -0.9552,-1.5061 -6.1059,-1.9104 -20.0904,-1.5783 l -18.8056,0.4469 v 18.9319 z m 0,-93.0787 17.9165,0.4477 c 11.8594,0.2961 18.6599,-0.1693 20.1146,-1.3766 2.4592,-2.0408 3.1864,-32.1447 0.8649,-35.8036 -0.9552,-1.5052 -6.1059,-1.9095 -20.0904,-1.5773 l -18.8056,0.4468 v 18.931 z"
             style="fill:#000000;fill-opacity:1;stroke-width:1.57760978"
             inkscape:connector-curvature="0" />
          <rect
             style="opacity:1;fill:#808080;fill-opacity:1;fill-rule:evenodd;stroke:none;stroke-width:25;stroke-linecap:round;stroke-linejoin:round;stroke-miterlimit:4;stroke-dasharray:none;stroke-dashoffset:0;stroke-opacity:1;paint-order:markers stroke fill"
             id="rect3288"
             width="26.516504"
             height="384.48932"
             x="7992.5161"
             y="9946.457"
             rx="8.8388348"
             ry="8.8388348" />
        </g>
        <g
           id="g9587"
           transform="matrix(0,-0.18336647,0.31247719,0,5194.9123,11004.285)">
          <g
             transform="translate(-15691.857)"
             id="g9547">
            <path
               style="opacity:1;fill:#eaeaea;fill-opacity:1;fill-rule:evenodd;stroke:none;stroke-width:117.98937988;stroke-linecap:round;stroke-linejoin:round;stroke-miterlimit:4;stroke-dasharray:none;stroke-dashoffset:0;stroke-opacity:1;paint-order:markers stroke fill"
               d="m 17667.558,8084.3785 c -88.402,0 -142.228,23.5433 -120.983,52.3914 0,0 579.547,786.9266 579.547,786.9266 13.195,17.9164 78.809,32.1863 147.259,32.1863 0,0 4156.953,0 4156.953,0 68.45,0 134.064,-14.2699 147.259,-32.1863 0,0 579.547,-786.9266 579.547,-786.9266 21.245,-28.8481 -32.581,-52.3914 -120.983,-52.3914 0,0 -5368.599,0 -5368.599,0 z"
               id="path9543"
               inkscape:connector-curvature="0" />
            <path
               style="opacity:1;fill:#ffffff;fill-opacity:1;fill-rule:evenodd;stroke:none;stroke-width:23.77861786;stroke-linecap:round;stroke-linejoin:round;stroke-miterlimit:4;stroke-dasharray:none;stroke-dashoffset:0;stroke-opacity:1;paint-order:markers stroke fill"
               d="m 17801.859,8182.541 c -32.907,0 -53.861,7.9885 -47.013,17.8653 0,0 477.21,688.2416 477.21,688.2416 4.541,6.5492 29.622,11.8013 56.252,11.8013 0,0 4127.099,0 4127.099,0 26.63,0 51.711,-5.2521 56.252,-11.8013 0,0 477.21,-688.2416 477.21,-688.2416 6.848,-9.8768 -14.106,-17.8653 -47.013,-17.8653 0,0 -5099.997,0 -5099.997,0 z"
               id="path9545"
               inkscape:connector-curvature="0" />
          </g>
          <g
             transform="translate(-15691.856)"
             id="g9585">
            <path
               style="opacity:1;fill:#666666;fill-opacity:1;fill-rule:evenodd;stroke:none;stroke-width:23.77861786;stroke-linecap:round;stroke-linejoin:round;stroke-miterlimit:4;stroke-dasharray:none;stroke-dashoffset:0;stroke-opacity:1;paint-order:markers stroke fill"
               d="m 17801.859,8182.5403 c -32.909,0 -53.863,7.99 -47.015,17.8668 0,0 14.099,20.3333 14.099,20.3333 0,0 5165.827,0 5165.827,0 0,0 14.099,-20.3333 14.099,-20.3333 6.848,-9.8768 -14.105,-17.8668 -47.014,-17.8668 0,0 -5099.996,0 -5099.996,0 z"
               id="path9549"
               inkscape:connector-curvature="0" />
            <path
               style="opacity:1;fill:#efefef;fill-opacity:1;fill-rule:evenodd;stroke:none;stroke-width:20.02815437;stroke-linecap:round;stroke-linejoin:round;stroke-miterlimit:4;stroke-dasharray:none;stroke-dashoffset:0;stroke-opacity:1;paint-order:markers stroke fill"
               d="m 19524.91,8861.7024 c -9.24,0 -16.068,2.2312 -15.312,4.9983 0,0 5.356,19.5808 5.356,19.5808 0.746,2.7273 8.713,4.9191 17.866,4.9191 0,0 77.923,0 77.923,0 9.152,0 16,-2.1918 15.353,-4.9191 0,0 -4.645,-19.5808 -4.645,-19.5808 -0.656,-2.7671 -8.624,-4.9983 -17.865,-4.9983 0,0 -78.676,0 -78.676,0 z m 143.202,0 c -9.238,0 -16.17,2.2312 -15.542,4.9983 0,0 4.447,19.5808 4.447,19.5808 0.619,2.7273 8.484,4.9191 17.634,4.9191 0,0 77.921,0 77.921,0 9.153,0 16.103,-2.1918 15.583,-4.9191 0,0 -3.736,-19.5808 -3.736,-19.5808 -0.528,-2.7671 -8.393,-4.9983 -17.634,-4.9983 0,0 -78.673,0 -78.673,0 z m 143.204,0 c -9.241,0 -16.277,2.2312 -15.777,4.9983 0,0 3.538,19.5808 3.538,19.5808 0.493,2.7273 8.256,4.9191 17.408,4.9191 0,0 77.921,0 77.921,0 9.15,0 16.203,-2.1918 15.809,-4.9191 0,0 -2.827,-19.5808 -2.827,-19.5808 -0.399,-2.7671 -8.161,-4.9983 -17.399,-4.9983 0,0 -78.673,0 -78.673,0 z m 143.203,0 c -9.24,0 -16.381,2.2312 -16.009,4.9983 0,0 2.628,19.5808 2.628,19.5808 0.367,2.7273 8.029,4.9191 17.182,4.9191 0,0 77.918,0 77.918,0 9.152,0 16.305,-2.1918 16.038,-4.9191 0,0 -1.917,-19.5808 -1.917,-19.5808 -0.271,-2.7671 -7.928,-4.9983 -17.169,-4.9983 0,0 -78.671,0 -78.671,0 z m 143.199,0 c -9.239,0 -16.483,2.2312 -16.24,4.9983 0,0 1.719,19.5808 1.719,19.5808 0.24,2.7273 7.801,4.9191 16.952,4.9191 0,0 77.92,0 77.92,0 9.152,0 16.407,-2.1918 16.266,-4.9191 0,0 -1.008,-19.5808 -1.008,-19.5808 -0.142,-2.7671 -7.696,-4.9983 -16.936,-4.9983 0,0 -78.673,0 -78.673,0 z m 143.203,0 c -9.24,0 -16.586,2.2312 -16.471,4.9983 0,0 0.81,19.5808 0.81,19.5808 0.113,2.7273 7.571,4.9191 16.722,4.9191 0,0 77.921,0 77.921,0 9.15,0 16.506,-2.1918 16.492,-4.9191 0,0 -0.1,-19.5808 -0.1,-19.5808 -0.01,-2.7671 -7.463,-4.9983 -16.702,-4.9983 0,0 -78.673,0 -78.673,0 z m 143.202,0 c -9.24,0 -16.69,2.2312 -16.704,4.9983 0,0 -0.1,19.5808 -0.1,19.5808 -0.01,2.7273 7.343,4.9191 16.495,4.9191 0,0 77.92,0 77.92,0 9.152,0 16.61,-2.1918 16.723,-4.9191 0,0 0.81,-19.5808 0.81,-19.5808 0.115,-2.7671 -7.232,-4.9983 -16.472,-4.9983 0,0 -78.673,0 -78.673,0 z m 143.201,0 c -9.241,0 -16.794,2.2312 -16.937,4.9983 0,0 -1.008,19.5808 -1.008,19.5808 -0.14,2.7273 7.114,4.9191 16.266,4.9191 0,0 77.92,0 77.92,0 9.151,0 16.712,-2.1918 16.952,-4.9191 0,0 1.719,-19.5808 1.719,-19.5808 0.243,-2.7671 -7.001,-4.9983 -16.24,-4.9983 0,0 -78.672,0 -78.672,0 z m 143.201,0 c -9.238,0 -16.896,2.2312 -17.167,4.9983 0,0 -1.918,19.5808 -1.918,19.5808 -0.267,2.7273 6.887,4.9191 16.037,4.9191 0,0 77.921,0 77.921,0 9.152,0 16.814,-2.1918 17.18,-4.9191 0,0 2.629,-19.5808 2.629,-19.5808 0.371,-2.7671 -6.768,-4.9983 -16.009,-4.9983 0,0 -78.673,0 -78.673,0 z m 143.204,0 c -9.241,0 -17.003,2.2312 -17.402,4.9983 0,0 -2.827,19.5808 -2.827,19.5808 -0.393,2.7273 6.659,4.9191 15.811,4.9191 0,0 77.921,0 77.921,0 9.15,0 16.914,-2.1918 17.406,-4.9191 0,0 3.538,-19.5808 3.538,-19.5808 0.5,-2.7671 -6.536,-4.9983 -15.774,-4.9983 0,0 -78.673,0 -78.673,0 z m 143.199,0 c -9.24,0 -17.105,2.2312 -17.633,4.9983 0,0 -3.736,19.5808 -3.736,19.5808 -0.52,2.7273 6.431,4.9191 15.582,4.9191 0,0 77.919,0 77.919,0 9.153,0 17.018,-2.1918 17.637,-4.9191 0,0 4.447,-19.5808 4.447,-19.5808 0.629,-2.7671 -6.303,-4.9983 -15.544,-4.9983 0,0 -78.672,0 -78.672,0 z m 143.204,0 c -9.241,0 -17.209,2.2312 -17.865,4.9983 0,0 -4.645,19.5808 -4.645,19.5808 -0.647,2.7273 6.201,4.9191 15.353,4.9191 0,0 77.92,0 77.92,0 9.151,0 17.119,-2.1918 17.865,-4.9191 0,0 5.356,-19.5808 5.356,-19.5808 0.757,-2.7671 -6.073,-4.9983 -15.312,-4.9983 0,0 -78.672,0 -78.672,0 z"
               id="path9551"
               inkscape:connector-curvature="0" />
            <g
               id="g9567"
               transform="matrix(1.40804,0,0,1.40804,-3156.3762,7521.5629)">
              <path
                 style="opacity:1;fill:#f9f9f9;fill-opacity:1;fill-rule:evenodd;stroke:none;stroke-width:11.34075069;stroke-linecap:round;stroke-linejoin:round;stroke-miterlimit:4;stroke-dasharray:none;stroke-dashoffset:0;stroke-opacity:1;paint-order:markers stroke fill"
                 d="m 15007.885,535.98283 c 0,0 2371.779,0 2371.779,0 15.304,0 26.635,3.6256 25.41,8.11513 0,0 -91.265,334.26137 -91.265,334.26137 -0.927,3.39763 -12.346,6.12551 -25.603,6.12551 0,0 -2054.623,0 -2054.623,0 -13.257,0 -25.726,-2.72788 -27.963,-6.12551 0,0 -220.018,-334.26137 -220.018,-334.26137 -2.955,-4.48953 6.979,-8.11513 22.283,-8.11513 z"
                 id="path9553"
                 inkscape:connector-curvature="0" />
              <path
                 style="opacity:1;fill:#666666;fill-opacity:1;fill-rule:evenodd;stroke:none;stroke-width:11.34075069;stroke-linecap:round;stroke-linejoin:round;stroke-miterlimit:4;stroke-dasharray:none;stroke-dashoffset:0;stroke-opacity:1;paint-order:markers stroke fill"
                 d="m 15007.887,535.98285 c -15.304,0 -25.237,3.62573 -22.282,8.11525 0,0 11.62,17.65457 11.62,17.65457 0,0 2403.03,0 2403.03,0 0,0 4.82,-17.65457 4.82,-17.65457 1.226,-4.48952 -10.107,-8.11525 -25.411,-8.11525 0,0 -2371.777,0 -2371.777,0 z"
                 id="path9555"
                 inkscape:connector-curvature="0" />
              <path
                 id="path9563"
                 transform="translate(-180,-1565.1843)"
                 d="m 15890.689,2151.7621 c -6.449,0 -10.933,1.8174 -10.054,4.0711 0.877,2.2497 6.758,4.0581 13.187,4.0581 0,0 1573.706,0 1573.706,0 6.43,0 12.037,-1.8084 12.57,-4.0581 0.534,-2.2537 -4.231,-4.0711 -10.682,-4.0711 0,0 -1578.727,0 -1578.727,0 z m 6.979,22.4361 c -5.469,0 -9.174,1.7856 -8.311,4 0.862,2.2105 5.943,3.9873 11.395,3.9873 0,0 1334.536,0 1334.536,0 5.453,0 10.102,-1.7768 10.425,-3.9873 0.324,-2.2144 -3.818,-4 -9.287,-4 0,0 -1338.758,0 -1338.758,0 z m 10.166,22.0457 c -6.337,0 -10.755,1.7546 -9.906,3.9307 0.847,2.1722 6.614,3.9183 12.932,3.9183 0,0 1546.399,0 1546.399,0 6.319,0 11.821,-1.7461 12.336,-3.9183 0.515,-2.1761 -4.174,-3.9307 -10.512,-3.9307 0,0 -1551.249,0 -1551.249,0 z m 8.351,21.6652 c -6.283,0 -10.668,1.7245 -9.834,3.8632 0.833,2.135 6.544,3.8512 12.807,3.8512 0,0 1533.099,0 1533.099,0 6.265,0 11.716,-1.7162 12.222,-3.8512 0.506,-2.1387 -4.146,-3.8632 -10.43,-3.8632 0,0 -1537.864,0 -1537.864,0 z m 4.358,21.2945 c -4.097,0 -6.733,1.6952 -5.913,3.7975 0.819,2.0987 4.764,3.7857 8.847,3.7857 0,0 999.592,0 999.592,0 4.083,0 7.408,-1.687 7.455,-3.7857 0.05,-2.1023 -3.213,-3.7975 -7.309,-3.7975 0,0 -1002.672,0 -1002.672,0 z m 11.918,20.9334 c -6.176,0 -10.498,1.6665 -9.692,3.7333 0.805,2.0634 6.408,3.722 12.566,3.722 0,0 1507.172,0 1507.172,0 6.159,0 11.511,-1.6586 12,-3.722 0.49,-2.0668 -4.09,-3.7333 -10.268,-3.7333 0,0 -1511.778,0 -1511.778,0 z m 7.933,20.5812 c -6.124,0 -10.415,1.6386 -9.623,3.6709 0.791,2.0288 6.343,3.6597 12.448,3.6597 0,0 1494.536,0 1494.536,0 6.107,0 11.411,-1.6309 11.892,-3.6597 0.481,-2.0323 -4.064,-3.6709 -10.189,-3.6709 0,0 -1499.064,0 -1499.064,0 z m 6.868,20.2387 c -5.557,0 -9.401,1.6107 -8.622,3.6092 0.778,1.9952 5.862,3.5991 11.404,3.5991 0,0 1356.413,0 1356.413,0 5.542,0 10.298,-1.6039 10.665,-3.5991 0.367,-1.9985 -3.812,-3.6092 -9.371,-3.6092 0,0 -1360.489,0 -1360.489,0 z m 8.604,19.9032 c -6.023,0 -10.253,1.5849 -9.487,3.5505 0.766,1.9624 6.215,3.54 12.22,3.54 0,0 1469.886,0 1469.886,0 6.006,0 11.217,-1.5776 11.682,-3.54 0.465,-1.9656 -4.011,-3.5505 -10.035,-3.5505 0,0 -1474.266,0 -1474.266,0 z m 7.546,19.5766 c -5.974,0 -10.175,1.559 -9.421,3.4926 0.753,1.9304 6.153,3.4822 12.109,3.4822 0,0 1457.864,0 1457.864,0 5.957,0 11.122,-1.5518 11.579,-3.4822 0.458,-1.9336 -3.984,-3.4926 -9.959,-3.4926 0,0 -1462.172,0 -1462.172,0 z m 1.407,19.2581 c -2.593,0 -4.081,1.5337 -3.339,3.436 0.741,1.8992 3.416,3.4259 6.001,3.4259 0,0 632.981,0 632.981,0 2.585,0 4.491,-1.5267 4.272,-3.4259 -0.22,-1.9023 -2.486,-3.436 -5.079,-3.436 0,0 -634.836,0 -634.836,0 z m 13.318,18.9472 c -5.877,0 -10.019,1.5091 -9.289,3.3808 0.728,1.8687 6.032,3.371 11.892,3.371 0,0 1434.4,0 1434.4,0 5.861,0 10.937,-1.5023 11.38,-3.371 0.443,-1.8717 -3.933,-3.3808 -9.811,-3.3808 0,0 -1438.572,0 -1438.572,0 z m 1.267,18.6438 c -2.551,0 -4.025,1.485 -3.306,3.3269 0.717,1.839 3.34,3.3174 5.884,3.3174 0,0 622.875,0 622.875,0 2.543,0 4.422,-1.4784 4.209,-3.3174 -0.212,-1.8419 -2.439,-3.3269 -4.991,-3.3269 0,0 -624.671,0 -624.671,0 z"
                 style="opacity:1;fill:#dddddd;fill-opacity:1;fill-rule:evenodd;stroke:none;stroke-width:7.61110687;stroke-linecap:round;stroke-linejoin:round;stroke-miterlimit:4;stroke-dasharray:none;stroke-dashoffset:0;stroke-opacity:1;paint-order:markers stroke fill"
                 inkscape:connector-curvature="0" />
              <path
                 id="path9565"
                 transform="translate(-180,-1565.1843)"
                 d="m 15334.692,2149.3474 c -6.861,0 -11.314,1.7604 -9.989,3.9431 1.324,2.179 7.892,3.9301 14.732,3.9301 0,0 392.069,0 392.069,0 6.84,0 11.568,-1.7511 10.601,-3.9301 -0.969,-2.1827 -7.272,-3.9431 -14.133,-3.9431 0,0 -393.28,0 -393.28,0 z m 71.408,17.715 c -5.749,0 -9.365,1.7361 -8.11,3.8887 1.252,2.149 6.87,3.876 12.602,3.876 0,0 328.559,0 328.559,0 5.731,0 9.578,-1.727 8.623,-3.876 -0.958,-2.1526 -6.359,-3.8887 -12.107,-3.8887 0,0 -329.567,0 -329.567,0 z m 7.827,17.4714 c -4.445,0 -7.027,1.7122 -5.79,3.8354 1.235,2.1196 5.796,3.823 10.228,3.823 0,0 254.087,0 254.087,0 4.433,0 7.193,-1.7034 6.186,-3.823 -1.009,-2.1232 -5.403,-3.8354 -9.85,-3.8354 0,0 -254.861,0 -254.861,0 z m 7.207,17.2326 c -2.876,0 -4.207,1.689 -2.987,3.7833 1.218,2.0908 4.505,3.771 7.373,3.771 0,0 164.438,0 164.438,0 2.868,0 4.316,-1.6802 3.244,-3.771 -1.073,-2.0943 -4.256,-3.7833 -7.132,-3.7833 0,0 -164.936,0 -164.936,0 z m 14.877,16.9988 c -5.632,0 -9.194,1.6662 -7.99,3.7322 1.201,2.0625 6.686,3.7201 12.302,3.7201 0,0 321.892,0 321.892,0 5.614,0 9.399,-1.6576 8.481,-3.7201 -0.918,-2.066 -6.195,-3.7322 -11.826,-3.7322 0,0 -322.859,0 -322.859,0 z m 7.611,16.7705 c -4.436,0 -7.048,1.643 -5.86,3.6813 1.185,2.0349 5.696,3.6703 10.119,3.6703 0,0 253.534,0 253.534,0 4.423,0 7.209,-1.6354 6.245,-3.6703 -0.964,-2.0383 -5.312,-3.6813 -9.748,-3.6813 0,0 -254.29,0 -254.29,0 z m 10.803,16.5453 c -5.081,0 -8.224,1.621 -7.053,3.6322 1.17,2.0078 6.186,3.6214 11.252,3.6214 0,0 290.387,0 290.387,0 5.065,0 8.406,-1.6136 7.489,-3.6214 -0.918,-2.0112 -5.747,-3.6322 -10.828,-3.6322 0,0 -291.247,0 -291.247,0 z m 116.185,16.3252 c -2.911,0 -4.393,1.5995 -3.327,3.584 1.064,1.9813 4.254,3.5736 7.157,3.5736 0,0 166.418,0 166.418,0 2.903,0 4.5,-1.5923 3.58,-3.5736 -0.922,-1.9845 -4.009,-3.584 -6.921,-3.584 0,0 -166.907,0 -166.907,0 z m 1.479,16.1095 c -2.449,0 -3.567,1.5785 -2.51,3.5369 1.056,1.9553 3.869,3.5274 6.311,3.5274 0,0 139.942,0 139.942,0 2.442,0 3.655,-1.5721 2.72,-3.5274 -0.937,-1.9584 -3.663,-3.5369 -6.112,-3.5369 0,0 -140.351,0 -140.351,0 z m 9.325,15.8981 c -2.86,0 -4.32,1.5579 -3.277,3.4907 1.042,1.9297 4.174,3.4814 7.026,3.4814 0,0 163.478,0 163.478,0 2.852,0 4.424,-1.5517 3.522,-3.4814 -0.904,-1.9328 -3.936,-3.4907 -6.797,-3.4907 0,0 -163.952,0 -163.952,0 z m 6.414,15.6909 c -1.721,0 -2.274,1.5376 -1.244,3.4453 1.028,1.9047 3.235,3.4362 4.951,3.4362 0,0 98.371,0 98.371,0 1.716,0 2.339,-1.5315 1.394,-3.4362 -0.946,-1.9077 -3.095,-3.4453 -4.816,-3.4453 0,0 -98.656,0 -98.656,0 z m 10.352,15.4876 c -2.823,0 -4.275,1.5178 -3.259,3.4009 1.015,1.8801 4.097,3.3919 6.912,3.3919 0,0 161.365,0 161.365,0 2.816,0 4.377,-1.5118 3.498,-3.3919 -0.881,-1.8831 -3.864,-3.4009 -6.688,-3.4009 0,0 -161.828,0 -161.828,0 z m -88.878,15.2882 c -4.885,0 -7.942,1.4984 -6.859,3.3573 1.081,1.8561 5.87,3.3486 10.741,3.3486 0,0 279.206,0 279.206,0 4.871,0 8.11,-1.4925 7.262,-3.3486 -0.848,-1.8589 -5.464,-3.3573 -10.348,-3.3573 0,0 -280.002,0 -280.002,0 z m 5.522,15.0928 c -3.072,0 -4.682,1.4793 -3.613,3.3146 1.068,1.8324 4.391,3.3058 7.454,3.3058 0,0 175.616,0 175.616,0 3.063,1e-4 4.789,-1.4734 3.868,-3.3058 -0.923,-1.8353 -4.14,-3.3146 -7.212,-3.3146 0,0 -176.113,0 -176.113,0 z m 6.947,14.901 c -2.11,0 -2.958,1.4605 -1.903,3.2726 1.054,1.8092 3.596,3.2641 5.7,3.2641 0,0 120.691,0 120.691,0 2.106,0 3.034,-1.4549 2.08,-3.2641 -0.956,-1.8121 -3.426,-3.2726 -5.538,-3.2726 0,0 -121.03,0 -121.03,0 z m 11.655,14.7128 c -3.818,0 -6.052,1.4422 -5.01,3.2314 1.041,1.7866 4.944,3.2232 8.751,3.2232 0,0 218.322,0 218.322,0 3.808,0 6.181,-1.4366 5.32,-3.2232 -0.863,-1.7892 -4.632,-3.2314 -8.451,-3.2314 0,0 -218.932,0 -218.932,0 z m 109.802,14.5283 c -2.153,0 -3.12,1.4241 -2.17,3.191 0.948,1.7642 3.436,3.1829 5.583,3.1829 0,0 123.036,0 123.036,0 2.147,0 3.194,-1.4187 2.347,-3.1829 -0.849,-1.7669 -3.267,-3.191 -5.419,-3.191 0,0 -123.377,0 -123.377,0 z m 1.207,14.347 c -1.867,0 -2.611,1.4065 -1.669,3.1514 0.94,1.7424 3.197,3.1434 5.058,3.1434 0,0 106.763,0 106.763,0 1.863,0 2.675,-1.401 1.821,-3.1434 -0.855,-1.7449 -3.047,-3.1514 -4.915,-3.1514 0,0 -107.058,0 -107.058,0 z"
                 style="display:inline;opacity:1;fill:#cacaca;fill-opacity:0.91764706;fill-rule:evenodd;stroke:none;stroke-width:22.88991928;stroke-linecap:round;stroke-linejoin:round;stroke-miterlimit:4;stroke-dasharray:none;stroke-dashoffset:0;stroke-opacity:1;paint-order:markers stroke fill"
                 inkscape:connector-curvature="0" />
            </g>
            <g
               id="g9583"
               transform="matrix(1.40804,0,0,1.40804,-3156.3762,7521.5629)">
              <path
                 style="opacity:1;fill:#f9f9f9;fill-opacity:1;fill-rule:evenodd;stroke:none;stroke-width:11.34075069;stroke-linecap:round;stroke-linejoin:round;stroke-miterlimit:4;stroke-dasharray:none;stroke-dashoffset:0;stroke-opacity:1;paint-order:markers stroke fill"
                 d="m 17620.709,535.45722 c 0,0 602.634,0 602.634,0 15.308,0 25.467,3.62706 22.787,8.1184 0,0 -199.507,334.38713 -199.507,334.38713 -2.028,3.39882 -14.331,6.12765 -27.591,6.12765 0,0 -522.036,0 -522.036,0 -13.26,0 -22.996,-2.72883 -21.826,-6.12765 0,0 115.114,-334.38713 115.114,-334.38713 1.546,-4.49134 15.118,-8.1184 30.425,-8.1184 z"
                 id="path9569"
                 inkscape:connector-curvature="0" />
              <path
                 id="path9571"
                 d="m 17620.709,535.45723 c -15.307,0 -28.878,3.62719 -30.424,8.11852 0,0 -6.08,17.66165 -6.08,17.66165 0,0 651.389,0 651.389,0 0,0 10.538,-17.66165 10.538,-17.66165 2.679,-4.49133 -7.481,-8.11852 -22.789,-8.11852 0,0 -602.634,0 -602.634,0 z"
                 style="opacity:1;fill:#666666;fill-opacity:1;fill-rule:evenodd;stroke:none;stroke-width:11.34075069;stroke-linecap:round;stroke-linejoin:round;stroke-miterlimit:4;stroke-dasharray:none;stroke-dashoffset:0;stroke-opacity:1;paint-order:markers stroke fill"
                 inkscape:connector-curvature="0" />
              <path
                 id="path9579"
                 transform="translate(-180,-1565.1843)"
                 d="m 17830.107,2143.4442 c -15.056,0 -28.445,3.5085 -30.017,7.8539 0,0 -9.855,27.252 -9.855,27.252 -1.533,4.2389 9.155,7.6406 23.96,7.6406 0,0 83.922,0 83.922,0 14.805,0 28.141,-3.4017 29.905,-7.6406 0,0 11.341,-27.252 11.341,-27.252 1.808,-4.3454 -8.855,-7.8539 -23.911,-7.8539 0,0 -85.345,0 -85.345,0 z m -21.192,56.9325 c -14.722,0 -27.787,3.3553 -29.29,7.5102 0,0 -9.426,26.0641 -9.426,26.0641 -1.466,4.0553 9.015,7.3107 23.497,7.3107 0,0 82.089,0 82.089,0 14.481,0 27.496,-3.2554 29.183,-7.3107 0,0 10.846,-26.0641 10.846,-26.0641 1.729,-4.1549 -8.728,-7.5102 -23.449,-7.5102 0,0 -83.45,0 -83.45,0 z m -20.272,54.4597 c -14.402,0 -27.158,3.2105 -28.596,7.1872 0,0 -9.024,24.9536 -9.024,24.9536 -1.405,3.8834 8.878,7.0003 23.05,7.0003 0,0 80.334,0 80.334,0 14.172,0 26.88,-3.1169 28.496,-7.0003 0,0 10.384,-24.9536 10.384,-24.9536 1.654,-3.9767 -8.605,-7.1872 -23.007,-7.1872 0,0 -81.637,0 -81.637,0 z m -19.41,52.1432 c -14.096,0 -26.556,3.0762 -27.934,6.886 0,0 -8.647,23.9112 -8.647,23.9112 -1.346,3.7223 8.743,6.7107 22.619,6.7107 0,0 78.653,0 78.653,0 13.875,0 26.291,-2.9884 27.84,-6.7107 0,0 9.95,-23.9112 9.95,-23.9112 1.585,-3.8098 -8.484,-6.886 -22.58,-6.886 0,0 -79.901,0 -79.901,0 z m -18.602,49.9729 c -13.802,0 -25.98,2.9488 -27.302,6.6019 0,0 -8.294,22.9342 -8.294,22.9342 -1.291,3.5709 8.614,6.4373 22.205,6.4373 0,0 77.041,0 77.041,0 13.59,0 25.726,-2.8664 27.212,-6.4373 0,0 9.544,-22.9342 9.544,-22.9342 1.52,-3.6531 -8.366,-6.6019 -22.168,-6.6019 0,0 -78.238,0 -78.238,0 z m -17.843,47.9338 c -13.521,0 -25.43,2.8305 -26.697,6.3365 0,0 -7.962,22.0145 -7.962,22.0145 -1.24,3.4286 8.487,6.1816 21.804,6.1816 0,0 75.493,0 75.493,0 13.318,0 25.187,-2.753 26.614,-6.1816 0,0 9.161,-22.0145 9.161,-22.0145 1.458,-3.506 -8.25,-6.3365 -21.771,-6.3365 0,0 -76.642,0 -76.642,0 z"
                 style="opacity:1;fill:#ebebeb;fill-opacity:1;fill-rule:evenodd;stroke:none;stroke-width:24.99999809;stroke-linecap:round;stroke-linejoin:round;stroke-miterlimit:4;stroke-dasharray:none;stroke-dashoffset:0;stroke-opacity:1;paint-order:markers stroke fill"
                 inkscape:connector-curvature="0" />
              <path
                 id="path9581"
                 transform="translate(-180,-1565.1843)"
                 d="m 17996.468,2147.7838 c -10.536,0 -20.151,2.6321 -21.555,5.8942 -1.4,3.2538 5.918,5.8671 16.405,5.8671 0,0 321.115,0 321.115,0 10.487,0 20.423,-2.6133 22.282,-5.8671 1.864,-3.2621 -5.114,-5.8942 -15.65,-5.8942 0,0 -322.597,0 -322.597,0 z m -11.492,20.0168 c -8.943,0 -17.257,2.5911 -18.639,5.8025 -1.379,3.2032 4.68,5.7759 13.582,5.7759 0,0 272.563,0 272.563,0 8.902,0 17.486,-2.5727 19.251,-5.7759 1.769,-3.2114 -4.002,-5.8025 -12.945,-5.8025 0,0 -273.812,0 -273.812,0 z m -13.354,36.7252 c -10.302,0 -19.679,2.5168 -21.022,5.636 -1.339,3.1116 5.841,5.6115 16.097,5.6115 0,0 314.029,0 314.029,0 10.256,0 19.94,-2.4999 21.718,-5.6115 1.782,-3.1192 -5.074,-5.636 -15.376,-5.636 0,0 -315.446,0 -315.446,0 z m -11.049,19.1425 c -8.745,0 -16.853,2.4784 -18.175,5.5502 -1.319,3.0643 4.63,5.5263 13.337,5.5263 0,0 266.594,0 266.594,0 8.707,0 17.073,-2.462 18.761,-5.5263 1.693,-3.0718 -3.982,-5.5502 -12.728,-5.5502 0,0 -267.789,0 -267.789,0 z m -12.719,35.1391 c -10.079,0 -19.229,2.4088 -20.514,5.3945 -1.282,2.9783 5.766,5.3707 15.8,5.3707 0,0 307.248,0 307.248,0 10.035,0 19.48,-2.3924 21.181,-5.3707 1.706,-2.9857 -5.032,-5.3945 -15.11,-5.3945 0,0 -308.605,0 -308.605,0 z m -10.633,18.3242 c -8.558,0 -16.468,2.3729 -17.734,5.3141 -1.263,2.9341 4.581,5.2909 13.102,5.2909 0,0 260.88,0 260.88,0 8.521,0 16.678,-2.3568 18.295,-5.2909 1.62,-2.9412 -3.961,-5.3141 -12.519,-5.3141 0,0 -262.024,0 -262.024,0 z m -12.126,33.6521 c -9.864,0 -18.799,2.3077 -20.031,5.1681 -1.228,2.8536 5.693,5.1459 15.515,5.1459 0,0 300.754,0 300.754,0 9.822,0 19.039,-2.2923 20.67,-5.1459 1.634,-2.8604 -4.989,-5.1681 -14.854,-5.1681 0,0 -302.054,0 -302.054,0 z m -10.242,17.5573 c -8.377,0 -16.1,2.2739 -17.313,5.0927 -1.211,2.8121 4.532,5.0717 12.873,5.0717 0,0 255.407,0 255.407,0 8.341,0 16.302,-2.2596 17.851,-5.0717 1.553,-2.8188 -3.938,-5.0927 -12.315,-5.0927 0,0 -256.503,0 -256.503,0 z m -11.57,32.2589 c -9.66,0 -18.389,2.2128 -19.57,4.9557 -1.178,2.7365 5.62,4.9348 15.239,4.9348 0,0 294.528,0 294.528,0 9.619,0 18.619,-2.1983 20.182,-4.9348 1.568,-2.7429 -4.945,-4.9557 -14.605,-4.9557 0,0 -295.774,0 -295.774,0 z m -9.875,16.8375 c -8.204,0 -15.748,2.1812 -16.912,4.8849 -1.161,2.6976 4.483,4.8646 12.653,4.8646 0,0 250.158,0 250.158,0 8.17,0 15.942,-2.167 17.428,-4.8646 1.49,-2.7037 -3.914,-4.8849 -12.118,-4.8849 0,0 -251.209,0 -251.209,0 z m -11.05,30.9492 c -9.463,0 -17.995,2.1236 -19.128,4.7562 -1.131,2.6265 5.548,4.7365 14.972,4.7365 0,0 288.555,0 288.555,0 9.424,0 18.217,-2.11 19.717,-4.7365 1.504,-2.6326 -4.901,-4.7562 -14.364,-4.7562 0,0 -289.752,0 -289.752,0 z m -9.528,16.1611 c -8.038,0 -15.411,2.0939 -16.528,4.6896 -1.115,2.5898 4.434,4.671 12.44,4.671 0,0 245.12,0 245.12,0 8.006,0 15.597,-2.0812 17.024,-4.671 1.43,-2.5957 -3.887,-4.6896 -11.926,-4.6896 0,0 -246.13,0 -246.13,0 z"
                 style="opacity:1;fill:#efefef;fill-opacity:1;fill-rule:evenodd;stroke:none;stroke-width:20.99455261;stroke-linecap:round;stroke-linejoin:round;stroke-miterlimit:4;stroke-dasharray:none;stroke-dashoffset:0;stroke-opacity:1;paint-order:markers stroke fill"
                 inkscape:connector-curvature="0" />
            </g>
          </g>
        </g>
      </g>
      <g
         id="g9706">
        <path
           style="fill:#feb280;fill-opacity:1;stroke:none;stroke-width:1px;stroke-linecap:butt;stroke-linejoin:miter;stroke-opacity:1"
           d="m 8425.1969,10622.396 c 30.7343,4.882 82.2201,-31.225 91.9642,-59.474 9.7441,-28.249 -8.9849,-29.109 -22.7686,-65.952 -13.7835,-36.844 -21.3635,-153.816 -62.2181,-154.17 -40.8545,-0.354 17.0377,51.422 -30.785,72.632 -47.8228,21.211 -160.5592,-77.262 -221.9406,-77.262 -61.381,0 125.2105,82.079 125.2105,82.079 0,0 -119.1455,-58.604 -156.8546,-48.5 -37.7089,10.104 123.0007,78.252 123.0007,78.252 0,0 -105.5018,-52.82 -121.0366,-37.285 -15.5348,15.534 123.5133,70.301 123.5133,70.301 0,0 -85.67,-27.44 -99.2357,-3.944 -13.5657,23.497 162.9067,53.903 202.5077,83.379 39.6013,29.475 17.9085,55.062 48.6428,59.944 z"
           id="path3101"
           inkscape:connector-curvature="0" />
        <path
           id="path3099"
           d="m 8449.3008,9730 c 30.9506,3.2392 71.3367,51.4419 73.4375,81.25 2.1008,29.8081 -16.2128,25.7923 -39.0625,57.8125 -22.8497,32.0202 -60.4459,143.0445 -100,132.8125 -39.5541,-10.2323 29.7661,-45.2601 -10.9375,-78.125 -40.7036,-32.8649 -175.0853,33.0741 -234.375,17.1875 -59.2897,-15.8866 142.1875,-46.875 142.1875,-46.875 0,0 -130.2535,25.7696 -164.0625,6.25 -33.809,-19.5196 139.0625,-43.75 139.0625,-43.75 0,0 -115.5777,23.7138 -126.5625,4.6875 -10.9848,-19.0263 137.5,-35.9375 137.5,-35.9375 0,0 -89.8529,4.332 -96.875,-21.875 -7.0221,-26.207 171.3069,-9.9037 217.1875,-28.125 45.8806,-18.2213 31.5494,-48.5517 62.5,-45.3125 z"
           style="fill:#feb280;fill-opacity:1;stroke:none;stroke-width:1px;stroke-linecap:butt;stroke-linejoin:miter;stroke-opacity:1"
           inkscape:connector-curvature="0" />
        <path
           style="fill:#feb280;fill-opacity:1;stroke:none;stroke-width:0.68017554px;stroke-linecap:butt;stroke-linejoin:miter;stroke-opacity:1"
           d="m 8395.7365,9913.467 c 39.514,-44.244 141.394,-38.494 180.358,6.012 38.965,44.505 -23.058,107.97 -17.284,173.595 5.775,65.625 -131.847,59.763 -137.524,-6.012 -5.676,-65.775 -65.065,-129.351 -25.55,-173.595 z"
           id="path3095"
           inkscape:connector-curvature="0" />
        <path
           id="path3097"
           d="m 8402.3656,10349.88 c 39.514,44.244 141.394,38.494 180.358,-6.012 38.965,-44.505 -23.058,-107.969 -17.284,-173.594 5.775,-65.625 -131.847,-59.763 -137.524,6.012 -5.676,65.775 -65.065,129.35 -25.55,173.594 z"
           style="fill:#feb280;fill-opacity:1;stroke:none;stroke-width:0.68017554px;stroke-linecap:butt;stroke-linejoin:miter;stroke-opacity:1"
           inkscape:connector-curvature="0" />
        <path
           id="path3074"
           d="m 8633.3318,9764.1552 c -67.3573,67.8275 -121.5339,99.4368 -121.5339,99.4368 -46.7891,-34.9304 -98.1676,-66.9925 -99.4369,-130.3728 7.5317,-90.0685 237.9019,-257.0621 276.2135,-258.5359 69.1834,-2.6615 196.0302,90.3991 276.2136,203.2932 80.1834,112.8941 139.7924,150.6773 143.6311,466.2485 25.9358,160.892 -31.0903,352.637 -106.066,466.249 -74.9757,113.612 -143.2112,197.436 -274.0039,198.873 -130.7927,1.437 -354.8116,-154.374 -366.8116,-254.116 14.5383,-62.466 54.1111,-95.724 103.8563,-117.115 57.571,-8.382 84.1308,60.314 163.5184,101.647 -62.0337,-294.543 -3.3534,-706.4334 4.4194,-775.6078 z"
           style="fill:#ce493a;fill-opacity:1;stroke:none;stroke-width:1px;stroke-linecap:butt;stroke-linejoin:miter;stroke-opacity:1"
           inkscape:connector-curvature="0" />
        <path
           style="fill:#ad3d32;fill-opacity:1;stroke:none;stroke-width:1px;stroke-linecap:butt;stroke-linejoin:miter;stroke-opacity:1"
           d="m 8633.3318,9764.1552 c -29.1184,0.5444 23.6712,-199.2467 70.7108,-243.068 -115.5093,-59.7087 -295.7009,210.1224 -291.6816,212.132 0,0 25.0113,-174.6402 276.2135,-258.5359 65.669,-21.9319 196.0302,90.3991 276.2136,203.2932 80.1834,112.8941 139.7924,150.6773 143.6311,466.2485 25.9358,160.892 -31.0903,352.637 -106.066,466.249 -74.9757,113.612 -173.5339,243.553 -287.2622,209.922 -315.7574,-98.482 -355.754,-266.632 -353.5533,-265.165 43.4027,100.395 319.2413,289.058 413.2155,209.922 -145.7938,-129.119 -98.2757,-150.843 -145.8408,-225.39 64.3907,39.464 80.4494,191.928 194.3979,115.622 -131.8744,-281.584 -47.9785,-493.864 7.0246,-517.228 54.8024,-13.176 -193.641,-379.5874 -94.7915,-530.2153 -4.6383,-88.128 -122.6459,94.2301 -102.2116,156.2135 z"
           id="path3078"
           inkscape:connector-curvature="0" />
        <path
           id="path3080"
           d="m 8964.7881,9677.9765 c 0,0 139.7924,150.6773 143.6311,466.2485 23.7261,280.216 -106.066,466.249 -106.066,466.249 0,0 97.2533,-411.976 20.2264,-505.463 57.7652,-244.8513 -57.7915,-427.0345 -57.7915,-427.0345 z"
           style="fill:#a4352c;fill-opacity:1;stroke:none;stroke-width:1px;stroke-linecap:butt;stroke-linejoin:miter;stroke-opacity:1"
           inkscape:connector-curvature="0" />
        <path
           id="path3093"
           d="m 8815.6328,10005.013 c 65.0482,58.095 56.5932,207.879 -8.8388,265.165 -65.432,57.286 -158.739,-33.901 -255.2214,-25.411 -96.4824,8.49 -87.8642,-193.843 8.8389,-202.189 96.7031,-8.346 190.1731,-95.6596 255.2213,-37.565 z"
           style="fill:#feb280;fill-opacity:1;stroke:none;stroke-width:1px;stroke-linecap:butt;stroke-linejoin:miter;stroke-opacity:1"
           inkscape:connector-curvature="0" />
        <path
           id="path3082"
           d="m 8707.8125,10280 c 0,0 125,55.544 125,-156.25 0,-211.7938 -156.25,-112.5 -156.25,-112.5 0,0 190.625,-138.9706 190.625,110.938 0,249.908 -159.375,157.812 -159.375,157.812 z"
           style="fill:#f4f4f4;fill-opacity:1;stroke:none;stroke-width:1px;stroke-linecap:butt;stroke-linejoin:miter;stroke-opacity:1"
           inkscape:connector-curvature="0" />
        <path
           style="fill:#4d4d4d;fill-opacity:1;stroke:none;stroke-width:1px;stroke-linecap:butt;stroke-linejoin:miter;stroke-opacity:1"
           d="m 8725.5542,10229.569 c -37.568,43.734 -273.3839,191.008 -385.4564,156.889 -112.0725,-34.119 -164.1123,-112.905 -192.2446,-185.615 -59.9381,-149.002 74.3845,-292.8717 132.5825,-315.9887 141.0122,-50.0061 392.492,93.2143 429.6505,130.3727 39.3682,63.675 39.7777,137.462 15.468,214.342 z"
           id="path3072"
           inkscape:connector-curvature="0" />
        <path
           id="path3070"
           d="m 8725.5542,10229.569 c -37.568,43.734 -226.013,162.282 -331.4564,156.889 -105.4433,-5.393 -164.1123,-112.905 -192.2446,-185.615 -28.1323,-72.71 11.7516,-96.504 33.1457,-150.261 21.3941,-53.7559 6.8621,-132.1279 99.4368,-165.7277 92.5747,-33.5998 338.492,93.2143 375.6505,130.3727 33.8439,74.724 39.7777,137.462 15.468,214.342 z"
           style="fill:#333333;fill-opacity:1;stroke:none;stroke-width:1px;stroke-linecap:butt;stroke-linejoin:miter;stroke-opacity:1"
           inkscape:connector-curvature="0" />
      </g>
    </g>
  </g>
</svg>
