<?xml version="1.0" encoding="UTF-8"?>
<svg width="1024" height="1024" version="1.1" viewBox="0 0 1024 1024" xmlns="http://www.w3.org/2000/svg" xmlns:cc="http://creativecommons.org/ns#" xmlns:dc="http://purl.org/dc/elements/1.1/" xmlns:rdf="http://www.w3.org/1999/02/22-rdf-syntax-ns#"><title>Image - Sitting Top View</title><metadata><rdf:RDF><cc:Work rdf:about=""><dc:format>image/svg+xml</dc:format><dc:type rdf:resource="http://purl.org/dc/dcmitype/StillImage"/><dc:title>Image - Sitting Top View</dc:title><dc:date>March 2019</dc:date><dc:creator><cc:Agent><dc:title>Sujaykumar Hublikar</dc:title></cc:Agent></dc:creator><dc:rights><cc:Agent><dc:title>Creative Commons Attribution-NonCommercial-ShareAlike 4.0 International License.</dc:title></cc:Agent></dc:rights><dc:publisher><cc:Agent><dc:title>Sujaykumar Hublikar</dc:title></cc:Agent></dc:publisher><dc:subject><rdf:Bag><rdf:li>image</rdf:li></rdf:Bag></dc:subject><dc:description>Image</dc:description><dc:contributor><cc:Agent><dc:title>https://github.com/Sujaykumarh</dc:title></cc:Agent></dc:contributor></cc:Work></rdf:RDF></metadata><g transform="matrix(.80619 0 0 .80619 99.231 19.806)"><g transform="matrix(.51163 0 0 .51163 -3801 -4579.6)"><path d="m8485.3 10184c3.466-261.34-472.06-722.61-216.55-791.08s721.53 431.35 715.95 777.82c-5.5826 346.47-581.25 765.29-715.95 729.2-372.04-99.688 213.09-454.61 216.55-715.94z" fill="#2e364d"/><g transform="translate(24.25)"><g><rect x="7999.7" y="9735.4" width="479.51" height="806.54" rx="22.627" ry="22.627" fill="#f6f6f6" fill-rule="evenodd" style="paint-order:markers stroke fill"/><path d="m8065.3 10355v1.129c0.033 8.854 0.7753 18.785 1.952 19.962 1.1466 1.147 6.7136 1.892 14.12 1.892 9.9803 0 12.522-0.506 13.835-2.76 1.7881-3.07 2.2504-22.509 0.7179-30.172l-0.9858-4.93h-13.833c-11.158 0-14.018 0.482-14.79 2.496-0.6838 1.782-0.9984 6.774-1.0165 12.383zm0-44.173v1.13c0.033 8.853 0.7753 18.784 1.952 19.96 3.0132 3.014 25.997 2.52 27.74-0.595 1.8577-3.32 1.944-5.399 0.8987-21.57l-0.8924-13.804h-13.862c-11.185 0-14.047 0.482-14.82 2.496-0.6838 1.782-0.9984 6.775-1.0165 12.383zm0-44.173v1.129c0.033 8.855 0.7753 18.785 1.952 19.962 1.1466 1.146 6.7136 1.893 14.12 1.893 9.9803 0 12.522-0.507 13.835-2.761 1.7434-2.994 2.256-25.782 0.7097-31.552-0.8949-3.339-1.772-3.55-14.797-3.55-11.17 0-14.031 0.482-14.804 2.496-0.6838 1.782-0.9984 6.775-1.0165 12.383zm0-124.41c0.019 5.608 0.3328 10.601 1.0165 12.383 1.3328 3.474 26.627 3.667 28.557 0.218 1.5861-2.835 1.4807-31.08-0.1258-33.679-1.5879-2.57-24.928-2.581-27.496-0.01-1.1766 1.177-1.9188 11.108-1.9519 19.962v1.13zm0-88.347c0.019 5.609 0.3328 10.601 1.0165 12.384 0.7732 2.014 3.6398 2.495 14.878 2.495 13.221 0 13.948-0.177 14.47-3.549 0.8742-5.644 0.043-30.856-1.0774-32.668-1.4369-2.325-24.975-2.111-27.334 0.248-1.1766 1.177-1.9188 11.107-1.9519 19.962v1.128zm0-44.173c0.019 5.609 0.3328 10.602 1.0165 12.384 0.7732 2.015 3.6398 2.496 14.878 2.496 13.176 0 13.957-0.19 14.62-3.551 1.0938-5.548 0.3025-30.192-1.0395-32.363-1.6129-2.61-24.921-2.658-27.522-0.06-1.1766 1.177-1.9188 11.108-1.9519 19.962v1.129zm0-44.173c0.019 5.6081 0.3328 10.601 1.0165 12.383 1.4597 3.804 28.559 3.671 29.296-0.143 0.9554-4.945 0.2329-31.542-0.907-33.386-1.5484-2.5062-24.94-2.4581-27.453 0.056-1.1766 1.1768-1.9188 11.107-1.9519 19.961v1.1296zm0.059 261.71c0 10.671 0.6036 15.166 2.2167 16.505 1.3909 1.155 6.8237 1.667 14.582 1.377 12.318-0.462 12.369-0.482 13.408-5.197 0.8114-3.68 0.7386-19.441-0.1434-31.157-0.049-0.652-6.4025-1.184-14.119-1.184-11.338 0-14.214 0.479-14.987 2.496-0.5267 1.372-0.9574 9.095-0.9574 17.16zm0-310.66c0 8.0653 0.4307 15.787 0.9574 17.16 0.7743 2.0168 3.6539 2.4951 15.038 2.4951h14.08l-0.8886-37.074-12.376-0.4635c-7.7667-0.2905-13.202 0.222-14.593 1.3766-1.6131 1.3386-2.2167 5.8339-2.2167 16.505zm0-88.484c0 8.1421 0.4307 15.926 0.9574 17.298 0.7731 2.0149 3.6394 2.496 14.872 2.496 11.911 0 14.023-0.3978 14.672-2.7615 1.2355-4.499 0.7495-29.882-0.6144-32.088-1.5298-2.4757-22.943-3.4628-27.08-1.2489-2.385 1.2757-2.807 3.7282-2.807 16.304zm0 571.17c-0.013 8.321 0.5924 17.886 1.6305 19.826 1.4057 2.626 3.3908 3.051 14.249 3.051 11.028 0 12.759-0.384 13.748-3.049 0.6228-1.677 0.9779-8.954 0.789-16.171-0.189-7.217-0.3664-14.364-0.3944-15.882-0.044-2.419-1.7904-2.76-14.081-2.76-11.338 0-14.214 0.478-14.988 2.495-0.6473 1.686-0.9455 6.797-0.9545 12.49zm0-522.19c0.01 5.6932 0.3072 10.804 0.9545 12.49 0.7732 2.0149 3.6415 2.4951 14.892 2.4951h13.934l0.5309-5.9153c0.8003-8.9202 0.117-28.354-1.0639-30.264-0.5952-0.9631-6.3775-1.6829-13.513-1.6829-10.716 0-12.702 0.4293-14.105 3.0511-1.0381 1.94-1.6436 11.505-1.6305 19.826zm0.021 305.27c0 7.408 0.311 14.814 0.9333 16.436 1.4782 3.852 26.627 3.621 28.891-0.265 1.788-3.07 2.2505-22.509 0.718-30.172l-0.9857-4.93h-13.833c-11.158 0-14.018 0.482-14.79 2.495-0.6223 1.622-0.9333 9.03-0.9333 16.436zm0-88.346c0 7.407 0.311 14.815 0.9333 16.436 0.7731 2.014 3.6397 2.495 14.872 2.495 11.889 0 14.032-0.401 14.729-2.76 1.0858-3.678 0-31.304-1.3138-33.43-0.5941-0.961-6.6225-1.673-14.181-1.673-10.534 0-13.339 0.497-14.106 2.496-0.6223 1.622-0.9333 9.029-0.9333 16.436zm0-308.42c0 7.0134 0.311 14.026 0.9332 15.647 0.3596 0.9381 1.174 1.5431 3.0723 1.9215v0.5745h25.735l0.6045-4.3389c0.4961-3.5599 0.3164-26.466-0.2413-30.764-0.084-0.6504-6.4668-1.1832-14.183-1.1832-11.338 0-14.214 0.4792-14.987 2.496-0.6222 1.6208-0.9332 8.6343-0.9332 15.647zm0.2412 665.19c0 6.991 0.4555 12.167 1.1923 12.903 1.8414 1.841 19.678 3.225 24.847 1.927 3.3147-0.832 3.5857-1.865 4.0579-15.469 0.2783-8.017 0.3046-15.523 0.059-16.678-0.2459-1.156-0.4469-2.78-0.4469-3.609 0-0.883-6.0504-1.32-14.593-1.054l-14.592 0.453-0.4527 16.428c-0.049 1.775-0.072 3.486-0.071 5.099zm0.058 43.182c-0.011 6.641 0.323 12.018 0.8541 12.827 1.3679 2.084 5.1899 2.552 18.832 2.308 9.3788-0.167 9.7806-0.342 10.413-4.513 1.1253-7.43 1.1386-10.321 0.097-21.354l-1.011-10.705-28.719 0.902-0.3998 15.775c-0.042 1.627-0.063 3.228-0.066 4.76zm4.9539 11.266c-0.01-0.07 0.037-0.136 0.1266-0.212v0.367c-0.078-0.05-0.1205-0.1-0.1266-0.155zm34.064 3.694h39.634l-0.4426-19.325-0.4432-19.326h-37.863l-0.4426 19.326zm0-132.52 0.4432 19.326 0.4426 19.325 17.253 0.452c9.4888 0.248 18.185 0.09 19.326-0.345 1.5537-0.596 2.0733-5.552 2.0733-19.777v-18.981h-19.769zm0-140.5 0.4437 19.375 0.4429 19.375 17.253 0.45c9.4888 0.248 18.208 0.08 19.376-0.364 1.6494-0.633 2.0242-4.961 1.6789-19.382l-0.4447-18.567-19.375-0.444zm0-7.79h39.634l-0.4426-19.325-0.4432-19.326h-37.863l-0.4426 19.326zm0-132.52 0.4432 19.326 0.4426 19.325 17.253 0.451c9.4888 0.248 18.185 0.09 19.326-0.345 1.5537-0.596 2.0733-5.552 2.0733-19.776v-18.981h-19.769zm0-7.888h39.634l-0.4426-19.325-0.4432-19.326h-37.863l-0.4426 19.326zm0-132.62 0.4437 19.376 0.4429 19.374 17.253 0.451c9.4888 0.248 18.208 0.08 19.376-0.364 1.6494-0.633 2.0242-4.961 1.6789-19.382l-0.4447-18.568-19.375-0.4432zm0-7.7897h39.634l-0.4426-19.326-0.4432-19.326h-37.863l-0.4426 19.326zm0-179.85 0.4432 19.326 0.4426 19.325 17.253 0.4514c9.4888 0.248 18.185 0.093 19.326-0.345 1.5537-0.5967 2.0733-5.5527 2.0733-19.777v-18.981h-19.769zm0.3672 588.93c0.019 7.112 0.3487 12.181 0.8646 12.209 2.5864 0.14 34.459 0.202 36.382 0.07 1.5508-0.105 1.9177-4.63 1.5778-19.463l-0.4432-19.326h-37.863l-0.4426 19.326c-0.045 1.993-0.07 3.919-0.076 5.734v1.449zm0.5186 106.01 17.253 0.451c9.4888 0.248 18.207 0.08 19.374-0.364 1.6528-0.634 2.0243-5.096 1.679-20.17l-0.4434-19.357h-37.863v19.72zm0-140.41 17.253 0.451c9.4888 0.248 18.207 0.08 19.374-0.364 1.6528-0.634 2.0243-5.096 1.679-20.171l-0.4434-19.357h-37.863v19.72zm0-140.41 17.253 0.451c9.4888 0.248 18.185 0.09 19.326-0.345 1.5534-0.595 2.0733-5.547 2.0733-19.746 0-22.368 1.5712-20.975-22.875-20.261l-15.776 0.461v19.72zm0-140.41 17.253 0.452c9.4888 0.247 18.207 0.08 19.374-0.365 1.6528-0.633 2.0243-5.095 1.679-20.17l-0.4434-19.356h-37.863v19.72zm0-140.41 17.253 0.4506c9.4888 0.2479 18.196 0.093 19.351-0.3543 1.6902-0.6486 2.0171-9.1848 1.679-43.836l-0.4198-43.029h-37.863v43.384zm7.1309 413.1c0-0.131 0.039-0.257 0.1009-0.378v0.837c-0.071-0.158-0.1058-0.311-0.1009-0.459zm12.745-96.53c0.088-0.169 0.2242-0.167 0.4196 0zm26.61 163.81c0 8.659 0.6488 17.318 1.947 18.616 2.5961 2.597 34.636 2.597 37.232 0 2.5962-2.596 2.5962-34.636 0-37.231-2.596-2.597-34.635-2.597-37.232 0-1.2982 1.298-1.947 9.957-1.947 18.615zm0-140.41c0 8.66 0.6488 17.319 1.947 18.617 1.2342 1.234 7.7125 1.893 18.616 1.893 10.903 0 17.382-0.659 18.616-1.893 2.5962-2.597 2.5962-34.636 0-37.232-2.596-2.596-34.635-2.596-37.232 0-1.2982 1.298-1.947 9.957-1.947 18.615zm0-140.41c0 8.658 0.6488 17.317 1.947 18.615 1.2342 1.234 7.7125 1.893 18.616 1.893 10.903 0 17.382-0.659 18.616-1.893 2.5962-2.596 2.5962-34.635 0-37.231-2.596-2.597-34.635-2.597-37.232 0-1.2982 1.298-1.947 9.957-1.947 18.616zm0-140.41c0 8.6593 0.6488 17.318 1.947 18.616 2.5961 2.596 34.636 2.596 37.232 0 2.5962-2.596 2.5962-34.636 0-37.232-2.596-2.5959-34.635-2.5959-37.232 0-1.2982 1.298-1.947 9.9573-1.947 18.616zm0.069 459.02c0 3.048 0.1677 6.937 0.3127 11.899l0.4614 15.776 18.046 0.449c9.9253 0.247 18.977 0.09 20.114-0.345 1.5235-0.585 2.0684-5.136 2.0684-17.279 0-9.067-0.4308-17.608-0.9575-18.981-0.7986-2.082-4.0637-2.495-19.69-2.495-17.623 0-20.34-0.985-20.356 10.976zm0-75.589c0.016 11.961 2.7358 10.973 20.393 10.973 13.526 0 18.999-0.55 19.59-1.971 0.4516-1.085 0.6882-9.781 0.5259-19.326l-0.2952-17.354h-39.44l-0.4614 15.777c-0.145 4.962-0.3168 8.851-0.3129 11.901zm0-64.819c0 3.048 0.1677 6.938 0.3127 11.899l0.4614 15.777 18.046 0.449c9.9253 0.247 18.977 0.09 20.114-0.345 1.5235-0.585 2.0684-5.136 2.0684-17.28 0-9.066-0.4308-17.608-0.9575-18.981-0.7986-2.081-4.0637-2.495-19.69-2.495-17.623 0-20.34-0.984-20.356 10.976zm0-75.589c0.016 11.961 2.7358 10.975 20.393 10.975 13.526 0 18.999-0.552 19.59-1.973 0.4516-1.084 0.6882-9.78 0.5259-19.325l-0.2952-17.353h-39.44l-0.4614 15.775c-0.145 4.962-0.3168 8.853-0.3129 11.901zm0-64.819c0 3.049 0.1677 6.939 0.3127 11.9l0.4614 15.777 18.046 0.448c9.9253 0.247 18.977 0.09 20.114-0.345 1.5235-0.584 2.0684-5.136 2.0684-17.279 0-9.067-0.4308-17.609-0.9575-18.98-0.7986-2.082-4.0637-2.496-19.69-2.496-17.623 0-20.34-0.985-20.356 10.975zm0-75.588c0.016 11.961 2.7358 10.974 20.393 10.974 13.526 0 18.999-0.551 19.59-1.972 0.4516-1.085 0.6882-9.781 0.5259-19.325l-0.2952-17.354h-39.44l-0.4614 15.775c-0.145 4.963-0.3168 8.853-0.3129 11.902zm0-64.819c0 3.0488 0.1677 6.9378 0.3127 11.899l0.4614 15.777 18.046 0.449c9.9253 0.247 18.977 0.09 20.114-0.345 1.5235-0.585 2.0684-5.136 2.0684-17.279 0-9.0668-0.4308-17.608-0.9575-18.981-0.7986-2.082-4.0637-2.495-19.69-2.495-17.623 0-20.34-0.985-20.356 10.975zm0-75.594c0.016 11.957 2.7242 10.979 20.26 10.979 10.251 0 19.133-0.4941 19.737-1.0991 0.6046-0.6041 0.9005-9.3004 0.6576-19.325l-0.4421-18.227h-39.44l-0.4614 15.776c-0.1449 4.9596-0.3159 8.848-0.3119 11.896zm0-126.2c0.016 11.961 2.7358 10.974 20.393 10.974 13.526 0 18.999-0.5505 19.59-1.9715 0.4516-1.0852 0.6882-9.7814 0.5259-19.326l-0.2952-17.354h-39.44l-0.4614 15.776c-0.145 4.9624-0.3168 8.8517-0.3129 11.901zm0.013 58.253c0.023 13.231 0.4159 25.126 1.232 26.41 0.7841 1.2341 6.4881 2.0149 16.146 2.2101 23.999 0.4867 22.034 1.4136 22.034-10.387v-10.215l49.695-0.8687 0.8489-7.0986c1.7843-14.917 1.6882-36.545-0.1723-38.787-1.5122-1.8216-9.6197-2.2315-44.199-2.2315-40.252 0-42.427 0.1508-43.98 3.052-1.0066 1.8808-1.5729 19.093-1.6044 35.255v2.6616zm0.7604 653.97 18.046 0.449c9.9253 0.247 18.994 0.08 20.153-0.36 1.6653-0.64 2.0162-6.347 1.6742-27.269l-0.433-26.458h-39.44v26.818zm48.02-223.23h39.634l-0.4428-19.325-0.443-19.326h-37.863l-0.4429 19.326zm0-272.93 0.443 19.326 0.4429 19.325 17.252 0.452c9.4888 0.248 18.185 0.09 19.326-0.345 1.5538-0.597 2.0734-5.553 2.0734-19.777v-18.981h-19.768zm0-140.41 0.443 19.326 0.4429 19.326 17.252 0.4505c9.4888 0.248 18.185 0.093 19.326-0.345 1.5538-0.5958 2.0734-5.5518 2.0734-19.777v-18.981h-19.768zm0-104.12 0.443 19.326 0.4429 19.326 17.252 0.4505c9.4888 0.248 18.185 0.093 19.326-0.3451 1.5538-0.5957 2.0734-5.5517 2.0734-19.777v-18.981h-19.768zm0.038 741.48h39.499v-72.666l-19.326 0.443-19.326 0.442-0.424 35.891zm0.8479-84.402 19.375 0.443 19.375 0.444-0.8866-38.75h-37.863v18.932zm0-45.75 17.252 0.45c9.4888 0.248 18.208 0.08 19.375-0.363 1.6527-0.634 2.0241-5.097 1.6791-20.171l-0.4433-19.358h-37.863v19.721zm0-47.328 17.252 0.45c9.4888 0.248 18.185 0.09 19.326-0.345 1.5542-0.597 2.0734-5.56 2.0734-19.825v-19.029l-19.326 0.442-19.326 0.444v18.931zm0-93.08 17.252 0.451c9.4888 0.248 18.208 0.08 19.375-0.363 1.6527-0.635 2.0241-5.097 1.6791-20.171l-0.4433-19.357h-37.863v19.721zm0-47.328 17.252 0.451c9.4888 0.247 18.185 0.09 19.326-0.345 1.5542-0.596 2.0734-5.561 2.0734-19.825v-19.029l-38.651 0.886v18.931zm0-47.328 38.749 0.886-0.4433-19.374-0.4433-19.375h-37.863v18.932zm0-45.751 17.252 0.451c9.4888 0.248 18.208 0.08 19.375-0.364 1.6527-0.634 2.0241-5.096 1.6791-20.17l-0.4433-19.357h-37.863v19.72zm0-94.657 19.375 0.443 19.375 0.444-0.4433-19.375-0.4433-19.374h-37.863v18.931zm0-45.751 17.252 0.4515c9.4888 0.247 18.208 0.083 19.375-0.3645 1.6527-0.6337 2.0241-5.0966 1.6791-20.171l-0.4433-19.357h-37.863v19.72zm48.02-190.1 0.4427 19.326 0.4431 19.326 17.252 0.4505c9.4889 0.248 18.186 0.093 19.326-0.3451 1.5538-0.5957 2.0734-5.5517 2.0734-19.777v-18.981h-19.769zm0 175.31 0.4422 19.226 0.4419 19.226 17.252 0.452c9.4887 0.248 18.186 0.09 19.326-0.345 3.1082-1.193 2.9532-36.529-0.1679-38.285-1.2324-0.6939-10.128-1.0399-19.768-0.7679zm0.037-8.0866h18.698c10.284 0 19.171-0.4736 19.749-1.0518 0.5784-0.5783 1.0519-16.893 1.0519-36.255 0-41.167 2.4516-37.253-22.876-36.513l-15.776 0.4607-0.4231 36.68zm0.058 574.04 4.3385 0.5c2.3862 0.273 11.279 0.273 19.762 0l15.423-0.501-0.4357-23.163-0.4361-23.165-19.326-0.443-19.326-0.442v23.607zm0-55.007h18.668c10.268 0 19.163-0.495 19.768-1.099 0.6046-0.605 0.9003-9.301 0.6574-19.326l-0.4418-18.227-19.326-0.442-19.326-0.443v19.768zm0-47.329h18.668c10.268 0 19.163-0.494 19.768-1.099 0.6046-0.604 0.9003-9.301 0.6574-19.325l-0.4418-18.227-19.326-0.443-19.326-0.442v19.768zm0-47.328h18.668c10.268 0 19.163-0.494 19.768-1.099 0.6046-0.604 0.9003-9.301 0.6574-19.326l-0.4418-18.226-38.652-0.886v19.769zm0-47.328h18.668c10.268 0 19.163-0.495 19.768-1.099 0.6046-0.605 0.9003-9.301 0.6574-19.326l-0.4418-18.226-38.652-0.886v19.768zm0.235-485.66v1.5904c0.01 2.0306 0.044 4.3425 0.1067 6.9644l0.4467 18.806 17.252 0.4505c9.4888 0.248 18.186 0.093 19.326-0.345 1.5473-0.5931 2.0734-5.4213 2.0734-19.026 0-18.119-0.025-18.241-4.047-19.77-4.8798-1.8549-30.625-2.0131-33.474-0.2054-1.1467 0.7272-1.6545 3.8893-1.6846 11.536zm0.035 426.19c0.019 7.128 0.3488 12.235 0.8646 12.308 5.3194 0.748 33.366 1.075 35.592 0.416 2.5259-0.748 2.7639-2.764 2.3663-20.036l-0.4418-19.205h-37.863l-0.443 19.326c-0.045 1.993-0.07 3.921-0.076 5.739v1.452zm0.5187-34.404 15.776 0.461c8.677 0.254 17.395 0.06 19.374-0.436 3.5316-0.882 3.5897-1.254 3.1552-20.182l-0.4426-19.284h-37.863v19.72zm0-47.329 17.252 0.451c9.4887 0.248 18.207 0.08 19.374-0.363 1.6528-0.635 2.0243-5.097 1.6791-20.171l-0.4431-19.357h-37.863v19.72zm0-47.328 17.252 0.451c9.4887 0.248 18.207 0.08 19.374-0.363 1.6528-0.635 2.0243-5.097 1.6791-20.172l-0.4431-19.357h-37.863v19.72zm0-47.328 17.252 0.45c9.4887 0.248 18.207 0.08 19.374-0.363 1.6528-0.634 2.0243-5.096 1.6791-20.171l-0.4431-19.357h-37.863v19.72zm0-47.328 17.252 0.45c9.4887 0.248 18.186 0.09 19.326-0.345 1.5536-0.596 2.0734-5.547 2.0734-19.746 0-22.368 1.5711-20.976-22.876-20.262l-15.776 0.462v19.72zm8.8683-9.307h1.1941c-0.1751 0.07-0.3746 0.103-0.5966 0.103-0.2223 0-0.4221-0.04-0.5975-0.103zm37.926 394.63c-0.01 8.085 0.4818 12.796 1.4627 13.978 1.3537 1.631 6.2292 2.198 18.906 2.198 14.604 0 17.315-0.4 18.69-2.761 2.5609-4.397 2.1562-34.34-0.4941-36.539-1.4547-1.208-8.2552-1.673-20.115-1.377l-17.916 0.448-0.4477 17.917c-0.056 2.223-0.084 4.269-0.086 6.136zm0-55.993c0 1.866 0.03 3.911 0.086 6.135l0.4477 17.917 17.916 0.448c11.859 0.296 18.66-0.169 20.115-1.377 2.6701-2.216 3.1256-31.463 0.5647-36.248-1.4605-2.729-3.4416-3.052-18.738-3.052-12.697 0-17.575 0.566-18.929 2.198-0.9809 1.181-1.4719 5.893-1.4628 13.979zm0-332.88c0 1.866 0.03 3.912 0.086 6.136l0.4477 17.916 18.123 0.45c15.672 0.389 18.393 0.08 20.114-2.273 2.4482-3.349 2.7274-30.927 0.3581-35.354-1.4605-2.73-3.4416-3.052-18.738-3.052-12.697 0-17.575 0.566-18.929 2.198-0.9809 1.182-1.4721 5.893-1.4628 13.979zm0-186.96c-0.01 8.0857 0.4818 12.796 1.4627 13.979 2.3967 2.8874 34.562 3.1501 37.407 0.3044 2.6452-2.645 2.564-32.871-0.098-36.512-1.7218-2.3545-4.4428-2.6616-20.114-2.273l-18.123 0.4496-0.4477 17.917c-0.056 2.2231-0.084 4.2695-0.086 6.1355zm0.036 374.55c-0.028 52.449 0.4172 73.636 1.4696 74.904 1.3014 1.569 6.3827 2.147 18.864 2.147 14.604 0 17.315-0.401 18.69-2.761 2.5571-4.391 2.2796-224.6-0.2875-228.11-1.7218-2.354-4.4428-2.662-20.114-2.273l-18.123 0.45-0.405 114.2c-0.056 15.573-0.087 29.341-0.093 41.444zm0 269.47c-0.018 14.216 0.3229 24.96 0.8704 25.508 0.6742 0.674 9.2939 1.335 19.155 1.47 13.622 0.186 18.256-0.271 19.291-1.904 1.7291-2.729 1.8001-66.139 0.077-68.855-0.9552-1.506-6.1058-1.91-20.09-1.578l-18.806 0.447-0.426 34.597c-0.044 3.568-0.068 7.034-0.071 10.315zm0.4971-147.46 18.806 0.446c13.984 0.333 19.135-0.07 20.09-1.577 0.7065-1.114 1.2846-9.124 1.2846-17.801s-0.5781-16.686-1.2846-17.8c-0.9552-1.505-6.1059-1.91-20.09-1.578l-18.806 0.447v18.931zm0-332.88 18.806 0.447c13.984 0.332 19.135-0.07 20.09-1.578 0.7065-1.1138 1.2846-9.1228 1.2846-17.8s-0.5781-16.688-1.2846-17.801c-0.9552-1.5061-6.1059-1.9104-20.09-1.5783l-18.806 0.4468v18.933zm0-47.328 18.806 0.4468c13.984 0.3322 19.135-0.074 20.09-1.5782 0.7065-1.113 1.2846-10.898 1.2846-21.744s-0.5781-20.631-1.2846-21.744c-0.9552-1.5051-6.1059-1.9104-20.09-1.5773l-18.806 0.4468v22.875zm0-55.217 18.806 0.4468c13.984 0.3321 19.135-0.074 20.09-1.5774 0.7065-1.1138 1.2846-9.1236 1.2846-17.8 0-8.6777-0.5781-16.688-1.2846-17.8-0.9552-1.5061-6.1059-1.9104-20.09-1.5783l-18.806 0.4469v18.932zm0-93.079 17.916 0.4477c11.859 0.2961 18.66-0.1693 20.115-1.3766 2.4592-2.0408 3.1864-32.145 0.8649-35.804-0.9552-1.5052-6.1059-1.9095-20.09-1.5773l-18.806 0.4468v18.931z" stroke-width="1.5776"/><rect x="7992.5" y="9946.5" width="26.517" height="384.49" rx="8.8388" ry="8.8388" fill="#808080" fill-rule="evenodd" style="paint-order:markers stroke fill"/></g><g transform="matrix(0 -.18337 .31248 0 5194.9 11004)" fill-rule="evenodd"><g transform="translate(-15692)"><path d="m17668 8084.4c-88.402 0-142.23 23.543-120.98 52.391 0 0 579.55 786.93 579.55 786.93 13.195 17.916 78.809 32.186 147.26 32.186h4157c68.45 0 134.06-14.27 147.26-32.186 0 0 579.55-786.93 579.55-786.93 21.245-28.848-32.581-52.391-120.98-52.391h-5368.6z" fill="#eaeaea" style="paint-order:markers stroke fill"/><path d="m17802 8182.5c-32.907 0-53.861 7.9885-47.013 17.865 0 0 477.21 688.24 477.21 688.24 4.541 6.5492 29.622 11.801 56.252 11.801h4127.1c26.63 0 51.711-5.2521 56.252-11.801 0 0 477.21-688.24 477.21-688.24 6.848-9.8768-14.106-17.865-47.013-17.865h-5100z" fill="#fff" style="paint-order:markers stroke fill"/></g><g transform="translate(-15692)"><path d="m17802 8182.5c-32.909 0-53.863 7.99-47.015 17.867 0 0 14.099 20.333 14.099 20.333h5165.8s14.099-20.333 14.099-20.333c6.848-9.8768-14.105-17.867-47.014-17.867h-5100z" fill="#666" style="paint-order:markers stroke fill"/><path d="m19525 8861.7c-9.24 0-16.068 2.2312-15.312 4.9983l5.356 19.581c0.746 2.7273 8.713 4.9191 17.866 4.9191h77.923c9.152 0 16-2.1918 15.353-4.9191l-4.645-19.581c-0.656-2.7671-8.624-4.9983-17.865-4.9983h-78.676zm143.2 0c-9.238 0-16.17 2.2312-15.542 4.9983l4.447 19.581c0.619 2.7273 8.484 4.9191 17.634 4.9191h77.921c9.153 0 16.103-2.1918 15.583-4.9191l-3.736-19.581c-0.528-2.7671-8.393-4.9983-17.634-4.9983h-78.673zm143.2 0c-9.241 0-16.277 2.2312-15.777 4.9983l3.538 19.581c0.493 2.7273 8.256 4.9191 17.408 4.9191h77.921c9.15 0 16.203-2.1918 15.809-4.9191l-2.827-19.581c-0.399-2.7671-8.161-4.9983-17.399-4.9983h-78.673zm143.2 0c-9.24 0-16.381 2.2312-16.009 4.9983l2.628 19.581c0.367 2.7273 8.029 4.9191 17.182 4.9191h77.918c9.152 0 16.305-2.1918 16.038-4.9191l-1.917-19.581c-0.271-2.7671-7.928-4.9983-17.169-4.9983h-78.671zm143.2 0c-9.239 0-16.483 2.2312-16.24 4.9983l1.719 19.581c0.24 2.7273 7.801 4.9191 16.952 4.9191h77.92c9.152 0 16.407-2.1918 16.266-4.9191l-1.008-19.581c-0.142-2.7671-7.696-4.9983-16.936-4.9983h-78.673zm143.2 0c-9.24 0-16.586 2.2312-16.471 4.9983l0.81 19.581c0.113 2.7273 7.571 4.9191 16.722 4.9191h77.921c9.15 0 16.506-2.1918 16.492-4.9191l-0.1-19.581c-0.01-2.7671-7.463-4.9983-16.702-4.9983h-78.673zm143.2 0c-9.24 0-16.69 2.2312-16.704 4.9983l-0.1 19.581c-0.01 2.7273 7.343 4.9191 16.495 4.9191h77.92c9.152 0 16.61-2.1918 16.723-4.9191l0.81-19.581c0.115-2.7671-7.232-4.9983-16.472-4.9983h-78.673zm143.2 0c-9.241 0-16.794 2.2312-16.937 4.9983l-1.008 19.581c-0.14 2.7273 7.114 4.9191 16.266 4.9191h77.92c9.151 0 16.712-2.1918 16.952-4.9191l1.719-19.581c0.243-2.7671-7.001-4.9983-16.24-4.9983h-78.672zm143.2 0c-9.238 0-16.896 2.2312-17.167 4.9983l-1.918 19.581c-0.267 2.7273 6.887 4.9191 16.037 4.9191h77.921c9.152 0 16.814-2.1918 17.18-4.9191l2.629-19.581c0.371-2.7671-6.768-4.9983-16.009-4.9983h-78.673zm143.2 0c-9.241 0-17.003 2.2312-17.402 4.9983l-2.827 19.581c-0.393 2.7273 6.659 4.9191 15.811 4.9191h77.921c9.15 0 16.914-2.1918 17.406-4.9191l3.538-19.581c0.5-2.7671-6.536-4.9983-15.774-4.9983h-78.673zm143.2 0c-9.24 0-17.105 2.2312-17.633 4.9983l-3.736 19.581c-0.52 2.7273 6.431 4.9191 15.582 4.9191h77.919c9.153 0 17.018-2.1918 17.637-4.9191l4.447-19.581c0.629-2.7671-6.303-4.9983-15.544-4.9983h-78.672zm143.2 0c-9.241 0-17.209 2.2312-17.865 4.9983l-4.645 19.581c-0.647 2.7273 6.201 4.9191 15.353 4.9191h77.92c9.151 0 17.119-2.1918 17.865-4.9191l5.356-19.581c0.757-2.7671-6.073-4.9983-15.312-4.9983h-78.672z" fill="#efefef" style="paint-order:markers stroke fill"/><g transform="matrix(1.408 0 0 1.408 -3156.4 7521.6)"><path d="m15008 535.98h2371.8c15.304 0 26.635 3.6256 25.41 8.1151l-91.265 334.26c-0.927 3.3976-12.346 6.1255-25.603 6.1255h-2054.6c-13.257 0-25.726-2.7279-27.963-6.1255 0 0-220.02-334.26-220.02-334.26-2.955-4.4895 6.979-8.1151 22.283-8.1151z" fill="#f9f9f9" style="paint-order:markers stroke fill"/><path d="m15008 535.98c-15.304 0-25.237 3.6257-22.282 8.1152l11.62 17.655h2403l4.82-17.655c1.226-4.4895-10.107-8.1152-25.411-8.1152h-2371.8z" fill="#666" style="paint-order:markers stroke fill"/><path transform="translate(-180 -1565.2)" d="m15891 2151.8c-6.449 0-10.933 1.8174-10.054 4.0711 0.877 2.2497 6.758 4.0581 13.187 4.0581h1573.7c6.43 0 12.037-1.8084 12.57-4.0581 0.534-2.2537-4.231-4.0711-10.682-4.0711h-1578.7zm6.979 22.436c-5.469 0-9.174 1.7856-8.311 4 0.862 2.2105 5.943 3.9873 11.395 3.9873h1334.5c5.453 0 10.102-1.7768 10.425-3.9873 0.324-2.2144-3.818-4-9.287-4h-1338.8zm10.166 22.046c-6.337 0-10.755 1.7546-9.906 3.9307 0.847 2.1722 6.614 3.9183 12.932 3.9183h1546.4c6.319 0 11.821-1.7461 12.336-3.9183 0.515-2.1761-4.174-3.9307-10.512-3.9307h-1551.2zm8.351 21.665c-6.283 0-10.668 1.7245-9.834 3.8632 0.833 2.135 6.544 3.8512 12.807 3.8512h1533.1c6.265 0 11.716-1.7162 12.222-3.8512 0.506-2.1387-4.146-3.8632-10.43-3.8632h-1537.9zm4.358 21.294c-4.097 0-6.733 1.6952-5.913 3.7975 0.819 2.0987 4.764 3.7857 8.847 3.7857h999.59c4.083 0 7.408-1.687 7.455-3.7857 0.05-2.1023-3.213-3.7975-7.309-3.7975h-1002.7zm11.918 20.933c-6.176 0-10.498 1.6665-9.692 3.7333 0.805 2.0634 6.408 3.722 12.566 3.722h1507.2c6.159 0 11.511-1.6586 12-3.722 0.49-2.0668-4.09-3.7333-10.268-3.7333h-1511.8zm7.933 20.581c-6.124 0-10.415 1.6386-9.623 3.6709 0.791 2.0288 6.343 3.6597 12.448 3.6597h1494.5c6.107 0 11.411-1.6309 11.892-3.6597 0.481-2.0323-4.064-3.6709-10.189-3.6709h-1499.1zm6.868 20.239c-5.557 0-9.401 1.6107-8.622 3.6092 0.778 1.9952 5.862 3.5991 11.404 3.5991h1356.4c5.542 0 10.298-1.6039 10.665-3.5991 0.367-1.9985-3.812-3.6092-9.371-3.6092h-1360.5zm8.604 19.903c-6.023 0-10.253 1.5849-9.487 3.5505 0.766 1.9624 6.215 3.54 12.22 3.54h1469.9c6.006 0 11.217-1.5776 11.682-3.54 0.465-1.9656-4.011-3.5505-10.035-3.5505h-1474.3zm7.546 19.577c-5.974 0-10.175 1.559-9.421 3.4926 0.753 1.9304 6.153 3.4822 12.109 3.4822h1457.9c5.957 0 11.122-1.5518 11.579-3.4822 0.458-1.9336-3.984-3.4926-9.959-3.4926h-1462.2zm1.407 19.258c-2.593 0-4.081 1.5337-3.339 3.436 0.741 1.8992 3.416 3.4259 6.001 3.4259h632.98c2.585 0 4.491-1.5267 4.272-3.4259-0.22-1.9023-2.486-3.436-5.079-3.436h-634.84zm13.318 18.947c-5.877 0-10.019 1.5091-9.289 3.3808 0.728 1.8687 6.032 3.371 11.892 3.371h1434.4c5.861 0 10.937-1.5023 11.38-3.371 0.443-1.8717-3.933-3.3808-9.811-3.3808h-1438.6zm1.267 18.644c-2.551 0-4.025 1.485-3.306 3.3269 0.717 1.839 3.34 3.3174 5.884 3.3174h622.88c2.543 0 4.422-1.4784 4.209-3.3174-0.212-1.8419-2.439-3.3269-4.991-3.3269h-624.67z" fill="#ddd" style="paint-order:markers stroke fill"/><path transform="translate(-180 -1565.2)" d="m15335 2149.3c-6.861 0-11.314 1.7604-9.989 3.9431 1.324 2.179 7.892 3.9301 14.732 3.9301h392.07c6.84 0 11.568-1.7511 10.601-3.9301-0.969-2.1827-7.272-3.9431-14.133-3.9431h-393.28zm71.408 17.715c-5.749 0-9.365 1.7361-8.11 3.8887 1.252 2.149 6.87 3.876 12.602 3.876h328.56c5.731 0 9.578-1.727 8.623-3.876-0.958-2.1526-6.359-3.8887-12.107-3.8887h-329.57zm7.827 17.471c-4.445 0-7.027 1.7122-5.79 3.8354 1.235 2.1196 5.796 3.823 10.228 3.823h254.09c4.433 0 7.193-1.7034 6.186-3.823-1.009-2.1232-5.403-3.8354-9.85-3.8354h-254.86zm7.207 17.233c-2.876 0-4.207 1.689-2.987 3.7833 1.218 2.0908 4.505 3.771 7.373 3.771h164.44c2.868 0 4.316-1.6802 3.244-3.771-1.073-2.0943-4.256-3.7833-7.132-3.7833h-164.94zm14.877 16.999c-5.632 0-9.194 1.6662-7.99 3.7322 1.201 2.0625 6.686 3.7201 12.302 3.7201h321.89c5.614 0 9.399-1.6576 8.481-3.7201-0.918-2.066-6.195-3.7322-11.826-3.7322h-322.86zm7.611 16.77c-4.436 0-7.048 1.643-5.86 3.6813 1.185 2.0349 5.696 3.6703 10.119 3.6703h253.53c4.423 0 7.209-1.6354 6.245-3.6703-0.964-2.0383-5.312-3.6813-9.748-3.6813h-254.29zm10.803 16.545c-5.081 0-8.224 1.621-7.053 3.6322 1.17 2.0078 6.186 3.6214 11.252 3.6214h290.39c5.065 0 8.406-1.6136 7.489-3.6214-0.918-2.0112-5.747-3.6322-10.828-3.6322h-291.25zm116.18 16.325c-2.911 0-4.393 1.5995-3.327 3.584 1.064 1.9813 4.254 3.5736 7.157 3.5736h166.42c2.903 0 4.5-1.5923 3.58-3.5736-0.922-1.9845-4.009-3.584-6.921-3.584h-166.91zm1.479 16.11c-2.449 0-3.567 1.5785-2.51 3.5369 1.056 1.9553 3.869 3.5274 6.311 3.5274h139.94c2.442 0 3.655-1.5721 2.72-3.5274-0.937-1.9584-3.663-3.5369-6.112-3.5369h-140.35zm9.325 15.898c-2.86 0-4.32 1.5579-3.277 3.4907 1.042 1.9297 4.174 3.4814 7.026 3.4814h163.48c2.852 0 4.424-1.5517 3.522-3.4814-0.904-1.9328-3.936-3.4907-6.797-3.4907h-163.95zm6.414 15.691c-1.721 0-2.274 1.5376-1.244 3.4453 1.028 1.9047 3.235 3.4362 4.951 3.4362h98.371c1.716 0 2.339-1.5315 1.394-3.4362-0.946-1.9077-3.095-3.4453-4.816-3.4453h-98.656zm10.352 15.488c-2.823 0-4.275 1.5178-3.259 3.4009 1.015 1.8801 4.097 3.3919 6.912 3.3919h161.36c2.816 0 4.377-1.5118 3.498-3.3919-0.881-1.8831-3.864-3.4009-6.688-3.4009h-161.83zm-88.878 15.288c-4.885 0-7.942 1.4984-6.859 3.3573 1.081 1.8561 5.87 3.3486 10.741 3.3486h279.21c4.871 0 8.11-1.4925 7.262-3.3486-0.848-1.8589-5.464-3.3573-10.348-3.3573h-280zm5.522 15.093c-3.072 0-4.682 1.4793-3.613 3.3146 1.068 1.8324 4.391 3.3058 7.454 3.3058h175.62c3.063 1e-4 4.789-1.4734 3.868-3.3058-0.923-1.8353-4.14-3.3146-7.212-3.3146h-176.11zm6.947 14.901c-2.11 0-2.958 1.4605-1.903 3.2726 1.054 1.8092 3.596 3.2641 5.7 3.2641h120.69c2.106 0 3.034-1.4549 2.08-3.2641-0.956-1.8121-3.426-3.2726-5.538-3.2726h-121.03zm11.655 14.713c-3.818 0-6.052 1.4422-5.01 3.2314 1.041 1.7866 4.944 3.2232 8.751 3.2232h218.32c3.808 0 6.181-1.4366 5.32-3.2232-0.863-1.7892-4.632-3.2314-8.451-3.2314h-218.93zm109.8 14.528c-2.153 0-3.12 1.4241-2.17 3.191 0.948 1.7642 3.436 3.1829 5.583 3.1829h123.04c2.147 0 3.194-1.4187 2.347-3.1829-0.849-1.7669-3.267-3.191-5.419-3.191h-123.38zm1.207 14.347c-1.867 0-2.611 1.4065-1.669 3.1514 0.94 1.7424 3.197 3.1434 5.058 3.1434h106.76c1.863 0 2.675-1.401 1.821-3.1434-0.855-1.7449-3.047-3.1514-4.915-3.1514h-107.06z" fill="#cacaca" fill-opacity=".91765" style="paint-order:markers stroke fill"/><path d="m17621 535.46h602.63c15.308 0 25.467 3.6271 22.787 8.1184l-199.51 334.39c-2.028 3.3988-14.331 6.1276-27.591 6.1276h-522.04c-13.26 0-22.996-2.7288-21.826-6.1276l115.11-334.39c1.546-4.4913 15.118-8.1184 30.425-8.1184z" fill="#f9f9f9" style="paint-order:markers stroke fill"/><path d="m17621 535.46c-15.307 0-28.878 3.6272-30.424 8.1185l-6.08 17.662h651.39l10.538-17.662c2.679-4.4913-7.481-8.1185-22.789-8.1185h-602.63z" fill="#666" style="paint-order:markers stroke fill"/><path transform="translate(-180 -1565.2)" d="m17830 2143.4c-15.056 0-28.445 3.5085-30.017 7.8539l-9.855 27.252c-1.533 4.2389 9.155 7.6406 23.96 7.6406h83.922c14.805 0 28.141-3.4017 29.905-7.6406l11.341-27.252c1.808-4.3454-8.855-7.8539-23.911-7.8539h-85.345zm-21.192 56.932c-14.722 0-27.787 3.3553-29.29 7.5102l-9.426 26.064c-1.466 4.0553 9.015 7.3107 23.497 7.3107h82.089c14.481 0 27.496-3.2554 29.183-7.3107 0 0 10.846-26.064 10.846-26.064 1.729-4.1549-8.728-7.5102-23.449-7.5102h-83.45zm-20.272 54.46c-14.402 0-27.158 3.2105-28.596 7.1872l-9.024 24.954c-1.405 3.8834 8.878 7.0003 23.05 7.0003h80.334c14.172 0 26.88-3.1169 28.496-7.0003l10.384-24.954c1.654-3.9767-8.605-7.1872-23.007-7.1872h-81.637zm-19.41 52.143c-14.096 0-26.556 3.0762-27.934 6.886l-8.647 23.911c-1.346 3.7223 8.743 6.7107 22.619 6.7107h78.653c13.875 0 26.291-2.9884 27.84-6.7107l9.95-23.911c1.585-3.8098-8.484-6.886-22.58-6.886h-79.901zm-18.602 49.973c-13.802 0-25.98 2.9488-27.302 6.6019l-8.294 22.934c-1.291 3.5709 8.614 6.4373 22.205 6.4373h77.041c13.59 0 25.726-2.8664 27.212-6.4373l9.544-22.934c1.52-3.6531-8.366-6.6019-22.168-6.6019h-78.238zm-17.843 47.934c-13.521 0-25.43 2.8305-26.697 6.3365l-7.962 22.014c-1.24 3.4286 8.487 6.1816 21.804 6.1816h75.493c13.318 0 25.187-2.753 26.614-6.1816l9.161-22.014c1.458-3.506-8.25-6.3365-21.771-6.3365h-76.642z" fill="#ebebeb" style="paint-order:markers stroke fill"/><path transform="translate(-180 -1565.2)" d="m17996 2147.8c-10.536 0-20.151 2.6321-21.555 5.8942-1.4 3.2538 5.918 5.8671 16.405 5.8671h321.12c10.487 0 20.423-2.6133 22.282-5.8671 1.864-3.2621-5.114-5.8942-15.65-5.8942h-322.6zm-11.492 20.017c-8.943 0-17.257 2.5911-18.639 5.8025-1.379 3.2032 4.68 5.7759 13.582 5.7759h272.56c8.902 0 17.486-2.5727 19.251-5.7759 1.769-3.2114-4.002-5.8025-12.945-5.8025h-273.81zm-13.354 36.725c-10.302 0-19.679 2.5168-21.022 5.636-1.339 3.1116 5.841 5.6115 16.097 5.6115h314.03c10.256 0 19.94-2.4999 21.718-5.6115 1.782-3.1192-5.074-5.636-15.376-5.636h-315.45zm-11.049 19.142c-8.745 0-16.853 2.4784-18.175 5.5502-1.319 3.0643 4.63 5.5263 13.337 5.5263h266.59c8.707 0 17.073-2.462 18.761-5.5263 1.693-3.0718-3.982-5.5502-12.728-5.5502h-267.79zm-12.719 35.139c-10.079 0-19.229 2.4088-20.514 5.3945-1.282 2.9783 5.766 5.3707 15.8 5.3707h307.25c10.035 0 19.48-2.3924 21.181-5.3707 1.706-2.9857-5.032-5.3945-15.11-5.3945h-308.6zm-10.633 18.324c-8.558 0-16.468 2.3729-17.734 5.3141-1.263 2.9341 4.581 5.2909 13.102 5.2909h260.88c8.521 0 16.678-2.3568 18.295-5.2909 1.62-2.9412-3.961-5.3141-12.519-5.3141h-262.02zm-12.126 33.652c-9.864 0-18.799 2.3077-20.031 5.1681-1.228 2.8536 5.693 5.1459 15.515 5.1459h300.75c9.822 0 19.039-2.2923 20.67-5.1459 1.634-2.8604-4.989-5.1681-14.854-5.1681h-302.05zm-10.242 17.557c-8.377 0-16.1 2.2739-17.313 5.0927-1.211 2.8121 4.532 5.0717 12.873 5.0717h255.41c8.341 0 16.302-2.2596 17.851-5.0717 1.553-2.8188-3.938-5.0927-12.315-5.0927h-256.5zm-11.57 32.259c-9.66 0-18.389 2.2128-19.57 4.9557-1.178 2.7365 5.62 4.9348 15.239 4.9348h294.53c9.619 0 18.619-2.1983 20.182-4.9348 1.568-2.7429-4.945-4.9557-14.605-4.9557h-295.77zm-9.875 16.838c-8.204 0-15.748 2.1812-16.912 4.8849-1.161 2.6976 4.483 4.8646 12.653 4.8646h250.16c8.17 0 15.942-2.167 17.428-4.8646 1.49-2.7037-3.914-4.8849-12.118-4.8849h-251.21zm-11.05 30.949c-9.463 0-17.995 2.1236-19.128 4.7562-1.131 2.6265 5.548 4.7365 14.972 4.7365h288.56c9.424 0 18.217-2.11 19.717-4.7365 1.504-2.6326-4.901-4.7562-14.364-4.7562h-289.75zm-9.528 16.161c-8.038 0-15.411 2.0939-16.528 4.6896-1.115 2.5898 4.434 4.671 12.44 4.671h245.12c8.006 0 15.597-2.0812 17.024-4.671 1.43-2.5957-3.887-4.6896-11.926-4.6896h-246.13z" fill="#efefef" style="paint-order:markers stroke fill"/></g></g></g></g><g><path d="m8425.2 10622c30.734 4.882 82.22-31.225 91.964-59.474s-8.9849-29.109-22.769-65.952c-13.784-36.844-21.364-153.82-62.218-154.17-40.854-0.354 17.038 51.422-30.785 72.632-47.823 21.211-160.56-77.262-221.94-77.262-61.381 0 125.21 82.079 125.21 82.079s-119.15-58.604-156.85-48.5c-37.709 10.104 123 78.252 123 78.252s-105.5-52.82-121.04-37.285c-15.535 15.534 123.51 70.301 123.51 70.301s-85.67-27.44-99.236-3.944c-13.566 23.497 162.91 53.903 202.51 83.379 39.601 29.475 17.908 55.062 48.643 59.944z" fill="#feb280"/><path d="m8449.3 9730c30.951 3.2392 71.337 51.442 73.438 81.25s-16.213 25.792-39.062 57.812-60.446 143.04-100 132.81c-39.554-10.232 29.766-45.26-10.938-78.125s-175.09 33.074-234.38 17.188 142.19-46.875 142.19-46.875-130.25 25.77-164.06 6.25 139.06-43.75 139.06-43.75-115.58 23.714-126.56 4.6875 137.5-35.938 137.5-35.938-89.853 4.332-96.875-21.875 171.31-9.9037 217.19-28.125 31.549-48.552 62.5-45.312z" fill="#feb280"/><path d="m8395.7 9913.5c39.514-44.244 141.39-38.494 180.36 6.012 38.965 44.505-23.058 107.97-17.284 173.6 5.775 65.625-131.85 59.763-137.52-6.012-5.676-65.775-65.065-129.35-25.55-173.6z" fill="#feb280"/><path d="m8402.4 10350c39.514 44.244 141.39 38.494 180.36-6.012 38.965-44.505-23.058-107.97-17.284-173.59 5.775-65.625-131.85-59.763-137.52 6.012-5.676 65.775-65.065 129.35-25.55 173.59z" fill="#feb280"/><path d="m8633.3 9764.2c-67.357 67.828-121.53 99.437-121.53 99.437-46.789-34.93-98.168-66.992-99.437-130.37 7.5317-90.068 237.9-257.06 276.21-258.54 69.183-2.6615 196.03 90.399 276.21 203.29s139.79 150.68 143.63 466.25c25.936 160.89-31.09 352.64-106.07 466.25s-143.21 197.44-274 198.87-354.81-154.37-366.81-254.12c14.538-62.466 54.111-95.724 103.86-117.12 57.571-8.382 84.131 60.314 163.52 101.65-62.034-294.54-3.3534-706.43 4.4194-775.61z" fill="#ce493a"/><path d="m8633.3 9764.2c-29.118 0.5444 23.671-199.25 70.711-243.07-115.51-59.709-295.7 210.12-291.68 212.13 0 0 25.011-174.64 276.21-258.54 65.669-21.932 196.03 90.399 276.21 203.29s139.79 150.68 143.63 466.25c25.936 160.89-31.09 352.64-106.07 466.25s-173.53 243.55-287.26 209.92c-315.76-98.482-355.75-266.63-353.55-265.16 43.403 100.4 319.24 289.06 413.22 209.92-145.79-129.12-98.276-150.84-145.84-225.39 64.391 39.464 80.449 191.93 194.4 115.62-131.87-281.58-47.978-493.86 7.0246-517.23 54.802-13.176-193.64-379.59-94.792-530.22-4.6383-88.128-122.65 94.23-102.21 156.21z" fill="#ad3d32"/><path d="m8964.8 9678s139.79 150.68 143.63 466.25c23.726 280.22-106.07 466.25-106.07 466.25s97.253-411.98 20.226-505.46c57.765-244.85-57.792-427.03-57.792-427.03z" fill="#a4352c"/><path d="m8815.6 10005c65.048 58.095 56.593 207.88-8.8388 265.16s-158.74-33.901-255.22-25.411-87.864-193.84 8.8389-202.19 190.17-95.66 255.22-37.565z" fill="#feb280"/><path d="m8707.8 10280s125 55.544 125-156.25c0-211.79-156.25-112.5-156.25-112.5s190.62-138.97 190.62 110.94c0 249.91-159.38 157.81-159.38 157.81z" fill="#f4f4f4"/><path d="m8725.6 10230c-37.568 43.734-273.38 191.01-385.46 156.89s-164.11-112.9-192.24-185.62c-59.938-149 74.384-292.87 132.58-315.99 141.01-50.006 392.49 93.214 429.65 130.37 39.368 63.675 39.778 137.46 15.468 214.34z" fill="#4d4d4d"/><path d="m8725.6 10230c-37.568 43.734-226.01 162.28-331.46 156.89-105.44-5.393-164.11-112.9-192.24-185.62s11.752-96.504 33.146-150.26c21.394-53.756 6.8621-132.13 99.437-165.73s338.49 93.214 375.65 130.37c33.844 74.724 39.778 137.46 15.468 214.34z" fill="#333"/></g></g></g></svg>
